<svg width="16" height="15" viewBox="0 0 16 15" fill="none" xmlns="http://www.w3.org/2000/svg">
<path fill-rule="evenodd" clip-rule="evenodd" d="M15.0711 8.34315L8.70713 14.7071C8.31661 15.0976 7.68344 15.0976 7.29292 14.7071L0.928954 8.34315C0.53843 7.95262 0.53843 7.31946 0.928954 6.92893C1.31948 6.53841 1.95264 6.53841 2.34317 6.92893L7.00002 11.5858L7.00002 3.656e-07L9.00002 2.78178e-07L9.00002 11.5858L13.6569 6.92893C14.0474 6.53841 14.6806 6.53841 15.0711 6.92893C15.4616 7.31946 15.4616 7.95262 15.0711 8.34315Z" fill=""/>
<path fill-rule="evenodd" clip-rule="evenodd" d="M15.0711 8.34315L8.70713 14.7071C8.31661 15.0976 7.68344 15.0976 7.29292 14.7071L0.928954 8.34315C0.53843 7.95262 0.53843 7.31946 0.928954 6.92893C1.31948 6.53841 1.95264 6.53841 2.34317 6.92893L7.00002 11.5858L7.00002 3.656e-07L9.00002 2.78178e-07L9.00002 11.5858L13.6569 6.92893C14.0474 6.53841 14.6806 6.53841 15.0711 6.92893C15.4616 7.31946 15.4616 7.95262 15.0711 8.34315Z" fill=""/>
</svg>
