<svg viewBox="0 0 21 25" fill="none" xmlns="http://www.w3.org/2000/svg">
  <g clip-path="url(#clip0)" fill="#887CBD">
    <path d="M19.3 25H1.5C.7 25 0 24.3 0 23.5v-22C0 .7.7 0 1.5 0h12c.4 0 .8.2 1.1.4l5.8 5.8c.3.3.4.7.4 1.1v16.2c0 .8-.7 1.5-1.5 1.5zM2 23h16.8V7.5L13.3 2H2v21z"/>
    <path d="M15.8 14.3c-.8-.5-2.2-.6-3.9-.4-.5-.6-1.1-1.3-1.5-2 .5-1.7.7-3.2.5-4.3-.3-1.3-1.1-1.5-1.6-1.6-.9-.1-1.5.4-1.7 1.2-.3 1.1.4 3 1.5 4.8-.1.5-.3 1-.5 1.4-.2.4-.3.8-.5 1.2-1.5.5-2.8 1.1-3.4 1.8-.6.7-.5 1.5.2 2.2.3.3.6.4.9.4.2 0 .5-.1.7-.2.8-.4 1.7-1.7 2.5-3.2.8-.2 1.7-.4 2.5-.5.7.8 1.5 1.4 2.2 1.7 1.1.5 2 .3 2.6-.6v-.1c.3-.7.1-1.4-.5-1.8zM6 17.8c-.2.1-.2.1-.2 0-.3-.3-.2-.4-.1-.6.3-.4.9-.8 1.7-1.1-.5.8-1 1.5-1.4 1.7zM8.7 7.4c0-.1.1-.3.4-.3h.1c.1 0 .4 0 .5.6.1.6.1 1.5-.2 2.6-.6-1.1-.9-2.3-.8-2.9zm.9 6.8c.1-.3.3-.6.4-1 .2.3.4.5.6.8-.4.1-.7.2-1 .2zm5.7 1.4c-.1.2-.4.5-1.1.1-.4-.2-.7-.4-1.1-.7 1 0 1.7.1 2.2.3v.3z"/>
  </g>
  <defs>
    <clipPath id="clip0">
      <path d="M0 0h20.8v25H0V0z" fill="#fff"/>
    </clipPath>
  </defs>
</svg>
