<svg width="52"
     height="47"
     viewBox="0 0 52 47"
     fill="none"
     xmlns="http://www.w3.org/2000/svg">
  <path fill-rule="evenodd"
        clip-rule="evenodd"
        d="M0 6.72832C0 2.97604 2.94772 0.0283203 6.7 0.0283203H45.3C49.0523 0.0283203 52 2.97604 52 6.72832V34.0283C52 37.792 48.9408 40.7283 45.3 40.7283H31.7C31.654 40.7283 31.6202 40.7306 31.5962 40.7334C31.5878 40.7444 31.5792 40.7552 31.5704 40.7659L26.7704 46.5659C26.5804 46.7954 26.298 46.9283 26 46.9283C25.702 46.9283 25.4196 46.7954 25.2296 46.5659L20.4296 40.7659C20.4235 40.7585 20.4175 40.7511 20.4117 40.7436C20.401 40.7404 20.3875 40.7372 20.3717 40.7345C20.3459 40.7302 20.3207 40.7283 20.3 40.7283H6.7C2.93632 40.7283 0 37.6691 0 34.0283V6.72832ZM6.7 2.02832C4.05228 2.02832 2 4.0806 2 6.72832V34.0283C2 36.5875 4.06368 38.7283 6.7 38.7283H20.3C20.7149 38.7283 21.5147 38.8514 21.9967 39.5225L26 44.3599L30.0021 39.524C30.4611 38.8774 31.1388 38.7283 31.7 38.7283H45.3C47.8592 38.7283 50 36.6646 50 34.0283V6.72832C50 4.08061 47.9477 2.02832 45.3 2.02832H6.7Z"
        fill="white"/>
  <path fill-rule="evenodd"
        clip-rule="evenodd"
        d="M22 10.3283C21.6523 10.3283 21.3 10.6806 21.3 11.0283V14.3283H26C26.5523 14.3283 27 14.776 27 15.3283C27 15.8806 26.5523 16.3283 26 16.3283H17.9C17.5523 16.3283 17.2 16.6806 17.2 17.0283V27.9283C17.2 28.276 17.5523 28.6283 17.9 28.6283H32.6C32.9477 28.6283 33.3 28.276 33.3 27.9283V17.0283C33.3 16.6806 32.9477 16.3283 32.6 16.3283H30.2C29.6477 16.3283 29.2 15.8806 29.2 15.3283V11.0283C29.2 10.6806 28.8477 10.3283 28.5 10.3283H22ZM19.3 14.3283V11.0283C19.3 9.57604 20.5477 8.32832 22 8.32832H28.5C29.9523 8.32832 31.2 9.57604 31.2 11.0283V14.3283H32.6C34.0523 14.3283 35.3 15.576 35.3 17.0283V27.9283C35.3 29.3806 34.0523 30.6283 32.6 30.6283H17.9C16.4477 30.6283 15.2 29.3806 15.2 27.9283V17.0283C15.2 15.576 16.4477 14.3283 17.9 14.3283H19.3Z"
        fill="white"/>
</svg>
