<svg xmlns="http://www.w3.org/2000/svg" width="41" height="36" viewBox="0 0 41 36" fill="none">
<path fill-rule="evenodd" clip-rule="evenodd" d="M22.5547 0.234233C22.9781 0.445939 23.1498 0.960801 22.9381 1.38421L21.4809 4.2985C21.2692 4.72191 20.7543 4.89353 20.3309 4.68182C19.9075 4.47012 19.7359 3.95526 19.9476 3.53185L21.4047 0.617559C21.6165 0.194149 22.1313 0.0225284 22.5547 0.234233ZM12.4756 3.43582C12.2581 3.01535 11.7409 2.8508 11.3204 3.06829C10.9 3.28577 10.7354 3.80294 10.9529 4.22341L12.2386 6.70912C12.4561 7.12959 12.9733 7.29414 13.3937 7.07666C13.8142 6.85917 13.9788 6.34201 13.7613 5.92154L12.4756 3.43582ZM25.3427 8.26604C25.1786 7.86486 24.7931 7.60042 24.3141 7.60042C23.6732 7.60042 23.1998 8.07381 23.1998 8.7147V16.1719C23.1998 16.6403 22.8241 17.021 22.3575 17.0289L22.3411 17.0294L22.3231 17.0296C21.86 17.0296 21.4846 16.6458 21.4846 16.1724V10.7724C21.4846 10.1315 21.0215 9.65815 20.3945 9.65815C19.7676 9.65815 19.3045 10.1315 19.3045 10.7724V13.6039C19.3294 13.6843 19.3429 13.7697 19.3429 13.8583V20.7154C19.3429 24.3829 22.7549 27.4868 26.5429 27.4868C29.26 27.4868 31.7111 25.7435 32.7862 23.2861L32.9069 23.0102L33.1737 22.8704C34.0695 22.4012 35.309 21.7387 36.3267 21.1924C36.8351 20.9194 37.2873 20.6759 37.6125 20.5007L38.1228 20.2253C39.0059 19.7055 39.1446 18.7229 38.7629 18.055C38.5792 17.7335 38.2744 17.4871 37.845 17.4016C37.4078 17.3145 36.7521 17.3786 35.8721 17.8654L35.8663 17.8686L33.3143 19.2297V8.97256C33.3143 8.33166 32.8409 7.85827 32.2 7.85827C31.5591 7.85827 31.0857 8.33166 31.0857 8.97256V16.1726C31.0857 16.6459 30.702 17.0297 30.2286 17.0297C30.2122 17.0297 30.1959 17.0292 30.1797 17.0283C30.1674 17.0289 30.1551 17.0291 30.1427 17.0291C29.6693 17.0291 29.2856 16.6454 29.2856 16.172V6.91483C29.2856 6.27393 28.8122 5.80054 28.1713 5.80054C27.5304 5.80054 27.057 6.27393 27.057 6.91483V8.00647C27.113 8.23206 27.1427 8.46924 27.1427 8.7147V16.1719C27.1427 16.6452 26.7589 17.029 26.2855 17.029C26.2774 17.029 26.2693 17.0289 26.2612 17.0287L26.2439 17.028C26.2293 17.0287 26.2146 17.0291 26.1999 17.0291C25.7265 17.0291 25.3427 16.6454 25.3427 16.172V8.26604ZM17.6275 13.8581C17.6275 13.8728 17.6279 13.8873 17.6286 13.9017V20.7154C17.6286 25.4479 21.9309 29.2011 26.5429 29.2011C29.8899 29.2011 32.843 27.136 34.2284 24.2529C35.102 23.7932 36.2137 23.1987 37.1376 22.7028C37.647 22.4293 38.1002 22.1853 38.4259 22.0096L38.9504 21.7266L38.962 21.7204L38.9733 21.7138C40.7381 20.6891 41.0682 18.6339 40.2514 17.2044C39.835 16.4759 39.1221 15.908 38.18 15.7203C37.2474 15.5345 36.1802 15.7372 35.0481 16.3621L35.0286 16.3726V8.97256C35.0286 7.38489 33.7877 6.14399 32.2 6.14399C31.7519 6.14399 31.3315 6.24283 30.9587 6.42042C30.7316 5.07691 29.5899 4.08626 28.1713 4.08626C26.8622 4.08626 25.7888 4.92994 25.4525 6.11605C25.1059 5.9678 24.7214 5.88613 24.3141 5.88613C22.9081 5.88613 21.774 6.85935 21.5329 8.18476C21.1875 8.02957 20.8027 7.94386 20.3945 7.94386C18.8414 7.94386 17.6275 9.18476 17.6275 10.7724V13.8581ZM9.7427 22.6861C9.7427 22.7158 9.74422 22.7451 9.74716 22.774C9.74961 22.7982 9.75306 22.822 9.75747 22.8455C9.83205 23.2429 10.1808 23.5436 10.5999 23.5436C11.0733 23.5436 11.457 23.1598 11.457 22.6864V13.4293C11.457 12.7884 11.9304 12.315 12.5713 12.315C13.2122 12.315 13.6856 12.7884 13.6856 13.4293V22.6864C13.6856 23.1598 14.0694 23.5436 14.5427 23.5436C15.0161 23.5436 15.3999 23.1598 15.3999 22.6864V13.4293C15.3999 11.8416 14.159 10.6007 12.5713 10.6007C11.1658 10.6007 10.0321 11.5731 9.79041 12.8977C9.43772 12.743 9.04501 12.6576 8.62842 12.6576C7.04074 12.6576 5.79985 13.8985 5.79985 15.4861V22.9719L5.78029 22.9614C4.6508 22.3379 3.58678 22.1298 2.65637 22.306C1.71504 22.4844 0.998342 23.0419 0.578957 23.7683C-0.246656 25.1984 0.101646 27.2387 1.83765 28.3027L1.8575 28.3148L1.87857 28.3262L2.40248 28.6089C2.72825 28.7846 3.18138 29.0286 3.69085 29.3021C4.6146 29.798 5.7262 30.3923 6.59969 30.852C7.97795 33.7305 10.8503 35.8004 14.2856 35.8004C17.5061 35.8004 20.5336 34.0082 22.0583 31.34C22.2932 30.929 22.1504 30.4054 21.7394 30.1705C21.3284 29.9356 20.8048 30.0784 20.5699 30.4895C19.3518 32.6212 16.8936 34.0861 14.2856 34.0861C11.4881 34.0861 9.1197 32.3481 8.04227 29.8854L7.92153 29.6095L7.65471 29.4697C6.7589 29.0005 5.51937 28.338 4.5017 27.7917C3.99331 27.5187 3.54108 27.2752 3.21596 27.1L2.71525 26.8298C1.81072 26.2632 1.69169 25.2696 2.06359 24.6254C2.24421 24.3126 2.54536 24.0718 2.97547 23.9904C3.41486 23.9071 4.07376 23.9765 4.95636 24.4647L4.96211 24.4679L7.51413 25.829V15.4861C7.51413 14.8452 7.98752 14.3719 8.62842 14.3719C9.26932 14.3719 9.7427 14.8452 9.7427 15.4861V22.6861ZM2.28556 27.5719C1.87797 28.3259 1.87855 28.3262 1.87857 28.3262L2.28556 27.5719ZM17.5428 1.08665C17.5428 0.613262 17.159 0.229506 16.6856 0.229506C16.2122 0.229506 15.8285 0.613262 15.8285 1.08665V6.31522C15.8285 6.78861 16.2122 7.17236 16.6856 7.17236C17.159 7.17236 17.5428 6.78861 17.5428 6.31522V1.08665Z"/>
</svg>