<svg width="61" height="61" viewBox="0 0 61 61" fill="none" xmlns="http://www.w3.org/2000/svg">
<rect x="1.02344" y="1.25879" width="59" height="59" rx="29.5" fill="white" stroke="#EAE7FB"/>
<path d="M46.4547 20.6195V41.6817C46.4547 42.2178 46.0335 42.639 45.4973 42.639H33.1855C32.8217 39.2308 33.1472 33.927 34.0089 32.1079H28.2646C28.2646 28.1061 30.1219 23.0129 31.9984 19.6621H45.4973C46.0335 19.6621 46.4547 20.0834 46.4547 20.6195Z" fill="#CFD8DC"/>
<path d="M33.1851 42.639H16.7757C16.2396 42.639 15.8184 42.2178 15.8184 41.6817V20.6195C15.8184 20.0834 16.2396 19.6621 16.7757 19.6621H31.9979C30.1215 23.0129 28.2642 28.1061 28.2642 32.1079H34.0084C33.1468 33.927 32.8213 39.2308 33.1851 42.639Z" fill="#2196F3"/>
<path d="M33.9834 46.4583C33.8619 46.4586 33.7417 46.4347 33.6296 46.388C33.5175 46.3413 33.4158 46.2728 33.3304 46.1864C31.7297 44.5857 31.7986 36.8367 32.6986 33.0647H28.264C28.0101 33.0647 27.7666 32.9638 27.587 32.7843C27.4075 32.6047 27.3066 32.3612 27.3066 32.1073C27.3066 26.3229 30.9044 18.5394 33.3304 16.1115C33.511 15.9371 33.7528 15.8406 34.0038 15.8428C34.2549 15.845 34.495 15.9457 34.6725 16.1232C34.85 16.3007 34.9507 16.5408 34.9529 16.7918C34.955 17.0428 34.8585 17.2847 34.6841 17.4652C32.8766 19.2747 29.6273 25.8825 29.2559 31.1499H34.0082C34.1691 31.15 34.3274 31.1906 34.4684 31.2681C34.6094 31.3455 34.7287 31.4572 34.8151 31.5929C34.9015 31.7285 34.9524 31.8838 34.963 32.0443C34.9736 32.2049 34.9435 32.3655 34.8756 32.5113C33.7019 35.0215 33.7478 43.793 34.6861 44.8346C34.8463 44.8342 35.0041 44.8736 35.1452 44.9494C35.2863 45.0252 35.4064 45.135 35.4945 45.2687C35.5827 45.4025 35.6361 45.5561 35.65 45.7157C35.6639 45.8753 35.6379 46.0359 35.5743 46.1829C35.5107 46.3299 35.4114 46.4588 35.2855 46.5579C35.1597 46.657 35.0111 46.7232 34.8532 46.7505C34.6954 46.7778 34.5332 46.7654 34.3813 46.7144C34.2295 46.6634 34.0927 46.5754 33.9834 46.4583Z" fill="#374B54"/>
<path d="M31.136 38.8079C29.3132 38.8079 26.0026 38.289 22.1789 36.83C22.0598 36.7863 21.9505 36.7195 21.8575 36.6333C21.7644 36.547 21.6894 36.4432 21.6369 36.3277C21.5843 36.2123 21.5552 36.0876 21.5512 35.9608C21.5473 35.834 21.5686 35.7077 21.6139 35.5892C21.6592 35.4707 21.7276 35.3624 21.8151 35.2706C21.9026 35.1787 22.0075 35.1052 22.1236 35.0543C22.2398 35.0033 22.3649 34.9759 22.4918 34.9738C22.6186 34.9716 22.7446 34.9947 22.8624 35.0416C26.4468 36.4087 29.5602 36.8932 31.136 36.8932C32.7119 36.8932 35.8252 36.4087 39.4116 35.0416C39.9017 34.8501 40.4589 35.0971 40.6466 35.595C40.6918 35.7123 40.7133 35.8375 40.71 35.9633C40.7066 36.089 40.6784 36.2128 40.627 36.3276C40.5755 36.4424 40.5019 36.5459 40.4103 36.6321C40.3187 36.7183 40.2109 36.7856 40.0932 36.83C36.2695 38.289 32.9589 38.8079 31.136 38.8079Z" fill="#374B54"/>
<path d="M24.4349 27.3207C24.181 27.3207 23.9375 27.2198 23.7579 27.0403C23.5784 26.8607 23.4775 26.6172 23.4775 26.3633V24.4486C23.4775 24.1947 23.5784 23.9512 23.7579 23.7716C23.9375 23.5921 24.181 23.4912 24.4349 23.4912C24.6888 23.4912 24.9323 23.5921 25.1119 23.7716C25.2914 23.9512 25.3923 24.1947 25.3923 24.4486V26.3633C25.3923 26.6172 25.2914 26.8607 25.1119 27.0403C24.9323 27.2198 24.6888 27.3207 24.4349 27.3207Z" fill="#374B54"/>
<path d="M35.9232 27.3207C35.6693 27.3207 35.4258 27.2198 35.2462 27.0403C35.0667 26.8607 34.9658 26.6172 34.9658 26.3633V24.4486C34.9658 24.1947 35.0667 23.9512 35.2462 23.7716C35.4258 23.5921 35.6693 23.4912 35.9232 23.4912C36.1771 23.4912 36.4206 23.5921 36.6002 23.7716C36.7797 23.9512 36.8806 24.1947 36.8806 24.4486V26.3633C36.8806 26.6172 36.7797 26.8607 36.6002 27.0403C36.4206 27.2198 36.1771 27.3207 35.9232 27.3207Z" fill="#374B54"/>
</svg>
