<svg xmlns="http://www.w3.org/2000/svg" width="42" height="43" viewBox="0 0 42 43" fill="none">
<path fill-rule="evenodd" clip-rule="evenodd" d="M18.6859 4.857C18.6859 3.43684 19.8372 2.28557 21.2573 2.28557C22.6775 2.28557 23.8288 3.43684 23.8288 4.857C23.8288 6.27716 22.6775 7.42843 21.2573 7.42843C19.8372 7.42843 18.6859 6.27716 18.6859 4.857ZM21.2573 0.571289C18.9773 0.571289 17.1132 2.3517 16.9793 4.59808C10.8443 6.10919 5.96666 10.9867 4.45539 17.1217C2.20907 17.2556 0.428711 19.1197 0.428711 21.3997C0.428711 23.6796 2.20903 25.5438 4.45533 25.6777C5.96916 31.819 10.8569 36.6184 16.9847 38.1951C17.1571 40.404 19.0042 42.1427 21.2573 42.1427C23.5105 42.1427 25.3576 40.4039 25.5299 38.195C31.6641 36.6154 36.4729 31.8065 38.0525 25.6723C40.2614 25.4999 42.0001 23.6529 42.0001 21.3997C42.0001 19.1465 40.2613 17.2994 38.0523 17.1271C36.4732 10.9951 31.667 6.18758 25.5358 4.60645C25.4061 2.35613 23.5402 0.571289 21.2573 0.571289ZM17.1982 36.4783C17.7722 34.7877 19.3727 33.5713 21.2573 33.5713C23.1419 33.5713 24.7423 34.7877 25.3164 36.4781C30.6726 35.0178 34.8754 30.815 36.3356 25.4588C34.6451 24.8847 33.4287 23.2843 33.4287 21.3997C33.4287 19.5152 34.6451 17.9147 36.3355 17.3407C34.8726 11.9755 30.6581 7.76768 25.2889 6.3143C24.6925 7.96384 23.1126 9.14272 21.2573 9.14272C19.3985 9.14272 17.816 7.9593 17.2223 6.30477C11.84 7.69609 7.55358 11.9824 6.1621 17.3646C7.81667 17.9583 9.00014 19.5408 9.00014 21.3997C9.00014 23.2586 7.81668 24.841 6.16211 25.4347C7.54937 30.7936 11.818 35.0136 17.1982 36.4783ZM18.6859 37.857C18.6859 36.4368 19.8372 35.2856 21.2573 35.2856C22.6775 35.2856 23.8288 36.4368 23.8288 37.857C23.8288 39.2772 22.6775 40.4284 21.2573 40.4284C19.8372 40.4284 18.6859 39.2772 18.6859 37.857ZM37.7144 18.8283C36.2943 18.8283 35.143 19.9795 35.143 21.3997C35.143 22.8199 36.2943 23.9711 37.7144 23.9711C39.1346 23.9711 40.2859 22.8199 40.2859 21.3997C40.2859 19.9795 39.1346 18.8283 37.7144 18.8283ZM2.143 21.3997C2.143 19.9795 3.29426 18.8283 4.71443 18.8283C6.13459 18.8283 7.28585 19.9795 7.28585 21.3997C7.28585 22.8199 6.13459 23.9711 4.71443 23.9711C3.29426 23.9711 2.143 22.8199 2.143 21.3997ZM21.01 13.1217C21.1757 13.0717 21.3527 13.0732 21.5177 13.1257L27.4426 15.0149C27.9157 15.1726 28.4573 15.5923 28.4573 16.3424V21.8281C28.4573 24.5837 26.5188 26.4363 24.9042 27.5127C24.0738 28.0663 23.2512 28.4323 22.6459 28.692C22.2632 28.8815 21.77 29.0797 21.254 29.1829C21.143 29.2051 21.0287 29.2051 20.9178 29.1829C20.4934 29.098 20.109 28.9362 19.7925 28.8029L19.7918 28.8026L19.7914 28.8024C19.7124 28.7692 19.6376 28.7377 19.5675 28.7096L19.5482 28.7017C18.9409 28.4414 18.1083 28.0732 17.2675 27.5127C15.6529 26.4363 13.7144 24.5837 13.7144 21.8281V16.3424C13.7144 15.5923 14.256 15.1726 14.7291 15.0149C14.737 15.0123 14.7449 15.0098 14.7528 15.0074L21.01 13.1217ZM15.4287 16.5942V21.8281C15.4287 23.7011 16.7473 25.1056 18.2185 26.0863C18.9169 26.552 19.6233 26.8686 20.2141 27.1219C20.3429 27.1736 20.4529 27.2195 20.5508 27.2605L20.5509 27.2605L20.5509 27.2605C20.7644 27.3497 20.9204 27.4149 21.0883 27.4621C21.3674 27.3882 21.6537 27.2716 21.9025 27.1472C21.9175 27.1397 21.9328 27.1326 21.9482 27.126C22.5409 26.872 23.2511 26.5544 23.9533 26.0863C25.4244 25.1056 26.743 23.7011 26.743 21.8281V16.5911L21.2501 14.8398L15.4287 16.5942ZM24.3491 20.3777C24.6839 20.043 24.6839 19.5003 24.3491 19.1655C24.0144 18.8308 23.4717 18.8308 23.1369 19.1655L20.4002 21.9023L19.292 20.7941C18.9573 20.4594 18.4145 20.4594 18.0798 20.7941C17.7451 21.1288 17.7451 21.6716 18.0798 22.0063L19.7941 23.7206C20.1288 24.0553 20.6715 24.0553 21.0063 23.7206L24.3491 20.3777Z" />
</svg>