<svg width="76" height="70" viewBox="0 0 76 70" fill="none" xmlns="http://www.w3.org/2000/svg">
<path d="M39.9211 29.342C43.0457 34.6006 46.0407 39.6931 49.0961 44.7463C49.8802 46.0444 50.2693 47.1009 49.642 48.7491C47.9107 53.3043 50.3538 57.7387 54.9443 58.9401C59.2724 60.0752 63.4919 57.2285 64.3485 52.5888C65.1086 48.4834 61.9266 44.4596 57.4024 43.8166C57.0224 43.7622 56.6363 43.7562 55.9999 43.7079L49.1202 32.1615C53.4483 27.8538 56.0241 22.8217 55.454 16.5851C55.0499 12.1748 53.3186 8.36527 50.1517 5.24094C44.0893 -0.739056 34.8359 -1.70805 27.6968 2.88335C20.8381 7.29364 17.6984 15.8818 20.3737 23.2322C22.3914 22.6859 24.4243 22.1334 26.6592 21.5267C25.8177 17.4394 26.4391 13.7687 29.1958 10.6263C31.0145 8.5494 33.352 7.46268 36.0061 7.0612C41.3296 6.25521 46.5565 9.67839 48.1068 14.9067C49.8652 20.8414 47.2019 25.6894 39.9211 29.342Z" fill="#C73A63"/>
<path d="M30.9964 23.1236C28.7946 27.0117 26.5597 30.9571 24.3428 34.8662C13.144 31.3978 4.70193 37.6042 1.67073 44.2453C-1.9878 52.2689 0.512554 61.7717 7.69994 66.7223C15.0743 71.8027 24.4032 70.9364 30.936 64.407C29.2712 63.0124 27.5972 61.6117 25.8087 60.1144C19.3542 64.2983 13.7111 64.1021 9.51866 59.1454C5.94457 54.9193 6.02299 48.6163 9.69963 44.4807C13.9433 39.7052 19.6287 39.5603 26.4994 44.1426C29.3496 39.0803 32.2481 34.0603 35.0108 28.9647C35.9428 27.2471 36.9683 26.2509 39.0675 25.8857C42.5692 25.2789 44.8313 22.2663 44.967 18.8944C45.0997 15.5588 43.1362 12.5431 40.0688 11.3689C37.0286 10.2037 33.4605 11.1455 31.4156 13.7325C29.7447 15.8456 29.2139 18.2243 30.0915 20.8324C30.3358 21.5599 30.6525 22.2633 30.9964 23.1236Z" fill="#4B4B4B"/>
<path d="M25.7333 54.9011H39.2153C40.5062 60.22 43.2991 64.5156 48.1068 67.2445C51.8468 69.3666 55.8733 70.0881 60.1622 69.3938C68.0614 68.1199 74.5158 61.0079 75.0859 52.9964C75.7283 43.9222 69.497 35.8563 61.1907 34.0421C60.6176 36.128 60.0385 38.232 59.4654 40.3119C67.0872 44.203 69.7262 49.1083 67.5908 55.2392C65.7118 60.6366 60.3793 63.5919 54.5884 62.4478C48.6738 61.2796 45.6909 56.3592 46.0558 48.4653C40.4489 48.4653 34.8359 48.408 29.229 48.4925C27.0393 48.5257 25.3502 48.2993 23.7004 46.3674C20.9859 43.1887 15.9852 43.4755 13.0626 46.479C10.0737 49.549 10.2154 54.4846 13.3793 57.4247C16.4316 60.2593 21.2514 60.1083 24.1076 57.0534C24.6927 56.4225 25.1542 55.6769 25.7333 54.9011Z" fill="#4A4A4A"/>
</svg>
