<svg width="30" height="29" viewBox="0 0 30 29" fill="none" xmlns="http://www.w3.org/2000/svg">
<path fill-rule="evenodd" clip-rule="evenodd" d="M8.50001 2C7.75229 2 7.10001 2.65228 7.10001 3.4V10.5C7.10001 11.2477 7.75229 11.9 8.50001 11.9H21.8C22.5477 11.9 23.2 11.2477 23.2 10.5V3.4C23.2 2.65229 22.5477 2 21.8 2H8.50001ZM5.10001 3.4C5.10001 1.54772 6.64772 0 8.50001 0H21.8C23.6523 0 25.2 1.54771 25.2 3.4V10.5C25.2 12.3523 23.6523 13.9 21.8 13.9H8.50001C6.64772 13.9 5.10001 12.3523 5.10001 10.5V3.4Z" fill=""/>
<path d="M10.9 7.69999C11.5628 7.69999 12.1 7.16273 12.1 6.49999C12.1 5.83725 11.5628 5.29999 10.9 5.29999C10.2373 5.29999 9.70001 5.83725 9.70001 6.49999C9.70001 7.16273 10.2373 7.69999 10.9 7.69999Z" fill=""/>
<path d="M19.3 7.79999C19.9627 7.79999 20.5 7.26274 20.5 6.59999C20.5 5.93725 19.9627 5.39999 19.3 5.39999C18.6373 5.39999 18.1 5.93725 18.1 6.59999C18.1 7.26274 18.6373 7.79999 19.3 7.79999Z" fill=""/>
<path fill-rule="evenodd" clip-rule="evenodd" d="M2.00002 19.7928C2.00018 19.7975 2.00057 19.8074 2.00149 19.8221C2.00354 19.8551 2.00819 19.9122 2.01857 19.9901C2.03936 20.146 2.08289 20.3832 2.17361 20.6748C2.35431 21.2556 2.7229 22.0554 3.48106 22.8677C4.98072 24.4745 8.1725 26.3 15 26.3C21.8275 26.3 25.0193 24.4745 26.5189 22.8677C27.2771 22.0554 27.6457 21.2556 27.8264 20.6748C27.9171 20.3832 27.9606 20.146 27.9814 19.9901C27.9918 19.9122 27.9965 19.8551 27.9985 19.8221C27.9994 19.8074 27.9998 19.7975 28 19.7928C27.9958 19.0481 27.3453 18.4 26.6 18.4H3.4C2.65467 18.4 2.00416 19.0481 2.00002 19.7928ZM29 19.8H30C30 17.9477 28.4523 16.4 26.6 16.4H3.4C1.54772 16.4 0 17.9477 0 19.8H1C0 19.8 4.17233e-07 19.8009 1.78814e-06 19.8019L7.51019e-06 19.804L3.36766e-05 19.8087L0.000163138 19.8202L0.000880182 19.8516C0.00161874 19.8761 0.00295526 19.9079 0.00534815 19.9463C0.0101318 20.0232 0.019152 20.1272 0.0361158 20.2544C0.0700129 20.5087 0.13586 20.8574 0.263893 21.2689C0.520688 22.0943 1.0271 23.1696 2.01894 24.2323C4.01928 26.3755 7.8275 28.3 15 28.3C22.1725 28.3 25.9807 26.3755 27.9811 24.2323C28.9729 23.1696 29.4793 22.0943 29.7361 21.2689C29.8641 20.8574 29.93 20.5087 29.9639 20.2544C29.9808 20.1272 29.9899 20.0232 29.9947 19.9463C29.997 19.9079 29.9984 19.8761 29.9991 19.8516L29.9998 19.8202L30 19.8087L30 19.804L30 19.8019C30 19.8009 30 19.8 29 19.8Z" fill=""/>
<path fill-rule="evenodd" clip-rule="evenodd" d="M3 6.60001C3 6.04772 3.44772 5.60001 4 5.60001H5.3C5.85228 5.60001 6.3 6.04772 6.3 6.60001C6.3 7.15229 5.85228 7.60001 5.3 7.60001H4C3.44772 7.60001 3 7.15229 3 6.60001Z" fill=""/>
<path fill-rule="evenodd" clip-rule="evenodd" d="M23.7 6.60001C23.7 6.04772 24.1477 5.60001 24.7 5.60001H26C26.5523 5.60001 27 6.04772 27 6.60001C27 7.15229 26.5523 7.60001 26 7.60001H24.7C24.1477 7.60001 23.7 7.15229 23.7 6.60001Z" fill=""/>
</svg>
