<svg xmlns="http://www.w3.org/2000/svg" width="39" height="37" viewBox="0 0 39 37" fill="none">
<path fill-rule="evenodd" clip-rule="evenodd" d="M11.0497 2.91504C9.8914 2.91504 8.92969 3.88697 8.92969 4.96804V13.9998C8.92969 15.0809 9.8914 16.0528 11.0497 16.0528H28.3397C29.498 16.0528 30.4597 15.0809 30.4597 13.9998V4.96804C30.4597 3.88697 29.498 2.91504 28.3397 2.91504H11.0497ZM6.92969 4.96804C6.92969 2.7417 8.82798 0.915039 11.0497 0.915039H28.3397C30.5614 0.915039 32.4597 2.74169 32.4597 4.96804V13.9998C32.4597 16.2262 30.5614 18.0528 28.3397 18.0528H11.0497C8.82798 18.0528 6.92969 16.2262 6.92969 13.9998V4.96804Z" fill="black"/>
<path d="M14.1694 10.4378C15.0309 10.4378 15.7294 9.75433 15.7294 8.91127C15.7294 8.0682 15.0309 7.38477 14.1694 7.38477C13.3078 7.38477 12.6094 8.0682 12.6094 8.91127C12.6094 9.75433 13.3078 10.4378 14.1694 10.4378Z" fill="#9888C4"/>
<path d="M25.0903 10.5657C25.9518 10.5657 26.6503 9.88226 26.6503 9.0392C26.6503 8.19613 25.9518 7.5127 25.0903 7.5127C24.2287 7.5127 23.5303 8.19613 23.5303 9.0392C23.5303 9.88226 24.2287 10.5657 25.0903 10.5657Z" fill="#9888C4"/>
<path fill-rule="evenodd" clip-rule="evenodd" d="M2.29981 25.8244C2.29983 25.8251 2.29986 25.826 2.29989 25.827C2.30012 25.8344 2.30072 25.8503 2.30223 25.874C2.30525 25.9215 2.31186 26 2.3262 26.1053C2.3549 26.316 2.41437 26.6318 2.53717 27.0181C2.78193 27.7879 3.27952 28.8422 4.29842 29.9105C6.32184 32.0319 10.5663 34.371 19.4998 34.371C28.4333 34.371 32.6778 32.0319 34.7012 29.9105C35.7201 28.8422 36.2177 27.7879 36.4624 27.0181C36.5852 26.6318 36.6447 26.316 36.6734 26.1053C36.6878 26 36.6944 25.9215 36.6974 25.874C36.6989 25.8503 36.6995 25.8344 36.6997 25.827C36.6998 25.826 36.6998 25.8251 36.6998 25.8244C36.6963 24.7457 35.736 23.7773 34.5798 23.7773H4.41981C3.26363 23.7773 2.30331 24.7457 2.29981 25.8244ZM37.6998 25.8303H38.6998C38.6998 23.604 36.8015 21.7773 34.5798 21.7773H4.41981C2.1981 21.7773 0.299805 23.604 0.299805 25.8303H1.2998C0.299805 25.8303 0.299805 25.8313 0.299807 25.8323L0.299813 25.8345L0.299842 25.8396L0.299989 25.8524C0.300136 25.8621 0.300393 25.8742 0.300833 25.8885C0.301714 25.9171 0.303328 25.9548 0.306264 26.001C0.312133 26.0933 0.3233 26.2197 0.344508 26.3753C0.386894 26.6864 0.469618 27.1159 0.631187 27.6241C0.955183 28.6431 1.59509 29.9739 2.85119 31.2909C5.37777 33.9398 10.2333 36.371 19.4998 36.371C28.7663 36.371 33.6218 33.9398 36.1484 31.2909C37.4045 29.9739 38.0444 28.6431 38.3684 27.6241C38.53 27.1159 38.6127 26.6864 38.6551 26.3753C38.6763 26.2197 38.6875 26.0933 38.6933 26.001C38.6963 25.9548 38.6979 25.9171 38.6988 25.8885C38.6992 25.8742 38.6995 25.8621 38.6996 25.8524L38.6998 25.8396L38.6998 25.8345L38.6998 25.8323C38.6998 25.8313 38.6998 25.8303 37.6998 25.8303Z" fill="black"/>
<path fill-rule="evenodd" clip-rule="evenodd" d="M4.44043 9.03906C4.44043 8.48678 4.88814 8.03906 5.44043 8.03906H7.13043C7.68271 8.03906 8.13043 8.48678 8.13043 9.03906C8.13043 9.59135 7.68271 10.0391 7.13043 10.0391H5.44043C4.88814 10.0391 4.44043 9.59135 4.44043 9.03906Z" fill="black"/>
<path fill-rule="evenodd" clip-rule="evenodd" d="M31.1094 9.03906C31.1094 8.48678 31.5571 8.03906 32.1094 8.03906H33.7994C34.3517 8.03906 34.7994 8.48678 34.7994 9.03906C34.7994 9.59135 34.3517 10.0391 33.7994 10.0391H32.1094C31.5571 10.0391 31.1094 9.59135 31.1094 9.03906Z" fill="black"/>
</svg>