<svg width="49"
     height="49"
     viewBox="0 0 49 49"
     fill="none"
     xmlns="http://www.w3.org/2000/svg">
  <path d="M24.2998 9C26.5089 9 28.2998 7.20914 28.2998 5C28.2998 2.79086 26.5089 1 24.2998 1C22.0907 1 20.2998 2.79086 20.2998 5C20.2998 7.20914 22.0907 9 24.2998 9Z"
        stroke="white"
        stroke-width="2"
        stroke-miterlimit="10"
        stroke-linecap="round"/>
  <path d="M24.2998 47.5C26.5089 47.5 28.2998 45.7091 28.2998 43.5C28.2998 41.2909 26.5089 39.5 24.2998 39.5C22.0907 39.5 20.2998 41.2909 20.2998 43.5C20.2998 45.7091 22.0907 47.5 24.2998 47.5Z"
        stroke="white"
        stroke-width="2"
        stroke-miterlimit="10"
        stroke-linecap="round"/>
  <path d="M43.5 28.2998C45.7091 28.2998 47.5 26.5089 47.5 24.2998C47.5 22.0907 45.7091 20.2998 43.5 20.2998C41.2909 20.2998 39.5 22.0907 39.5 24.2998C39.5 26.5089 41.2909 28.2998 43.5 28.2998Z"
        stroke="white"
        stroke-width="2"
        stroke-miterlimit="10"
        stroke-linecap="round"/>
  <path d="M5 28.2998C7.20914 28.2998 9 26.5089 9 24.2998C9 22.0907 7.20914 20.2998 5 20.2998C2.79086 20.2998 1 22.0907 1 24.2998C1 26.5089 2.79086 28.2998 5 28.2998Z"
        stroke="white"
        stroke-width="2"
        stroke-miterlimit="10"
        stroke-linecap="round"/>
  <path d="M43.0998 28.2998C41.4998 35.6998 35.6998 41.4998 28.2998 43.0998"
        stroke="white"
        stroke-width="2"
        stroke-miterlimit="10"
        stroke-linecap="round"/>
  <path d="M28.2998 5.5C35.6998 7.1 41.4998 12.9 43.0998 20.3"
        stroke="white"
        stroke-width="2"
        stroke-miterlimit="10"
        stroke-linecap="round"/>
  <path d="M5.5 20.3C7 12.9 12.9 7 20.3 5.5"
        stroke="white"
        stroke-width="2"
        stroke-miterlimit="10"
        stroke-linecap="round"/>
  <path d="M20.3 43.0998C12.9 41.4998 7 35.6998 5.5 28.2998"
        stroke="white"
        stroke-width="2"
        stroke-miterlimit="10"
        stroke-linecap="round"/>
  <path fill-rule="evenodd"
        clip-rule="evenodd"
        d="M24.3 15.5996L31.2 17.7996C31.5 17.8996 31.7 18.0996 31.7 18.3996V24.7996C31.7 27.4996 29.8 29.3996 28 30.5996C27.1 31.1996 26.2 31.5996 25.5 31.8996C25.1 32.0996 24.6 32.2996 24.1 32.3996C23.6 32.2996 23.2 32.0996 22.7 31.8996C22 31.5996 21.1 31.1996 20.2 30.5996C18.4 29.3996 16.5 27.4996 16.5 24.7996V18.3996C16.5 18.0996 16.7 17.8996 17 17.7996L24.3 15.5996Z"
        stroke="white"
        stroke-width="2"
        stroke-miterlimit="10"
        stroke-linejoin="round"/>
  <path d="M21.2998 24.3004L23.2998 26.3004L27.1998 22.4004"
        stroke="white"
        stroke-width="2"
        stroke-miterlimit="10"
        stroke-linecap="round"
        stroke-linejoin="round"/>
</svg>
