<svg width="20" height="26" viewBox="0 0 20 26" fill="none" xmlns="http://www.w3.org/2000/svg">
<path d="M19.3386 9.23098C15.563 11.7232 16.0146 17.1126 19.9999 18.9585C19.8247 19.4087 19.6619 19.8689 19.4669 20.314C18.8401 21.7525 18.0036 23.0603 16.9696 24.2221C15.7999 25.5374 14.5759 25.7763 12.9645 25.1149C12.3846 24.876 11.7849 24.6698 11.1729 24.5465C10.3388 24.378 9.52202 24.5516 8.73729 24.8785C8.40908 25.0168 8.08088 25.1577 7.74774 25.2809C6.61752 25.7059 5.59836 25.5148 4.70011 24.6874C3.71302 23.7795 2.95297 22.6855 2.30149 21.5212C0.926974 19.0666 0.16445 16.4336 0.300175 13.5842C0.403819 11.4365 1.10465 9.54031 2.8049 8.15462C3.99928 7.18137 5.37133 6.69097 6.90871 6.91228C7.5059 6.99778 8.07841 7.24927 8.66079 7.43537C8.88782 7.5083 9.10745 7.59632 9.3246 7.6944C9.96128 7.98109 10.5831 7.95595 11.2346 7.69943C12.0243 7.3901 12.8214 7.07574 13.6431 6.88461C15.7209 6.40679 18.2133 7.45549 19.3386 9.23098Z" fill="white"/>
<path d="M14.9373 0.856353C15.2803 3.58247 12.8323 6.70594 10.1401 6.49972C9.48611 4.24388 12.3906 0.8136 14.9373 0.856353Z" fill="white"/>
</svg>
