<svg width="61" height="61" viewBox="0 0 61 61" fill="none" xmlns="http://www.w3.org/2000/svg">
<rect x="1.14453" y="1.25879" width="59" height="59" rx="29.5" fill="white" />
<path d="M40.6978 24.0514C40.6978 25.8788 40.6929 27.7062 40.7028 29.5285C40.7028 29.7756 40.6436 29.8785 40.4071 29.8476C40.3677 29.8425 40.3234 29.8476 40.2839 29.8476C37.2487 29.8631 34.2135 29.8785 31.1734 29.8991C30.183 29.9043 29.1877 29.9146 28.1973 29.9351C27.9558 29.9403 27.8721 29.8682 27.8721 29.6005C27.8819 26.548 27.8819 23.4954 27.8721 20.4429C27.8721 20.1804 27.9263 20.0723 28.2022 20.0414C29.3108 19.9024 30.4096 19.7377 31.5133 19.5781C33.0408 19.3516 34.5633 19.1148 36.0859 18.8883C37.5394 18.6721 38.993 18.4713 40.4465 18.2551C40.6781 18.2191 40.7028 18.3221 40.7028 18.5228C40.6978 20.3605 40.6978 22.2085 40.6978 24.0514Z" fill="#00ADEF"/>
<path d="M26.8043 25.1172C26.8043 26.6254 26.8043 28.1388 26.8043 29.6471C26.8043 29.9766 26.8043 29.9766 26.4791 29.9766C25.8779 29.9817 25.2817 29.9817 24.6806 29.9869C22.2761 30.0023 19.8715 30.0177 17.467 30.0383C17.1172 30.0383 17.1172 30.0435 17.1172 29.6831C17.1172 27.1196 17.1172 24.5561 17.1172 21.9874C17.1172 21.6322 17.1221 21.6477 17.4572 21.5962C18.3244 21.4727 19.1916 21.3337 20.0588 21.205C20.724 21.1072 21.3941 21.0248 22.0593 20.9322C23.3995 20.7417 24.7397 20.5409 26.075 20.3453C26.2672 20.3144 26.4593 20.2578 26.6564 20.2578C26.7599 20.2578 26.8092 20.2938 26.8043 20.4071C26.7993 20.4946 26.8043 20.577 26.8043 20.6645C26.8043 22.147 26.8043 23.6295 26.8043 25.1172ZM26.6515 25.0863C26.6515 23.6141 26.6466 22.1367 26.6564 20.6645C26.6564 20.4483 26.5825 20.4019 26.4002 20.4122C26.2475 20.4225 26.1292 20.5152 25.9765 20.5255C25.6513 20.5461 25.331 20.6079 25.0058 20.6542C24.3702 20.7468 23.7296 20.8292 23.0989 20.9322C22.7146 20.9939 22.3155 20.9888 21.9459 21.1484C21.8819 21.1741 21.8178 21.1947 21.7538 21.1689C21.5468 21.0814 21.335 21.1586 21.1526 21.205C20.6895 21.3285 20.2115 21.3594 19.7385 21.4263C19.3443 21.483 18.9501 21.5653 18.551 21.5808C18.216 21.5911 17.9154 21.7712 17.5705 21.7558C17.2749 21.7403 17.2354 21.797 17.2354 22.1161C17.2354 24.587 17.2354 27.0527 17.2354 29.5236C17.2354 29.8582 17.2699 29.8839 17.5902 29.889C19.162 29.9148 20.7388 29.8118 22.3106 29.8324C23.6212 29.8479 24.9368 29.8376 26.2475 29.8324C26.6269 29.8324 26.6466 29.817 26.6466 29.4052C26.6515 27.9638 26.6515 26.5276 26.6515 25.0863Z" fill="#00ADEF"/>
<path d="M26.8004 35.9741C26.8004 37.4926 26.7955 39.0112 26.8053 40.5297C26.8053 40.7614 26.761 40.8437 26.5245 40.8026C25.8149 40.6842 25.1005 40.5812 24.386 40.4783C23.6469 40.3702 22.9078 40.2827 22.1687 40.1694C21.1241 40.015 20.0796 39.8451 19.03 39.6907C18.4782 39.6083 17.9263 39.5259 17.3745 39.4642C17.1774 39.4436 17.1084 39.3767 17.1084 39.1656C17.1133 36.5506 17.1133 33.9356 17.1084 31.3155C17.1084 31.0941 17.1626 30.9912 17.3893 31.0323C17.4927 31.0478 17.6011 31.0375 17.7095 31.0375C20.6561 31.0529 23.6026 31.0735 26.5491 31.0838C26.761 31.0838 26.8103 31.1559 26.8053 31.3618C26.7955 32.9009 26.8004 34.4349 26.8004 35.9741ZM26.6477 35.9792C26.6477 34.5379 26.6378 33.0965 26.6526 31.6604C26.6575 31.2846 26.4949 31.2279 26.2288 31.2279C25.8248 31.2279 25.4257 31.2485 25.0167 31.2382C23.2133 31.1868 21.4099 31.2743 19.6065 31.1816C18.9266 31.1456 18.2466 31.1765 17.5617 31.1765C17.2611 31.1765 17.2267 31.2177 17.2267 31.5368C17.2267 34.0128 17.2267 36.494 17.2267 38.97C17.2267 39.3046 17.2759 39.3355 17.5913 39.3664C18.0791 39.4127 18.5669 39.4539 19.0448 39.5517C19.646 39.6701 20.252 39.737 20.8581 39.8245C21.1734 39.8708 21.4986 39.8811 21.7992 39.9584C22.2279 40.0613 22.6615 40.0922 23.0901 40.1643C23.5582 40.2466 24.0411 40.3084 24.5191 40.3599C25.13 40.4319 25.746 40.504 26.352 40.643C26.5491 40.6893 26.6427 40.6275 26.6427 40.3805C26.6427 38.9082 26.6477 37.4412 26.6477 35.9792Z" fill="#00ADEF"/>
<path d="M40.7225 37.0225C40.7225 38.8396 40.7225 40.6567 40.7225 42.479C40.7225 42.8754 40.7225 42.8805 40.3332 42.8239C39.4069 42.6849 38.4855 42.5408 37.5591 42.4069C36.283 42.2216 35.0068 42.0466 33.7356 41.8561C32.5284 41.6811 31.3163 41.5009 30.1091 41.3105C29.439 41.2024 28.759 41.1458 28.0889 41.0171C27.877 40.9759 27.8721 40.8781 27.8721 40.7134C27.8721 39.0404 27.8721 37.3674 27.8721 35.6944C27.8721 34.2685 27.8721 32.8478 27.8721 31.4219C27.8721 31.1079 27.8819 31.0873 28.1973 31.0924C32.2919 31.1645 36.3864 31.1645 40.481 31.1851C40.688 31.1851 40.7225 31.2726 40.7225 31.4579C40.7225 33.3162 40.7225 35.1693 40.7225 37.0225ZM40.6387 36.971C40.6387 35.5657 40.6387 34.1553 40.6387 32.7499C40.6387 32.3484 40.6387 31.9418 40.6387 31.5403C40.6387 31.4373 40.6584 31.3292 40.5057 31.3189C40.3332 31.3086 40.1657 31.2777 39.9932 31.2726C38.2785 31.2417 36.5638 31.2726 34.8491 31.2314C32.6762 31.1799 30.4983 31.216 28.3205 31.216C27.9755 31.216 27.9755 31.216 27.9755 31.566C27.9755 34.4126 27.9755 37.2593 27.9755 40.1111C27.9755 40.317 27.9805 40.5229 27.9755 40.7288C27.9706 40.8832 28.0347 40.9347 28.1825 40.945C28.419 40.9604 28.6506 41.0171 28.8871 41.0222C29.2961 41.0325 29.6853 41.1818 30.0992 41.2024C30.4983 41.223 30.8925 41.2796 31.2867 41.3311C31.7548 41.398 32.218 41.537 32.686 41.5421C33.2133 41.5473 33.7159 41.7171 34.2381 41.748C34.7259 41.7789 35.2039 41.8973 35.6868 41.9694C36.2583 42.0517 36.8348 42.1135 37.4064 42.2113C37.8499 42.2885 38.2933 42.3246 38.7368 42.3863C39.1999 42.4533 39.6532 42.5665 40.1213 42.5408C40.1558 42.5408 40.1953 42.5768 40.2297 42.5922C40.5155 42.7209 40.6387 42.6386 40.6387 42.3091C40.6387 40.5383 40.6387 38.7572 40.6387 36.971Z" fill="#00ADEF"/>
<path d="M26.6543 25.0854C26.6543 26.5268 26.6543 27.9681 26.6543 29.4043C26.6543 29.8161 26.6395 29.8316 26.2552 29.8316C24.9445 29.8316 23.6289 29.847 22.3183 29.8316C20.7415 29.811 19.1697 29.9088 17.5979 29.8882C17.2777 29.8831 17.2432 29.8522 17.2432 29.5227C17.2432 27.0518 17.2432 24.5861 17.2432 22.1153C17.2432 21.7961 17.2826 21.7395 17.5782 21.7549C17.9182 21.7755 18.2237 21.5902 18.5588 21.5799C18.9579 21.5696 19.352 21.4821 19.7462 21.4255C20.2143 21.3586 20.6923 21.3328 21.1604 21.2041C21.3427 21.1527 21.5546 21.0806 21.7615 21.1681C21.8256 21.1938 21.8896 21.1732 21.9537 21.1475C22.3232 20.9879 22.7223 20.9931 23.1067 20.9313C23.7423 20.8284 24.3779 20.7408 25.0135 20.6533C25.3338 20.607 25.659 20.5452 25.9842 20.5246C26.1369 20.5143 26.2601 20.4217 26.4079 20.4114C26.5952 20.4011 26.6642 20.4526 26.6642 20.6636C26.6543 22.1359 26.6543 23.6081 26.6543 25.0854Z" fill="#00ADEF"/>
<path d="M26.6543 35.9784C26.6543 37.4455 26.6494 38.9126 26.6592 40.3745C26.6592 40.6216 26.5656 40.6834 26.3685 40.637C25.7625 40.4981 25.1466 40.4208 24.5356 40.3539C24.0576 40.2973 23.5747 40.2355 23.1067 40.1583C22.678 40.0862 22.2444 40.0554 21.8157 39.9524C21.5151 39.8803 21.1899 39.8649 20.8746 39.8186C20.2685 39.7311 19.6625 39.6641 19.0613 39.5457C18.5834 39.4479 18.0956 39.4068 17.6078 39.3604C17.2875 39.3295 17.2432 39.3038 17.2432 38.9641C17.2432 36.488 17.2432 34.0069 17.2432 31.5309C17.2432 31.2066 17.2777 31.1705 17.5782 31.1705C18.2582 31.1705 18.9431 31.1396 19.6231 31.1757C21.4264 31.2683 23.2298 31.1757 25.0332 31.2323C25.4373 31.2426 25.8413 31.2271 26.2453 31.222C26.5114 31.222 26.674 31.2786 26.6691 31.6544C26.6445 33.0957 26.6543 34.5371 26.6543 35.9784Z" fill="#00ADEF"/>
<path d="M40.6407 36.9726C40.6407 38.7588 40.6407 40.5399 40.6407 42.3261C40.6407 42.6556 40.5175 42.7379 40.2317 42.6093C40.1923 42.5938 40.1578 42.5578 40.1233 42.5578C39.6552 42.5835 39.197 42.4703 38.7388 42.4034C38.2953 42.3416 37.8519 42.3055 37.4084 42.2283C36.8368 42.1254 36.2603 42.0688 35.6888 41.9864C35.2059 41.9143 34.723 41.7959 34.2401 41.765C33.7178 41.729 33.2202 41.5643 32.688 41.5591C32.2199 41.554 31.7568 41.415 31.2887 41.3481C30.8945 41.2915 30.4954 41.24 30.1012 41.2194C29.6922 41.1988 29.303 41.0495 28.8891 41.0392C28.6526 41.0341 28.421 40.9775 28.1845 40.962C28.0416 40.9517 27.9775 40.8951 27.9775 40.7458C27.9825 40.5399 27.9775 40.334 27.9775 40.1281C27.9775 37.2814 27.9775 34.4348 27.9775 31.583C27.9775 31.233 27.9775 31.233 28.3225 31.233C30.5003 31.233 32.6733 31.1969 34.8511 31.2484C36.5658 31.2896 38.2805 31.2587 39.9952 31.2896C40.1677 31.2947 40.3352 31.3256 40.5077 31.3359C40.6604 31.3411 40.6407 31.4543 40.6407 31.5573C40.6407 31.9588 40.6407 32.3654 40.6407 32.767C40.6407 34.162 40.6407 35.5673 40.6407 36.9726Z" fill="#00ADEF"/>
</svg>
