<svg viewBox="0 0 30 28" fill="none" xmlns="http://www.w3.org/2000/svg">
  <path fill-rule="evenodd" clip-rule="evenodd" d="M1 2.6637c.5523 0 1 .4477 1 1v20.2c0 1.0477.8523 1.9 1.9 1.9H26c1.0477 0 1.9-.8523 1.9-1.9v-14.9c0-1.0477-.8523-1.9-1.9-1.9H3.2c-.5523 0-1-.4478-1-1 0-.5523.4477-1 1-1H26c2.1523 0 3.9 1.7477 3.9 3.9v14.9c0 2.1523-1.7477 3.9-3.9 3.9H3.9c-2.1523 0-3.9-1.7477-3.9-3.9v-20.2c0-.5523.4477-1 1-1z" fill=""/>
  <path fill-rule="evenodd" clip-rule="evenodd" d="M3.4 2.2637c-.7477 0-1.4.6523-1.4 1.4 0 .7477.6523 1.4 1.4 1.4.5523 0 1 .4477 1 1s-.4477 1-1 1c-1.8523 0-3.4-1.5477-3.4-3.4 0-1.8523 1.5477-3.4 3.4-3.4h17c1.8523 0 3.4 1.5477 3.4 3.4 0 .5523-.4477 1-1 1s-1-.4477-1-1c0-.7477-.6523-1.4-1.4-1.4h-17zM21.7 14.8637c-.718 0-1.3.582-1.3 1.3 0 .7179.582 1.3 1.3 1.3.718 0 1.3-.5821 1.3-1.3 0-.718-.582-1.3-1.3-1.3zm-3.3 1.3c0-1.8226 1.4775-3.3 3.3-3.3 1.8225 0 3.3 1.4774 3.3 3.3 0 1.8225-1.4775 3.3-3.3 3.3-1.8225 0-3.3-1.4775-3.3-3.3z" fill=""/>
</svg>
