<svg viewBox="0 0 23 25"
     fill="#fff"
     xmlns="http://www.w3.org/2000/svg"
     width="40"
     height="36">
  <path d="M9.1007 21.666l-5.2-3L4.9 16.9336l5.2 3-.9994 1.7324zM2 15.1004v-5.7h2v5.7H2zM4.0003 5.9336l5.2-3 .9994 1.7324-5.2 3-.9994-1.7324zM12.893 2.9295l5.3 3-.9852 1.7406-5.3-3 .9852-1.7405zM20.0996 9.2998v6h-2v-6h2zM18.0943 18.7697l-5.1 2.9-.9886-1.7386 5.1-2.9.9886 1.7386zM10.2993 13.9658l-5.2 3L4.1 15.2334l5.2-3 .9994 1.7324z"
        fill="#fff"/>
  <path

    d="M12.0996 13.9004v5.9h-2v-5.9h2z"
    fill="#fff"/>
  <path

    d="M13.1035 12.3364l4.8 2.8-1.0078 1.7276-4.8-2.8 1.0078-1.7276zM12.1053 10.5307l5.1-2.9.9886 1.7386-5.1 2.9-.9886-1.7386zM9.111 12.2721l-5-2.8.9772-1.745 5 2.8-.9772 1.745zM10.0996 10.6996v-6.1h2v6.1h-2z"
    fill="#fff"/>
  <path

    d="M3 6.7002c-.5523 0-1 .4477-1 1s.4477 1 1 1 1-.4477 1-1-.4477-1-1-1zm-3 1c0-1.6569 1.3432-3 3-3 1.6569 0 3 1.3431 3 3 0 1.6568-1.3431 3-3 3-1.6568 0-3-1.3432-3-3zM11.0996 2c-.5523 0-1 .4477-1 1s.4477 1 1 1 1-.4477 1-1-.4477-1-1-1zm-3 1c0-1.6568 1.3432-3 3-3 1.6569 0 3 1.3432 3 3 0 1.6569-1.3431 3-3 3-1.6568 0-3-1.3431-3-3zM19.2002 6.5996c-.5523 0-1 .4477-1 1s.4477 1 1 1 1-.4477 1-1-.4477-1-1-1zm-3 1c0-1.6568 1.3431-3 3-3 1.6568 0 3 1.3432 3 3 0 1.6569-1.3432 3-3 3-1.6569 0-3-1.3431-3-3zM18.9004 15.7998c-.5523 0-1 .4477-1 1s.4477 1 1 1 1-.4477 1-1-.4477-1-1-1zm-3 1c0-1.6569 1.3431-3 3-3 1.6568 0 3 1.3431 3 3s-1.3432 3-3 3c-1.6569 0-3-1.3431-3-3zM11.0996 20.5996c-.5523 0-1 .4477-1 1s.4477 1 1 1 1-.4477 1-1-.4477-1-1-1zm-3 1c0-1.6568 1.3432-3 3-3 1.6569 0 3 1.3432 3 3 0 1.6569-1.3431 3-3 3-1.6568 0-3-1.3431-3-3zM3 15.7998c-.5523 0-1 .4477-1 1s.4477 1 1 1 1-.4477 1-1-.4477-1-1-1zm-3 1c0-1.6569 1.3432-3 3-3 1.6569 0 3 1.3431 3 3s-1.3431 3-3 3c-1.6568 0-3-1.3431-3-3zM11.0996 11.2998c-.5523 0-1 .4477-1 1s.4477 1 1 1 1-.4477 1-1-.4477-1-1-1zm-3 1c0-1.6568 1.3432-3 3-3 1.6569 0 3 1.3432 3 3 0 1.6569-1.3431 3-3 3-1.6568 0-3-1.3431-3-3z"
    fill="#fff"/>
</svg>