<svg width="40"
     height="36"
     viewBox="0 0 40 36"
     fill="none"
     xmlns="http://www.w3.org/2000/svg">
  <path d="M11.5497 1.27246H28.8397C30.5297 1.27246 31.9597 2.67175 31.9597 4.32546V13.3573C31.9597 15.011 30.5297 16.4103 28.8397 16.4103H11.5497C9.85969 16.4103 8.42969 15.011 8.42969 13.3573V4.32546C8.42969 2.67175 9.85969 1.27246 11.5497 1.27246Z"
        stroke="black"
        stroke-width="2"
        stroke-miterlimit="10"
        stroke-linecap="round"/>
  <path d="M14.6694 9.79519C15.5309 9.79519 16.2294 9.11175 16.2294 8.26869C16.2294 7.42563 15.5309 6.74219 14.6694 6.74219C13.8078 6.74219 13.1094 7.42563 13.1094 8.26869C13.1094 9.11175 13.8078 9.79519 14.6694 9.79519Z"
        fill="#9888C4"/>
  <path d="M25.5903 9.92312C26.4518 9.92312 27.1503 9.23968 27.1503 8.39662C27.1503 7.55356 26.4518 6.87012 25.5903 6.87012C24.7287 6.87012 24.0303 7.55356 24.0303 8.39662C24.0303 9.23968 24.7287 9.92312 25.5903 9.92312Z"
        fill="#9888C4"/>
  <path d="M19.9998 34.7284C1.7998 34.7284 1.7998 25.1878 1.7998 25.1878C1.7998 23.5341 3.2298 22.1348 4.9198 22.1348H35.0798C36.7698 22.1348 38.1998 23.5341 38.1998 25.1878C38.1998 25.1878 38.1998 34.7284 19.9998 34.7284Z"
        stroke="black"
        stroke-width="2"
        stroke-miterlimit="10"
        stroke-linecap="round"/>
</svg>
