<svg width="63" height="71" viewBox="0 0 63 71" fill="none" xmlns="http://www.w3.org/2000/svg">
<path fill-rule="evenodd" clip-rule="evenodd" d="M37.0845 8.52139L51.4611 16.8316C51.8755 16.3914 52.3516 16.0157 52.8752 15.7101C55.8575 13.9942 59.6603 15.012 61.3909 17.9979C63.1047 20.9838 62.0882 24.7913 59.1059 26.524C58.5878 26.8239 58.0278 27.0454 57.4453 27.1856V43.8116C58.0222 43.9518 58.5738 44.1733 59.0891 44.4704C62.0882 46.2031 63.1047 50.0106 61.3741 52.9965C59.6603 55.9824 55.8407 57.0002 52.8584 55.2843C52.2816 54.9535 51.7607 54.5301 51.3183 54.0311L37.0285 62.2936C37.2385 62.9272 37.3449 63.5917 37.3421 64.259C37.3421 67.6907 34.5558 70.4972 31.1115 70.4972C27.6671 70.4972 24.8808 67.7075 24.8808 64.259C24.8808 63.645 24.9677 63.0534 25.1329 62.4926L10.7618 54.1853C10.3502 54.617 9.88254 54.9871 9.36729 55.2843C6.36819 57.0002 2.56541 55.9824 0.851636 52.9965C-0.864936 50.0134 0.154366 46.2059 3.13667 44.4733C3.64912 44.1761 4.20357 43.9546 4.78043 43.8144V27.1884C4.19797 27.0482 3.63792 26.8268 3.11986 26.5268C0.134765 24.8109 -0.881737 20.9838 0.832034 18.0007C2.54581 15.0176 6.36539 13.997 9.34769 15.7129C9.86854 16.0157 10.3418 16.3886 10.7562 16.826L25.1357 8.51298C24.9648 7.93822 24.8808 7.33823 24.8808 6.73823C24.8808 3.28968 27.6671 0.5 31.1115 0.5C34.5558 0.5 37.3421 3.28968 37.3421 6.73823C37.3421 7.35785 37.2525 7.95785 37.0845 8.52139ZM35.5863 11.0812L49.9966 19.411C49.5317 21.0343 49.7473 22.7754 50.5902 24.2361C51.4667 25.7642 52.8976 26.7763 54.4826 27.1716V43.82C54.4014 43.8396 54.3202 43.862 54.2418 43.8845L35.4183 11.2494C35.4771 11.1933 35.5331 11.14 35.5863 11.0812ZM26.8074 11.2522L7.98675 43.8873C7.90554 43.8648 7.82433 43.8424 7.74033 43.8228V27.1744C9.32528 26.7791 10.7562 25.767 11.6327 24.2389C12.4756 22.7754 12.6884 21.0287 12.2236 19.4026L26.6282 11.0756C26.687 11.1344 26.7458 11.1933 26.8074 11.2522ZM32.8532 12.7297L51.6683 45.3592C51.2371 45.7714 50.8674 46.2424 50.5706 46.7611C50.2738 47.2741 50.0526 47.8293 49.9126 48.4068H12.3076C12.1676 47.8293 11.9463 47.277 11.6495 46.7611C11.3527 46.248 10.9831 45.777 10.5546 45.3676L29.3753 12.7325C29.9382 12.8952 30.5234 12.9765 31.1115 12.9765C31.7163 12.9765 32.2988 12.8924 32.8532 12.7297ZM35.7207 60.0562L50.0386 51.7797C49.9966 51.6451 49.9574 51.5077 49.9238 51.3704H12.302C12.2824 51.4517 12.26 51.533 12.2376 51.6115L26.6254 59.9273C27.7987 58.7048 29.4201 58.0151 31.1143 58.0179C32.8644 58.0179 34.539 58.7581 35.7207 60.0562Z" fill="#E535AB"/>
</svg>
