<svg width="40"
     height="40"
     viewBox="0 0 40 40"
     fill="none"
     xmlns="http://www.w3.org/2000/svg">
  <g filter="url(#filter0_dd)">
    <circle cx="20"
            cy="20"
            r="20"
            fill="#F6F6F9"/>
  </g>
  <path d="M25.6407 11L14.7577 21.7205C12.4141 24.0274 12.4141 27.8271 14.7577 30.2698C17.1013 32.5767 20.9614 32.5767 23.4429 30.2698L33.3688 20.4992C35.0232 18.8708 35.0232 16.1567 33.3688 14.3926C31.7145 12.7641 28.9573 12.7641 27.1651 14.3926L17.1013 24.2989C16.1363 25.2408 16.1363 26.8772 17.1013 27.9628C18.0664 28.9127 19.7207 28.9127 20.8236 27.9628L28.6816 20.2278"
        fill="#F6F6F9"/>
  <path fill-rule="evenodd"
        clip-rule="evenodd"
        d="M21.652,3.211c-0.293-0.295-0.77-0.295-1.061,0L9.41,14.34  c-0.293,0.297-0.771,0.297-1.062,0L3.449,9.351C3.304,9.203,3.114,9.13,2.923,9.129C2.73,9.128,2.534,9.201,2.387,9.351  l-2.165,1.946C0.078,11.445,0,11.63,0,11.823c0,0.194,0.078,0.397,0.223,0.544l4.94,5.184c0.292,0.296,0.771,0.776,1.062,1.07  l2.124,2.141c0.292,0.293,0.769,0.293,1.062,0l14.366-14.34c0.293-0.294,0.293-0.777,0-1.071L21.652,3.211z"
        fill="#9888C4" transform='translate(8.5 8.5)'/>
  <defs>
    <filter id="filter0_dd"
            x="0"
            y="0"
            width="40"
            height="40"
            filterUnits="userSpaceOnUse"
            color-interpolation-filters="sRGB">
      <feFlood flood-opacity="0"
               result="BackgroundImageFix"/>
      <feColorMatrix in="SourceAlpha"
                     type="matrix"
                     values="0 0 0 0 0 0 0 0 0 0 0 0 0 0 0 0 0 0 127 0"/>
      <feOffset dy="2"/>
      <feGaussianBlur stdDeviation="2"/>
      <feColorMatrix type="matrix"
                     values="0 0 0 0 0.185533 0 0 0 0 0.105417 0 0 0 0 0.2875 0 0 0 0.08 0"/>
      <feBlend mode="normal"
               in2="BackgroundImageFix"
               result="effect1_dropShadow"/>
      <feColorMatrix in="SourceAlpha"
                     type="matrix"
                     values="0 0 0 0 0 0 0 0 0 0 0 0 0 0 0 0 0 0 127 0"/>
      <feOffset dy="1"/>
      <feGaussianBlur stdDeviation="0.5"/>
      <feColorMatrix type="matrix"
                     values="0 0 0 0 0.182937 0 0 0 0 0.159375 0 0 0 0 0.25 0 0 0 0.1 0"/>
      <feBlend mode="normal"
               in2="effect1_dropShadow"
               result="effect2_dropShadow"/>
      <feBlend mode="normal"
               in="SourceGraphic"
               in2="effect2_dropShadow"
               result="shape"/>
    </filter>
  </defs>
</svg>