<svg viewBox="0 0 32 32" fill="none" xmlns="http://www.w3.org/2000/svg">
  <path fill-rule="evenodd" clip-rule="evenodd" d="M16 2c-.8837 0-1.6.7163-1.6 1.6s.7163 1.6 1.6 1.6 1.6-.7163 1.6-1.6S16.8837 2 16 2zm-3.6 1.6C12.4 1.6118 14.0118 0 16 0c1.9882 0 3.6 1.6118 3.6 3.6 0 1.9882-1.6118 3.6-3.6 3.6-1.9882 0-3.6-1.6118-3.6-3.6zM16 26.8c-.8837 0-1.6.7163-1.6 1.6 0 .8836.7163 1.6 1.6 1.6.8836 0 1.6-.7164 1.6-1.6 0-.8837-.7164-1.6-1.6-1.6zm-3.6 1.6c0-1.9882 1.6118-3.6 3.6-3.6 1.9882 0 3.6 1.6118 3.6 3.6 0 1.9882-1.6118 3.6-3.6 3.6-1.9882 0-3.6-1.6118-3.6-3.6zM28.4 14.4c-.8837 0-1.6.7163-1.6 1.6 0 .8836.7163 1.6 1.6 1.6.8836 0 1.6-.7164 1.6-1.6 0-.8837-.7164-1.6-1.6-1.6zM24.8 16c0-1.9882 1.6118-3.6 3.6-3.6 1.9882 0 3.6 1.6118 3.6 3.6 0 1.9882-1.6118 3.6-3.6 3.6-1.9882 0-3.6-1.6118-3.6-3.6zM3.6 14.4c-.8837 0-1.6.7163-1.6 1.6s.7163 1.6 1.6 1.6 1.6-.7163 1.6-1.6-.7163-1.6-1.6-1.6zM0 16c0-1.9882 1.6118-3.6 3.6-3.6 1.9882 0 3.6 1.6118 3.6 3.6 0 1.9882-1.6118 3.6-3.6 3.6C1.6118 19.6 0 17.9882 0 16z" fill=""/>
  <path fill-rule="evenodd" clip-rule="evenodd" d="M28.304 17.621c.5406.1127.8876.6423.775 1.1829-1.0828 5.1972-5.1924 9.1937-10.2709 10.2742-.5402.1149-1.0713-.2298-1.1862-.77s.2298-1.0713.77-1.1862c4.3215-.9195 7.8119-4.323 8.7291-8.7259.1127-.5406.6423-.8876 1.183-.775zM17.621 3.696c.1127-.5406.6423-.8876 1.1829-.775 5.1972 1.0828 9.1937 5.1925 10.2742 10.2709.1149.5402-.2298 1.0713-.77 1.1862-.5402.115-1.0713-.2298-1.1862-.77-.9195-4.3215-4.323-7.8119-8.7259-8.7291-.5406-.1126-.8876-.6423-.775-1.183zM14.3781 3.6919c.115.5402-.2298 1.0713-.77 1.1862-4.3215.9195-7.8119 4.323-8.7291 8.7258-.1126.5407-.6423.8877-1.183.7751-.5406-.1127-.8876-.6423-.775-1.183C4.0038 7.9989 8.1135 4.0024 13.192 2.9219c.5402-.115 1.0713.2298 1.1862.77zM3.6919 17.6219c.5402-.1149 1.0713.2298 1.1862.77.9195 4.3215 4.323 7.8119 8.7258 8.7291.5407.1127.8877.6423.7751 1.183-.1127.5406-.6423.8876-1.183.775-5.1971-1.0828-9.1936-5.1924-10.2741-10.2709-.115-.5402.2298-1.0713.77-1.1862zM12.5 16v3.8h7V16h-7zm7.1359 3.7965l-.0021.0006zM10.5 15.8c0-1.0261.9246-1.8 1.9-1.8h7.2c.9754 0 1.9.7739 1.9 1.8V20c0 .5399-.2263 1.0207-.6166 1.3509-.3736.3161-.8403.4491-1.2834.4491h-7.2c-.9754 0-1.9-.7739-1.9-1.8v-4.2z" fill=""/>
  <path fill-rule="evenodd" clip-rule="evenodd" d="M12.2 13.1c0-2.0523 1.7477-3.8 3.8-3.8s3.8 1.7477 3.8 3.8V15c0 .5523-.4477 1-1 1s-1-.4477-1-1v-1.9c0-.9477-.8523-1.8-1.8-1.8-.9477 0-1.8.8523-1.8 1.8V15c0 .5523-.4477 1-1 1s-1-.4477-1-1v-1.9z" fill=""/>
</svg>
