<svg width="61" height="61" viewBox="0 0 61 61" fill="none" xmlns="http://www.w3.org/2000/svg">
<rect x="0.90625" y="1.25879" width="59" height="59" rx="29.5" fill="white" stroke="#EAE7FB"/>
<path fill-rule="evenodd" clip-rule="evenodd" d="M26.3199 21.6061L26.2666 17.9713L28.4294 16.7046L31.6407 14.542L32.9608 14.4883L34.3343 15.9647L35.0743 20.8702L34.0711 22.6629L29.9056 22.5559L26.3199 21.6061Z" fill="white"/>
<path fill-rule="evenodd" clip-rule="evenodd" d="M22.0473 31.9952L23.1534 28.8825L25.3162 26.3001L26.4223 24.084L26.8993 23.3478L34.8065 22.1348L36.3897 24.6143L40.8185 35.2108L39.2884 37.1062L35.2795 43.8088L34.334 44.0183L27.0023 44.228L21.8871 38.5331L21.0439 33.788L22.0473 31.9952Z" fill="white"/>
<path fill-rule="evenodd" clip-rule="evenodd" d="M32.1709 23.929C32.1709 23.929 31.9077 23.8754 32.6438 23.715C33.3839 23.5589 33.3878 23.4026 33.5934 23.1886C33.8033 22.979 33.9103 22.5018 33.9103 21.9756C33.9103 21.4494 34.1735 19.9197 34.1198 19.5004C34.0707 19.0768 33.17 17.4978 32.804 17.284C32.4341 17.0744 28.322 16.7041 28.322 16.7041L27.0555 17.7076L26.1057 18.5998L26.3195 21.4494C26.3195 21.4494 26.0522 22.3457 26.1057 22.7117C26.1592 23.0818 26.6895 23.5054 26.8992 23.715C27.1089 23.929 27.8985 24.7759 28.1615 25.0349C28.4287 25.2981 28.4823 25.5613 29.1113 25.3514C29.7445 25.1418 30.1146 25.1418 30.5917 24.7717C31.0646 24.4016 32.1709 23.929 32.1709 23.929Z" fill="#FF992B"/>
<path fill-rule="evenodd" clip-rule="evenodd" d="M29.744 19.4451C29.9044 19.0215 30.114 18.2321 30.48 17.9689C30.8499 17.7057 31.6437 17.4879 32.1168 17.5453C32.5937 17.5988 33.4859 18.0717 33.6997 18.4416C33.9095 18.8116 33.9095 20.2878 33.9095 20.2878L33.8025 21.5008L33.0664 21.4474L31.4835 20.814H31.2203C31.2203 20.814 30.9571 20.9168 30.1635 20.4975C29.3739 20.0741 29.5836 19.8685 29.744 19.4451ZM28.0581 20.6045C28.0828 20.5798 28.1321 20.5469 28.198 20.5098C28.5186 20.333 29.2176 20.0741 29.2176 20.0741C29.2176 20.0741 29.9001 18.3389 29.3204 17.6522C28.7447 16.9656 27.4784 17.0724 27.4784 17.0724C27.4784 17.0724 26.1092 17.862 26.1585 18.1785C26.2121 18.4953 26.2654 19.6012 26.3189 19.7575C26.3684 19.9179 26.5821 21.6038 26.5821 21.6038L27.055 21.3941L27.7418 20.8677C27.7416 20.8677 27.9018 20.7649 28.0581 20.6045Z" fill="white"/>
<path fill-rule="evenodd" clip-rule="evenodd" d="M38.1293 36.5318L38.8939 36.5894C39.0051 36.5977 39.116 36.6016 39.2271 36.6058C39.7945 36.6263 40.2923 36.7127 40.8227 36.7786C41.1725 36.8199 41.752 37.042 41.7932 37.4818C41.8508 38.1317 41.6616 38.8469 42.2123 39.1144C42.7758 39.4968 44.0339 40.3809 44.0339 40.3809L44.4041 41.0633L43.2982 42.0668L37.8662 45.3358L35.3908 44.4928V42.4902L35.4936 39.8012L35.2304 37.3749L35.6499 36.4251L36.7066 36.1084L38.1293 36.5318ZM22.4217 35.3476C22.3682 35.2981 21.406 35.5822 21.3444 35.5943C20.8962 35.6601 20.3289 35.9685 20.3289 36.458C20.3289 36.7088 20.3084 36.9679 20.1932 37.1941C20.1028 37.3707 19.8971 37.6379 19.9012 37.6957C19.8313 37.889 19.7039 38.1603 19.5271 38.2755C19.3215 38.2961 18.4086 38.3785 18.4086 38.3785H17.6149L17.1421 38.954L17.5121 40.4879L17.4051 41.6969L17.0391 43.0701L17.9313 43.543L24.6831 45.3358L26.2128 44.8629L27.0022 42.9097L26.8418 42.1737L26.1059 40.6974C26.1059 40.6973 22.8986 36.0384 22.4217 35.3476Z" fill="#FFC200"/>
<path fill-rule="evenodd" clip-rule="evenodd" d="M25.8583 18.7968C25.7474 15.1168 27.1825 13.4924 30.1635 13.439C33.1406 13.3814 35.0073 14.9521 35.3898 17.0123C35.768 19.0683 35.5502 21.778 36.3108 23.1844C37.0675 24.5947 37.5528 25.6761 38.8562 27.3003C40.1554 28.9245 40.9655 30.5776 41.344 32.584C41.7261 34.5866 41.9402 35.5324 40.9655 36.5643C39.9911 37.5922 38.26 39.2699 36.9605 37.3744C36.3069 36.4246 36.237 35.2444 37.339 34.9938C38.0421 34.8292 38.5478 34.8827 39.0701 35.154C39.5965 35.4255 39.7198 35.2978 39.0906 34.8292C38.4572 34.3603 38.33 34.7921 38.5478 34.0355C38.766 33.2788 39.0496 31.9177 38.4574 30.421C38.182 29.7304 37.2486 27.8389 36.3726 27.3741C36.2944 27.3289 36.0644 27.2344 36.2205 27.4277C36.4549 27.7197 37.7172 29.5781 38.0749 30.6842C38.4574 31.8727 38.5107 33.0076 38.3136 33.7271C38.1164 34.4508 37.7707 34.7385 37.3555 34.7385C36.9402 34.7385 36.562 34.9358 36.562 33.982C36.562 33.0239 36.6607 31.5805 36.1467 30.3592C35.6327 29.1422 35.0075 28.3033 34.8721 27.7893C34.7405 27.2752 34.4402 25.8937 33.8194 25.1084C33.1943 24.323 32.923 23.809 33.2476 22.9127C33.5725 22.0205 33.3298 21.7778 32.6803 21.5886C32.0306 21.3996 31.1629 21.1281 30.9492 20.6923C30.7312 20.2606 30.8671 19.3929 31.3523 19.1792C31.8414 18.9612 32.6515 19.2573 32.6803 19.8824C32.7091 20.5033 32.4088 20.8282 32.4915 20.9638C32.5736 21.0995 33.0051 21.3174 33.2233 21.0749C33.437 20.8282 33.4948 20.0714 33.2766 19.3684C33.0585 18.6652 32.9518 18.1759 32.1662 18.0155C31.3811 17.8508 31.0274 17.9044 30.6491 18.3937C30.2707 18.8789 30.1064 19.6642 30.2174 20.2359C30.3242 20.8032 30.1062 20.4784 29.7281 20.4496C29.3497 20.4249 29.4567 20.3961 29.0784 20.4249C28.7 20.4496 28.8358 20.2069 28.8069 19.7999C28.7821 19.3927 28.7288 18.5541 28.1572 18.2292C27.5896 17.9044 26.6153 18.2827 26.6398 19.6397C26.6686 20.9926 27.1291 21.6421 27.4006 21.1528C27.6719 20.6676 27.5363 20.9103 27.265 20.6923C26.9936 20.4786 26.8045 19.5821 27.1005 19.3149C27.4006 19.0435 27.7502 19.0435 27.9434 19.2039C28.1326 19.3684 28.4287 19.9112 28.3752 20.2606C28.3216 20.6142 28.2928 20.639 27.9434 20.8856C27.5898 21.1281 27.4541 21.3461 27.0472 21.6133C26.64 21.8846 26.4798 22.5098 26.8046 22.6702C27.1295 22.8346 27.1583 22.8058 27.4255 23.213C27.6969 23.6202 28.1574 23.8092 29.2964 23.6202C30.4313 23.431 30.8999 23.1597 31.7595 22.8594C32.3846 22.6454 32.1664 22.6702 32.3846 22.4276C32.5983 22.1851 32.952 22.5345 32.6271 22.7525C32.3023 22.9705 31.5701 23.1842 31.0276 23.3734C30.4889 23.5666 29.8639 24.1054 28.729 24.0519C27.59 23.9983 28.3753 24.0231 28.0217 23.9983C27.6721 23.9696 27.5077 24.0231 27.886 24.2944C28.2685 24.5659 28.2397 24.648 28.5645 24.7549C28.8894 24.866 29.3211 24.866 29.8392 24.6768C30.3532 24.4836 31.6528 23.916 32.0597 23.6447C32.4629 23.3734 32.7875 23.727 32.3846 23.9983C31.9776 24.2697 31.8665 24.1875 31.4881 24.4301C31.1099 24.6768 30.4067 25.0797 29.9462 25.5155C29.4857 25.9472 29.3789 25.976 28.8072 26.0008C28.2399 26.0295 27.8862 25.4334 27.6435 25.1621C27.401 24.8906 27.4255 24.7304 27.1295 24.4053C26.8334 24.0805 26.8046 24.1586 26.7511 24.5122C26.6976 24.8658 26.2906 25.758 25.937 26.3544C25.5874 26.9506 25.5586 27.6826 25.6121 28.1966C25.6657 28.7106 25.53 28.764 25.1271 29.3601C24.7199 29.9563 24.0414 31.7162 23.9346 32.2837C23.8275 32.8511 23.692 34.0189 23.7454 34.6933C23.7989 35.3718 23.6097 35.5075 23.1204 35.047C22.6352 34.5864 22.4705 34.0724 22.4995 33.3939C22.5243 32.8142 22.6023 32.407 22.6763 32.1933C22.7504 31.9796 22.6804 31.8315 22.5243 32.0947C22.1911 32.6702 22.1747 33.6654 22.257 34.0191C22.3351 34.3687 22.3639 34.9936 23.2563 35.8323C24.1525 36.6712 25.4519 37.8349 26.5335 38.6202C27.619 39.4056 27.9973 40.3801 26.3978 41.0833C27.4012 42.4403 27.9438 43.1433 27.508 44.0356C28.4043 43.5215 28.059 42.3087 27.6273 41.9837C27.1913 41.6588 27.4545 41.4082 27.8329 41.655C28.2113 41.8975 28.3469 42.3827 29.8395 42.358C31.3279 42.3294 32.9317 42.1814 33.8283 40.8777C34.7205 39.5784 34.8933 40.6721 34.6751 41.4329C34.4614 42.1895 33.9267 43.9001 34.7656 43.7397C34.8726 42.7362 35.1192 41.8687 35.1192 40.7873C35.1192 39.7016 35.2262 39.1795 35.1441 37.6088C35.0616 36.0955 35.7155 35.9927 36.39 35.9927C37.0685 35.9927 36.8503 36.4285 36.4188 36.3997C35.983 36.3711 35.5262 36.5355 35.4978 37.6457C35.469 38.7559 35.4978 38.649 35.6866 39.6483C35.8758 40.6516 35.9047 40.9477 35.7403 42.0579C35.5799 43.1683 35.444 43.7642 36.1761 44.4429C36.9038 45.1214 38.0138 44.9281 38.5856 44.4963C39.153 44.0645 40.2346 43.0614 41.2089 42.7364C42.1877 42.4115 43.2158 42.169 43.7582 41.6262C44.2972 41.0835 44.1613 40.7052 43.5938 40.4089C43.0264 40.1088 42.4834 40.2445 42.0519 39.7592C41.6157 39.2699 41.402 38.1884 41.5624 37.6169C41.7268 37.0495 41.916 37.2921 41.916 37.6992C41.916 38.1062 41.9409 38.4846 42.3479 38.9984C42.7549 39.5125 43.1331 39.7592 43.783 40.1622C44.4327 40.5693 44.8396 41.219 44.0255 41.7904C43.2154 42.3578 42.7547 42.6828 42.0762 42.9542C41.4018 43.2257 40.2918 43.8752 39.613 44.5498C38.9345 45.2283 38.5563 45.8244 37.2283 45.8244C35.9042 45.8244 35.2956 45.5036 34.901 44.714C34.6295 44.1714 34.4937 44.2537 33.873 44.2249C33.2478 44.2002 31.1631 44.1714 29.5391 44.2002C27.9148 44.2249 27.3722 44.4963 26.6402 45.0924C25.9124 45.6886 25.6409 46.1493 24.2594 45.6886C22.8779 45.2279 22.1459 44.714 20.0899 44.3071C18.0298 43.9001 19.1401 44.0891 17.8941 43.8178C16.6482 43.5505 16.7304 42.9542 16.895 42.465C17.0554 41.9798 17.4624 41.219 17.1088 40.2199C16.7592 39.2164 16.895 38.1885 17.8406 38.1885C18.7904 38.1885 19.6828 38.3777 20.061 37.1317C20.4393 35.8858 20.5503 36.8604 20.4393 37.1852C20.3325 37.5101 20.2789 38.4023 19.4401 38.5381C18.6012 38.6736 18.4122 38.4846 17.8939 38.4846C17.3801 38.4846 17.1662 38.8382 17.4334 39.4344C17.7047 40.0304 18.0048 40.6515 17.9515 41.1655C17.8939 41.6793 17.8404 41.8687 17.4622 42.3578C17.0838 42.843 17.1374 43.0898 17.8158 43.2502C18.4901 43.4149 19.7114 43.7395 20.8463 44.011C21.9853 44.2781 22.0676 44.2781 24.0412 44.7964C26.0191 45.3102 26.5619 44.3892 26.7223 43.279C26.8868 42.1686 26.1262 41.112 25.4229 40.0551C24.7197 38.9982 23.9628 37.7817 23.0416 36.6714C22.1206 35.5612 21.5778 35.4788 21.1173 35.7216C20.6566 35.9683 20.5744 35.9148 20.5497 35.2898C20.5209 34.669 20.4674 34.262 20.9814 33.3408C21.4955 32.4198 21.956 31.4163 22.4988 29.8743C23.0414 28.3324 23.5267 28.0323 24.4479 26.7042C25.369 25.3802 24.9619 25.8941 25.6116 25.0019C26.2613 24.1056 26.0721 24.2698 26.0187 22.8595C25.9652 21.4531 25.9119 20.639 25.8583 18.7968ZM23.272 29.8085C23.4119 29.9772 23.6092 29.5783 23.8148 29.4262C23.9034 29.3462 23.9703 29.245 24.0092 29.1321C24.048 29.0191 24.0575 28.8982 24.0368 28.7806C24.0163 28.6532 23.8105 28.6942 23.7696 28.7394C23.6422 28.8668 23.6708 29.0726 23.5804 29.2494C23.4776 29.4631 23.1322 29.6359 23.272 29.8085ZM34.9128 24.1504C35.2048 24.3972 35.3857 24.6111 35.5459 24.2451C35.7107 23.8791 35.7107 23.7311 35.316 23.5831C34.9252 23.4308 34.7486 23.2706 34.5716 23.069C34.3949 22.8634 34.3333 23.213 34.4771 23.5543C34.6537 23.9738 34.7565 24.0231 34.9128 24.1504ZM28.8107 20.7911C28.6092 20.7499 28.3667 20.7663 28.2308 20.9267C28.1773 20.9802 28.202 21.1323 28.2965 21.1735C28.4198 21.227 28.5021 21.1037 28.5269 21.009C28.5392 20.9679 28.5557 20.9145 28.5968 20.9022C28.6504 20.8734 28.7284 20.8981 28.786 20.8734C28.8519 20.8486 28.8272 20.7911 28.8107 20.7911ZM29.7689 20.8282C29.8512 20.9514 29.9992 20.9514 30.1225 21.005C30.1882 21.0338 30.324 21.0749 30.365 20.9802C30.4597 20.6801 30.0525 20.7746 29.8634 20.7746C29.8224 20.7746 29.7277 20.7624 29.7689 20.8282ZM31.7428 19.5164C31.9278 19.5245 32.1786 19.8536 32.2032 20.236C32.207 20.2936 32.3636 20.2894 32.3964 20.232C32.483 20.0799 32.4213 19.9112 32.3802 19.7303C32.3469 19.5823 32.1703 19.4302 32.0223 19.3643C31.9235 19.3149 31.8207 19.2986 31.6891 19.3149C31.6563 19.3315 31.5413 19.504 31.7428 19.5164ZM27.7089 19.4219C27.5402 19.4341 27.602 19.5657 27.6101 19.6726C27.8445 19.8042 27.865 20.1002 27.9143 20.3346C27.9183 20.425 28.054 20.3841 28.0664 20.3553C28.1692 20.1661 28.0416 19.9524 27.9966 19.7303C27.9554 19.6152 27.8774 19.4836 27.7703 19.4055C27.7541 19.3891 27.7251 19.4219 27.7089 19.4219ZM32.8815 15.2729C32.7128 15.1373 32.4496 15.0837 32.3717 15.3058C32.2895 15.495 32.3222 15.6882 32.2768 15.8938C32.2768 15.9595 32.1947 15.976 32.1496 16.0376C32.0837 16.1157 32.1002 16.2144 32.133 16.2432C32.2895 16.4036 32.5771 16.0869 32.787 15.976C32.9431 15.8772 33.169 16.0048 33.3421 15.8938C33.3912 15.861 33.4077 15.7827 33.3584 15.7211C33.2475 15.5278 33.0542 15.4169 32.8815 15.2729Z" fill="black"/>
<path fill-rule="evenodd" clip-rule="evenodd" d="M37.7588 36.8021C37.7837 36.691 37.8409 36.4732 37.9479 36.4403C37.985 36.428 38.0179 36.4444 38.0301 36.4815C38.0546 36.5512 37.9806 36.9503 38.0096 37.0407C38.0424 37.1352 38.1534 37.1228 38.2316 37.0983C38.4165 37.0365 38.5236 36.8187 38.5153 36.7982C38.5153 36.7899 38.511 36.7899 38.5031 36.7899C38.4743 36.7982 38.4494 36.901 38.3673 36.9254C38.3139 36.942 38.2728 36.9337 38.2562 36.8803C38.2399 36.8227 38.3099 36.4115 38.2766 36.3168C38.2482 36.2223 38.1534 36.1976 38.0629 36.2264C37.8614 36.2923 37.7752 36.6005 37.7219 36.7816H37.7176L37.7464 36.358L37.4956 36.4403L37.4834 37.3161L37.7178 37.2378C37.722 37.0857 37.73 36.913 37.7588 36.8021ZM38.8445 36.8966C39.0457 36.8309 39.1361 36.5924 39.1278 36.5634C39.124 36.5553 39.1199 36.5511 39.1116 36.5511C39.095 36.5594 39.0583 36.695 38.9429 36.7319C38.8934 36.7485 38.8484 36.736 38.8362 36.7033C38.8196 36.6539 38.832 36.5677 38.832 36.4935L38.8403 36.0987L39.1157 36.0082L39.1118 35.9136L38.8364 36.004L38.8486 35.6299L38.602 35.7698L38.5895 36.6044C38.5895 36.6948 38.5815 36.7729 38.5978 36.8142C38.6304 36.9213 38.7416 36.9337 38.8445 36.8966Z" fill="black"/>
</svg>
