<svg width="70" height="70" viewBox="0 0 70 70" fill="none" xmlns="http://www.w3.org/2000/svg">
<path d="M43.7518 35.014C43.7518 37.5368 43.2981 40.0428 42.4077 42.4032C40.0444 43.2936 37.5411 43.75 35.0154 43.75H34.9846C32.3833 43.7472 29.894 43.2712 27.5951 42.406C26.7047 40.0428 26.2483 37.5396 26.2511 35.0168V34.986C26.2511 32.4632 26.7047 29.96 27.5923 27.5968C29.9556 26.7064 32.4589 26.25 34.9846 26.25H35.0154C37.5411 26.25 40.0444 26.7036 42.4077 27.5968C43.2981 29.9572 43.7518 32.4604 43.7518 34.986V35.014ZM69.5156 29.1676H49.086L63.5317 14.7224C62.3977 13.1292 61.132 11.634 59.7516 10.2508C58.3683 8.8704 56.8731 7.6076 55.2826 6.4736L40.8368 20.9188V0.4872C38.9132 0.1652 36.9671 0 35.0182 0H34.9818C32.9993 0 31.0588 0.1708 29.166 0.4872V20.916L14.7202 6.4708C13.1269 7.6048 11.6345 8.8676 10.254 10.2508L10.2456 10.2564C8.86515 11.6368 7.6023 13.1292 6.46826 14.7196L20.9168 29.1648H0.487219C0.487219 29.1648 0 33.0008 0 34.986V35.0112C0 36.9964 0.168007 38.9396 0.487219 40.8324H20.9168L6.46826 55.2776C8.74195 58.4668 11.5309 61.2556 14.7202 63.5292L29.166 49.0812V69.5128C31.084 69.8348 33.0273 69.9972 34.9734 70H35.0238C36.9699 69.9972 38.9132 69.8348 40.8312 69.5128V49.0812L55.2798 63.5292C56.8703 62.3952 58.3655 61.1324 59.7488 59.7492L59.7516 59.7464C61.132 58.3632 62.3949 56.8708 63.5289 55.2776L49.0804 40.8324H69.5128C69.832 38.9424 69.9972 37.0048 70 35.0252V34.9748C70 32.9952 69.8348 31.0576 69.5156 29.1676Z" fill="#FF4A00"/>
</svg>
