<svg width="48"
     height="42"
     viewBox="0 0 48 42"
     fill="none"
     xmlns="http://www.w3.org/2000/svg">
  <path d="M16.8002 26.3002V15.5002C16.8002 14.2002 15.8002 13.2002 14.5002 13.2002C13.2002 13.2002 12.2002 14.2002 12.2002 15.5002V26.3002"
        stroke="#9888C4"
        stroke-width="2"
        stroke-miterlimit="10"
        stroke-linecap="round"/>
  <path d="M12.1998 26.3006V17.9006C12.1998 16.6006 11.1998 15.6006 9.89982 15.6006C8.59982 15.6006 7.59982 16.6006 7.59982 17.9006V28.3006L6.09982 27.5006C1.39982 24.9006 -0.600175 30.1006 2.49982 32.0006C2.49982 32.0006 6.19982 34.0006 8.29982 35.1006C9.69982 38.3006 12.7998 40.6006 16.4998 40.6006C19.8998 40.6006 23.0998 38.7006 24.6998 35.9006"
        stroke="#9888C4"
        stroke-width="2"
        stroke-miterlimit="10"
        stroke-linecap="round"/>
  <path d="M25.8998 18.6996V12.3996C25.8998 11.0996 24.8998 10.0996 23.5998 10.0996C22.2998 10.0996 21.2998 11.0996 21.2998 12.3996V15.9996"
        stroke="#9888C4"
        stroke-width="2"
        stroke-miterlimit="10"
        stroke-linecap="round"/>
  <path d="M30.4994 18.6992V9.99922C30.4994 8.69922 29.4994 7.69922 28.1994 7.69922C26.8994 7.69922 25.8994 8.69922 25.8994 9.99922V18.6992"
        stroke="#9888C4"
        stroke-width="2"
        stroke-miterlimit="10"
        stroke-linecap="round"/>
  <path d="M34.9994 18.6996V7.89961C34.9994 6.59961 33.9994 5.59961 32.6994 5.59961C31.3994 5.59961 30.3994 6.59961 30.3994 7.89961V18.6996"
        stroke="#9888C4"
        stroke-width="2"
        stroke-miterlimit="10"
        stroke-linecap="round"/>
  <path d="M21.3994 16V24C21.3994 28.9 25.8994 32.9 30.7994 32.9C34.3994 32.9 37.5994 30.6 38.9994 27.4C41.0994 26.3 44.7994 24.3 44.7994 24.3C47.8994 22.5 45.8994 17.2 41.1994 19.8L39.6994 20.6V10.3C39.6994 9 38.6994 8 37.3994 8C36.0994 8 35.0994 9 35.0994 10.3V18.7"
        stroke="#9888C4"
        stroke-width="2"
        stroke-miterlimit="10"
        stroke-linecap="round"/>
  <path d="M15 7.1998L13.5 4.2998"
        stroke="#9888C4"
        stroke-width="2"
        stroke-miterlimit="10"
        stroke-linecap="round"/>
  <path d="M25.7 1L24 4.4"
        stroke="#9888C4"
        stroke-width="2"
        stroke-miterlimit="10"
        stroke-linecap="round"/>
  <path d="M19.2998 7.19961V1.09961"
        stroke="#9888C4"
        stroke-width="2"
        stroke-miterlimit="10"
        stroke-linecap="round"/>
</svg>
