<svg width="61" height="61" viewBox="0 0 61 61" fill="none" xmlns="http://www.w3.org/2000/svg">
<rect x="1.26172" y="1.25879" width="59" height="59" rx="29.5" fill="white"/>
<path d="M38.4653 25.231L40.8296 21.0038C40.9637 20.7653 40.881 20.4651 40.6557 20.3267C40.4304 20.1884 40.1338 20.2678 40.0054 20.5063L37.6097 24.7895C35.7816 23.9269 33.7253 23.4471 31.5122 23.4471C29.299 23.4471 27.2427 23.9269 25.4146 24.7895L23.0189 20.5063C22.8849 20.2678 22.594 20.1884 22.363 20.3267C22.132 20.4651 22.0549 20.7653 22.189 21.0038L24.5533 25.231C20.4778 27.5124 17.7171 31.7721 17.2607 36.7588H45.7607C45.3044 31.7721 42.5437 27.5124 38.4653 25.231ZM24.9668 32.6257C24.3052 32.6257 23.7718 32.0723 23.7718 31.3923C23.7718 30.7094 24.308 30.1589 24.9668 30.1589C25.6285 30.1589 26.1618 30.7123 26.1618 31.3923C26.1647 32.0723 25.6285 32.6257 24.9668 32.6257ZM38.0518 32.6257C37.3901 32.6257 36.8568 32.0723 36.8568 31.3923C36.8568 30.7094 37.393 30.1589 38.0518 30.1589C38.7135 30.1589 39.2468 30.7123 39.2468 31.3923C39.2496 32.0723 38.7135 32.6257 38.0518 32.6257Z" fill="#30DD83"/>
</svg>
