<svg viewBox="0 0 17 17" fill="none" xmlns="http://www.w3.org/2000/svg">
<path fill-rule="evenodd" clip-rule="evenodd" d="M8.5 2C4.91015 2 2 4.91015 2 8.5C2 12.0899 4.91015 15 8.5 15C12.0899 15 15 12.0899 15 8.5C15 4.91015 12.0899 2 8.5 2ZM0 8.5C0 3.80558 3.80558 0 8.5 0C13.1944 0 17 3.80558 17 8.5C17 13.1944 13.1944 17 8.5 17C3.80558 17 0 13.1944 0 8.5Z" fill=""/>
<path fill-rule="evenodd" clip-rule="evenodd" d="M8.49976 3.17383C9.05204 3.17383 9.49976 3.62154 9.49976 4.17383V7.50075H11.5767C12.129 7.50075 12.5767 7.94847 12.5767 8.50075C12.5767 9.05304 12.129 9.50075 11.5767 9.50075H8.49976C7.94747 9.50075 7.49976 9.05304 7.49976 8.50075V4.17383C7.49976 3.62154 7.94747 3.17383 8.49976 3.17383Z" fill=""/>
</svg>
