<svg width="39"
     height="35"
     viewBox="0 0 39 35"
     fill="none"
     xmlns="http://www.w3.org/2000/svg">
  <path d="M37.1998 12.7992V10.9992C37.1998 8.89922 35.4998 7.19922 33.3998 7.19922H3.7998"
        stroke="white"
        stroke-width="2"
        stroke-miterlimit="10"
        stroke-linecap="round"/>
  <path d="M1 4.09961V30.1996C1 32.2996 2.7 33.9996 4.8 33.9996H33.4C35.5 33.9996 37.2 32.2996 37.2 30.1996V24.5996"
        stroke="white"
        stroke-width="2"
        stroke-miterlimit="10"
        stroke-linecap="round"/>
  <path d="M4.1 7.2C2.4 7.2 1 5.8 1 4.1C1 2.4 2.4 1 4.1 1H26.1C27.8 1 29.2 2.4 29.2 4.1"
        stroke="white"
        stroke-width="2"
        stroke-miterlimit="10"
        stroke-linecap="round"/>
  <path d="M37.1998 24.5002H31.5998C29.4998 24.5002 27.7998 22.8002 27.7998 20.7002V20.5002C27.7998 18.4002 29.4998 16.7002 31.5998 16.7002H37.1998V24.5002Z"
        stroke="white"
        stroke-width="2"
        stroke-miterlimit="10"
        stroke-linecap="round"
        stroke-linejoin="round"/>
  <path d="M32.0004 21.7996C32.6079 21.7996 33.1004 21.3071 33.1004 20.6996C33.1004 20.0921 32.6079 19.5996 32.0004 19.5996C31.3929 19.5996 30.9004 20.0921 30.9004 20.6996C30.9004 21.3071 31.3929 21.7996 32.0004 21.7996Z"
        fill="white"/>
</svg>
