<svg viewBox="0 0 52 47" fill="none" xmlns="http://www.w3.org/2000/svg">
  <path fill-rule="evenodd" clip-rule="evenodd" d="M0 6.7283c0-3.7523 2.9477-6.7 6.7-6.7h38.6c3.7523 0 6.7 2.9477 6.7 6.7v27.3c0 3.7637-3.0592 6.7-6.7 6.7H31.7a.9065.9065 0 00-.1038.0051 1.1485 1.1485 0 01-.0258.0325l-4.8 5.8a1.0001 1.0001 0 01-1.5408 0l-4.8-5.8a.9192.9192 0 01-.0179-.0223.344.344 0 00-.04-.0091.4483.4483 0 00-.0717-.0062H6.7c-3.7637 0-6.7-3.0592-6.7-6.7v-27.3zm6.7-4.7c-2.6477 0-4.7 2.0523-4.7 4.7v27.3c0 2.5592 2.0637 4.7 4.7 4.7h13.6c.4149 0 1.2147.1231 1.6967.7942L26 44.3599l4.0021-4.8359c.459-.6466 1.1367-.7957 1.6979-.7957h13.6c2.5592 0 4.7-2.0637 4.7-4.7v-27.3c0-2.6477-2.0523-4.7-4.7-4.7H6.7z" fill="#fff"/>
  <path fill-rule="evenodd" clip-rule="evenodd" d="M22 10.3283c-.3477 0-.7.3523-.7.7v3.3H26c.5523 0 1 .4477 1 1s-.4477 1-1 1h-8.1c-.3477 0-.7.3523-.7.7v10.9c0 .3477.3523.7.7.7h14.7c.3477 0 .7-.3523.7-.7v-10.9c0-.3477-.3523-.7-.7-.7h-2.4c-.5523 0-1-.4477-1-1v-4.3c0-.3477-.3523-.7-.7-.7H22zm-2.7 4v-3.3c0-1.4523 1.2477-2.7 2.7-2.7h6.5c1.4523 0 2.7 1.2477 2.7 2.7v3.3h1.4c1.4523 0 2.7 1.2477 2.7 2.7v10.9c0 1.4523-1.2477 2.7-2.7 2.7H17.9c-1.4523 0-2.7-1.2477-2.7-2.7v-10.9c0-1.4523 1.2477-2.7 2.7-2.7h1.4z" fill="#fff"/>
  <path d="M25.2 23.0283c1.1598 0 2.1-.9402 2.1-2.1 0-1.1598-.9402-2.1-2.1-2.1-1.1598 0-2.1.9402-2.1 2.1 0 1.1598.9402 2.1 2.1 2.1z" fill="#fff"/>
  <path fill-rule="evenodd" clip-rule="evenodd" d="M25.2 19.9283c.5523 0 1 .4477 1 1v4.2c0 .5523-.4477 1-1 1s-1-.4477-1-1v-4.2c0-.5523.4477-1 1-1z" fill="#fff"/>
</svg>
