<svg width="35"
     height="36"
     viewBox="0 0 35 36"
     fill="none"
     xmlns="http://www.w3.org/2000/svg">
  <path d="M14.7886 14.251C15.3401 14.251 15.7872 13.804 15.7872 13.2525C15.7872 12.701 15.3401 12.2539 14.7886 12.2539C14.2371 12.2539 13.79 12.701 13.79 13.2525C13.79 13.804 14.2371 14.251 14.7886 14.251Z"
        fill="white"/>
  <path d="M20.4102 14.3242C20.9624 14.3242 21.4102 13.8765 21.4102 13.3242C21.4102 12.7719 20.9624 12.3242 20.4102 12.3242C19.8579 12.3242 19.4102 12.7719 19.4102 13.3242C19.4102 13.8765 19.8579 14.3242 20.4102 14.3242Z"
        fill="white"/>
  <path fill-rule="evenodd"
        clip-rule="evenodd"
        d="M12.2699 10.9241C12.2699 10.5664 12.5922 10.2441 12.9499 10.2441H22.2599C22.6176 10.2441 22.9399 10.5664 22.9399 10.9241V15.8941C22.9399 16.2519 22.6176 16.5741 22.2599 16.5741H12.9499C12.5922 16.5741 12.2699 16.2519 12.2699 15.8941V10.9241ZM12.9499 8.24414C11.4876 8.24414 10.2699 9.46186 10.2699 10.9241V12.1639H9.80017C9.24789 12.1639 8.80017 12.6116 8.80017 13.1639C8.80017 13.7161 9.24789 14.1639 9.80017 14.1639H10.2699V15.8941C10.2699 17.3564 11.4876 18.5741 12.9499 18.5741H22.2599C23.7222 18.5741 24.9399 17.3564 24.9399 15.8941V14.1639H25.2003C25.7526 14.1639 26.2003 13.7161 26.2003 13.1639C26.2003 12.6116 25.7526 12.1639 25.2003 12.1639H24.9399V10.9241C24.9399 9.46186 23.7222 8.24414 22.2599 8.24414H12.9499ZM8.70066 22.4013L8.70028 22.3946C8.7061 22.0408 9.02575 21.7244 9.3802 21.7244H25.6202C25.9746 21.7244 26.2943 22.0408 26.3001 22.3946L26.2997 22.4013C26.2987 22.4178 26.2961 22.4507 26.2898 22.4978C26.2772 22.5922 26.2501 22.7415 26.1922 22.9277C26.0771 23.2976 25.8398 23.816 25.3441 24.3471C24.3695 25.3914 22.2277 26.6544 17.5002 26.6544C12.7727 26.6544 10.6309 25.3914 9.65625 24.3471C9.1606 23.816 8.92326 23.2976 8.80818 22.9277C8.75027 22.7415 8.72315 22.5922 8.71056 22.4978C8.70429 22.4507 8.70168 22.4178 8.70066 22.4013ZM28.3002 22.4044H27.3002C28.3002 22.4044 28.3002 22.4063 28.3002 22.4063L28.3002 22.4083L28.3002 22.4127L28.3 22.423L28.2994 22.4496C28.2988 22.4698 28.2978 22.4953 28.2959 22.5255C28.2921 22.5859 28.2851 22.6657 28.2723 22.7622C28.2466 22.9549 28.1971 23.2157 28.1019 23.5218C27.9108 24.1363 27.5356 24.9303 26.8062 25.7117C25.3309 27.2924 22.5727 28.6544 17.5002 28.6544C12.4277 28.6544 9.66948 27.2924 8.19414 25.7117C7.4648 24.9303 7.08963 24.1363 6.89846 23.5218C6.80324 23.2157 6.7538 22.9549 6.72811 22.7622C6.71525 22.6657 6.70828 22.5859 6.70452 22.5255C6.70264 22.4953 6.70156 22.4698 6.70095 22.4496L6.70034 22.423L6.70023 22.4127L6.7002 22.4083L6.7002 22.4063C6.7002 22.4063 6.7002 22.4044 7.7002 22.4044H6.7002C6.7002 20.9421 7.91791 19.7244 9.3802 19.7244H25.6202C27.0825 19.7244 28.3002 20.9421 28.3002 22.4044Z"
        fill="white"/>
</svg>
