<svg viewBox="0 0 29 27" fill="none" xmlns="http://www.w3.org/2000/svg">
  <path fill-rule="evenodd" clip-rule="evenodd" d="M3.1 2C2.5523 2 2 2.5523 2 3.1v9.6c0 .5789.483 1.1 1.1 1.1h2.5c.5523 0 1 .4477 1 1v4.4865l4.4435-5.1405A1 1 0 0111.8 13.8h4.9c.5789 0 1.1-.4829 1.1-1.1V3.1c0-.5789-.4829-1.1-1.1-1.1H3.1zM0 3.1C0 1.4477 1.4477 0 3.1 0h13.6c1.7829 0 3.1 1.4789 3.1 3.1v9.6c0 1.7829-1.4789 3.1-3.1 3.1h-4.4426l-4.8009 5.554a.9959.9959 0 01-.0494.0531c-.4734.4734-1.1465.6089-1.7233.4166C5.072 21.6198 4.6 21.0529 4.6 20.3v-4.5H3.1c-1.783 0-3.1-1.4789-3.1-3.1V3.1z" fill=""/>
  <path fill-rule="evenodd" clip-rule="evenodd" d="M21.6 9.6c0-.5523.4477-1 1-1h3.7c1.5903 0 2.7 1.2866 2.7 2.7v7.4c0 1.5904-1.2866 2.7-2.7 2.7h-.9v3.3c0 1.3794-1.6404 1.8739-2.5071 1.0071a.9502.9502 0 01-.0475-.0509L19.1443 21.4H15.8c-1.5904 0-2.7-1.2866-2.7-2.7v-.2c0-.5523.4477-1 1-1s1 .4477 1 1v.2c0 .3866.2903.7.7.7h3.8a1 1 0 01.7546.3438L23.4 23.246V20.4c0-.5523.4477-1 1-1h1.9c.3866 0 .7-.2904.7-.7v-7.4c0-.3866-.2904-.7-.7-.7h-3.7c-.5523 0-1-.4477-1-1z" fill=""/>
</svg>
