<svg width="40"
     height="40"
     viewBox="0 0 40 40"
     xmlns="http://www.w3.org/2000/svg">
  <path fill-rule="evenodd"
        clip-rule="evenodd"
        transform='translate(-3.5 -1.5)'
        d="M14.0562 21.0079L24.9472 10.2874L26.3502 11.7127L15.4592 22.4332C13.5278 24.3344 13.496 27.4997 15.4694 29.5671C17.4111 31.4675 20.6463 31.4946 22.752 29.5467L32.6673 19.7865C33.9041 18.5691 33.9479 16.407 32.6532 15.0914C31.4049 13.8782 29.2731 13.8413 27.8516 15.1201L17.8029 25.0116C17.2667 25.5394 17.1977 26.5402 17.8259 27.2723C18.3783 27.7898 19.4051 27.8454 20.1401 27.2245L27.9801 19.5152L29.3831 20.9405L21.5014 28.6988L21.4762 28.7205C20.0254 29.9701 17.7779 30.032 16.3998 28.6755L16.3761 28.6521L16.3539 28.6272C15.0765 27.1902 15.0124 24.952 16.3998 23.5862L26.4779 13.6659L26.4927 13.6525C28.6502 11.6921 32.012 11.6538 34.0704 13.6799L34.0846 13.694L34.0983 13.7085C36.0982 15.8412 36.1378 19.1767 34.0704 21.2119L24.1342 30.9925L24.1238 31.0022C21.2699 33.6554 16.7998 33.6831 14.0562 30.9825L14.046 30.9724L14.0361 30.9621C11.3323 28.144 11.3036 23.7174 14.0562 21.0079Z"/>
</svg>
