<svg width="50"
     height="49"
     viewBox="0 0 50 49"
     fill="none"
     xmlns="http://www.w3.org/2000/svg">
  <path fill-rule="evenodd"
        clip-rule="evenodd"
        d="M1 0C0.447715 0 0 0.447715 0 1V47.2C0 47.7523 0.447715 48.2 1 48.2H37.1C37.6523 48.2 38.1 47.7523 38.1 47.2C38.1 46.6477 37.6523 46.2 37.1 46.2H2V2H36.2V14.2C36.2 14.7523 36.6477 15.2 37.2 15.2C37.7523 15.2 38.2 14.7523 38.2 14.2V1C38.2 0.447715 37.7523 0 37.2 0H1ZM6.79999 14.1C6.2477 14.1 5.79999 14.5477 5.79999 15.1C5.79999 15.6523 6.2477 16.1 6.79999 16.1H29.8C30.3523 16.1 30.8 15.6523 30.8 15.1C30.8 14.5477 30.3523 14.1 29.8 14.1H6.79999ZM5.79999 9.09998C5.79999 8.54769 6.2477 8.09998 6.79999 8.09998H25.8C26.3523 8.09998 26.8 8.54769 26.8 9.09998C26.8 9.65226 26.3523 10.1 25.8 10.1H6.79999C6.2477 10.1 5.79999 9.65226 5.79999 9.09998ZM6.79999 20.1C6.2477 20.1 5.79999 20.5477 5.79999 21.1C5.79999 21.6523 6.2477 22.1 6.79999 22.1H18.3C18.8523 22.1 19.3 21.6523 19.3 21.1C19.3 20.5477 18.8523 20.1 18.3 20.1H6.79999ZM5.79999 27.1C5.79999 26.5477 6.2477 26.1 6.79999 26.1H12.1C12.6523 26.1 13.1 26.5477 13.1 27.1C13.1 27.6523 12.6523 28.1 12.1 28.1H6.79999C6.2477 28.1 5.79999 27.6523 5.79999 27.1ZM37.1 18.6C30.3477 18.6 24.8 24.1477 24.8 30.9C24.8 37.6523 30.3477 43.2 37.1 43.2C43.8523 43.2 49.4 37.6523 49.4 30.9C49.4 24.0419 43.8465 18.6 37.1 18.6ZM26.8 30.9C26.8 25.2523 31.4523 20.6 37.1 20.6C42.7535 20.6 47.4 25.158 47.4 30.9C47.4 36.5477 42.7477 41.2 37.1 41.2C31.4523 41.2 26.8 36.5477 26.8 30.9ZM43.2343 26.3992L37.7263 23.7436C37.485 23.5804 37.2172 23.525 37 23.525C36.7828 23.525 36.5149 23.5804 36.2736 23.7436L30.7657 26.3992L30.7528 26.4055C30.1671 26.6984 29.9 27.2767 29.9 27.8C29.9 27.839 29.9023 27.878 29.9068 27.9168L30.3063 31.3126C30.587 33.884 31.7724 35.6769 33.0846 36.8465C34.369 37.9913 35.7945 38.5571 36.6479 38.6883C36.6982 38.6961 36.7491 38.7 36.8 38.7H37C37.0704 38.7 37.1407 38.6925 37.2095 38.6778C38.8417 38.328 42.9272 36.503 43.4936 31.3126L43.8781 28.0443C44.0932 27.3869 43.7405 26.8263 43.5071 26.5929C43.4277 26.5135 43.3355 26.448 43.2343 26.3992ZM31.9369 28.0549L37 25.6137L41.8738 27.9636L41.5068 31.0831L41.5058 31.0919C41.0819 34.9922 38.1203 36.3976 36.8869 36.7H36.8859C36.4058 36.6061 35.3838 36.2167 34.4154 35.3535C33.4283 34.4737 32.5144 33.118 32.2942 31.0919L31.9369 28.0549ZM39.7071 30.6071C40.0976 30.2166 40.0976 29.5834 39.7071 29.1929C39.3166 28.8023 38.6834 28.8023 38.2929 29.1929L36.2 31.2858L35.6071 30.6929C35.2166 30.3023 34.5834 30.3023 34.1929 30.6929C33.8024 31.0834 33.8024 31.7166 34.1929 32.1071L35.4929 33.4071C35.6804 33.5946 35.9348 33.7 36.2 33.7C36.4652 33.7 36.7196 33.5946 36.9071 33.4071L39.7071 30.6071Z"
        fill="white"/>
</svg>
