<svg width="44"
     height="40"
     viewBox="0 0 44 40"
     fill="none"
     xmlns="http://www.w3.org/2000/svg">
  <path d="M5.10874 1.91992H25.3783C27.1131 1.91992 28.574 3.39208 28.574 5.14026V19.4938C28.574 21.242 27.1131 22.7141 25.3783 22.7141H18.074L10.4044 31.547C9.85656 32.1911 8.85222 31.8231 8.85222 30.903V22.6221H5.20004C3.37396 22.6221 1.91309 21.242 1.91309 19.4938V5.14026C1.91309 3.39208 3.37396 1.91992 5.10874 1.91992Z"
        stroke="black"
        stroke-width="2"
        stroke-miterlimit="10"
        stroke-linecap="round"
        stroke-linejoin="round"/>
  <path d="M21.3613 28.2342V28.5102C21.3613 29.8904 22.457 30.9945 23.8265 30.9945H29.5787L35.5135 37.8952C35.97 38.3553 36.7918 38.0792 36.7918 37.4352V30.9945H39.6222C40.9918 30.9945 42.0874 29.8904 42.0874 28.5102V17.285C42.0874 15.9049 40.9918 14.8008 39.6222 14.8008H34.1439"
        stroke="black"
        stroke-width="2"
        stroke-miterlimit="10"
        stroke-linecap="round"
        stroke-linejoin="round"/>
  <path d="M9.40039 9.55664H21.8178"
        stroke="#9888C4"
        stroke-width="2"
        stroke-miterlimit="10"
        stroke-linecap="round"
        stroke-linejoin="round"/>
  <path d="M9.40039 15.0771H19.0787"
        stroke="#9888C4"
        stroke-width="2"
        stroke-miterlimit="10"
        stroke-linecap="round"
        stroke-linejoin="round"/>
</svg>
