<svg width="48"
     height="48"
     viewBox="0 0 48 48"
     fill="none"
     xmlns="http://www.w3.org/2000/svg">
  <g filter="url(#filter0_dd)">
    <circle cx="24"
            cy="22"
            r="20"
            fill="#F6F6F9"/>
  </g>
  <path d="M25.6487 11L14.7577 21.7205C12.4141 24.0274 12.4141 27.8271 14.7577 30.2698C17.1013 32.5767 20.9614 32.5767 23.4429 30.2698L33.3688 20.4992C35.0232 18.8708 35.0232 16.1567 33.3688 14.3926C31.7145 12.7641 28.9573 12.7641 27.1651 14.3926L17.1013 24.2989C16.1363 25.2488 16.1363 26.8772 17.1013 27.9628C18.0664 28.9127 19.7207 28.9127 20.8236 27.9628L28.6816 20.2278"
        fill="#F6F6F9"/>
  <path fill-rule="evenodd"
        clip-rule="evenodd"
        d="M14.0562 21.0079L24.9472 10.2874L26.3502 11.7127L15.4592 22.4332C13.5278 24.3344 13.496 27.4997 15.4694 29.5671C17.4111 31.4675 20.6463 31.4946 22.752 29.5467L32.6673 19.7865C33.9041 18.5691 33.9479 16.487 32.6532 15.0914C31.4049 13.8782 29.2731 13.8413 27.8516 15.1201L17.8029 25.0116C17.2667 25.5394 17.1977 26.5402 17.8259 27.2723C18.3783 27.7898 19.4051 27.8454 20.1481 27.2245L27.9801 19.5152L29.3831 20.9405L21.5014 28.6988L21.4762 28.7205C20.0254 29.9701 17.7779 30.032 16.3998 28.6755L16.3761 28.6521L16.3539 28.6272C15.0765 27.1902 15.0124 24.952 16.3998 23.5862L26.4779 13.6659L26.4927 13.6525C28.6502 11.6921 32.012 11.6538 34.0704 13.6799L34.0846 13.694L34.0983 13.7085C36.0982 15.8412 36.1378 19.1767 34.0704 21.2119L24.1342 30.9925L24.1238 31.0022C21.2699 33.6554 16.7998 33.6831 14.0562 30.9825L14.046 30.9724L14.0361 30.9621C11.3323 28.144 11.3036 23.7174 14.0562 21.0079Z"
        fill="#9888C4"/>
  <defs>
    <filter id="filter0_dd"
            x="0"
            y="0"
            width="48"
            height="48"
            filterUnits="userSpaceOnUse"
            color-interpolation-filters="sRGB">
      <feFlood flood-opacity="0"
               result="BackgroundImageFix"/>
      <feColorMatrix in="SourceAlpha"
                     type="matrix"
                     values="0 0 0 0 0 0 0 0 0 0 0 0 0 0 0 0 0 0 127 0"/>
      <feOffset dy="2"/>
      <feGaussianBlur stdDeviation="2"/>
      <feColorMatrix type="matrix"
                     values="0 0 0 0 0.185533 0 0 0 0 0.105417 0 0 0 0 0.2875 0 0 0 0.08 0"/>
      <feBlend mode="normal"
               in2="BackgroundImageFix"
               result="effect1_dropShadow"/>
      <feColorMatrix in="SourceAlpha"
                     type="matrix"
                     values="0 0 0 0 0 0 0 0 0 0 0 0 0 0 0 0 0 0 127 0"/>
      <feOffset dy="1"/>
      <feGaussianBlur stdDeviation="0.5"/>
      <feColorMatrix type="matrix"
                     values="0 0 0 0 0.182937 0 0 0 0 0.159375 0 0 0 0 0.25 0 0 0 0.1 0"/>
      <feBlend mode="normal"
               in2="effect1_dropShadow"
               result="effect2_dropShadow"/>
      <feBlend mode="normal"
               in="SourceGraphic"
               in2="effect2_dropShadow"
               result="shape"/>
    </filter>
  </defs>
</svg>
