<svg width="70" height="70" viewBox="0 0 70 70" fill="none" xmlns="http://www.w3.org/2000/svg">
<path d="M43.05 26.075C44.275 26.075 45.325 25.025 45.325 23.8C45.325 22.575 44.275 21.525 43.05 21.525C41.825 21.525 40.775 22.575 40.775 23.8C40.775 25.2 41.825 26.075 43.05 26.075Z" fill="#887CBD"/>
<path d="M26.425 25.9C27.65 25.9 28.7 24.85 28.7 23.625C28.7 22.4 27.65 21.35 26.425 21.35C25.2 21.35 24.15 22.4 24.15 23.625C24.15 24.85 25.2 25.9 26.425 25.9Z" fill="#887CBD"/>
<path d="M35 0C15.75 0 0 15.75 0 35C0 54.25 15.75 70 35 70C54.25 70 70 54.25 70 35C70 15.75 54.425 0 35 0ZM15.225 21.875H17.15V21.525C17.15 16.8 21 12.95 25.725 12.95H44.275C49 12.95 52.85 16.8 52.85 21.525V21.875H54.075C55.125 21.875 56 22.75 56 23.8C56 24.85 55.125 25.725 54.075 25.725H52.85V27.65C52.85 32.375 49 36.225 44.275 36.225H25.55C20.825 36.225 16.975 32.375 16.975 27.65V25.725H15.225C14.175 25.725 13.3 24.85 13.3 23.8C13.3 22.75 14.175 21.875 15.225 21.875ZM58.275 46.725C54.075 55.3 45.15 61.075 35 61.075C24.85 61.075 16.1 55.3 11.725 46.725C10.5 44.1 12.25 41.3 15.05 41.3H54.95C57.75 41.3 59.5 44.1 58.275 46.725Z" fill="#887CBD"/>
</svg>
