<svg viewBox="0 0 24 24" fill="none" xmlns="http://www.w3.org/2000/svg">
  <path fill-rule="evenodd" clip-rule="evenodd" d="M10.2 2C5.6713 2 2 5.6713 2 10.2c0 4.5287 3.6713 8.2 8.2 8.2 4.5287 0 8.2-3.6713 8.2-8.2 0-4.5287-3.6713-8.2-8.2-8.2zM0 10.2C0 4.5667 4.5667 0 10.2 0c5.6333 0 10.2 4.5667 10.2 10.2 0 5.6333-4.5667 10.2-10.2 10.2C4.5667 20.4 0 15.8333 0 10.2zM17.7929 18.4929c.3905-.3905 1.0237-.3905 1.4142 0l3.8 3.8c.3905.3905.3905 1.0237 0 1.4142-.3905.3905-1.0237.3905-1.4142 0l-3.8-3.8c-.3905-.3905-.3905-1.0237 0-1.4142z" fill=""/>
</svg>
