<svg viewBox="0 0 28 28" fill="none" xmlns="http://www.w3.org/2000/svg">
  <path d="M20.2996 27.5c-3.8 0-8.7-2.6-12.9-6.8-4.2-4.2-6.8-9.1-6.8-12.9 0-1.5.4-2.6 1.1-3.5l2.2-2.5c.7-.8 1.7-1.3 2.7-1.3 1 0 1.8.4 2.7 1.2l3.3 3.5c.8.8 1.2 1.7 1.2 2.6 0 .9-.4 1.8-1.2 2.6l-.8.8 5 5 .8-.8c1-1 2-1.2 2.6-1.2.9 0 1.8.4 2.6 1.2l3.4 3.4c.8.8 1.2 1.7 1.2 2.7 0 1-.5 2-1.3 2.7l-2.5 2.2c-1 1-2.4 1.1-3.3 1.1zm-13.7-24.9c-.5 0-1 .3-1.2.6l-2.2 2.5c-.4.5-.6 1.2-.6 2.1 0 3.2 2.4 7.6 6.2 11.5 3.8 3.8 8.3 6.2 11.5 6.2 1 0 1.7-.2 2.1-.6l2.5-2.2c.3-.2.6-.7.6-1.2 0-.4-.2-.8-.6-1.2l-3.4-3.4c-.3-.3-.7-.6-1.2-.6-.4 0-.8.2-1.2.6l-1.2 1.2c-.8.7-1.3.5-1.7.3l-.1-.1-6.4-6.4c-.1-.2-.5-.8.2-1.5 0-.1.1-.1 1.4-1.4.4-.4.6-.8.6-1.2 0-.5-.3-.9-.6-1.2l-3.5-3.4c-.4-.5-.8-.7-1.2-.6z" fill=""/>
</svg>
