<svg xmlns="http://www.w3.org/2000/svg" width="34" height="31" viewBox="0 0 34 31" fill="none">
<path fill-rule="evenodd" clip-rule="evenodd" d="M2.42815 4.08566C2.42815 3.61227 2.0444 3.22852 1.57101 3.22852C1.09762 3.22852 0.713867 3.61227 0.713867 4.08566V26.4571C0.713867 28.7305 2.55477 30.5714 4.82815 30.5714H29.3424C31.6158 30.5714 33.4567 28.7305 33.4567 26.4571V21.6571C33.4567 21.1837 33.073 20.7999 32.5996 20.7999C32.1262 20.7999 31.7424 21.1837 31.7424 21.6571V26.4571C31.7424 27.7837 30.6691 28.8571 29.3424 28.8571H4.82815C3.50154 28.8571 2.42815 27.7837 2.42815 26.4571V4.08566ZM3.97098 5.88504C3.4976 5.88504 3.11384 6.2688 3.11384 6.74219C3.11384 7.21557 3.4976 7.59933 3.97098 7.59933H29.3424C30.669 7.59933 31.7424 8.67272 31.7424 9.99933V11.5422C31.7424 12.0156 32.1262 12.3993 32.5996 12.3993C33.0729 12.3993 33.4567 12.0156 33.4567 11.5422V9.99933C33.4567 7.72594 31.6158 5.88504 29.3424 5.88504H3.97098Z" />
<path fill-rule="evenodd" clip-rule="evenodd" d="M4.22815 2.28557C3.2444 2.28557 2.42815 3.10182 2.42815 4.08557C2.42815 5.06933 3.2444 5.88557 4.22815 5.88557C4.70154 5.88557 5.0853 6.26933 5.0853 6.74272C5.0853 7.2161 4.70154 7.59986 4.22815 7.59986C2.29762 7.59986 0.713867 6.0161 0.713867 4.08557C0.713867 2.15504 2.29762 0.571289 4.22815 0.571289H23.0853C25.0158 0.571289 26.5996 2.15504 26.5996 4.08557C26.5996 4.55896 26.2158 4.94272 25.7424 4.94272C25.2691 4.94272 24.8853 4.55896 24.8853 4.08557C24.8853 3.10182 24.0691 2.28557 23.0853 2.28557H4.22815Z" />
<path fill-rule="evenodd" clip-rule="evenodd" d="M27.7998 15.7426C26.4732 15.7426 25.3998 16.816 25.3998 18.1426V18.314C25.3998 19.6406 26.4732 20.714 27.7998 20.714H31.7427V15.7426H27.7998ZM23.6855 18.1426C23.6855 15.8692 25.5264 14.0283 27.7998 14.0283H32.5998C33.0732 14.0283 33.457 14.4121 33.457 14.8855V21.5712C33.457 22.0446 33.0732 22.4283 32.5998 22.4283H27.7998C25.5264 22.4283 23.6855 20.5874 23.6855 18.314V18.1426Z" />
<path d="M28.1421 19.2568C28.6628 19.2568 29.0849 18.8347 29.0849 18.314C29.0849 17.7932 28.6628 17.3711 28.1421 17.3711C27.6214 17.3711 27.1992 17.7932 27.1992 18.314C27.1992 18.8347 27.6214 19.2568 28.1421 19.2568Z" />
</svg>