<svg viewBox="0 0 61 61" fill="none" xmlns="http://www.w3.org/2000/svg">
  <rect x=".7852" y="1.2588" width="59" height="59" rx="29.5" fill="#fff" stroke="#EAE7FB"/>
  <path d="M46.9578 20.7587c-.1003-.2444-.3814-.3813-.6323-.2835l-2.9106 1.0169c-1.5256.4889-2.8204.8312-3.8642 1.0267-2.5795.4792-4.4564-1.6232-4.4764-1.6427a.5268.5268 0 00-.5621-.1467c-.0201.0098-.1606.0587-.4015.1662.3714-2.9432 2.0576-5.7496 2.0777-5.779.1104-.1858.0903-.4204-.0603-.5769-.1505-.1564-.3814-.2053-.5821-.1173-.1204.0586-2.6598 1.232-5.2994 3.2366-3.6032 2.7477-5.5705 5.603-5.8214 8.4876-.2108 2.3566 1.3249 3.8625 2.8103 5.3292l.2409.2347c.4818 1.2516.3613 2.7477-.3412 4.3123-1.2747 2.8455-4.1653 5.3292-7.7083 6.659a77.9975 77.9975 0 01-2.0776.7432h-.0101c-.2509.088-.3914.3422-.3211.5867.0602.2151.2609.3618.4817.3618.0301 0 .0703 0 .1004-.0098.6022-.1173 4.4463-1.105 8.19-2.9433.2008-.0978.4115-.2053.6424-.3227l.0803-.0391c.01 0 .02-.0098.02-.0098h.0101c4.647-2.4348 7.1462-5.2607 7.4272-8.3996.1807-2.0143-.9836-3.3442-2.2181-4.5176 1.636-2.1903 6.7246-3.8918 6.7748-3.9113l5.1389-1.7895c1.646-.528 2.9608-1.0267 3.021-1.0462.2309-.0978.3614-.3716.271-.6259zm-16.37 14.9218c.1907-2.0926-1.2546-3.5104-2.6497-4.8794-1.3851-1.3592-2.6899-2.6499-2.5192-4.5567.1606-1.809 1.104-3.6473 2.8203-5.4759-.3714.753-.5821 1.457-.6424 2.0926-.2308 2.5717 1.4353 4.1265 2.9107 5.4856 1.3349 1.2419 2.5996 2.4055 2.439 4.2145-.1606 1.7601-1.1442 3.442-2.9408 5.0163.3312-.6258.5319-1.2614.5821-1.897zm2.459-14.2959c-1.3148.6649-3.0913 1.7601-4.2355 3.2561-.1907-.5378-.261-1.0951-.2108-1.6916.0803-.8801.532-1.9166 1.3349-3.09.6223-.9094 1.2647-1.6036 1.4554-1.809 1.2044-.8702 2.3486-1.5547 3.1816-2.0143-.6524 1.3787-1.3951 3.3442-1.5256 5.3488zm-3.7236 4.2438c1.3248-2.073 4.2556-3.4518 5.2191-3.8625.4717.4596 1.6059 1.3885 3.1716 1.7014-1.375.4987-5.1187 1.9851-6.7146 3.9896-.6524-.616-1.2345-1.1832-1.6761-1.8285zm-.5721 7.5c.6524.8605.9133 1.633.8431 2.4739-.2409 2.6695-3.543 4.5958-3.5731 4.6154l-.0402.0195c-.5319.2738-1.084.5378-1.6661.8019 1.6762-1.3397 2.9609-2.9238 3.7237-4.6154.5118-1.1441.7527-2.2491.7126-3.2953z" fill="#000"/>
</svg>
