<svg width="37"
     height="37"
     viewBox="0 0 37 37"
     fill="none"
     xmlns="http://www.w3.org/2000/svg">
  <path d="M7.85044 3.12622C6.78999 3.12622 5.8621 3.78064 5.33188 4.30422L2.41566 7.57656C1.48777 8.6237 1.22266 9.93262 1.22266 11.2416C1.22266 15.561 4.27144 21.7131 9.83878 27.2106C15.4061 32.7081 21.6362 35.7187 26.0106 35.7187C27.3361 35.7187 28.6617 35.4569 29.7221 34.5407L33.036 31.661C33.6988 31.1374 34.229 30.2211 34.229 29.174C34.229 28.1268 33.6988 27.2106 33.036 26.6871L28.5291 22.2366C27.9989 21.7131 27.071 21.0586 26.0106 21.0586C24.8176 21.0586 24.0222 21.7131 23.492 22.2366L21.9013 23.8074C21.6362 24.0692 21.5037 24.0692 21.3711 24.0692L13.0201 15.8228C12.8876 15.6919 13.0201 15.5611 13.1527 15.4302L14.8759 13.7286C15.4061 13.205 16.0689 12.4196 16.0689 11.2416C16.0689 10.1944 15.4061 9.2782 14.8759 8.75463L10.369 4.30422C9.83878 3.64975 8.91089 2.99533 7.85044 3.12622Z"
        stroke="black"
        stroke-width="2"
        stroke-miterlimit="10"
        stroke-linecap="round"/>
  <path d="M36.0009 9.39648L29.9033 15.2867"
        stroke="#9888C4"
        stroke-width="2"
        stroke-miterlimit="10"
        stroke-linecap="round"/>
  <path d="M34.41 15.5481H29.7705V10.9668"
        stroke="#9888C4"
        stroke-width="2"
        stroke-miterlimit="10"
        stroke-linecap="round"
        stroke-linejoin="round"/>
  <path d="M22.0576 7.6949L28.0226 1.80469"
        stroke="#9888C4"
        stroke-width="2"
        stroke-miterlimit="10"
        stroke-linecap="round"/>
  <path d="M23.5156 1.54297H28.2876V6.25514"
        stroke="#9888C4"
        stroke-width="2"
        stroke-miterlimit="10"
        stroke-linecap="round"
        stroke-linejoin="round"/>
</svg>
