<svg width="130" height="130" viewBox="0 0 130 130" fill="none" xmlns="http://www.w3.org/2000/svg">
<path d="M13.7927 12.683H14.7439H16.9634H17.9146H20.1341H21.0854H23.3049H24.2561H26.4756H27.4268H29.6463H30.5976H32.8171H33.7683C34.5081 12.683 34.878 13.0529 34.878 13.7927V14.744V16.9635V17.9147V20.1342V21.0854V23.3049V24.2562V26.4757V27.4269V29.6464V30.5976V32.8171V33.7684C34.878 34.5082 34.5081 34.8781 33.7683 34.8781H32.8171H30.5976H29.6463H27.4268H26.4756H24.2561H23.3049H21.0854H20.1341H17.9146H16.9634H14.7439H13.7927C13.0528 34.8781 12.6829 34.5082 12.6829 33.7684V32.8171V30.5976V29.6464V27.4269V26.4757V24.2562V23.3049V21.0854V20.1342V17.9147V16.9635V14.744V13.7927C12.6829 13.0529 13.0528 12.683 13.7927 12.683ZM15.8537 16.9635V17.9147V20.1342V21.0854V23.3049V24.2562V26.4757V27.4269V29.6464V30.5976C15.8537 31.3375 16.2236 31.7074 16.9634 31.7074H17.9146H20.1341H21.0854H23.3049H24.2561H26.4756H27.4268H29.6463H30.5976C31.3374 31.7074 31.7073 31.3375 31.7073 30.5976V29.6464V27.4269V26.4757V24.2562V23.3049V21.0854V20.1342V17.9147V16.9635C31.7073 16.2236 31.3374 15.8537 30.5976 15.8537H29.6463H27.4268H26.4756H24.2561H23.3049H21.0854H20.1341H17.9146H16.9634C16.2236 15.8537 15.8537 16.2236 15.8537 16.9635Z" fill="black"/>
<path d="M13.7927 38.0488H14.7439C15.4837 38.0488 15.8537 38.4187 15.8537 39.1586V40.1098C15.8537 40.8496 16.2236 41.2196 16.9634 41.2196H17.9146C18.6545 41.2196 19.0244 40.8496 19.0244 40.1098V39.1586C19.0244 38.4187 19.3943 38.0488 20.1341 38.0488H21.0854H23.3049H24.2561C24.9959 38.0488 25.3658 38.4187 25.3658 39.1586V40.1098C25.3658 40.8496 24.9959 41.2196 24.2561 41.2196H23.3049C22.565 41.2196 22.1951 41.5895 22.1951 42.3293V43.2805V45.5V46.4513C22.1951 47.1911 21.8252 47.561 21.0854 47.561H20.1341H17.9146H16.9634C16.2236 47.561 15.8537 47.9309 15.8537 48.6708V49.622C15.8537 50.3618 15.4837 50.7318 14.7439 50.7318H13.7927C13.0528 50.7318 12.6829 50.3618 12.6829 49.622V48.6708V46.4513V45.5V43.2805V42.3293V40.1098V39.1586C12.6829 38.4187 13.0528 38.0488 13.7927 38.0488Z" fill="black"/>
<path d="M13.7927 53.9024H14.7439C15.4837 53.9024 15.8537 53.5325 15.8537 52.7927V51.8414C15.8537 51.1016 16.2236 50.7317 16.9634 50.7317H17.9146H20.1341H21.0854C21.8252 50.7317 22.1951 51.1016 22.1951 51.8414V52.7927C22.1951 53.5325 21.8252 53.9024 21.0854 53.9024H20.1341C19.3943 53.9024 19.0244 54.2723 19.0244 55.0122V55.9634C19.0244 56.7032 18.6545 57.0732 17.9146 57.0732H16.9634C16.2236 57.0732 15.8537 57.4431 15.8537 58.1829V59.1341C15.8537 59.874 15.4837 60.2439 14.7439 60.2439H13.7927C13.0528 60.2439 12.6829 59.874 12.6829 59.1341V58.1829V55.9634V55.0122C12.6829 54.2723 13.0528 53.9024 13.7927 53.9024Z" fill="black"/>
<path d="M13.7927 63.4146H14.7439H16.9634H17.9146C18.6545 63.4146 19.0244 63.0447 19.0244 62.3049V61.3536C19.0244 60.6138 19.3943 60.2439 20.1341 60.2439H21.0854C21.8252 60.2439 22.1951 59.874 22.1951 59.1341V58.1829C22.1951 57.4431 22.565 57.0732 23.3049 57.0732H24.2561C24.9959 57.0732 25.3658 57.4431 25.3658 58.1829V59.1341C25.3658 59.874 25.7358 60.2439 26.4756 60.2439H27.4268C28.1667 60.2439 28.5366 59.874 28.5366 59.1341V58.1829V55.9634V55.0122V52.7927V51.8414C28.5366 51.1016 28.9065 50.7317 29.6463 50.7317H30.5975H32.8171H33.7683H35.9878H36.939H39.1585H40.1097C40.8496 50.7317 41.2195 51.1016 41.2195 51.8414V52.7927C41.2195 53.5325 40.8496 53.9024 40.1097 53.9024H39.1585C38.4187 53.9024 38.0488 54.2723 38.0488 55.0122V55.9634C38.0488 56.7032 37.6788 57.0732 36.939 57.0732H35.9878C35.248 57.0732 34.878 56.7032 34.878 55.9634V55.0122C34.878 54.2723 34.5081 53.9024 33.7683 53.9024H32.8171C32.0772 53.9024 31.7073 54.2723 31.7073 55.0122V55.9634C31.7073 56.7032 32.0772 57.0732 32.8171 57.0732H33.7683C34.5081 57.0732 34.878 57.4431 34.878 58.1829V59.1341C34.878 59.874 34.5081 60.2439 33.7683 60.2439H32.8171C32.0772 60.2439 31.7073 60.6138 31.7073 61.3536V62.3049C31.7073 63.0447 31.3374 63.4146 30.5975 63.4146H29.6463H27.4268H26.4756H24.2561H23.3049C22.565 63.4146 22.1951 63.7845 22.1951 64.5244V65.4756C22.1951 66.2154 21.8252 66.5854 21.0854 66.5854H20.1341H17.9146H16.9634C16.2236 66.5854 15.8537 66.9553 15.8537 67.6951V68.6463C15.8537 69.3862 15.4837 69.7561 14.7439 69.7561H13.7927C13.0528 69.7561 12.6829 69.3862 12.6829 68.6463V67.6951V65.4756V64.5244C12.6829 63.7845 13.0528 63.4146 13.7927 63.4146Z" fill="black"/>
<path d="M13.7927 76.0975H14.7439C15.4837 76.0975 15.8537 75.7276 15.8537 74.9878V74.0365V71.817V70.8658C15.8537 70.126 16.2236 69.7561 16.9634 69.7561H17.9146H20.1341H21.0854C21.8252 69.7561 22.1951 70.126 22.1951 70.8658V71.817C22.1951 72.5569 22.565 72.9268 23.3049 72.9268H24.2561C24.9959 72.9268 25.3658 72.5569 25.3658 71.817V70.8658C25.3658 70.126 24.9959 69.7561 24.2561 69.7561H23.3049C22.565 69.7561 22.1951 69.3861 22.1951 68.6463V67.6951C22.1951 66.9552 22.565 66.5853 23.3049 66.5853H24.2561H26.4756H27.4268C28.1667 66.5853 28.5366 66.9552 28.5366 67.6951V68.6463C28.5366 69.3861 28.9065 69.7561 29.6463 69.7561H30.5976H32.8171H33.7683H35.9878H36.939C37.6789 69.7561 38.0488 70.126 38.0488 70.8658V71.817V74.0365V74.9878V77.2073V78.1585C38.0488 78.8983 38.4187 79.2682 39.1585 79.2682H40.1098C40.8496 79.2682 41.2195 79.6382 41.2195 80.378V81.3292C41.2195 82.0691 40.8496 82.439 40.1098 82.439H39.1585C38.4187 82.439 38.0488 82.8089 38.0488 83.5487V84.4999C38.0488 85.2398 38.4187 85.6097 39.1585 85.6097H40.1098C40.8496 85.6097 41.2195 85.2398 41.2195 84.4999V83.5487C41.2195 82.8089 41.5894 82.439 42.3293 82.439H43.2805C44.0203 82.439 44.3902 82.8089 44.3902 83.5487V84.4999C44.3902 85.2398 44.7602 85.6097 45.5 85.6097H46.4512H48.6707H49.6219C50.3618 85.6097 50.7317 85.9796 50.7317 86.7195V87.6707V89.8902V90.8414C50.7317 91.5812 50.3618 91.9512 49.6219 91.9512H48.6707H46.4512H45.5C44.7602 91.9512 44.3902 92.3211 44.3902 93.0609V94.0121C44.3902 94.752 44.7602 95.1219 45.5 95.1219H46.4512C47.1911 95.1219 47.561 95.4918 47.561 96.2316V97.1829C47.561 97.9227 47.1911 98.2926 46.4512 98.2926H45.5C44.7602 98.2926 44.3902 98.6625 44.3902 99.4024V100.354C44.3902 101.093 44.0203 101.463 43.2805 101.463H42.3293H40.1098H39.1585C38.4187 101.463 38.0488 101.093 38.0488 100.354V99.4024V97.1829V96.2316V94.0121V93.0609C38.0488 92.3211 38.4187 91.9512 39.1585 91.9512H40.1098C40.8496 91.9512 41.2195 91.5812 41.2195 90.8414V89.8902C41.2195 89.1504 40.8496 88.7804 40.1098 88.7804H39.1585H36.939H35.9878C35.248 88.7804 34.878 88.4105 34.878 87.6707V86.7195C34.878 85.9796 34.5081 85.6097 33.7683 85.6097H32.8171C32.0772 85.6097 31.7073 85.9796 31.7073 86.7195V87.6707C31.7073 88.4105 31.3374 88.7804 30.5976 88.7804H29.6463C28.9065 88.7804 28.5366 88.4105 28.5366 87.6707V86.7195C28.5366 85.9796 28.1667 85.6097 27.4268 85.6097H26.4756C25.7358 85.6097 25.3658 85.2398 25.3658 84.4999V83.5487C25.3658 82.8089 24.9959 82.439 24.2561 82.439H23.3049C22.565 82.439 22.1951 82.8089 22.1951 83.5487V84.4999C22.1951 85.2398 22.565 85.6097 23.3049 85.6097H24.2561C24.9959 85.6097 25.3658 85.9796 25.3658 86.7195V87.6707C25.3658 88.4105 24.9959 88.7804 24.2561 88.7804H23.3049C22.565 88.7804 22.1951 89.1504 22.1951 89.8902V90.8414C22.1951 91.5812 21.8252 91.9512 21.0854 91.9512H20.1341C19.3943 91.9512 19.0244 91.5812 19.0244 90.8414V89.8902C19.0244 89.1504 18.6545 88.7804 17.9146 88.7804H16.9634C16.2236 88.7804 15.8537 88.4105 15.8537 87.6707V86.7195C15.8537 85.9796 16.2236 85.6097 16.9634 85.6097H17.9146C18.6545 85.6097 19.0244 85.2398 19.0244 84.4999V83.5487C19.0244 82.8089 18.6545 82.439 17.9146 82.439H16.9634H14.7439H13.7927C13.0528 82.439 12.6829 82.0691 12.6829 81.3292V80.378V78.1585V77.2073C12.6829 76.4674 13.0528 76.0975 13.7927 76.0975ZM19.0244 77.2073V78.1585C19.0244 78.8983 19.3943 79.2682 20.1341 79.2682H21.0854C21.8252 79.2682 22.1951 78.8983 22.1951 78.1585V77.2073C22.1951 76.4674 21.8252 76.0975 21.0854 76.0975H20.1341C19.3943 76.0975 19.0244 76.4674 19.0244 77.2073ZM28.5366 74.0365V74.9878C28.5366 75.7276 28.9065 76.0975 29.6463 76.0975H30.5976H32.8171H33.7683C34.5081 76.0975 34.878 75.7276 34.878 74.9878V74.0365C34.878 73.2967 34.5081 72.9268 33.7683 72.9268H32.8171H30.5976H29.6463C28.9065 72.9268 28.5366 73.2967 28.5366 74.0365ZM31.7073 80.378V81.3292C31.7073 82.0691 32.0772 82.439 32.8171 82.439H33.7683C34.5081 82.439 34.878 82.0691 34.878 81.3292V80.378C34.878 79.6382 34.5081 79.2682 33.7683 79.2682H32.8171C32.0772 79.2682 31.7073 79.6382 31.7073 80.378Z" fill="black"/>
<path d="M13.7927 88.7805H14.7439C15.4837 88.7805 15.8537 89.1504 15.8537 89.8903V90.8415C15.8537 91.5813 15.4837 91.9512 14.7439 91.9512H13.7927C13.0528 91.9512 12.6829 91.5813 12.6829 90.8415V89.8903C12.6829 89.1504 13.0528 88.7805 13.7927 88.7805Z" fill="black"/>
<path d="M13.7927 95.1219H14.7439H16.9634H17.9146H20.1341H21.0854H23.3049H24.2561H26.4756H27.4268H29.6463H30.5976H32.8171H33.7683C34.5081 95.1219 34.878 95.4919 34.878 96.2317V97.1829V99.4024V100.354V102.573V103.524V105.744V106.695V108.915V109.866V112.085V113.037V115.256V116.207C34.878 116.947 34.5081 117.317 33.7683 117.317H32.8171H30.5976H29.6463H27.4268H26.4756H24.2561H23.3049H21.0854H20.1341H17.9146H16.9634H14.7439H13.7927C13.0528 117.317 12.6829 116.947 12.6829 116.207V115.256V113.037V112.085V109.866V108.915V106.695V105.744V103.524V102.573V100.354V99.4024V97.1829V96.2317C12.6829 95.4919 13.0528 95.1219 13.7927 95.1219ZM15.8537 99.4024V100.354V102.573V103.524V105.744V106.695V108.915V109.866V112.085V113.037C15.8537 113.776 16.2236 114.146 16.9634 114.146H17.9146H20.1341H21.0854H23.3049H24.2561H26.4756H27.4268H29.6463H30.5976C31.3374 114.146 31.7073 113.776 31.7073 113.037V112.085V109.866V108.915V106.695V105.744V103.524V102.573V100.354V99.4024C31.7073 98.6626 31.3374 98.2927 30.5976 98.2927H29.6463H27.4268H26.4756H24.2561H23.3049H21.0854H20.1341H17.9146H16.9634C16.2236 98.2927 15.8537 98.6626 15.8537 99.4024Z" fill="black"/>
<path d="M20.1342 19.0244H21.0854H23.3049H24.2561H26.4756H27.4269C28.1667 19.0244 28.5366 19.3943 28.5366 20.1342V21.0854V23.3049V24.2561V26.4756V27.4269C28.5366 28.1667 28.1667 28.5366 27.4269 28.5366H26.4756H24.2561H23.3049H21.0854H20.1342C19.3943 28.5366 19.0244 28.1667 19.0244 27.4269V26.4756V24.2561V23.3049V21.0854V20.1342C19.0244 19.3943 19.3943 19.0244 20.1342 19.0244Z" fill="black"/>
<path d="M20.1342 101.463H21.0854H23.3049H24.2561H26.4756H27.4269C28.1667 101.463 28.5366 101.833 28.5366 102.573V103.524V105.744V106.695V108.915V109.866C28.5366 110.606 28.1667 110.976 27.4269 110.976H26.4756H24.2561H23.3049H21.0854H20.1342C19.3943 110.976 19.0244 110.606 19.0244 109.866V108.915V106.695V105.744V103.524V102.573C19.0244 101.833 19.3943 101.463 20.1342 101.463Z" fill="black"/>
<path d="M23.3049 47.5609H24.2561C24.9959 47.5609 25.3659 47.9308 25.3659 48.6707V49.6219C25.3659 50.3617 24.9959 50.7316 24.2561 50.7316H23.3049C22.565 50.7316 22.1951 50.3617 22.1951 49.6219V48.6707C22.1951 47.9308 22.565 47.5609 23.3049 47.5609Z" fill="black"/>
<path d="M26.4756 44.3903H27.4268C28.1667 44.3903 28.5366 44.7602 28.5366 45.5V46.4512C28.5366 47.1911 28.1667 47.561 27.4268 47.561H26.4756C25.7358 47.561 25.3658 47.1911 25.3658 46.4512V45.5C25.3658 44.7602 25.7358 44.3903 26.4756 44.3903Z" fill="black"/>
<path d="M29.6463 38.0488H30.5975H32.817H33.7683H35.9878H36.939C37.6788 38.0488 38.0488 38.4187 38.0488 39.1586V40.1098C38.0488 40.8496 37.6788 41.2196 36.939 41.2196H35.9878H33.7683H32.817C32.0772 41.2196 31.7073 41.5895 31.7073 42.3293V43.2805C31.7073 44.0204 31.3374 44.3903 30.5975 44.3903H29.6463C28.9065 44.3903 28.5366 44.0204 28.5366 43.2805V42.3293V40.1098V39.1586C28.5366 38.4187 28.9065 38.0488 29.6463 38.0488Z" fill="black"/>
<path d="M32.8171 44.3903H33.7683H35.9878H36.939H39.1586H40.1098C40.8496 44.3903 41.2195 44.7602 41.2195 45.5V46.4512C41.2195 47.1911 40.8496 47.561 40.1098 47.561H39.1586H36.939H35.9878H33.7683H32.8171C32.0773 47.561 31.7073 47.1911 31.7073 46.4512V45.5C31.7073 44.7602 32.0773 44.3903 32.8171 44.3903Z" fill="black"/>
<path d="M32.8171 63.4147H33.7683H35.9878H36.939C37.6789 63.4147 38.0488 63.7846 38.0488 64.5244V65.4756C38.0488 66.2155 37.6789 66.5854 36.939 66.5854H35.9878H33.7683H32.8171C32.0773 66.5854 31.7073 66.2155 31.7073 65.4756V64.5244C31.7073 63.7846 32.0773 63.4147 32.8171 63.4147Z" fill="black"/>
<path d="M32.8171 88.7805H33.7683C34.5082 88.7805 34.8781 89.1504 34.8781 89.8903V90.8415C34.8781 91.5813 34.5082 91.9512 33.7683 91.9512H32.8171C32.0773 91.9512 31.7073 91.5813 31.7073 90.8415V89.8903C31.7073 89.1504 32.0773 88.7805 32.8171 88.7805Z" fill="black"/>
<path d="M39.1585 12.683H40.1097H42.3293H43.2805C44.0203 12.683 44.3902 13.0529 44.3902 13.7927V14.744C44.3902 15.4838 44.7601 15.8537 45.5 15.8537H46.4512C47.191 15.8537 47.561 15.4838 47.561 14.744V13.7927C47.561 13.0529 47.9309 12.683 48.6707 12.683H49.6219H51.8414H52.7927C53.5325 12.683 53.9024 13.0529 53.9024 13.7927V14.744V16.9635V17.9147C53.9024 18.6545 53.5325 19.0244 52.7927 19.0244H51.8414H49.6219H48.6707H46.4512H45.5C44.7601 19.0244 44.3902 19.3944 44.3902 20.1342V21.0854C44.3902 21.8253 44.7601 22.1952 45.5 22.1952H46.4512H48.6707H49.6219H51.8414H52.7927C53.5325 22.1952 53.9024 21.8253 53.9024 21.0854V20.1342C53.9024 19.3944 54.2723 19.0244 55.0122 19.0244H55.9634C56.7032 19.0244 57.0732 18.6545 57.0732 17.9147V16.9635V14.744V13.7927C57.0732 13.0529 57.4431 12.683 58.1829 12.683H59.1341C59.874 12.683 60.2439 13.0529 60.2439 13.7927V14.744V16.9635V17.9147V20.1342V21.0854C60.2439 21.8253 59.874 22.1952 59.1341 22.1952H58.1829C57.4431 22.1952 57.0732 22.5651 57.0732 23.3049V24.2562C57.0732 24.996 56.7032 25.3659 55.9634 25.3659H55.0122C54.2723 25.3659 53.9024 25.7358 53.9024 26.4757V27.4269C53.9024 28.1667 54.2723 28.5366 55.0122 28.5366H55.9634C56.7032 28.5366 57.0732 28.9066 57.0732 29.6464V30.5976C57.0732 31.3375 56.7032 31.7074 55.9634 31.7074H55.0122C54.2723 31.7074 53.9024 32.0773 53.9024 32.8171V33.7684C53.9024 34.5082 53.5325 34.8781 52.7927 34.8781H51.8414C51.1016 34.8781 50.7317 34.5082 50.7317 33.7684V32.8171C50.7317 32.0773 50.3618 31.7074 49.6219 31.7074H48.6707C47.9309 31.7074 47.561 32.0773 47.561 32.8171V33.7684C47.561 34.5082 47.191 34.8781 46.4512 34.8781H45.5C44.7601 34.8781 44.3902 34.5082 44.3902 33.7684V32.8171C44.3902 32.0773 44.0203 31.7074 43.2805 31.7074H42.3293C41.5894 31.7074 41.2195 31.3375 41.2195 30.5976V29.6464C41.2195 28.9066 41.5894 28.5366 42.3293 28.5366H43.2805H45.5H46.4512H48.6707H49.6219C50.3618 28.5366 50.7317 28.1667 50.7317 27.4269V26.4757C50.7317 25.7358 50.3618 25.3659 49.6219 25.3659H48.6707H46.4512H45.5H43.2805H42.3293H40.1097H39.1585C38.4187 25.3659 38.0488 24.996 38.0488 24.2562V23.3049C38.0488 22.5651 38.4187 22.1952 39.1585 22.1952H40.1097C40.8496 22.1952 41.2195 21.8253 41.2195 21.0854V20.1342C41.2195 19.3944 40.8496 19.0244 40.1097 19.0244H39.1585C38.4187 19.0244 38.0488 18.6545 38.0488 17.9147V16.9635V14.744V13.7927C38.0488 13.0529 38.4187 12.683 39.1585 12.683Z" fill="black"/>
<path d="M39.1585 31.7073H40.1097C40.8496 31.7073 41.2195 32.0772 41.2195 32.817V33.7683V35.9878V36.939C41.2195 37.6788 40.8496 38.0487 40.1097 38.0487H39.1585C38.4187 38.0487 38.0488 37.6788 38.0488 36.939V35.9878V33.7683V32.817C38.0488 32.0772 38.4187 31.7073 39.1585 31.7073Z" fill="black"/>
<path d="M39.1585 57.0731H40.1097H42.3293H43.2805C44.0203 57.0731 44.3902 56.7032 44.3902 55.9633V55.0121V52.7926V51.8414C44.3902 51.1016 44.0203 50.7316 43.2805 50.7316H42.3293C41.5894 50.7316 41.2195 50.3617 41.2195 49.6219V48.6707C41.2195 47.9308 41.5894 47.5609 42.3293 47.5609H43.2805H45.5H46.4512H48.6707H49.6219H51.8415H52.7927H55.0122H55.9634C56.7032 47.5609 57.0732 47.9308 57.0732 48.6707V49.6219C57.0732 50.3617 56.7032 50.7316 55.9634 50.7316H55.0122C54.2723 50.7316 53.9024 51.1016 53.9024 51.8414V52.7926C53.9024 53.5325 53.5325 53.9024 52.7927 53.9024H51.8415C51.1016 53.9024 50.7317 54.2723 50.7317 55.0121V55.9633C50.7317 56.7032 51.1016 57.0731 51.8415 57.0731H52.7927C53.5325 57.0731 53.9024 57.443 53.9024 58.1829V59.1341C53.9024 59.8739 54.2723 60.2438 55.0122 60.2438H55.9634C56.7032 60.2438 57.0732 60.6138 57.0732 61.3536V62.3048C57.0732 63.0446 56.7032 63.4146 55.9634 63.4146H55.0122H52.7927H51.8415C51.1016 63.4146 50.7317 63.0446 50.7317 62.3048V61.3536C50.7317 60.6138 50.3618 60.2438 49.6219 60.2438H48.6707C47.9309 60.2438 47.561 60.6138 47.561 61.3536V62.3048C47.561 63.0446 47.191 63.4146 46.4512 63.4146H45.5C44.7602 63.4146 44.3902 63.0446 44.3902 62.3048V61.3536C44.3902 60.6138 44.0203 60.2438 43.2805 60.2438H42.3293C41.5894 60.2438 41.2195 60.6138 41.2195 61.3536V62.3048C41.2195 63.0446 40.8496 63.4146 40.1097 63.4146H39.1585C38.4187 63.4146 38.0488 63.0446 38.0488 62.3048V61.3536V59.1341V58.1829C38.0488 57.443 38.4187 57.0731 39.1585 57.0731Z" fill="black"/>
<path d="M39.1585 66.5853H40.1097C40.8496 66.5853 41.2195 66.9552 41.2195 67.6951V68.6463C41.2195 69.3861 40.8496 69.7561 40.1097 69.7561H39.1585C38.4187 69.7561 38.0488 69.3861 38.0488 68.6463V67.6951C38.0488 66.9552 38.4187 66.5853 39.1585 66.5853Z" fill="black"/>
<path d="M39.1585 104.634H40.1097C40.8496 104.634 41.2195 105.004 41.2195 105.744V106.695C41.2195 107.435 41.5894 107.805 42.3293 107.805H43.2805C44.0203 107.805 44.3902 107.435 44.3902 106.695V105.744C44.3902 105.004 44.7602 104.634 45.5 104.634H46.4512C47.191 104.634 47.561 104.264 47.561 103.524V102.573C47.561 101.833 47.9309 101.463 48.6707 101.463H49.6219C50.3618 101.463 50.7317 101.094 50.7317 100.354V99.4025C50.7317 98.6626 51.1016 98.2927 51.8415 98.2927H52.7927C53.5325 98.2927 53.9024 98.6626 53.9024 99.4025V100.354C53.9024 101.094 54.2724 101.463 55.0122 101.463H55.9634H58.1829H59.1341C59.874 101.463 60.2439 101.833 60.2439 102.573V103.524C60.2439 104.264 59.874 104.634 59.1341 104.634H58.1829C57.4431 104.634 57.0732 105.004 57.0732 105.744V106.695C57.0732 107.435 57.4431 107.805 58.1829 107.805H59.1341C59.874 107.805 60.2439 107.435 60.2439 106.695V105.744C60.2439 105.004 60.6138 104.634 61.3537 104.634H62.3049C63.0447 104.634 63.4146 104.264 63.4146 103.524V102.573C63.4146 101.833 63.7845 101.463 64.5244 101.463H65.4756C66.2154 101.463 66.5854 101.833 66.5854 102.573V103.524C66.5854 104.264 66.9553 104.634 67.6951 104.634H68.6463H70.8659H71.8171C72.5569 104.634 72.9268 105.004 72.9268 105.744V106.695C72.9268 107.435 72.5569 107.805 71.8171 107.805H70.8659C70.126 107.805 69.7561 108.175 69.7561 108.915V109.866C69.7561 110.606 70.126 110.976 70.8659 110.976H71.8171C72.5569 110.976 72.9268 111.346 72.9268 112.085V113.037V115.256V116.207C72.9268 116.947 72.5569 117.317 71.8171 117.317H70.8659H68.6463H67.6951C66.9553 117.317 66.5854 116.947 66.5854 116.207V115.256V113.037V112.085V109.866V108.915C66.5854 108.175 66.2154 107.805 65.4756 107.805H64.5244C63.7845 107.805 63.4146 108.175 63.4146 108.915V109.866V112.085V113.037C63.4146 113.776 63.0447 114.146 62.3049 114.146H61.3537C60.6138 114.146 60.2439 113.776 60.2439 113.037V112.085C60.2439 111.346 59.874 110.976 59.1341 110.976H58.1829C57.4431 110.976 57.0732 111.346 57.0732 112.085V113.037C57.0732 113.776 56.7032 114.146 55.9634 114.146H55.0122C54.2724 114.146 53.9024 114.516 53.9024 115.256V116.207C53.9024 116.947 53.5325 117.317 52.7927 117.317H51.8415H49.6219H48.6707C47.9309 117.317 47.561 116.947 47.561 116.207V115.256C47.561 114.516 47.191 114.146 46.4512 114.146H45.5C44.7602 114.146 44.3902 113.776 44.3902 113.037V112.085C44.3902 111.346 44.0203 110.976 43.2805 110.976H42.3293H40.1097H39.1585C38.4187 110.976 38.0488 110.606 38.0488 109.866V108.915V106.695V105.744C38.0488 105.004 38.4187 104.634 39.1585 104.634ZM47.561 108.915V109.866C47.561 110.606 47.9309 110.976 48.6707 110.976H49.6219C50.3618 110.976 50.7317 110.606 50.7317 109.866V108.915C50.7317 108.175 51.1016 107.805 51.8415 107.805H52.7927C53.5325 107.805 53.9024 107.435 53.9024 106.695V105.744C53.9024 105.004 53.5325 104.634 52.7927 104.634H51.8415C51.1016 104.634 50.7317 105.004 50.7317 105.744V106.695C50.7317 107.435 50.3618 107.805 49.6219 107.805H48.6707C47.9309 107.805 47.561 108.175 47.561 108.915Z" fill="black"/>
<path d="M39.1585 114.146H40.1097C40.8496 114.146 41.2195 114.516 41.2195 115.256V116.207C41.2195 116.947 40.8496 117.317 40.1097 117.317H39.1585C38.4187 117.317 38.0488 116.947 38.0488 116.207V115.256C38.0488 114.516 38.4187 114.146 39.1585 114.146Z" fill="black"/>
<path d="M42.3292 41.2196H43.2805C44.0203 41.2196 44.3902 40.8496 44.3902 40.1098V39.1586C44.3902 38.4187 44.7601 38.0488 45.5 38.0488H46.4512H48.6707H49.6219H51.8414H52.7927C53.5325 38.0488 53.9024 38.4187 53.9024 39.1586V40.1098V42.3293V43.2805C53.9024 44.0204 53.5325 44.3903 52.7927 44.3903H51.8414C51.1016 44.3903 50.7317 44.0204 50.7317 43.2805V42.3293C50.7317 41.5895 50.3618 41.2196 49.6219 41.2196H48.6707C47.9309 41.2196 47.561 41.5895 47.561 42.3293V43.2805C47.561 44.0204 47.191 44.3903 46.4512 44.3903H45.5H43.2805H42.3292C41.5894 44.3903 41.2195 44.0204 41.2195 43.2805V42.3293C41.2195 41.5895 41.5894 41.2196 42.3292 41.2196Z" fill="black"/>
<path d="M42.3292 63.4147H43.2805C44.0203 63.4147 44.3902 63.7846 44.3902 64.5244V65.4756C44.3902 66.2155 44.0203 66.5854 43.2805 66.5854H42.3292C41.5894 66.5854 41.2195 66.2155 41.2195 65.4756V64.5244C41.2195 63.7846 41.5894 63.4147 42.3292 63.4147Z" fill="black"/>
<path d="M42.3292 69.7561H43.2805C44.0203 69.7561 44.3902 70.1261 44.3902 70.8659V71.8171V74.0366V74.9879C44.3902 75.7277 44.7601 76.0976 45.5 76.0976H46.4512H48.6707H49.6219H51.8414H52.7926C53.5325 76.0976 53.9024 75.7277 53.9024 74.9879V74.0366V71.8171V70.8659C53.9024 70.1261 54.2723 69.7561 55.0122 69.7561H55.9634C56.7032 69.7561 57.0731 69.3862 57.0731 68.6464V67.6952V65.4756V64.5244C57.0731 63.7846 57.4431 63.4147 58.1829 63.4147H59.1341C59.8739 63.4147 60.2439 63.7846 60.2439 64.5244V65.4756C60.2439 66.2155 60.6138 66.5854 61.3536 66.5854H62.3048H64.5244H65.4756C66.2154 66.5854 66.5853 66.9553 66.5853 67.6952V68.6464C66.5853 69.3862 66.9552 69.7561 67.6951 69.7561H68.6463H70.8658H71.817C72.5569 69.7561 72.9268 70.1261 72.9268 70.8659V71.8171V74.0366V74.9879C72.9268 75.7277 72.5569 76.0976 71.817 76.0976H70.8658C70.126 76.0976 69.7561 76.4675 69.7561 77.2074V78.1586V80.3781V81.3293C69.7561 82.0692 70.126 82.4391 70.8658 82.4391H71.817C72.5569 82.4391 72.9268 82.809 72.9268 83.5488V84.5001V86.7196V87.6708C72.9268 88.4106 73.2967 88.7806 74.0365 88.7806H74.9878C75.7276 88.7806 76.0975 89.1505 76.0975 89.8903V90.8415V93.061V94.0123V96.2318V97.183C76.0975 97.9228 75.7276 98.2928 74.9878 98.2928H74.0365C73.2967 98.2928 72.9268 97.9228 72.9268 97.183V96.2318V94.0123V93.061C72.9268 92.3212 72.5569 91.9513 71.817 91.9513H70.8658H68.6463H67.6951C66.9552 91.9513 66.5853 92.3212 66.5853 93.061V94.0123V96.2318V97.183C66.5853 97.9228 66.2154 98.2928 65.4756 98.2928H64.5244C63.7845 98.2928 63.4146 97.9228 63.4146 97.183V96.2318C63.4146 95.4919 63.0447 95.122 62.3048 95.122H61.3536C60.6138 95.122 60.2439 94.7521 60.2439 94.0123V93.061V90.8415V89.8903V87.6708V86.7196C60.2439 85.9797 60.6138 85.6098 61.3536 85.6098H62.3048H64.5244H65.4756C66.2154 85.6098 66.5853 85.9797 66.5853 86.7196V87.6708C66.5853 88.4106 66.9552 88.7806 67.6951 88.7806H68.6463C69.3861 88.7806 69.7561 88.4106 69.7561 87.6708V86.7196C69.7561 85.9797 69.3861 85.6098 68.6463 85.6098H67.6951C66.9552 85.6098 66.5853 85.2399 66.5853 84.5001V83.5488V81.3293V80.3781V78.1586V77.2074C66.5853 76.4675 66.2154 76.0976 65.4756 76.0976H64.5244C63.7845 76.0976 63.4146 75.7277 63.4146 74.9879V74.0366C63.4146 73.2968 63.0447 72.9269 62.3048 72.9269H61.3536H59.1341H58.1829C57.4431 72.9269 57.0731 73.2968 57.0731 74.0366V74.9879V77.2074V78.1586C57.0731 78.8984 56.7032 79.2683 55.9634 79.2683H55.0122H52.7926H51.8414H49.6219H48.6707C47.9309 79.2683 47.5609 79.6383 47.5609 80.3781V81.3293C47.5609 82.0692 47.191 82.4391 46.4512 82.4391H45.5C44.7601 82.4391 44.3902 82.0692 44.3902 81.3293V80.3781C44.3902 79.6383 44.0203 79.2683 43.2805 79.2683H42.3292C41.5894 79.2683 41.2195 78.8984 41.2195 78.1586V77.2074V74.9879V74.0366V71.8171V70.8659C41.2195 70.1261 41.5894 69.7561 42.3292 69.7561Z" fill="black"/>
<path d="M45.5 66.5854H46.4512C47.191 66.5854 47.561 66.2155 47.561 65.4757V64.5244C47.561 63.7846 47.9309 63.4147 48.6707 63.4147H49.6219C50.3618 63.4147 50.7317 63.7846 50.7317 64.5244V65.4757V67.6952V68.6464C50.7317 69.3862 50.3618 69.7562 49.6219 69.7562H48.6707H46.4512H45.5C44.7601 69.7562 44.3902 69.3862 44.3902 68.6464V67.6952C44.3902 66.9553 44.7601 66.5854 45.5 66.5854Z" fill="black"/>
<path d="M51.8415 82.439H52.7927C53.5325 82.439 53.9024 82.8089 53.9024 83.5487V84.4999C53.9024 85.2398 53.5325 85.6097 52.7927 85.6097H51.8415C51.1016 85.6097 50.7317 85.2398 50.7317 84.4999V83.5487C50.7317 82.8089 51.1016 82.439 51.8415 82.439Z" fill="black"/>
<path d="M51.8414 91.9512H52.7927H55.0122H55.9634C56.7032 91.9512 57.0732 92.3211 57.0732 93.0609V94.0122C57.0732 94.752 56.7032 95.1219 55.9634 95.1219H55.0122H52.7927H51.8414C51.1016 95.1219 50.7317 94.752 50.7317 94.0122V93.0609C50.7317 92.3211 51.1016 91.9512 51.8414 91.9512Z" fill="black"/>
<path d="M58.1829 31.7073H59.1342C59.874 31.7073 60.2439 32.0772 60.2439 32.817V33.7682C60.2439 34.5081 60.6138 34.878 61.3537 34.878H62.3049C63.0447 34.878 63.4146 35.2479 63.4146 35.9878V36.939C63.4146 37.6788 63.0447 38.0487 62.3049 38.0487H61.3537C60.6138 38.0487 60.2439 38.4187 60.2439 39.1585V40.1097V42.3292V43.2804V45.5V46.4512C60.2439 47.191 59.874 47.5609 59.1342 47.5609H58.1829C57.4431 47.5609 57.0732 47.191 57.0732 46.4512V45.5V43.2804V42.3292V40.1097V39.1585V36.939V35.9878V33.7682V32.817C57.0732 32.0772 57.4431 31.7073 58.1829 31.7073Z" fill="black"/>
<path d="M58.1829 53.9025H59.1342H61.3537H62.3049C63.0447 53.9025 63.4146 54.2724 63.4146 55.0122V55.9634C63.4146 56.7033 63.0447 57.0732 62.3049 57.0732H61.3537C60.6138 57.0732 60.2439 57.4431 60.2439 58.183V59.1342C60.2439 59.874 59.874 60.2439 59.1342 60.2439H58.1829C57.4431 60.2439 57.0732 59.874 57.0732 59.1342V58.183V55.9634V55.0122C57.0732 54.2724 57.4431 53.9025 58.1829 53.9025Z" fill="black"/>
<path d="M58.1829 82.439H59.1341C59.874 82.439 60.2439 82.8089 60.2439 83.5487V84.4999C60.2439 85.2398 59.874 85.6097 59.1341 85.6097H58.1829C57.4431 85.6097 57.0732 85.2398 57.0732 84.4999V83.5487C57.0732 82.8089 57.4431 82.439 58.1829 82.439Z" fill="black"/>
<path d="M58.1829 95.1219H59.1341C59.874 95.1219 60.2439 95.4919 60.2439 96.2317V97.183C60.2439 97.9228 59.874 98.2927 59.1341 98.2927H58.1829C57.4431 98.2927 57.0732 97.9228 57.0732 97.183V96.2317C57.0732 95.4919 57.4431 95.1219 58.1829 95.1219Z" fill="black"/>
<path d="M61.3537 22.1952H62.3049C63.0447 22.1952 63.4146 21.8253 63.4146 21.0854V20.1342V17.9147V16.9635V14.744V13.7927C63.4146 13.0529 63.7846 12.683 64.5244 12.683H65.4756C66.2154 12.683 66.5854 13.0529 66.5854 13.7927V14.744C66.5854 15.4838 66.9553 15.8537 67.6951 15.8537H68.6463C69.3862 15.8537 69.7561 16.2236 69.7561 16.9635V17.9147C69.7561 18.6545 69.3862 19.0244 68.6463 19.0244H67.6951C66.9553 19.0244 66.5854 19.3944 66.5854 20.1342V21.0854C66.5854 21.8253 66.9553 22.1952 67.6951 22.1952H68.6463C69.3862 22.1952 69.7561 21.8253 69.7561 21.0854V20.1342C69.7561 19.3944 70.126 19.0244 70.8659 19.0244H71.8171C72.5569 19.0244 72.9268 19.3944 72.9268 20.1342V21.0854C72.9268 21.8253 73.2968 22.1952 74.0366 22.1952H74.9878C75.7276 22.1952 76.0976 21.8253 76.0976 21.0854V20.1342V17.9147V16.9635C76.0976 16.2236 75.7276 15.8537 74.9878 15.8537H74.0366H71.8171H70.8659C70.126 15.8537 69.7561 15.4838 69.7561 14.744V13.7927C69.7561 13.0529 70.126 12.683 70.8659 12.683H71.8171H74.0366H74.9878H77.2073H78.1585C78.8984 12.683 79.2683 13.0529 79.2683 13.7927V14.744V16.9635V17.9147V20.1342V21.0854V23.3049V24.2562V26.4757V27.4269C79.2683 28.1667 78.8984 28.5366 78.1585 28.5366H77.2073C76.4675 28.5366 76.0976 28.9066 76.0976 29.6464V30.5976C76.0976 31.3375 75.7276 31.7074 74.9878 31.7074H74.0366C73.2968 31.7074 72.9268 31.3375 72.9268 30.5976V29.6464C72.9268 28.9066 72.5569 28.5366 71.8171 28.5366H70.8659C70.126 28.5366 69.7561 28.9066 69.7561 29.6464V30.5976C69.7561 31.3375 69.3862 31.7074 68.6463 31.7074H67.6951C66.9553 31.7074 66.5854 32.0773 66.5854 32.8171V33.7684C66.5854 34.5082 66.2154 34.8781 65.4756 34.8781H64.5244C63.7846 34.8781 63.4146 34.5082 63.4146 33.7684V32.8171V30.5976V29.6464C63.4146 28.9066 63.7846 28.5366 64.5244 28.5366H65.4756C66.2154 28.5366 66.5854 28.1667 66.5854 27.4269V26.4757C66.5854 25.7358 66.2154 25.3659 65.4756 25.3659H64.5244C63.7846 25.3659 63.4146 25.7358 63.4146 26.4757V27.4269C63.4146 28.1667 63.0447 28.5366 62.3049 28.5366H61.3537C60.6138 28.5366 60.2439 28.1667 60.2439 27.4269V26.4757V24.2562V23.3049C60.2439 22.5651 60.6138 22.1952 61.3537 22.1952Z" fill="black"/>
<path d="M61.3537 47.5609H62.3049C63.0447 47.5609 63.4146 47.9308 63.4146 48.6707V49.6219C63.4146 50.3617 63.0447 50.7316 62.3049 50.7316H61.3537C60.6138 50.7316 60.2439 50.3617 60.2439 49.6219V48.6707C60.2439 47.9308 60.6138 47.5609 61.3537 47.5609Z" fill="black"/>
<path d="M61.3537 60.2439H62.3049H64.5244H65.4756C66.2154 60.2439 66.5854 60.6138 66.5854 61.3537V62.3049C66.5854 63.0447 66.2154 63.4146 65.4756 63.4146H64.5244H62.3049H61.3537C60.6138 63.4146 60.2439 63.0447 60.2439 62.3049V61.3537C60.2439 60.6138 60.6138 60.2439 61.3537 60.2439Z" fill="black"/>
<path d="M64.5244 38.0487H65.4756C66.2155 38.0487 66.5854 37.6788 66.5854 36.939V35.9878C66.5854 35.2479 66.9553 34.878 67.6951 34.878H68.6463C69.3862 34.878 69.7561 34.5081 69.7561 33.7682V32.817C69.7561 32.0772 70.126 31.7073 70.8659 31.7073H71.8171C72.5569 31.7073 72.9268 32.0772 72.9268 32.817V33.7682V35.9878V36.939C72.9268 37.6788 73.2968 38.0487 74.0366 38.0487H74.9878C75.7277 38.0487 76.0976 38.4187 76.0976 39.1585V40.1097V42.3292V43.2804C76.0976 44.0203 75.7277 44.3902 74.9878 44.3902H74.0366C73.2968 44.3902 72.9268 44.7601 72.9268 45.5V46.4512C72.9268 47.191 72.5569 47.5609 71.8171 47.5609H70.8659H68.6463H67.6951H65.4756H64.5244C63.7846 47.5609 63.4146 47.191 63.4146 46.4512V45.5V43.2804V42.3292V40.1097V39.1585C63.4146 38.4187 63.7846 38.0487 64.5244 38.0487ZM66.5854 42.3292V43.2804C66.5854 44.0203 66.9553 44.3902 67.6951 44.3902H68.6463C69.3862 44.3902 69.7561 44.0203 69.7561 43.2804V42.3292C69.7561 41.5894 69.3862 41.2195 68.6463 41.2195H67.6951C66.9553 41.2195 66.5854 41.5894 66.5854 42.3292Z" fill="black"/>
<path d="M64.5244 50.7317H65.4756H67.6951H68.6463H70.8659H71.8171C72.5569 50.7317 72.9268 51.1016 72.9268 51.8414V52.7926C72.9268 53.5325 73.2968 53.9024 74.0366 53.9024H74.9878C75.7277 53.9024 76.0976 54.2723 76.0976 55.0121V55.9634C76.0976 56.7032 76.4675 57.0731 77.2073 57.0731H78.1585C78.8984 57.0731 79.2683 56.7032 79.2683 55.9634V55.0121C79.2683 54.2723 79.6382 53.9024 80.3781 53.9024H81.3293C82.0691 53.9024 82.439 54.2723 82.439 55.0121V55.9634V58.1829V59.1341V61.3536V62.3048C82.439 63.0447 82.809 63.4146 83.5488 63.4146H84.5C85.2398 63.4146 85.6098 63.0447 85.6098 62.3048V61.3536C85.6098 60.6138 85.9797 60.2439 86.7195 60.2439H87.6707C88.4106 60.2439 88.7805 59.8739 88.7805 59.1341V58.1829V55.9634V55.0121C88.7805 54.2723 88.4106 53.9024 87.6707 53.9024H86.7195H84.5H83.5488C82.809 53.9024 82.439 53.5325 82.439 52.7926V51.8414V49.6219V48.6707C82.439 47.9308 82.809 47.5609 83.5488 47.5609H84.5C85.2398 47.5609 85.6098 47.191 85.6098 46.4512V45.5V43.2804V42.3292C85.6098 41.5894 85.2398 41.2195 84.5 41.2195H83.5488C82.809 41.2195 82.439 41.5894 82.439 42.3292V43.2804C82.439 44.0203 82.0691 44.3902 81.3293 44.3902H80.3781C79.6382 44.3902 79.2683 44.0203 79.2683 43.2804V42.3292V40.1097V39.1585C79.2683 38.4187 79.6382 38.0487 80.3781 38.0487H81.3293C82.0691 38.0487 82.439 37.6788 82.439 36.939V35.9878V33.7682V32.817C82.439 32.0772 82.0691 31.7073 81.3293 31.7073H80.3781C79.6382 31.7073 79.2683 31.3373 79.2683 30.5975V29.6463C79.2683 28.9065 79.6382 28.5365 80.3781 28.5365H81.3293C82.0691 28.5365 82.439 28.1666 82.439 27.4268V26.4756V24.256V23.3048C82.439 22.565 82.809 22.1951 83.5488 22.1951H84.5C85.2398 22.1951 85.6098 22.565 85.6098 23.3048V24.256V26.4756V27.4268V29.6463V30.5975V32.817V33.7682V35.9878V36.939C85.6098 37.6788 85.9797 38.0487 86.7195 38.0487H87.6707C88.4106 38.0487 88.7805 38.4187 88.7805 39.1585V40.1097V42.3292V43.2804V45.5V46.4512C88.7805 47.191 89.1504 47.5609 89.8903 47.5609H90.8415C91.5813 47.5609 91.9512 47.9308 91.9512 48.6707V49.6219C91.9512 50.3617 92.3212 50.7317 93.061 50.7317H94.0122C94.752 50.7317 95.122 51.1016 95.122 51.8414V52.7926C95.122 53.5325 94.752 53.9024 94.0122 53.9024H93.061C92.3212 53.9024 91.9512 54.2723 91.9512 55.0121V55.9634V58.1829V59.1341C91.9512 59.8739 92.3212 60.2439 93.061 60.2439H94.0122C94.752 60.2439 95.122 59.8739 95.122 59.1341V58.1829C95.122 57.443 95.4919 57.0731 96.2317 57.0731H97.1829H99.4025H100.354C101.094 57.0731 101.463 57.443 101.463 58.1829V59.1341C101.463 59.8739 101.094 60.2439 100.354 60.2439H99.4025C98.6626 60.2439 98.2927 60.6138 98.2927 61.3536V62.3048V64.5243V65.4756V67.6951V68.6463C98.2927 69.3861 98.6626 69.7561 99.4025 69.7561H100.354C101.094 69.7561 101.463 69.3861 101.463 68.6463V67.6951V65.4756V64.5243C101.463 63.7845 101.833 63.4146 102.573 63.4146H103.524C104.264 63.4146 104.634 63.0447 104.634 62.3048V61.3536V59.1341V58.1829V55.9634V55.0121C104.634 54.2723 104.264 53.9024 103.524 53.9024H102.573H100.354H99.4025C98.6626 53.9024 98.2927 53.5325 98.2927 52.7926V51.8414V49.6219V48.6707V46.4512V45.5C98.2927 44.7601 97.9228 44.3902 97.1829 44.3902H96.2317C95.4919 44.3902 95.122 44.0203 95.122 43.2804V42.3292V40.1097V39.1585C95.122 38.4187 95.4919 38.0487 96.2317 38.0487H97.1829C97.9228 38.0487 98.2927 38.4187 98.2927 39.1585V40.1097C98.2927 40.8495 98.6626 41.2195 99.4025 41.2195H100.354C101.094 41.2195 101.463 41.5894 101.463 42.3292V43.2804C101.463 44.0203 101.833 44.3902 102.573 44.3902H103.524C104.264 44.3902 104.634 44.0203 104.634 43.2804V42.3292V40.1097V39.1585C104.634 38.4187 105.004 38.0487 105.744 38.0487H106.695C107.435 38.0487 107.805 38.4187 107.805 39.1585V40.1097C107.805 40.8495 108.175 41.2195 108.915 41.2195H109.866C110.606 41.2195 110.976 41.5894 110.976 42.3292V43.2804C110.976 44.0203 110.606 44.3902 109.866 44.3902H108.915C108.175 44.3902 107.805 44.7601 107.805 45.5V46.4512V48.6707V49.6219V51.8414V52.7926C107.805 53.5325 108.175 53.9024 108.915 53.9024H109.866C110.606 53.9024 110.976 53.5325 110.976 52.7926V51.8414V49.6219V48.6707V46.4512V45.5C110.976 44.7601 111.346 44.3902 112.085 44.3902H113.037C113.776 44.3902 114.146 44.0203 114.146 43.2804V42.3292C114.146 41.5894 113.776 41.2195 113.037 41.2195H112.085C111.346 41.2195 110.976 40.8495 110.976 40.1097V39.1585C110.976 38.4187 111.346 38.0487 112.085 38.0487H113.037H115.256H116.207C116.947 38.0487 117.317 38.4187 117.317 39.1585V40.1097V42.3292V43.2804V45.5V46.4512C117.317 47.191 116.947 47.5609 116.207 47.5609H115.256C114.516 47.5609 114.146 47.9308 114.146 48.6707V49.6219V51.8414V52.7926V55.0121V55.9634C114.146 56.7032 113.776 57.0731 113.037 57.0731H112.085H109.866H108.915C108.175 57.0731 107.805 57.443 107.805 58.1829V59.1341C107.805 59.8739 108.175 60.2439 108.915 60.2439H109.866C110.606 60.2439 110.976 60.6138 110.976 61.3536V62.3048V64.5243V65.4756C110.976 66.2154 110.606 66.5853 109.866 66.5853H108.915C108.175 66.5853 107.805 66.9552 107.805 67.6951V68.6463C107.805 69.3861 107.435 69.7561 106.695 69.7561H105.744C105.004 69.7561 104.634 70.126 104.634 70.8658V71.817V74.0365V74.9878C104.634 75.7276 104.264 76.0975 103.524 76.0975H102.573C101.833 76.0975 101.463 75.7276 101.463 74.9878V74.0365C101.463 73.2967 101.094 72.9268 100.354 72.9268H99.4025C98.6626 72.9268 98.2927 73.2967 98.2927 74.0365V74.9878C98.2927 75.7276 97.9228 76.0975 97.1829 76.0975H96.2317H94.0122H93.061H90.8415H89.8903H87.6707H86.7195H84.5H83.5488C82.809 76.0975 82.439 75.7276 82.439 74.9878V74.0365C82.439 73.2967 82.809 72.9268 83.5488 72.9268H84.5H86.7195H87.6707H89.8903H90.8415H93.061H94.0122C94.752 72.9268 95.122 72.5569 95.122 71.817V70.8658C95.122 70.126 94.752 69.7561 94.0122 69.7561H93.061H90.8415H89.8903H87.6707H86.7195H84.5H83.5488C82.809 69.7561 82.439 69.3861 82.439 68.6463V67.6951C82.439 66.9552 82.0691 66.5853 81.3293 66.5853H80.3781C79.6382 66.5853 79.2683 66.9552 79.2683 67.6951V68.6463C79.2683 69.3861 78.8984 69.7561 78.1585 69.7561H77.2073C76.4675 69.7561 76.0976 69.3861 76.0976 68.6463V67.6951C76.0976 66.9552 75.7277 66.5853 74.9878 66.5853H74.0366H71.8171H70.8659C70.126 66.5853 69.7561 66.2154 69.7561 65.4756V64.5243C69.7561 63.7845 70.126 63.4146 70.8659 63.4146H71.8171H74.0366H74.9878H77.2073H78.1585C78.8984 63.4146 79.2683 63.0447 79.2683 62.3048V61.3536C79.2683 60.6138 78.8984 60.2439 78.1585 60.2439H77.2073H74.9878H74.0366H71.8171H70.8659H68.6463H67.6951C66.9553 60.2439 66.5854 59.8739 66.5854 59.1341V58.1829C66.5854 57.443 66.9553 57.0731 67.6951 57.0731H68.6463C69.3862 57.0731 69.7561 56.7032 69.7561 55.9634V55.0121C69.7561 54.2723 69.3862 53.9024 68.6463 53.9024H67.6951H65.4756H64.5244C63.7846 53.9024 63.4146 53.5325 63.4146 52.7926V51.8414C63.4146 51.1016 63.7846 50.7317 64.5244 50.7317ZM88.7805 64.5243V65.4756C88.7805 66.2154 89.1504 66.5853 89.8903 66.5853H90.8415C91.5813 66.5853 91.9512 66.2154 91.9512 65.4756V64.5243C91.9512 63.7845 91.5813 63.4146 90.8415 63.4146H89.8903C89.1504 63.4146 88.7805 63.7845 88.7805 64.5243ZM101.463 48.6707V49.6219C101.463 50.3617 101.833 50.7317 102.573 50.7317H103.524C104.264 50.7317 104.634 50.3617 104.634 49.6219V48.6707C104.634 47.9308 104.264 47.5609 103.524 47.5609H102.573C101.833 47.5609 101.463 47.9308 101.463 48.6707Z" fill="black"/>
<path d="M70.8659 98.2927H71.8171C72.5569 98.2927 72.9269 98.6626 72.9269 99.4025V100.354C72.9269 101.094 72.5569 101.463 71.8171 101.463H70.8659C70.126 101.463 69.7561 101.094 69.7561 100.354V99.4025C69.7561 98.6626 70.126 98.2927 70.8659 98.2927Z" fill="black"/>
<path d="M74.0366 47.5609H74.9878H77.2073H78.1585C78.8984 47.5609 79.2683 47.9308 79.2683 48.6707V49.6219C79.2683 50.3617 78.8984 50.7316 78.1585 50.7316H77.2073H74.9878H74.0366C73.2967 50.7316 72.9268 50.3617 72.9268 49.6219V48.6707C72.9268 47.9308 73.2967 47.5609 74.0366 47.5609Z" fill="black"/>
<path d="M74.0366 79.2683H74.9878H77.2073H78.1585C78.8984 79.2683 79.2683 78.8983 79.2683 78.1585V77.2073C79.2683 76.4675 79.6382 76.0975 80.378 76.0975H81.3292C82.0691 76.0975 82.439 76.4675 82.439 77.2073V78.1585V80.378V81.3292C82.439 82.0691 82.0691 82.439 81.3292 82.439H80.378H78.1585H77.2073H74.9878H74.0366C73.2967 82.439 72.9268 82.0691 72.9268 81.3292V80.378C72.9268 79.6382 73.2967 79.2683 74.0366 79.2683Z" fill="black"/>
<path d="M77.2073 31.7073H78.1585C78.8984 31.7073 79.2683 32.0772 79.2683 32.817V33.7683C79.2683 34.5081 78.8984 34.878 78.1585 34.878H77.2073C76.4675 34.878 76.0976 34.5081 76.0976 33.7683V32.817C76.0976 32.0772 76.4675 31.7073 77.2073 31.7073Z" fill="black"/>
<path d="M77.2073 85.6097H78.1585C78.8984 85.6097 79.2683 85.9797 79.2683 86.7195V87.6707C79.2683 88.4106 78.8984 88.7805 78.1585 88.7805H77.2073C76.4675 88.7805 76.0976 88.4106 76.0976 87.6707V86.7195C76.0976 85.9797 76.4675 85.6097 77.2073 85.6097Z" fill="black"/>
<path d="M77.2073 101.463H78.1585C78.8984 101.463 79.2683 101.093 79.2683 100.354V99.4024V97.1829V96.2317V94.0122V93.061C79.2683 92.3211 79.6382 91.9512 80.3781 91.9512H81.3293C82.0691 91.9512 82.439 91.5813 82.439 90.8415V89.8903C82.439 89.1504 82.8089 88.7805 83.5488 88.7805H84.5H86.7195H87.6707C88.4106 88.7805 88.7805 88.4106 88.7805 87.6707V86.7195C88.7805 85.9797 88.4106 85.6098 87.6707 85.6098H86.7195C85.9797 85.6098 85.6098 85.2398 85.6098 84.5V83.5488V81.3293V80.3781C85.6098 79.6382 85.9797 79.2683 86.7195 79.2683H87.6707C88.4106 79.2683 88.7805 79.6382 88.7805 80.3781V81.3293C88.7805 82.0691 89.1504 82.439 89.8902 82.439H90.8415C91.5813 82.439 91.9512 82.809 91.9512 83.5488V84.5V86.7195V87.6707C91.9512 88.4106 92.3211 88.7805 93.061 88.7805H94.0122H96.2317H97.1829C97.9228 88.7805 98.2927 88.4106 98.2927 87.6707V86.7195V84.5V83.5488C98.2927 82.809 98.6626 82.439 99.4024 82.439H100.354H102.573H103.524C104.264 82.439 104.634 82.809 104.634 83.5488V84.5C104.634 85.2398 104.264 85.6098 103.524 85.6098H102.573C101.833 85.6098 101.463 85.9797 101.463 86.7195V87.6707C101.463 88.4106 101.833 88.7805 102.573 88.7805H103.524C104.264 88.7805 104.634 89.1504 104.634 89.8903V90.8415C104.634 91.5813 105.004 91.9512 105.744 91.9512H106.695C107.435 91.9512 107.805 92.3211 107.805 93.061V94.0122C107.805 94.752 107.435 95.122 106.695 95.122H105.744C105.004 95.122 104.634 95.4919 104.634 96.2317V97.1829C104.634 97.9228 105.004 98.2927 105.744 98.2927H106.695H108.915H109.866C110.606 98.2927 110.976 98.6626 110.976 99.4024V100.354V102.573V103.524V105.744V106.695V108.915V109.866C110.976 110.606 110.606 110.976 109.866 110.976H108.915C108.175 110.976 107.805 110.606 107.805 109.866V108.915C107.805 108.175 107.435 107.805 106.695 107.805H105.744C105.004 107.805 104.634 107.435 104.634 106.695V105.744C104.634 105.004 105.004 104.634 105.744 104.634H106.695C107.435 104.634 107.805 104.264 107.805 103.524V102.573C107.805 101.833 107.435 101.463 106.695 101.463H105.744C105.004 101.463 104.634 101.833 104.634 102.573V103.524C104.634 104.264 104.264 104.634 103.524 104.634H102.573C101.833 104.634 101.463 105.004 101.463 105.744V106.695V108.915V109.866C101.463 110.606 101.833 110.976 102.573 110.976H103.524C104.264 110.976 104.634 111.346 104.634 112.085V113.037V115.256V116.207C104.634 116.947 104.264 117.317 103.524 117.317H102.573C101.833 117.317 101.463 116.947 101.463 116.207V115.256C101.463 114.516 101.093 114.146 100.354 114.146H99.4024C98.6626 114.146 98.2927 113.776 98.2927 113.037V112.085C98.2927 111.346 97.9228 110.976 97.1829 110.976H96.2317C95.4919 110.976 95.1219 111.346 95.1219 112.085V113.037C95.1219 113.776 95.4919 114.146 96.2317 114.146H97.1829C97.9228 114.146 98.2927 114.516 98.2927 115.256V116.207C98.2927 116.947 97.9228 117.317 97.1829 117.317H96.2317H94.0122H93.061C92.3211 117.317 91.9512 116.947 91.9512 116.207V115.256C91.9512 114.516 91.5813 114.146 90.8415 114.146H89.8902H87.6707H86.7195C85.9797 114.146 85.6098 113.776 85.6098 113.037V112.085V109.866V108.915C85.6098 108.175 85.9797 107.805 86.7195 107.805H87.6707H89.8902H90.8415H93.061H94.0122H96.2317H97.1829C97.9228 107.805 98.2927 107.435 98.2927 106.695V105.744C98.2927 105.004 97.9228 104.634 97.1829 104.634H96.2317H94.0122H93.061H90.8415H89.8902H87.6707H86.7195H84.5H83.5488H81.3293H80.3781H78.1585H77.2073C76.4675 104.634 76.0976 104.264 76.0976 103.524V102.573C76.0976 101.833 76.4675 101.463 77.2073 101.463ZM82.439 96.2317V97.1829V99.4024V100.354C82.439 101.093 82.8089 101.463 83.5488 101.463H84.5C85.2398 101.463 85.6098 101.093 85.6098 100.354V99.4024V97.1829V96.2317C85.6098 95.4919 85.9797 95.122 86.7195 95.122H87.6707C88.4106 95.122 88.7805 94.752 88.7805 94.0122V93.061C88.7805 92.3211 88.4106 91.9512 87.6707 91.9512H86.7195C85.9797 91.9512 85.6098 92.3211 85.6098 93.061V94.0122C85.6098 94.752 85.2398 95.122 84.5 95.122H83.5488C82.8089 95.122 82.439 95.4919 82.439 96.2317ZM91.9512 93.061V94.0122V96.2317V97.1829V99.4024V100.354C91.9512 101.093 92.3211 101.463 93.061 101.463H94.0122H96.2317H97.1829H99.4024H100.354C101.093 101.463 101.463 101.093 101.463 100.354V99.4024V97.1829V96.2317V94.0122V93.061C101.463 92.3211 101.093 91.9512 100.354 91.9512H99.4024H97.1829H96.2317H94.0122H93.061C92.3211 91.9512 91.9512 92.3211 91.9512 93.061Z" fill="black"/>
<path d="M77.2073 107.805H78.1585H80.378H81.3292C82.0691 107.805 82.439 108.175 82.439 108.915V109.866C82.439 110.606 82.0691 110.976 81.3292 110.976H80.378C79.6382 110.976 79.2683 111.346 79.2683 112.085V113.037C79.2683 113.776 79.6382 114.146 80.378 114.146H81.3292C82.0691 114.146 82.439 114.516 82.439 115.256V116.207C82.439 116.947 82.0691 117.317 81.3292 117.317H80.378H78.1585H77.2073C76.4675 117.317 76.0976 116.947 76.0976 116.207V115.256V113.037V112.085V109.866V108.915C76.0976 108.175 76.4675 107.805 77.2073 107.805Z" fill="black"/>
<path d="M80.3781 69.7561H81.3293C82.0691 69.7561 82.439 70.126 82.439 70.8659V71.8171C82.439 72.5569 82.0691 72.9269 81.3293 72.9269H80.3781C79.6382 72.9269 79.2683 72.5569 79.2683 71.8171V70.8659C79.2683 70.126 79.6382 69.7561 80.3781 69.7561Z" fill="black"/>
<path d="M83.5488 12.683H84.5H86.7195H87.6707C88.4106 12.683 88.7805 13.0529 88.7805 13.7927V14.744C88.7805 15.4838 89.1504 15.8537 89.8902 15.8537H90.8414C91.5813 15.8537 91.9512 16.2236 91.9512 16.9635V17.9147V20.1342V21.0854V23.3049V24.2562V26.4757V27.4269V29.6464V30.5976V32.8171V33.7683V35.9879V36.9391C91.9512 37.6789 91.5813 38.0488 90.8414 38.0488H89.8902C89.1504 38.0488 88.7805 37.6789 88.7805 36.9391V35.9879V33.7683V32.8171V30.5976V29.6464V27.4269V26.4757V24.2562V23.3049V21.0854V20.1342C88.7805 19.3944 88.4106 19.0244 87.6707 19.0244H86.7195H84.5H83.5488C82.8089 19.0244 82.439 18.6545 82.439 17.9147V16.9635V14.744V13.7927C82.439 13.0529 82.8089 12.683 83.5488 12.683Z" fill="black"/>
<path d="M93.061 44.3903H94.0122C94.752 44.3903 95.1219 44.7602 95.1219 45.5V46.4512C95.1219 47.1911 94.752 47.561 94.0122 47.561H93.061C92.3211 47.561 91.9512 47.1911 91.9512 46.4512V45.5C91.9512 44.7602 92.3211 44.3903 93.061 44.3903Z" fill="black"/>
<path d="M96.2317 12.683H97.1829H99.4024H100.354H102.573H103.524H105.744H106.695H108.915H109.866H112.085H113.037H115.256H116.207C116.947 12.683 117.317 13.0529 117.317 13.7927V14.744V16.9635V17.9147V20.1342V21.0854V23.3049V24.2562V26.4757V27.4269V29.6464V30.5976V32.8171V33.7684C117.317 34.5082 116.947 34.8781 116.207 34.8781H115.256H113.037H112.085H109.866H108.915H106.695H105.744H103.524H102.573H100.354H99.4024H97.1829H96.2317C95.4919 34.8781 95.1219 34.5082 95.1219 33.7684V32.8171V30.5976V29.6464V27.4269V26.4757V24.2562V23.3049V21.0854V20.1342V17.9147V16.9635V14.744V13.7927C95.1219 13.0529 95.4919 12.683 96.2317 12.683ZM98.2927 16.9635V17.9147V20.1342V21.0854V23.3049V24.2562V26.4757V27.4269V29.6464V30.5976C98.2927 31.3375 98.6626 31.7074 99.4024 31.7074H100.354H102.573H103.524H105.744H106.695H108.915H109.866H112.085H113.037C113.776 31.7074 114.146 31.3375 114.146 30.5976V29.6464V27.4269V26.4757V24.2562V23.3049V21.0854V20.1342V17.9147V16.9635C114.146 16.2236 113.776 15.8537 113.037 15.8537H112.085H109.866H108.915H106.695H105.744H103.524H102.573H100.354H99.4024C98.6626 15.8537 98.2927 16.2236 98.2927 16.9635Z" fill="black"/>
<path d="M96.2317 79.2683H97.183C97.9228 79.2683 98.2927 79.6382 98.2927 80.3781V81.3293C98.2927 82.0691 97.9228 82.439 97.183 82.439H96.2317C95.4919 82.439 95.1219 82.0691 95.1219 81.3293V80.3781C95.1219 79.6382 95.4919 79.2683 96.2317 79.2683Z" fill="black"/>
<path d="M96.2317 95.1219H97.183C97.9228 95.1219 98.2927 95.4919 98.2927 96.2317V97.183C98.2927 97.9228 97.9228 98.2927 97.183 98.2927H96.2317C95.4919 98.2927 95.1219 97.9228 95.1219 97.183V96.2317C95.1219 95.4919 95.4919 95.1219 96.2317 95.1219Z" fill="black"/>
<path d="M102.573 19.0244H103.524H105.744H106.695H108.915H109.866C110.606 19.0244 110.976 19.3943 110.976 20.1342V21.0854V23.3049V24.2561V26.4756V27.4269C110.976 28.1667 110.606 28.5366 109.866 28.5366H108.915H106.695H105.744H103.524H102.573C101.833 28.5366 101.463 28.1667 101.463 27.4269V26.4756V24.2561V23.3049V21.0854V20.1342C101.463 19.3943 101.833 19.0244 102.573 19.0244Z" fill="black"/>
<path d="M105.744 76.0975H106.695H108.915H109.866C110.606 76.0975 110.976 76.4675 110.976 77.2073V78.1585V80.378V81.3292C110.976 82.0691 110.606 82.439 109.866 82.439H108.915C108.175 82.439 107.805 82.0691 107.805 81.3292V80.378C107.805 79.6382 107.435 79.2683 106.695 79.2683H105.744C105.004 79.2683 104.634 78.8983 104.634 78.1585V77.2073C104.634 76.4675 105.004 76.0975 105.744 76.0975Z" fill="black"/>
<path d="M105.744 85.6097H106.695C107.435 85.6097 107.805 85.9797 107.805 86.7195V87.6707C107.805 88.4106 107.435 88.7805 106.695 88.7805H105.744C105.004 88.7805 104.634 88.4106 104.634 87.6707V86.7195C104.634 85.9797 105.004 85.6097 105.744 85.6097Z" fill="black"/>
<path d="M108.915 69.7561H109.866C110.606 69.7561 110.976 69.3861 110.976 68.6463V67.6951C110.976 66.9552 111.346 66.5853 112.085 66.5853H113.037H115.256H116.207C116.947 66.5853 117.317 66.9552 117.317 67.6951V68.6463C117.317 69.3861 116.947 69.7561 116.207 69.7561H115.256C114.516 69.7561 114.146 70.126 114.146 70.8658V71.817V74.0365V74.9878C114.146 75.7276 113.776 76.0975 113.037 76.0975H112.085C111.346 76.0975 110.976 75.7276 110.976 74.9878V74.0365C110.976 73.2967 110.606 72.9268 109.866 72.9268H108.915C108.175 72.9268 107.805 72.5569 107.805 71.817V70.8658C107.805 70.126 108.175 69.7561 108.915 69.7561Z" fill="black"/>
<path d="M108.915 114.146H109.866C110.606 114.146 110.976 114.516 110.976 115.256V116.207C110.976 116.947 110.606 117.317 109.866 117.317H108.915C108.175 117.317 107.805 116.947 107.805 116.207V115.256C107.805 114.516 108.175 114.146 108.915 114.146Z" fill="black"/>
<path d="M112.085 82.439H113.037C113.776 82.439 114.146 82.0691 114.146 81.3292V80.378V78.1585V77.2073C114.146 76.4675 114.516 76.0975 115.256 76.0975H116.207C116.947 76.0975 117.317 76.4675 117.317 77.2073V78.1585V80.378V81.3292V83.5488V84.5V86.7195V87.6707V89.8902V90.8414C117.317 91.5813 116.947 91.9512 116.207 91.9512H115.256H113.037H112.085C111.345 91.9512 110.976 91.5813 110.976 90.8414V89.8902V87.6707V86.7195V84.5V83.5488C110.976 82.8089 111.345 82.439 112.085 82.439Z" fill="black"/>
<path d="M112.085 95.1219H113.037C113.776 95.1219 114.146 95.4919 114.146 96.2317V97.183C114.146 97.9228 113.776 98.2927 113.037 98.2927H112.085C111.345 98.2927 110.976 97.9228 110.976 97.183V96.2317C110.976 95.4919 111.345 95.1219 112.085 95.1219Z" fill="black"/>
<path d="M115.256 101.463H116.207C116.947 101.463 117.317 101.833 117.317 102.573V103.524V105.744V106.695C117.317 107.435 116.947 107.805 116.207 107.805H115.256C114.516 107.805 114.146 107.435 114.146 106.695V105.744V103.524V102.573C114.146 101.833 114.516 101.463 115.256 101.463Z" fill="black"/>
<path d="M115.256 110.976H116.207C116.947 110.976 117.317 111.345 117.317 112.085V113.037C117.317 113.776 116.947 114.146 116.207 114.146H115.256C114.516 114.146 114.146 113.776 114.146 113.037V112.085C114.146 111.345 114.516 110.976 115.256 110.976Z" fill="black"/>
</svg>
