<svg width="185" height="47" viewBox="0 0 185 47" fill="none" xmlns="http://www.w3.org/2000/svg">
<path d="M48.2225 21.7239C48.9879 22.5664 49.9064 23.1791 51.0545 23.6386C52.2026 24.0981 53.5038 24.3279 55.1112 24.3279C55.8766 24.3279 56.642 24.2513 57.2543 24.1747C57.9432 24.0981 58.479 23.945 59.0148 23.7152C59.5506 23.562 60.0098 23.3323 60.4691 23.1791C60.8518 22.9493 61.2345 22.7961 61.5407 22.6429L61.0049 21.4941C60.6987 21.6473 60.3925 21.8005 60.0864 21.9536C59.7802 22.1068 59.474 22.1834 59.0913 22.3366C58.7086 22.4132 58.3259 22.5664 57.8667 22.5664C57.4074 22.6429 56.8716 22.6429 56.2593 22.6429C55.1112 22.6429 54.1162 22.4132 53.4273 21.9536C52.6619 21.4941 52.1261 20.8814 51.6668 20.1921C51.2841 19.4262 50.978 18.5071 50.8249 17.5115C50.6718 16.4392 50.5953 15.367 50.5953 14.1416C50.5953 13.2225 50.6718 12.2268 50.7483 11.2312C50.8249 10.2355 51.0545 9.39305 51.4372 8.62716C51.8199 7.86127 52.2792 7.24856 52.968 6.71243C53.6569 6.2529 54.5754 5.94654 55.7235 5.94654C56.7951 5.94654 57.7136 6.2529 58.479 6.78902C59.2444 7.32515 59.7037 8.24422 59.9333 9.39305H61.1579V5.64019C60.7752 5.48701 60.3925 5.33383 59.9333 5.18065C59.474 5.02748 59.0148 4.95089 58.479 4.8743C57.9432 4.79771 57.484 4.79771 56.9482 4.72112C56.4889 4.72112 56.0297 4.64453 55.647 4.64453C53.9631 4.64453 52.5853 4.8743 51.3607 5.33383C50.2126 5.79337 49.2175 6.48267 48.4521 7.32515C47.6867 8.16763 47.1509 9.23987 46.7682 10.4653C46.3855 11.6907 46.2324 13.1459 46.2324 14.6777C46.2324 16.1329 46.3855 17.5115 46.7682 18.6603C46.9978 19.9623 47.5336 20.958 48.2225 21.7239Z" fill="#1A9F29"/>
<path d="M123.081 23.7155C123.999 23.6389 124.918 23.3325 125.607 22.9496C126.372 22.4901 126.984 21.8773 127.367 21.0349C127.826 20.1924 128.056 19.0436 128.056 17.5884C128.056 16.5161 127.903 15.6736 127.597 14.9077C127.291 14.1419 126.831 13.6057 126.142 13.0696C125.454 12.6101 124.612 12.3037 123.54 12.074C122.468 11.8442 121.167 11.7676 119.636 11.7676H118.029V7.24884C118.029 6.78931 118.106 6.48295 118.335 6.32977C118.565 6.1766 118.948 6.1766 119.56 6.1766H121.856C122.545 6.1766 123.157 6.1766 123.617 6.25319C124.076 6.32977 124.458 6.40636 124.688 6.63613C124.994 6.8659 125.224 7.17225 125.377 7.5552C125.53 7.93814 125.76 8.47427 125.913 9.16357H126.908V4.95117H113.896H112.824V5.56388C112.901 5.56388 112.977 5.64047 113.207 5.64047C113.437 5.71706 113.59 5.79365 113.666 5.87024C113.743 5.94683 113.819 6.10001 113.896 6.32977C113.896 6.55954 113.972 6.78931 113.972 7.09566V10.9251V17.8947V21.7242C113.972 22.0305 113.972 22.3369 113.896 22.4901C113.896 22.7198 113.819 22.873 113.666 22.9496C113.59 23.0262 113.437 23.1794 113.207 23.1794C112.977 23.256 112.901 23.256 112.824 23.256V23.8687H119.943C121.091 23.8687 122.086 23.8687 123.081 23.7155ZM118.412 22.3369C118.259 22.1837 118.182 22.0305 118.182 21.8008C118.182 21.571 118.106 21.2646 118.106 20.8817V12.9164H119.713C121.167 12.9164 122.239 13.2994 122.851 14.0653C123.463 14.8312 123.77 16.0566 123.77 17.7415C123.77 18.8904 123.693 19.7329 123.463 20.4222C123.234 21.1115 123.004 21.571 122.621 21.9539C122.239 22.2603 121.856 22.4901 121.473 22.6432C121.014 22.7198 120.555 22.7964 120.096 22.7964C119.636 22.7198 119.254 22.7198 119.024 22.6432C118.794 22.5666 118.565 22.4901 118.412 22.3369Z" fill="#1A9F29"/>
<path d="M102.947 23.256C102.87 23.256 102.794 23.1794 102.564 23.1794C102.335 23.1028 102.181 23.0262 102.105 22.9496C102.028 22.873 101.952 22.7198 101.875 22.4901C101.875 22.2603 101.799 22.0305 101.799 21.7242V16.4395H103.712C104.707 16.4395 105.626 16.3629 106.544 16.2098C107.463 16.0566 108.228 15.7502 108.917 15.3673C109.606 14.9077 110.142 14.3716 110.524 13.5291C110.907 12.7633 111.137 11.691 111.137 10.389C111.137 9.16357 110.907 8.16791 110.601 7.47861C110.218 6.78931 109.683 6.1766 109.07 5.79365C108.458 5.41071 107.692 5.18094 106.851 5.10435C106.009 5.02776 105.167 4.95117 104.248 4.95117H97.8187H96.7471V5.56388C96.8236 5.56388 96.9002 5.64047 97.1298 5.64047C97.3594 5.71706 97.5125 5.79365 97.589 5.87024C97.6656 5.94683 97.7421 6.10001 97.8187 6.32977C97.8187 6.55954 97.8952 6.78931 97.8952 7.09567V21.6476C97.8952 21.9539 97.8952 22.2603 97.8187 22.4135C97.8187 22.6432 97.7421 22.7964 97.589 22.873C97.5125 22.9496 97.3594 23.1028 97.1298 23.1028C96.9002 23.1794 96.8236 23.1794 96.7471 23.1794V23.7921H102.947V23.256ZM101.875 7.09567C101.875 6.94249 101.875 6.78931 101.952 6.63613C101.952 6.48295 102.028 6.40636 102.105 6.32977C102.181 6.25319 102.335 6.1766 102.564 6.1766C102.794 6.1766 103.023 6.10001 103.406 6.10001C103.865 6.10001 104.325 6.1766 104.784 6.25319C105.243 6.40636 105.549 6.63613 105.932 6.94249C106.238 7.24884 106.468 7.70838 106.697 8.2445C106.851 8.78062 106.927 9.46993 106.927 10.2358C106.927 11.8442 106.697 13.0696 106.238 13.9121C105.779 14.7546 104.937 15.2141 103.789 15.2141H101.875V7.09567Z" fill="#1A9F29"/>
<path d="M94.22 19.5031H92.9954C92.8423 20.269 92.6892 20.8051 92.5361 21.2646C92.383 21.7242 92.23 22.0305 91.9238 22.2603C91.6942 22.4901 91.3115 22.6432 90.8522 22.6432C90.393 22.7198 89.7806 22.7198 88.9387 22.7198C88.1733 22.7198 87.561 22.7198 87.1782 22.6432C86.719 22.5667 86.4128 22.4901 86.1832 22.3369C85.9536 22.1837 85.8005 21.9539 85.8005 21.7242C85.724 21.4178 85.724 21.1115 85.724 20.6519V14.678H88.2498C88.4794 14.678 88.7091 14.678 89.0152 14.678C89.3214 14.678 89.6276 14.7546 89.9337 14.7546C90.2399 14.7546 90.5461 14.8312 90.8522 14.9077C91.1584 14.9843 91.388 15.0609 91.6176 15.2141V12.7633C91.388 12.9164 91.1584 12.993 90.8522 13.0696C90.5461 13.1462 90.2399 13.2228 89.9337 13.2228C89.6276 13.2994 89.3214 13.2994 89.0152 13.2994C88.7091 13.2994 88.4794 13.2994 88.2498 13.2994H85.724V7.01908C85.724 6.63613 85.8005 6.32977 85.877 6.1766C86.0301 6.02342 86.2598 6.02342 86.6425 6.02342H88.7091C89.3979 6.02342 90.0103 6.02342 90.4695 6.10001C90.9288 6.1766 91.3115 6.25319 91.5411 6.48295C91.8473 6.71272 92.0769 7.01908 92.23 7.40202C92.383 7.78497 92.6127 8.32109 92.7658 9.01039H93.7608V4.95117H81.6673H80.5957V5.56388C80.6722 5.56388 80.7488 5.64047 80.9784 5.64047C81.208 5.71706 81.3611 5.79365 81.4377 5.87024C81.5142 5.94683 81.5907 6.10001 81.6673 6.32977C81.6673 6.55954 81.7438 6.78931 81.7438 7.09567V21.6476C81.7438 21.9539 81.7438 22.2603 81.6673 22.4135C81.6673 22.6432 81.5907 22.7964 81.4377 22.873C81.3611 22.9496 81.208 23.1028 80.9784 23.1028C80.7488 23.1794 80.6722 23.1794 80.5957 23.1794V23.7921H94.22V19.5031Z" fill="#1A9F29"/>
<path d="M73.4036 23.7155C74.3221 23.6389 75.2406 23.3325 75.9295 22.9496C76.6949 22.4901 77.3072 21.8773 77.7665 21.0349C78.2257 20.1924 78.4553 19.0436 78.4553 17.5884C78.4553 16.5161 78.3022 15.6736 77.9961 14.9077C77.6899 14.1419 77.2307 13.6057 76.5418 13.0696C75.8529 12.6101 75.011 12.3037 73.9394 12.074C72.8678 11.8442 71.5666 11.7676 70.0358 11.7676H68.4284V7.24884C68.4284 6.78931 68.505 6.48295 68.7346 6.32977C68.9642 6.1766 69.3469 6.1766 69.9593 6.1766H72.2555C72.9444 6.1766 73.5567 6.1766 74.0159 6.25319C74.4752 6.32977 74.8579 6.40636 75.0875 6.63613C75.3937 6.8659 75.6233 7.17225 75.7764 7.5552C75.9295 7.93814 76.1591 8.47427 76.3122 9.16357H77.3072V4.95117H64.2952H63.2236V5.56388C63.3002 5.56388 63.3767 5.64047 63.6063 5.64047C63.836 5.71706 63.989 5.79365 64.0656 5.87024C64.1421 5.94683 64.2187 6.10001 64.2952 6.32977C64.2952 6.55954 64.3718 6.78931 64.3718 7.09566V7.47861V10.8485V17.7415V20.5753C64.3718 20.5753 64.3718 20.5753 64.3718 20.6519V21.6476C64.3718 21.9539 64.3718 22.1837 64.2952 22.4135C64.2952 22.6432 64.2187 22.7964 64.0656 22.873C63.989 22.9496 63.836 23.1028 63.6063 23.1028C63.3767 23.1794 63.3002 23.1794 63.2236 23.1794V23.8687H70.342C71.4901 23.8687 72.4086 23.8687 73.4036 23.7155ZM68.7346 22.3369C68.5815 22.1837 68.505 22.0305 68.505 21.8008C68.505 21.571 68.4284 21.2646 68.4284 20.8817V12.9164H70.0358C71.4901 12.9164 72.5617 13.2994 73.174 14.0653C73.7863 14.8312 74.0925 16.0566 74.0925 17.7415C74.0925 18.8904 74.0159 19.7329 73.7863 20.4222C73.5567 21.1115 73.3271 21.571 72.9444 21.9539C72.5617 22.2603 72.179 22.4901 71.7962 22.6432C71.337 22.7198 70.8778 22.7964 70.4185 22.7964C69.9593 22.7198 69.6531 22.7198 69.3469 22.6432C69.1173 22.5666 68.8877 22.4901 68.7346 22.3369Z" fill="#1A9F29"/>
<path d="M184.846 29.2305H46.0771V31.0686H184.846V29.2305Z" fill="#1A9F29"/>
<path d="M173.749 16.747C174.131 17.2831 174.438 17.7427 174.82 18.2022C175.126 18.6617 175.509 19.1213 175.815 19.5808C176.121 20.0403 176.428 20.4999 176.81 20.9594C177.193 21.4955 177.499 21.9551 177.805 22.4912C178.112 22.9507 178.341 23.4868 178.571 23.9464L185 24.023C184.311 23.3337 183.699 22.6444 183.01 21.9551C182.398 21.2658 181.862 20.653 181.479 20.2701C180.867 19.5808 180.331 18.9681 179.872 18.432C179.336 17.8192 178.877 17.2831 178.418 16.747C177.958 16.2109 177.499 15.5982 177.117 15.062C176.734 14.5259 176.275 13.8366 175.892 13.2239L176.198 12.841C176.657 12.2282 177.193 11.6155 177.805 10.8496C178.418 10.0838 179.03 9.31787 179.719 8.62856C180.408 7.86267 181.02 7.17337 181.709 6.56066C182.398 5.94795 182.934 5.48841 183.469 5.10547H179.03C178.877 5.48841 178.647 5.94795 178.341 6.48407C178.035 7.02019 177.729 7.63291 177.27 8.24562C176.887 8.85833 176.428 9.54763 176.045 10.2369C175.586 10.9262 175.203 11.5389 174.744 12.1517C174.284 12.7644 173.902 13.3771 173.519 13.8366C173.136 14.3727 172.83 14.7557 172.601 15.1386C172.983 15.6748 173.366 16.2109 173.749 16.747Z" fill="#1A9F29"/>
<path d="M173.212 23.256C173.135 23.256 173.058 23.1794 172.829 23.1794C172.599 23.1028 172.446 23.0262 172.37 22.9496C172.293 22.873 172.217 22.7198 172.14 22.4901C172.14 22.2603 172.063 22.0305 172.063 21.7242V7.17225C172.063 6.8659 172.063 6.55954 172.14 6.40636C172.14 6.1766 172.217 6.02342 172.37 5.94683C172.446 5.87024 172.599 5.79365 172.829 5.71706C173.058 5.64047 173.135 5.64047 173.212 5.64047V4.95117H168.083H167.012V5.56388C167.088 5.56388 167.165 5.64047 167.394 5.64047C167.624 5.71706 167.777 5.79365 167.854 5.87024C167.93 5.94683 168.007 6.10001 168.083 6.32977C168.083 6.55954 168.16 6.78931 168.16 7.09567V21.6476C168.16 21.9539 168.16 22.2603 168.083 22.4135C168.083 22.6432 168.007 22.7964 167.854 22.873C167.777 22.9496 167.624 23.1028 167.394 23.1028C167.165 23.1794 167.088 23.1794 167.012 23.1794V23.7921H173.212V23.256Z" fill="#1A9F29"/>
<path d="M132.033 21.5725C132.262 20.5003 132.721 18.9685 133.334 17.0538H139.38L140.222 19.5046C140.605 20.5769 140.911 21.4959 141.064 22.2618C141.294 23.0277 141.447 23.5638 141.447 23.9468H146.269C146.04 23.5638 145.81 23.0277 145.504 22.415C145.198 21.8023 144.815 20.8832 144.432 19.7344L140.069 7.32697C139.84 6.79084 139.763 6.33131 139.687 5.94837C139.61 5.56542 139.61 5.25906 139.534 5.0293H134.099V5.64201C134.176 5.64201 134.252 5.7186 134.482 5.7186C134.711 5.79519 134.865 5.87178 134.941 5.94837C135.018 6.02495 135.094 6.17813 135.171 6.4079C135.171 6.56108 135.171 6.63767 135.171 6.79084C135.171 7.25038 135.094 7.70991 134.941 8.01627L131.879 15.522C131.344 16.9006 130.808 18.126 130.425 19.0451C130.042 19.9642 129.66 20.8066 129.43 21.4193C129.124 22.0321 128.894 22.5682 128.665 22.9511C128.435 23.3341 128.282 23.6404 128.129 23.9468H131.573C131.65 23.4107 131.803 22.6448 132.033 21.5725ZM136.395 8.09286L138.921 15.7518H133.716L136.395 8.09286Z" fill="#1A9F29"/>
<path d="M153.542 23.256H153.389C153.312 23.256 153.235 23.1794 153.006 23.1794C152.776 23.1028 152.623 23.0262 152.547 22.9496C152.47 22.873 152.394 22.7198 152.317 22.4901C152.317 22.2603 152.24 22.0305 152.24 21.7242V14.4482H159.588V21.6476C159.588 21.9539 159.588 22.2603 159.512 22.4135C159.512 22.6432 159.435 22.7964 159.282 22.873C159.206 22.9496 159.053 23.1028 158.823 23.1028C158.593 23.1794 158.517 23.1794 158.44 23.1794V23.7921H164.64V23.1794C164.564 23.1794 164.487 23.1028 164.257 23.1028C164.028 23.0262 163.875 22.9496 163.798 22.873C163.722 22.7964 163.645 22.6432 163.569 22.4135C163.569 22.1837 163.492 21.9539 163.492 21.6476V17.8947V17.7415V10.8485V10.7719V7.01908C163.492 6.71272 163.492 6.40636 163.569 6.25319C163.569 6.02342 163.645 5.87024 163.798 5.79365C163.875 5.71706 164.028 5.64047 164.257 5.56388C164.487 5.48729 164.564 5.48729 164.64 5.48729V4.95117H159.512H158.593V5.56388C158.67 5.56388 158.746 5.64047 158.976 5.64047C159.206 5.71706 159.359 5.79365 159.435 5.87024C159.512 5.94683 159.588 6.10001 159.665 6.32977C159.665 6.55954 159.741 6.78931 159.741 7.09566V13.1462H152.394V7.09566C152.394 6.78931 152.394 6.48295 152.47 6.32977C152.47 6.10001 152.547 5.94683 152.7 5.87024C152.776 5.79365 152.929 5.71706 153.159 5.64047C153.389 5.56388 153.465 5.56388 153.542 5.56388V4.95117H148.413H147.342V5.56388C147.418 5.56388 147.495 5.64047 147.725 5.64047C147.954 5.71706 148.107 5.79365 148.184 5.87024C148.26 5.94683 148.337 6.10001 148.413 6.32977C148.413 6.55954 148.49 6.78931 148.49 7.09566V7.5552V20.6519V20.7285V21.7242C148.49 22.0305 148.49 22.2603 148.413 22.4901C148.413 22.7198 148.337 22.873 148.184 22.9496C148.107 23.0262 147.954 23.1794 147.725 23.1794C147.495 23.256 147.418 23.256 147.342 23.256V23.8687H153.542V23.256Z" fill="#1A9F29"/>
<path d="M33.4476 6.94431C33.0649 6.40818 32.6822 5.87206 32.2995 5.33594L11.0976 17.5136L0.841083 11.6162C0.611459 12.3055 0.458377 12.9183 0.381836 13.6076L11.1741 19.8113L33.4476 6.94431Z" fill="#1A9F29"/>
<path d="M11.0985 22.1101L0.0765412 15.7532C-5.70276e-09 16.1362 0 16.5957 0 16.9786C0 27.0118 8.11337 35.2068 18.2168 35.2068C28.2437 35.2068 36.4336 27.0884 36.4336 16.9786C36.4336 13.9917 35.7447 11.1579 34.4435 8.70703L11.0985 22.1101Z" fill="#1A9F29"/>
<path d="M30.8488 3.80438C30.3131 3.26826 29.7773 2.88532 29.2415 2.42578L11.1012 12.9185L2.37553 7.94019C2.06936 8.47631 1.7632 9.08903 1.45703 9.70174L11.0247 15.2161L30.8488 3.80438Z" fill="#1A9F29"/>
<path d="M27.4037 1.1992C26.7148 0.816255 26.0259 0.433309 25.2605 0.126953L11.1004 8.32198L4.74749 4.7223C4.28824 5.18183 3.90554 5.71795 3.44629 6.25408L11.0239 10.6197L27.4037 1.1992Z" fill="#1A9F29"/>
<path d="M123.768 44.9315L125.222 37.4258H127.595C128.972 37.4258 129.585 38.1151 129.585 39.1873C129.585 40.183 128.972 40.7191 127.824 41.1021C128.59 41.4084 129.049 41.9445 129.049 42.7104C129.049 44.089 128.13 44.8549 126.293 44.8549H123.768V44.9315ZM124.686 44.2422H126.447C127.595 44.2422 128.284 43.6295 128.284 42.7104C128.284 42.0211 127.671 41.3318 126.523 41.3318H125.145L124.686 44.2422ZM125.375 40.7191H126.906C128.207 40.7191 128.896 40.1064 128.896 39.1873C128.896 38.4214 128.437 38.0385 127.518 38.0385H125.987L125.375 40.7191Z" fill="#1A9F29"/>
<path d="M134.252 43.5534C133.793 44.3958 133.257 45.0085 132.186 45.0085C130.961 45.0085 130.119 44.0129 130.119 42.6343C130.119 40.9493 131.191 39.4941 132.645 39.4941C133.717 39.4941 134.252 40.1069 134.559 41.0259L133.87 41.1791C133.64 40.4898 133.257 40.1069 132.645 40.1069C131.65 40.1069 130.808 41.1791 130.808 42.7109C130.808 43.7831 131.344 44.3192 132.262 44.3192C133.104 44.3192 133.41 43.8597 133.717 43.3236L134.252 43.5534Z" fill="#1A9F29"/>
<path d="M135.864 42.3279C135.864 42.4811 135.864 42.6343 135.864 42.7109C135.864 43.7831 136.399 44.3958 137.241 44.3958C138.007 44.3958 138.466 43.8597 138.925 43.1704L139.538 43.4768C138.925 44.3958 138.313 45.0085 137.165 45.0085C135.94 45.0085 135.175 44.0895 135.175 42.7109C135.175 40.8727 136.246 39.4941 137.777 39.4941C139.002 39.4941 139.691 40.26 139.691 41.6386C139.691 41.8684 139.614 42.0982 139.614 42.3279H135.864ZM139.002 41.7152C139.078 41.562 139.002 41.4855 139.002 41.4089C139.002 40.7962 138.619 40.1834 137.777 40.1834C136.782 40.1834 136.323 40.7962 136.017 41.7918H139.002V41.7152Z" fill="#1A9F29"/>
<path d="M141.448 39.6465H144.433L144.357 40.2592H142.06L141.142 44.9311H140.453L141.448 39.6465Z" fill="#1A9F29"/>
<path d="M143.818 44.3184L146.038 39.6465H147.109L147.722 44.3184H148.258L147.951 45.9268H147.416L147.492 44.9311H143.895L143.589 45.9268H143.053L143.359 44.3184H143.818ZM146.956 44.3184L146.574 40.3358H146.421L144.584 44.3184H146.956Z" fill="#1A9F29"/>
<path d="M152.624 41.7933C152.624 41.5636 152.7 41.3338 152.7 41.1806C152.7 40.5679 152.241 40.185 151.552 40.185C151.093 40.185 150.71 40.4147 150.404 40.7977L149.945 40.3382C150.404 39.9552 150.94 39.5723 151.705 39.5723C152.777 39.5723 153.466 40.2616 153.466 41.104C153.466 41.2572 153.389 41.5636 153.389 41.9465L153.007 43.7081C152.853 44.3208 152.853 44.7037 152.853 45.0101H152.165C152.088 44.8569 152.088 44.6271 152.088 44.3974C151.629 44.7803 151.17 45.0867 150.557 45.0867C149.715 45.0867 149.026 44.3974 149.026 43.5549C149.026 42.4826 150.021 41.7933 151.858 41.7933H152.624ZM152.471 42.3295H151.935C150.481 42.3295 149.715 42.7124 149.715 43.4783C149.715 44.0144 150.098 44.3974 150.634 44.3974C151.17 44.3974 151.629 44.091 152.165 43.7081L152.471 42.3295Z" fill="#1A9F29"/>
<path d="M158.977 40.26C159.437 39.8005 159.896 39.4941 160.508 39.4941C161.656 39.4941 162.269 40.26 162.269 41.7152C162.269 43.6299 161.121 45.0085 159.743 45.0085C159.054 45.0085 158.595 44.7022 158.212 44.3193L157.676 46.9999H156.987L158.442 39.5707H159.054L158.977 40.26ZM158.365 43.6299C158.671 44.0895 159.054 44.3958 159.743 44.3958C160.738 44.3958 161.656 43.247 161.656 41.6386C161.656 40.643 161.197 40.1069 160.432 40.1069C159.896 40.1069 159.36 40.3366 158.977 41.0259L158.365 43.6299Z" fill="#1A9F29"/>
<path d="M165.253 42.4803L163.569 44.9311H162.804L164.564 42.4803C163.875 42.2505 163.493 41.7144 163.493 41.1017C163.493 40.4124 164.105 39.6465 165.33 39.6465H167.855L166.784 44.9311H166.095L166.554 42.4803H165.253ZM166.937 40.1826H165.253C164.488 40.1826 164.105 40.6421 164.105 41.0251C164.105 41.5612 164.411 41.791 165.023 41.791H166.554L166.937 40.1826Z" fill="#1A9F29"/>
<path d="M168.544 44.3184L170.763 39.6465H171.835L172.447 44.3184H172.983L172.677 45.9268H172.141L172.218 44.9311H168.62L168.314 45.9268H167.778L168.084 44.3184H168.544ZM171.605 44.3184L171.223 40.3358H171.07L169.233 44.3184H171.605Z" fill="#1A9F29"/>
<path d="M173.597 42.7109C173.597 40.8727 174.745 39.4941 176.123 39.4941C177.271 39.4941 177.96 40.4132 177.96 41.7918C177.96 43.5534 176.811 45.0085 175.434 45.0085C174.362 45.0085 173.597 44.1661 173.597 42.7109ZM174.286 42.8641C174.286 43.8597 174.821 44.3958 175.51 44.3958C176.429 44.3958 177.347 43.247 177.347 41.7152C177.347 40.7196 176.811 40.1069 176.123 40.1069C175.204 40.1069 174.286 41.2557 174.286 42.8641Z" fill="#1A9F29"/>
<path d="M184.08 40.2592L181.784 44.9311H181.095L180.406 40.2592L179.488 44.9311H178.799L179.87 39.6465H181.019L181.631 44.2418L183.851 39.6465H184.999L183.927 44.9311H183.238L184.08 40.2592Z" fill="#1A9F29"/>
</svg>
