<svg width="23" height="13" viewBox="0 0 23 13" fill="none" xmlns="http://www.w3.org/2000/svg">
<path fill-rule="evenodd" clip-rule="evenodd" d="M12.23 12.7126C12.23 12.7126 12.632 12.6677 12.8379 12.4455C13.0265 12.242 13.0199 11.8579 13.0199 11.8579C13.0199 11.8579 12.9948 10.064 13.8239 9.79924C14.6411 9.5387 15.6902 11.5339 16.8037 12.3011C17.6447 12.8811 18.2832 12.7542 18.2832 12.7542L21.2586 12.7126C21.2586 12.7126 22.8143 12.6163 22.0768 11.3872C22.0158 11.2865 21.6464 10.4778 19.8651 8.81634C17.9989 7.07728 18.2494 7.35859 20.4959 4.34986C21.8643 2.51776 22.4112 1.39928 22.2402 0.920952C22.0779 0.463499 21.0712 0.584969 21.0712 0.584969L17.722 0.605745C17.722 0.605745 17.4737 0.571848 17.2895 0.682384C17.1098 0.790734 16.9933 1.04352 16.9933 1.04352C16.9933 1.04352 16.4637 2.4609 15.7567 3.66696C14.2652 6.21049 13.6692 6.34508 13.4252 6.18753C12.8576 5.81864 12.9992 4.70781 12.9992 3.91865C12.9992 1.45286 13.3718 0.425229 12.2747 0.159226C11.9108 0.0705584 11.6428 0.0126064 10.7113 0.00276553C9.51609 -0.00936165 8.50506 0.00713927 7.93199 0.288351C7.55065 0.475527 7.25654 0.893616 7.43633 0.917671C7.6575 0.947194 8.15859 1.05336 8.42444 1.41677C8.7676 1.88626 8.75565 2.93913 8.75565 2.93913C8.75565 2.93913 8.95283 5.8416 8.29477 6.20174C7.84379 6.44906 7.22497 5.94448 5.89468 3.63635C5.21379 2.45434 4.69949 1.14749 4.69949 1.14749C4.69949 1.14749 4.60041 0.903457 4.42276 0.772145C4.2082 0.613399 3.90855 0.564194 3.90855 0.564194L0.726174 0.584969C0.726174 0.584969 0.247904 0.598091 0.0724866 0.807135C-0.0833202 0.992124 0.0605396 1.37622 0.0605396 1.37622C0.0605396 1.37622 2.55213 7.23265 5.37386 10.1844C7.96142 12.89 10.8986 12.7126 10.8986 12.7126H12.23Z" fill=""/>
</svg>
