<svg width="19" height="22" viewBox="0 0 19 22" fill="none" xmlns="http://www.w3.org/2000/svg">
<path fill-rule="evenodd" clip-rule="evenodd" d="M13.4598 21.275C13.1264 21.186 12.9984 20.8813 12.9984 20.6107C12.9984 20.4594 12.9994 20.1941 13.0022 19.8396C13.006 19.1253 13.0137 18.0486 13.0137 16.8106C13.0137 15.5186 12.5915 14.6758 12.1167 14.2462C15.0589 13.9033 18.1502 12.7322 18.1502 7.41364C18.1502 5.9017 17.6372 4.66647 16.7908 3.69668C16.9274 3.34765 17.3802 1.93948 16.6609 0.0320598C16.6609 0.0320598 15.5528 -0.340093 13.0309 1.45149C11.9753 1.14466 10.8443 0.990791 9.72087 0.985516C8.59814 0.990791 7.46786 1.14466 6.41391 1.45149C3.88903 -0.340093 2.77948 0.0320598 2.77948 0.0320598C2.06207 1.93948 2.5143 3.34765 2.65147 3.69668C1.80625 4.66647 1.29012 5.9017 1.29012 7.41364C1.29012 12.7196 4.37517 13.907 7.30986 14.2571C6.93205 14.6027 6.58958 15.214 6.47103 16.1089C5.71704 16.4627 3.80458 17.0747 2.62616 14.9577C2.62616 14.9577 1.92747 13.6281 0.600695 13.5307C0.600695 13.5307 -0.688444 13.513 0.510327 14.3726C1.7091 15.232 1.37638 14.7981 1.97743 16.3987C1.97743 16.3987 2.75302 18.8702 6.42881 18.0325C6.43187 18.6615 6.43693 19.2708 6.44085 19.749C6.44419 20.1507 6.44677 20.46 6.44677 20.6107C6.44677 20.8832 6.31208 21.1907 5.97018 21.2766C7.39459 21.276 10.294 21.2751 13.4598 21.275ZM1.28646 14.2129C1.38056 14.2602 1.48382 14.2398 1.51296 14.1707C1.5462 14.1017 1.49156 14.007 1.39546 13.9615C1.29983 13.9146 1.19638 13.9341 1.16791 14.005C1.13687 14.0739 1.19065 14.1678 1.28646 14.2129ZM1.77745 14.7333C1.86104 14.8301 1.98427 14.8585 2.04722 14.7973C2.11313 14.7353 2.09623 14.6071 2.00987 14.5094C1.92323 14.413 1.80372 14.3843 1.73876 14.4455C1.67485 14.5076 1.691 14.6367 1.77745 14.7333ZM2.2744 15.475C2.35627 15.5981 2.48857 15.6534 2.56958 15.5945C2.65221 15.5341 2.65221 15.3862 2.57149 15.2613C2.48857 15.139 2.35818 15.0859 2.27612 15.145C2.19339 15.2041 2.19339 15.3518 2.2744 15.475ZM2.94469 16.3118C3.0576 16.426 3.21178 16.4485 3.28419 16.3647C3.36147 16.282 3.32651 16.1224 3.21178 16.0109C3.09801 15.8976 2.94287 15.874 2.8696 15.958C2.797 16.0417 2.8291 16.2001 2.94469 16.3118ZM3.93656 16.9243C4.08625 16.9705 4.23479 16.9212 4.2667 16.8127C4.29784 16.7024 4.19983 16.5763 4.05062 16.529C3.89978 16.4797 3.75056 16.5311 3.71952 16.6402C3.68933 16.7498 3.78715 16.8768 3.93656 16.9243ZM5.06785 17.1061C5.22499 17.1043 5.35185 17.0096 5.34812 16.8954C5.34812 16.7819 5.21955 16.6901 5.0624 16.6934C4.9044 16.6961 4.78041 16.7899 4.78041 16.9052C4.78213 17.0176 4.90994 17.11 5.06785 17.1061ZM6.10954 16.9727C6.26554 16.9424 6.37473 16.828 6.35591 16.7165C6.33604 16.6033 6.19619 16.5362 6.04 16.5647C5.88687 16.5943 5.77568 16.7087 5.79469 16.8229C5.81417 16.9335 5.95622 17.0022 6.10954 16.9727Z" fill=""/>
</svg>
