<svg width="21" height="18" viewBox="0 0 21 18" fill="none" xmlns="http://www.w3.org/2000/svg">
<path fill-rule="evenodd" clip-rule="evenodd" d="M10.2724 4.52793L10.3153 5.2641L9.59996 5.17395C6.9961 4.82838 4.7213 3.65648 2.78992 1.68824L1.84564 0.711596L1.60248 1.43282C1.08744 3.04045 1.4165 4.73822 2.4895 5.88014C3.06172 6.51121 2.933 6.60136 1.94582 6.22571C1.60248 6.10557 1.30196 6.01542 1.27342 6.06044C1.17325 6.16564 1.51658 7.53288 1.78847 8.07381C2.16043 8.82502 2.91864 9.56129 3.74848 9.99701L4.4495 10.3426L3.61967 10.3575C2.81856 10.3575 2.78992 10.3726 2.87573 10.6882C3.16189 11.6647 4.29216 12.7014 5.55113 13.1522L6.43815 13.4677L5.66558 13.9485C4.52104 14.6397 3.17616 15.0303 1.83137 15.0604C1.18752 15.0754 0.658203 15.1355 0.658203 15.1806C0.658203 15.3308 2.40359 16.1722 3.41941 16.5027C6.46678 17.4794 10.0864 17.0587 12.8046 15.3909C14.736 14.2039 16.6674 11.845 17.5688 9.56129C18.0552 8.34427 18.5416 6.12051 18.5416 5.05381C18.5416 4.36267 18.5845 4.27251 19.3857 3.44609C19.8579 2.96534 20.3014 2.43946 20.3872 2.28923C20.5303 2.00373 20.516 2.00373 19.7863 2.25915C18.5703 2.70992 18.3985 2.64985 18.9994 1.97365C19.443 1.49289 19.9723 0.621443 19.9723 0.366024C19.9723 0.320898 19.7577 0.396108 19.5144 0.531289C19.2569 0.681512 18.6847 0.906945 18.2555 1.04213L17.4829 1.29754L16.7819 0.80175C16.3956 0.531289 15.8519 0.230843 15.5658 0.14069C14.8362 -0.0697014 13.7202 -0.0396172 13.0621 0.200759C11.2738 0.876861 10.1435 2.61976 10.2724 4.52793Z" fill=""/>
</svg>
