<svg fill="none" xmlns="http://www.w3.org/2000/svg" viewBox="0 0 24 18" fill="">
  <path fill-rule="evenodd" clip-rule="evenodd" d="M22.18 1.306c.7.756.928 2.473.928 2.473s.234 2.014.234 4.03v1.888c0 2.015-.234 4.03-.234 4.03s-.228 1.716-.927 2.47c-.8.894-1.688.987-2.189 1.039-.055.006-.105.01-.15.017-3.266.25-8.171.259-8.171.259s-6.07-.06-7.937-.25a4.326 4.326 0 00-.316-.047c-.592-.076-1.52-.196-2.257-1.018-.7-.755-.928-2.47-.928-2.47S0 11.711 0 9.696V7.807c0-2.015.233-4.03.233-4.03s.229-1.716.928-2.472C1.965.41 2.855.32 3.355.27c.053-.006.101-.01.144-.016C6.765 0 11.665 0 11.665 0h.01s4.9 0 8.167.253c.044.006.092.01.145.016.5.05 1.39.14 2.194 1.037zm-6.128 7.45l-7.296 4.378V4.378l7.296 4.378z" fill=""/>
</svg>
