<svg viewBox="0 0 49 52" fill="none" xmlns="http://www.w3.org/2000/svg"><path fill-rule="evenodd" clip-rule="evenodd" d="M19.481 6.047A9.602 9.602 0 0128.4 0c4.322 0 8.01 2.77 9.158 6.748.247-.03.5-.048.742-.048a6.59 6.59 0 015.96 9.426c2.082 1.107 3.44 3.286 3.539 5.836a.984.984 0 010 .038 6.59 6.59 0 01-6.6 6.6H10.6c-4.76 0-8.5-3.856-8.5-8.5 0-4.264 3.159-7.877 7.3-8.428V11.6A6.59 6.59 0 0116 5c1.301 0 2.487.39 3.482 1.047zM28.4 2c-3.626 0-6.716 2.567-7.42 6.001a1 1 0 01-1.72.472C18.432 7.563 17.293 7 16 7a4.59 4.59 0 00-4.6 4.6c0 .291.002.485.07.757a1 1 0 01-.97 1.243c-3.53 0-6.4 2.935-6.4 6.5a6.49 6.49 0 006.5 6.5h30.6a4.59 4.59 0 004.6-4.58c-.092-2.192-1.429-3.896-3.292-4.463a1 1 0 01-.498-1.57c.556-.716.89-1.697.89-2.687a4.59 4.59 0 00-4.6-4.6c-.395 0-.91.083-1.258.17a1 1 0 01-1.227-.798C35.2 4.568 32.13 2 28.4 2zM3.5 39.1c-.848 0-1.5.652-1.5 1.5v5c0 .899.703 1.6 1.5 1.6h10.7a1.42 1.42 0 001.403-1.53.999.999 0 01-.003-.07v-5c0-.848-.652-1.5-1.5-1.5H3.5zM0 40.6c0-1.953 1.548-3.5 3.5-3.5h10.6c1.952 0 3.5 1.547 3.5 3.5v4.967c.118 1.952-1.422 3.633-3.4 3.633H3.5c-2.002 0-3.5-1.7-3.5-3.6v-5zm38.332-2.468a.098.098 0 00-.032.068v11.4a.1.1 0 00.032.068c.025.025.05.032.068.032h8.2a.098.098 0 00.068-.032.098.098 0 00.032-.068V38.2a.098.098 0 00-.032-.068.098.098 0 00-.068-.032h-8.2a.098.098 0 00-.068.032zM36.3 38.2c0-1.153.948-2.1 2.1-2.1h8.2c1.152 0 2.1.947 2.1 2.1v11.4a2.11 2.11 0 01-2.1 2.1h-8.2a2.11 2.11 0 01-2.1-2.1V38.2z" fill="#fff"/><path fill-rule="evenodd" clip-rule="evenodd" d="M7.9 50.7v-2.5h2v2.5h-2z" fill="#fff"/><path fill-rule="evenodd" clip-rule="evenodd" d="M4.4 51a1 1 0 011-1h7a1 1 0 110 2h-7a1 1 0 01-1-1zm22.3-9.3a1.7 1.7 0 100 3.4 1.7 1.7 0 000-3.4zM23 43.4a3.7 3.7 0 117.4 0 3.7 3.7 0 01-7.4 0z" fill="#fff"/><path fill-rule="evenodd" clip-rule="evenodd" d="M16.7 42.4h7.4v2h-7.4v-2zm20.6 2h-7.9v-2h7.9v2zm-9.6-17V40h-2V27.4h2z" fill="#fff"/><path fill-rule="evenodd" clip-rule="evenodd" d="M47.1 42.8h-9.8v-2h9.8v2zm0 4.2h-9.8v-2h9.8v2zM18.7 24c0-1.518 1.214-2.9 2.9-2.9h10.7c1.483 0 2.93 1.194 2.8 2.94v1.46c0 1.517-1.214 2.9-2.9 2.9H21.6c-1.518 0-2.9-1.214-2.9-2.9V24zm2.9-.9c-.514 0-.9.417-.9.9v1.5a.9.9 0 00.9.9h10.6c.514 0 .9-.418.9-.9V24c0-.03.002-.06.004-.09.04-.428-.3-.81-.804-.81H21.6z" fill="#fff"/><path fill-rule="evenodd" clip-rule="evenodd" d="M18.7 18.6c0-1.518 1.214-2.9 2.9-2.9h10.7c1.51 0 2.928 1.32 2.8 2.944V20.1c0 1.518-1.214 2.9-2.9 2.9H21.6c-1.518 0-2.9-1.214-2.9-2.9v-1.5zm2.9-.9c-.514 0-.9.418-.9.9v1.5c0 .514.418.9.9.9h10.6c.514 0 .9-.418.9-.9v-1.5a.974.974 0 01.005-.1c.035-.349-.333-.8-.805-.8H21.6z" fill="#fff"/><path fill-rule="evenodd" clip-rule="evenodd" d="M18.7 13.3c0-1.517 1.214-2.9 2.9-2.9h10.7c1.483 0 2.93 1.195 2.8 2.941v1.46c0 1.517-1.214 2.9-2.9 2.9H21.6c-1.518 0-2.9-1.214-2.9-2.9v-1.5zm2.9-.9c-.514 0-.9.418-.9.9v1.5c0 .514.418.9.9.9h10.6c.514 0 .9-.417.9-.9v-1.5c0-.03.002-.06.004-.09.04-.427-.3-.81-.804-.81H21.6z" fill="#fff"/><path fill-rule="evenodd" clip-rule="evenodd" d="M22.3 14a1 1 0 011-1h.7a1 1 0 110 2h-.7a1 1 0 01-1-1zm-.4 5.4a1 1 0 011-1h.7a1 1 0 110 2h-.7a1 1 0 01-1-1zm-.3 5.3a1 1 0 011-1h.7a1 1 0 110 2h-.7a1 1 0 01-1-1z" fill="#fff"/></svg>