<svg viewBox="0 0 52 47" fill="none" xmlns="http://www.w3.org/2000/svg"><path fill-rule="evenodd" clip-rule="evenodd" d="M0 6.728c0-3.752 2.948-6.7 6.7-6.7h38.6c3.752 0 6.7 2.948 6.7 6.7v27.3c0 3.764-3.06 6.7-6.7 6.7H31.7a.906.906 0 00-.104.005 1.149 1.149 0 01-.026.033l-4.8 5.8a1 1 0 01-1.54 0l-4.8-5.8a.92.92 0 01-.018-.022.344.344 0 00-.04-.01.448.448 0 00-.072-.006H6.7c-3.764 0-6.7-3.059-6.7-6.7v-27.3zm6.7-4.7c-2.648 0-4.7 2.053-4.7 4.7v27.3c0 2.56 2.064 4.7 4.7 4.7h13.6c.415 0 1.215.123 1.697.795L26 44.36l4.002-4.836c.46-.647 1.137-.796 1.698-.796h13.6c2.56 0 4.7-2.063 4.7-4.7v-27.3c0-2.647-2.052-4.7-4.7-4.7H6.7z" fill="#fff"/><path fill-rule="evenodd" clip-rule="evenodd" d="M22 10.328c-.348 0-.7.353-.7.7v3.3H26a1 1 0 110 2h-8.1c-.348 0-.7.353-.7.7v10.9c0 .348.352.7.7.7h14.7c.348 0 .7-.352.7-.7v-10.9c0-.347-.352-.7-.7-.7h-2.4a1 1 0 01-1-1v-4.3c0-.347-.352-.7-.7-.7H22zm-2.7 4v-3.3c0-1.452 1.248-2.7 2.7-2.7h6.5c1.452 0 2.7 1.248 2.7 2.7v3.3h1.4c1.452 0 2.7 1.248 2.7 2.7v10.9c0 1.453-1.248 2.7-2.7 2.7H17.9c-1.452 0-2.7-1.247-2.7-2.7v-10.9c0-1.452 1.248-2.7 2.7-2.7h1.4z" fill="#fff"/><path d="M25.2 23.028a2.1 2.1 0 100-4.2 2.1 2.1 0 000 4.2z" fill="#fff"/><path fill-rule="evenodd" clip-rule="evenodd" d="M25.2 19.928a1 1 0 011 1v4.2a1 1 0 11-2 0v-4.2a1 1 0 011-1z" fill="#fff"/></svg>