<?xml version="1.0" encoding="UTF-8"?><!DOCTYPE svg PUBLIC "-//W3C//DTD SVG 1.1//EN" "http://www.w3.org/Graphics/SVG/1.1/DTD/svg11.dtd"><svg xmlns="http://www.w3.org/2000/svg" xmlns:xlink="http://www.w3.org/1999/xlink"><defs><clipPath id="clip0"><path d="M0 0h20.8v25H0V0z" fill="#fff"/></clipPath></defs><symbol id="arrow-bottom-small" viewBox="0 0 16 15"><path fill-rule="evenodd" clip-rule="evenodd" d="M15.0711 8.34315L8.70713 14.7071C8.31661 15.0976 7.68344 15.0976 7.29292 14.7071L0.928954 8.34315C0.53843 7.95262 0.53843 7.31946 0.928954 6.92893C1.31948 6.53841 1.95264 6.53841 2.34317 6.92893L7.00002 11.5858L7.00002 3.656e-07L9.00002 2.78178e-07L9.00002 11.5858L13.6569 6.92893C14.0474 6.53841 14.6806 6.53841 15.0711 6.92893C15.4616 7.31946 15.4616 7.95262 15.0711 8.34315Z"/><path fill-rule="evenodd" clip-rule="evenodd" d="M15.0711 8.34315L8.70713 14.7071C8.31661 15.0976 7.68344 15.0976 7.29292 14.7071L0.928954 8.34315C0.53843 7.95262 0.53843 7.31946 0.928954 6.92893C1.31948 6.53841 1.95264 6.53841 2.34317 6.92893L7.00002 11.5858L7.00002 3.656e-07L9.00002 2.78178e-07L9.00002 11.5858L13.6569 6.92893C14.0474 6.53841 14.6806 6.53841 15.0711 6.92893C15.4616 7.31946 15.4616 7.95262 15.0711 8.34315Z"/></symbol><symbol id="arrow-bottom" viewBox="0 0 16 17"><path fill-rule="evenodd" clip-rule="evenodd" d="M14.989 9.62502L8.62501 15.989C8.23448 16.3795 7.60132 16.3795 7.21079 15.989L0.846831 9.62502C0.456307 9.23449 0.456307 8.60133 0.846831 8.2108C1.23736 7.82028 1.87052 7.82028 2.26105 8.2108L6.9179 12.8677V0.446075L8.9179 0.446075V12.8677L13.5748 8.2108C13.9653 7.82028 14.5984 7.82028 14.989 8.2108C15.3795 8.60133 15.3795 9.23449 14.989 9.62502Z"/></symbol><symbol id="arrow-menu-bottom" viewBox="0 0 13 9"><path fill-rule="evenodd" clip-rule="evenodd" d="M6.4643 5.6497L11.0816.6514l1.8364 1.6964-5.5427 6a1.25 1.25 0 01-1.8429-.0072l-5.4573-6L1.9245.6585l4.5398 4.9912z"/></symbol><symbol id="arrow-menu-top" viewBox="0 0 13 9"><path fill-rule="evenodd" clip-rule="evenodd" d="M6.5357 3.3503L1.9184 8.3486.082 6.6522l5.5427-6a1.25 1.25 0 011.8429.0072l5.4573 6-1.8494 1.6821-4.5398-4.9912z"/></symbol><symbol id="arrow-right" viewBox="0 0 16 15"><path fill-rule="evenodd" clip-rule="evenodd" d="M9.17894 0.292893L15.5429 6.65685C15.9334 7.04738 15.9334 7.68054 15.5429 8.07107L9.17894 14.435C8.78842 14.8256 8.15525 14.8256 7.76473 14.435C7.3742 14.0445 7.3742 13.4113 7.76473 13.0208L12.4216 8.36396H0L2.20669e-08 6.36396H12.4216L7.76473 1.70711C7.3742 1.31658 7.3742 0.683418 7.76473 0.292893C8.15525 -0.0976311 8.78842 -0.0976311 9.17894 0.292893Z"/></symbol><symbol id="fb" viewBox="0 0 11 23"><path fill-rule="evenodd" clip-rule="evenodd" d="M7.132 22.979V11.488h3.173l.42-3.96H7.132l.005-1.982c0-1.032.098-1.586 1.582-1.586h1.984V0H7.529C3.718 0 2.376 1.92 2.376 5.151V7.53H0v3.96h2.376v11.49h4.756z"/></symbol><symbol id="icon-android" viewBox="0 0 61 61"><rect x="1.262" y="1.259" width="59" height="59" rx="29.5" fill="#fff" stroke="#EAE7FB"/><path d="M38.4653 25.231L40.8296 21.0038C40.9637 20.7653 40.881 20.4651 40.6557 20.3267C40.4304 20.1884 40.1338 20.2678 40.0054 20.5063L37.6097 24.7895C35.7816 23.9269 33.7253 23.4471 31.5122 23.4471C29.299 23.4471 27.2427 23.9269 25.4146 24.7895L23.0189 20.5063C22.8849 20.2678 22.594 20.1884 22.363 20.3267C22.132 20.4651 22.0549 20.7653 22.189 21.0038L24.5533 25.231C20.4778 27.5124 17.7171 31.7721 17.2607 36.7588H45.7607C45.3044 31.7721 42.5437 27.5124 38.4653 25.231ZM24.9668 32.6257C24.3052 32.6257 23.7718 32.0723 23.7718 31.3923C23.7718 30.7094 24.308 30.1589 24.9668 30.1589C25.6285 30.1589 26.1618 30.7123 26.1618 31.3923C26.1647 32.0723 25.6285 32.6257 24.9668 32.6257ZM38.0518 32.6257C37.3901 32.6257 36.8568 32.0723 36.8568 31.3923C36.8568 30.7094 37.393 30.1589 38.0518 30.1589C38.7135 30.1589 39.2468 30.7123 39.2468 31.3923C39.2496 32.0723 38.7135 32.6257 38.0518 32.6257Z" fill="#30DD83"/></symbol><symbol id="icon-api" viewBox="0 0 23 25"><path fill-rule="evenodd" clip-rule="evenodd" d="M9.1007 21.666l-5.2-3L4.9 16.9336l5.2 3-.9994 1.7324zM2 15.1004v-5.7h2v5.7H2zM4.0003 5.9336l5.2-3 .9994 1.7324-5.2 3-.9994-1.7324zM12.893 2.9295l5.3 3-.9852 1.7406-5.3-3 .9852-1.7405zM20.0996 9.2998v6h-2v-6h2zM18.0943 18.7697l-5.1 2.9-.9886-1.7386 5.1-2.9.9886 1.7386zM10.2993 13.9658l-5.2 3L4.1 15.2334l5.2-3 .9994 1.7324z"/><path fill-rule="evenodd" clip-rule="evenodd" d="M12.0996 13.9004v5.9h-2v-5.9h2z"/><path fill-rule="evenodd" clip-rule="evenodd" d="M13.1035 12.3364l4.8 2.8-1.0078 1.7276-4.8-2.8 1.0078-1.7276zM12.1053 10.5307l5.1-2.9.9886 1.7386-5.1 2.9-.9886-1.7386zM9.111 12.2721l-5-2.8.9772-1.745 5 2.8-.9772 1.745zM10.0996 10.6996v-6.1h2v6.1h-2z"/><path fill-rule="evenodd" clip-rule="evenodd" d="M3 6.7002c-.5523 0-1 .4477-1 1s.4477 1 1 1 1-.4477 1-1-.4477-1-1-1zm-3 1c0-1.6569 1.3432-3 3-3 1.6569 0 3 1.3431 3 3 0 1.6568-1.3431 3-3 3-1.6568 0-3-1.3432-3-3zM11.0996 2c-.5523 0-1 .4477-1 1s.4477 1 1 1 1-.4477 1-1-.4477-1-1-1zm-3 1c0-1.6568 1.3432-3 3-3 1.6569 0 3 1.3432 3 3 0 1.6569-1.3431 3-3 3-1.6568 0-3-1.3431-3-3zM19.2002 6.5996c-.5523 0-1 .4477-1 1s.4477 1 1 1 1-.4477 1-1-.4477-1-1-1zm-3 1c0-1.6568 1.3431-3 3-3 1.6568 0 3 1.3432 3 3 0 1.6569-1.3432 3-3 3-1.6569 0-3-1.3431-3-3zM18.9004 15.7998c-.5523 0-1 .4477-1 1s.4477 1 1 1 1-.4477 1-1-.4477-1-1-1zm-3 1c0-1.6569 1.3431-3 3-3 1.6568 0 3 1.3431 3 3s-1.3432 3-3 3c-1.6569 0-3-1.3431-3-3zM11.0996 20.5996c-.5523 0-1 .4477-1 1s.4477 1 1 1 1-.4477 1-1-.4477-1-1-1zm-3 1c0-1.6568 1.3432-3 3-3 1.6569 0 3 1.3432 3 3 0 1.6569-1.3431 3-3 3-1.6568 0-3-1.3431-3-3zM3 15.7998c-.5523 0-1 .4477-1 1s.4477 1 1 1 1-.4477 1-1-.4477-1-1-1zm-3 1c0-1.6569 1.3432-3 3-3 1.6569 0 3 1.3431 3 3s-1.3431 3-3 3c-1.6568 0-3-1.3431-3-3zM11.0996 11.2998c-.5523 0-1 .4477-1 1s.4477 1 1 1 1-.4477 1-1-.4477-1-1-1zm-3 1c0-1.6568 1.3432-3 3-3 1.6569 0 3 1.3432 3 3 0 1.6569-1.3431 3-3 3-1.6568 0-3-1.3431-3-3z"/></symbol><symbol id="icon-bot" viewBox="0 0 30 29"><path fill-rule="evenodd" clip-rule="evenodd" d="M8.50001 2C7.75229 2 7.10001 2.65228 7.10001 3.4V10.5C7.10001 11.2477 7.75229 11.9 8.50001 11.9H21.8C22.5477 11.9 23.2 11.2477 23.2 10.5V3.4C23.2 2.65229 22.5477 2 21.8 2H8.50001ZM5.10001 3.4C5.10001 1.54772 6.64772 0 8.50001 0H21.8C23.6523 0 25.2 1.54771 25.2 3.4V10.5C25.2 12.3523 23.6523 13.9 21.8 13.9H8.50001C6.64772 13.9 5.10001 12.3523 5.10001 10.5V3.4Z"/><path d="M10.9 7.69999C11.5628 7.69999 12.1 7.16273 12.1 6.49999 12.1 5.83725 11.5628 5.29999 10.9 5.29999 10.2373 5.29999 9.70001 5.83725 9.70001 6.49999 9.70001 7.16273 10.2373 7.69999 10.9 7.69999zM19.3 7.79999C19.9627 7.79999 20.5 7.26274 20.5 6.59999 20.5 5.93725 19.9627 5.39999 19.3 5.39999 18.6373 5.39999 18.1 5.93725 18.1 6.59999 18.1 7.26274 18.6373 7.79999 19.3 7.79999z"/><path fill-rule="evenodd" clip-rule="evenodd" d="M2.00002 19.7928C2.00018 19.7975 2.00057 19.8074 2.00149 19.8221 2.00354 19.8551 2.00819 19.9122 2.01857 19.9901 2.03936 20.146 2.08289 20.3832 2.17361 20.6748 2.35431 21.2556 2.7229 22.0554 3.48106 22.8677 4.98072 24.4745 8.1725 26.3 15 26.3 21.8275 26.3 25.0193 24.4745 26.5189 22.8677 27.2771 22.0554 27.6457 21.2556 27.8264 20.6748 27.9171 20.3832 27.9606 20.146 27.9814 19.9901 27.9918 19.9122 27.9965 19.8551 27.9985 19.8221 27.9994 19.8074 27.9998 19.7975 28 19.7928 27.9958 19.0481 27.3453 18.4 26.6 18.4H3.4C2.65467 18.4 2.00416 19.0481 2.00002 19.7928zM29 19.8H30C30 17.9477 28.4523 16.4 26.6 16.4H3.4C1.54772 16.4 0 17.9477 0 19.8H1C0 19.8 4.17233e-7 19.8009.00000178814 19.8019L.00000751019 19.804.0000336766 19.8087.000163138 19.8202.000880182 19.8516C.00161874 19.8761.00295526 19.9079.00534815 19.9463.0101318 20.0232.019152 20.1272.0361158 20.2544.0700129 20.5087.13586 20.8574.263893 21.2689.520688 22.0943 1.0271 23.1696 2.01894 24.2323 4.01928 26.3755 7.8275 28.3 15 28.3 22.1725 28.3 25.9807 26.3755 27.9811 24.2323 28.9729 23.1696 29.4793 22.0943 29.7361 21.2689 29.8641 20.8574 29.93 20.5087 29.9639 20.2544 29.9808 20.1272 29.9899 20.0232 29.9947 19.9463 29.997 19.9079 29.9984 19.8761 29.9991 19.8516L29.9998 19.8202 30 19.8087 30 19.804 30 19.8019C30 19.8009 30 19.8 29 19.8zM3 6.60001C3 6.04772 3.44772 5.60001 4 5.60001H5.3C5.85228 5.60001 6.3 6.04772 6.3 6.60001 6.3 7.15229 5.85228 7.60001 5.3 7.60001H4C3.44772 7.60001 3 7.15229 3 6.60001zM23.7 6.60001C23.7 6.04772 24.1477 5.60001 24.7 5.60001H26C26.5523 5.60001 27 6.04772 27 6.60001 27 7.15229 26.5523 7.60001 26 7.60001H24.7C24.1477 7.60001 23.7 7.15229 23.7 6.60001z"/></symbol><symbol id="icon-bubble-lock" viewBox="0 0 52 47"><path fill-rule="evenodd" clip-rule="evenodd" d="M0 6.72832C0 2.97604 2.94772 0.0283203 6.7 0.0283203H45.3C49.0523 0.0283203 52 2.97604 52 6.72832V34.0283C52 37.792 48.9408 40.7283 45.3 40.7283H31.7C31.654 40.7283 31.6202 40.7306 31.5962 40.7334C31.5878 40.7444 31.5792 40.7552 31.5704 40.7659L26.7704 46.5659C26.5804 46.7954 26.298 46.9283 26 46.9283C25.702 46.9283 25.4196 46.7954 25.2296 46.5659L20.4296 40.7659C20.4235 40.7585 20.4175 40.7511 20.4117 40.7436C20.401 40.7404 20.3875 40.7372 20.3717 40.7345C20.3459 40.7302 20.3207 40.7283 20.3 40.7283H6.7C2.93632 40.7283 0 37.6691 0 34.0283V6.72832ZM6.7 2.02832C4.05228 2.02832 2 4.0806 2 6.72832V34.0283C2 36.5875 4.06368 38.7283 6.7 38.7283H20.3C20.7149 38.7283 21.5147 38.8514 21.9967 39.5225L26 44.3599L30.0021 39.524C30.4611 38.8774 31.1388 38.7283 31.7 38.7283H45.3C47.8592 38.7283 50 36.6646 50 34.0283V6.72832C50 4.08061 47.9477 2.02832 45.3 2.02832H6.7Z"/><path fill-rule="evenodd" clip-rule="evenodd" d="M22 10.3283C21.6523 10.3283 21.3 10.6806 21.3 11.0283V14.3283H26C26.5523 14.3283 27 14.776 27 15.3283C27 15.8806 26.5523 16.3283 26 16.3283H17.9C17.5523 16.3283 17.2 16.6806 17.2 17.0283V27.9283C17.2 28.276 17.5523 28.6283 17.9 28.6283H32.6C32.9477 28.6283 33.3 28.276 33.3 27.9283V17.0283C33.3 16.6806 32.9477 16.3283 32.6 16.3283H30.2C29.6477 16.3283 29.2 15.8806 29.2 15.3283V11.0283C29.2 10.6806 28.8477 10.3283 28.5 10.3283H22ZM19.3 14.3283V11.0283C19.3 9.57602 20.5477 8.32831 22 8.32831H28.5C29.9523 8.32831 31.2 9.57602 31.2 11.0283V14.3283H32.6C34.0523 14.3283 35.3 15.576 35.3 17.0283V27.9283C35.3 29.3806 34.0523 30.6283 32.6 30.6283H17.9C16.4477 30.6283 15.2 29.3806 15.2 27.9283V17.0283C15.2 15.576 16.4477 14.3283 17.9 14.3283H19.3Z"/><path fill-rule="evenodd" clip-rule="evenodd" d="M26.2 22.7754C26.8552 22.4199 27.3 21.7261 27.3 20.9283C27.3 19.7685 26.3598 18.8283 25.2 18.8283C24.0402 18.8283 23.1 19.7685 23.1 20.9283C23.1 21.7261 23.5448 22.42 24.2 22.7754V25.1283C24.2 25.6806 24.6477 26.1283 25.2 26.1283C25.7523 26.1283 26.2 25.6806 26.2 25.1283V22.7754Z"/></symbol><symbol id="icon-chat-sber" viewBox="0 0 48 58"><path fill-rule="evenodd" clip-rule="evenodd" d="M40.9084 7.0947c9.3409 9.3512 9.3409 24.5087 0 33.859L23.9948 57.885v-9.9186c-6.1211 0-12.2421-2.3376-16.9126-7.0127-9.34-9.3485-9.34-24.5078 0-33.859 9.3409-9.3502 24.4852-9.3502 33.8262 0z" fill="#fff"/></symbol><symbol id="icon-chat" viewBox="0 0 29 27"><path fill-rule="evenodd" clip-rule="evenodd" d="M3.1 2C2.5523 2 2 2.5523 2 3.1v9.6c0 .5789.483 1.1 1.1 1.1h2.5c.5523 0 1 .4477 1 1v4.4865l4.4435-5.1405A1 1 0 0111.8 13.8h4.9c.5789 0 1.1-.4829 1.1-1.1V3.1c0-.5789-.4829-1.1-1.1-1.1H3.1zM0 3.1C0 1.4477 1.4477 0 3.1 0h13.6c1.7829 0 3.1 1.4789 3.1 3.1v9.6c0 1.7829-1.4789 3.1-3.1 3.1h-4.4426l-4.8009 5.554a.9959.9959 0 01-.0494.0531c-.4734.4734-1.1465.6089-1.7233.4166C5.072 21.6198 4.6 21.0529 4.6 20.3v-4.5H3.1c-1.783 0-3.1-1.4789-3.1-3.1V3.1z"/><path fill-rule="evenodd" clip-rule="evenodd" d="M21.6 9.6c0-.5523.4477-1 1-1h3.7c1.5903 0 2.7 1.2866 2.7 2.7v7.4c0 1.5904-1.2866 2.7-2.7 2.7h-.9v3.3c0 1.3794-1.6404 1.8739-2.5071 1.0071a.9502.9502 0 01-.0475-.0509L19.1443 21.4H15.8c-1.5904 0-2.7-1.2866-2.7-2.7v-.2c0-.5523.4477-1 1-1s1 .4477 1 1v.2c0 .3866.2903.7.7.7h3.8a1 1 0 01.7546.3438L23.4 23.246V20.4c0-.5523.4477-1 1-1h1.9c.3866 0 .7-.2904.7-.7v-7.4c0-.3866-.2904-.7-.7-.7h-3.7c-.5523 0-1-.4477-1-1z"/></symbol><symbol id="icon-chrome" viewBox="0 0 60 60"><rect x=".5" y=".5" width="59" height="59" rx="29.5" fill="#fff" stroke="#EAE7FB"/><path d="M44.801 29.8116C44.801 38.0882 38.0892 44.8 29.8126 44.8C21.536 44.8 14.8242 38.0882 14.8242 29.8116C14.8242 21.535 21.536 14.8232 29.8126 14.8232C38.0892 14.8232 44.801 21.535 44.801 29.8116Z" fill="#4CAF50"/><path d="M29.8124 14.8232V29.8116L35.8078 32.8093L29.1807 44.8H29.8124C38.0957 44.8 44.8008 38.0949 44.8008 29.8116C44.8008 21.5283 38.0957 14.8232 29.8124 14.8232Z" fill="#FFC107"/><path d="M44.801 29.8116C44.801 38.0882 38.0892 44.8 29.8126 44.8C21.536 44.8 14.8242 38.0882 14.8242 29.8116C14.8242 21.535 21.536 14.8232 29.8126 14.8232C38.0892 14.8232 44.801 21.535 44.801 29.8116Z" fill="#4CAF50"/><path d="M29.8124 14.8232V29.8116L35.8078 32.8093L29.1807 44.8H29.8124C38.0957 44.8 44.8008 38.0949 44.8008 29.8116C44.8008 21.5283 38.0957 14.8232 29.8124 14.8232Z" fill="#FFC107"/><path d="M43.1816 23.0668H29.812V32.8093L27.5637 32.0599L17.1917 21.7629H17.1768C19.8297 17.5886 24.4986 14.8232 29.812 14.8232C35.6574 14.8232 40.716 18.1806 43.1816 23.0668Z" fill="#F44336"/><path d="M17.1904 21.7666L23.8175 32.9045L27.5639 32.0606L17.1904 21.7666Z" fill="#DD2C00"/><path d="M29.1807 44.7995L35.876 32.7646L32.8101 30.5605L29.1807 44.7995Z" fill="#558B2F"/><path d="M43.2006 23.0664H29.8122L28.6289 26.4987L43.2006 23.0664Z" fill="#F9A825"/><path d="M36.5559 29.8112C36.5559 33.535 33.535 36.5559 29.8112 36.5559C26.0873 36.5559 23.0664 33.535 23.0664 29.8112C23.0664 26.0873 26.0873 23.0664 29.8112 23.0664C33.535 23.0664 36.5559 26.0873 36.5559 29.8112Z" fill="#fff"/><path d="M35.0573 29.8104C35.0573 32.7084 32.7094 35.0563 29.8114 35.0563C26.9134 35.0563 24.5654 32.7084 24.5654 29.8104C24.5654 26.9124 26.9134 24.5645 29.8114 24.5645C32.7094 24.5645 35.0573 26.9124 35.0573 29.8104Z" fill="#2196F3"/></symbol><symbol id="icon-hands" viewBox="0 0 35 31"><path fill-rule="evenodd" clip-rule="evenodd" d="M8.103 11.5a2.58 2.58 0 012.6-2.6 2.58 2.58 0 012.6 2.6v7.8a1 1 0 11-2 0v-7.8a.58.58 0 00-.6-.6.58.58 0 00-.6.6v7.8a1 1 0 11-2 0v-7.8z"/><path fill-rule="evenodd" clip-rule="evenodd" d="M4.803 13.2a2.58 2.58 0 012.6-2.6 2.58 2.58 0 012.6 2.6v6.1a1 1 0 11-2 0v-6.1a.58.58 0 00-.6-.6.58.58 0 00-.6.6v7.5a1 1 0 01-1.479.878l-1.109-.605c-.702-.392-1.195-.43-1.491-.374a.842.842 0 00-.595.407c-.243.413-.176 1.052.453 1.416l.428.222 1.093.57c.863.45 1.916 1.002 2.67 1.404a1 1 0 01.447.484c.859 1.975 2.824 3.398 4.983 3.398 2.135 0 4.116-1.203 5.143-2.914a1 1 0 111.715 1.029c-1.374 2.289-3.993 3.885-6.858 3.885-2.913 0-5.454-1.814-6.666-4.274a418.075 418.075 0 00-3.45-1.807l-.444-.23a1.212 1.212 0 01-.032-.018c-1.659-.938-1.99-2.843-1.208-4.176a2.84 2.84 0 011.952-1.362c.756-.142 1.588-.01 2.448.395V13.2zM14.703 9.3c0-1.508 1.25-2.6 2.7-2.6 1.45 0 2.7 1.092 2.7 2.6a1 1 0 11-2 0c0-.291-.238-.6-.7-.6-.462 0-.7.309-.7.6v2.6a1 1 0 11-2 0V9.3z"/><path fill-rule="evenodd" clip-rule="evenodd" d="M18.103 7.5a2.58 2.58 0 012.6-2.6 2.58 2.58 0 012.6 2.6v6.3a1 1 0 11-2 0V7.5a.58.58 0 00-.6-.6.58.58 0 00-.6.6v6.3a1 1 0 11-2 0V7.5z"/><path fill-rule="evenodd" clip-rule="evenodd" d="M21.403 6a2.58 2.58 0 012.6-2.6 2.58 2.58 0 012.6 2.6v7.8a1 1 0 11-2 0V6a.58.58 0 00-.6-.6.58.58 0 00-.6.6v7.8a1 1 0 11-2 0V6z"/><path fill-rule="evenodd" clip-rule="evenodd" d="M24.703 7.8a2.58 2.58 0 012.6-2.6 2.58 2.58 0 012.6 2.6v5.828c.857-.403 1.684-.538 2.437-.395a2.799 2.799 0 011.931 1.371 3.062 3.062 0 01-1.208 4.184l-.444.23-1.09.569c-.752.392-1.643.858-2.353 1.235-1.218 2.57-3.776 4.278-6.673 4.278-4.093 0-7.8-3.29-7.8-7.5v-5.8a1 1 0 112 0v5.8c0 2.99 2.693 5.5 5.8 5.5 2.179 0 4.125-1.34 4.977-3.384a1 1 0 01.453-.498 374.625 374.625 0 013.764-1.974l.418-.217c.581-.357.663-1.005.42-1.43a.8.8 0 00-.569-.399c-.284-.054-.77-.02-1.475.375l-.009.005-1.1.6a1 1 0 01-1.479-.878V7.8a.58.58 0 00-.6-.6.58.58 0 00-.6.6v6.1a1 1 0 11-2 0V7.8zM9.573 2.497a1 1 0 011.333.473l1 2.1a1 1 0 01-1.806.86l-1-2.1a1 1 0 01.473-1.333zM19.28.12a1 1 0 01.402 1.356l-1.3 2.4a1 1 0 11-1.758-.952l1.3-2.4A1 1 0 0119.279.12zM14.203.1a1 1 0 011 1v4.4a1 1 0 11-2 0V1.1a1 1 0 011-1z"/></symbol><symbol id="icon-ios" viewBox="0 0 61 61"><rect x="1.383" y="1.259" width="59" height="59" rx="29.5" fill="#fff" stroke="#EAE7FB"/><path d="M40.7998 23.8502C36.8135 26.4815 37.2903 32.1716 41.4981 34.1205 41.3131 34.5958 41.1412 35.0817 40.9353 35.5517 40.2736 37.0705 39.3903 38.4512 38.2986 39.6779 37.0637 41.0666 35.7714 41.3188 34.07 40.6205 33.4578 40.3683 32.8246 40.1505 32.1785 40.0204 31.2979 39.8425 30.4355 40.0257 29.6069 40.3709 29.2604 40.5169 28.9139 40.6656 28.5622 40.7957 27.3689 41.2445 26.2928 41.0427 25.3445 40.1691 24.3023 39.2106 23.4998 38.0556 22.812 36.8262 21.3608 34.2347 20.5557 31.4547 20.699 28.4464 20.8084 26.1788 21.5484 24.1768 23.3435 22.7137 24.6045 21.6862 26.0531 21.1684 27.6763 21.4021 28.3068 21.4924 28.9113 21.7579 29.5262 21.9544 29.7659 22.0314 29.9978 22.1243 30.227 22.2278 30.8992 22.5305 31.5558 22.504 32.2436 22.2332 33.0774 21.9066 33.9189 21.5747 34.7865 21.3729 36.9803 20.8684 39.6118 21.9756 40.7998 23.8502zM36.1528 15.0082C36.515 17.8865 33.9304 21.1843 31.0879 20.9665 30.3975 18.5848 33.464 14.9631 36.1528 15.0082z" fill="#000"/></symbol><symbol id="icon-linux" viewBox="0 0 61 61"><rect x=".906" y="1.259" width="59" height="59" rx="29.5" fill="#fff" stroke="#EAE7FB"/><path fill-rule="evenodd" clip-rule="evenodd" d="M26.3199 21.6061L26.2666 17.9713L28.4294 16.7046L31.6407 14.542L32.9608 14.4883L34.3343 15.9647L35.0743 20.8702L34.0711 22.6629L29.9056 22.5559L26.3199 21.6061Z" fill="#fff"/><path fill-rule="evenodd" clip-rule="evenodd" d="M22.0473 31.9952L23.1534 28.8825L25.3162 26.3001L26.4223 24.084L26.8993 23.3478L34.8065 22.1348L36.3897 24.6143L40.8185 35.2108L39.2884 37.1062L35.2795 43.8088L34.334 44.0183L27.0023 44.228L21.8871 38.5331L21.0439 33.788L22.0473 31.9952Z" fill="#fff"/><path fill-rule="evenodd" clip-rule="evenodd" d="M32.1709 23.929C32.1709 23.929 31.9077 23.8754 32.6438 23.715C33.3839 23.5589 33.3878 23.4026 33.5934 23.1886C33.8033 22.979 33.9103 22.5018 33.9103 21.9756C33.9103 21.4494 34.1735 19.9197 34.1198 19.5004C34.0707 19.0768 33.17 17.4978 32.804 17.284C32.4341 17.0744 28.322 16.7041 28.322 16.7041L27.0555 17.7076L26.1057 18.5998L26.3195 21.4494C26.3195 21.4494 26.0522 22.3457 26.1057 22.7117C26.1592 23.0818 26.6895 23.5054 26.8992 23.715C27.1089 23.929 27.8985 24.7759 28.1615 25.0349C28.4287 25.2981 28.4823 25.5613 29.1113 25.3514C29.7445 25.1418 30.1146 25.1418 30.5917 24.7717C31.0646 24.4016 32.1709 23.929 32.1709 23.929Z" fill="#FF992B"/><path fill-rule="evenodd" clip-rule="evenodd" d="M29.744 19.4451C29.9044 19.0215 30.114 18.2321 30.48 17.9689C30.8499 17.7057 31.6437 17.4879 32.1168 17.5453C32.5937 17.5988 33.4859 18.0717 33.6997 18.4416C33.9095 18.8116 33.9095 20.2878 33.9095 20.2878L33.8025 21.5008L33.0664 21.4474L31.4835 20.814H31.2203C31.2203 20.814 30.9571 20.9168 30.1635 20.4975C29.3739 20.0741 29.5836 19.8685 29.744 19.4451ZM28.0581 20.6045C28.0828 20.5798 28.1321 20.5469 28.198 20.5098C28.5186 20.333 29.2176 20.0741 29.2176 20.0741C29.2176 20.0741 29.9001 18.3389 29.3204 17.6522C28.7447 16.9656 27.4784 17.0724 27.4784 17.0724C27.4784 17.0724 26.1092 17.862 26.1585 18.1785C26.2121 18.4953 26.2654 19.6012 26.3189 19.7575C26.3684 19.9179 26.5821 21.6038 26.5821 21.6038L27.055 21.3941L27.7418 20.8677C27.7416 20.8677 27.9018 20.7649 28.0581 20.6045Z" fill="#fff"/><path fill-rule="evenodd" clip-rule="evenodd" d="M38.1293 36.5318L38.8939 36.5894C39.0051 36.5977 39.116 36.6016 39.2271 36.6058C39.7945 36.6263 40.2923 36.7127 40.8227 36.7786C41.1725 36.8199 41.752 37.042 41.7932 37.4818C41.8508 38.1317 41.6616 38.8469 42.2123 39.1144C42.7758 39.4968 44.0339 40.3809 44.0339 40.3809L44.4041 41.0633L43.2982 42.0668L37.8662 45.3358L35.3908 44.4928V42.4902L35.4936 39.8012L35.2304 37.3749L35.6499 36.4251L36.7066 36.1084L38.1293 36.5318ZM22.4217 35.3476C22.3682 35.2981 21.406 35.5822 21.3444 35.5943C20.8962 35.6601 20.3289 35.9685 20.3289 36.458C20.3289 36.7088 20.3084 36.9679 20.1932 37.1941C20.1028 37.3707 19.8971 37.6379 19.9012 37.6957C19.8313 37.889 19.7039 38.1603 19.5271 38.2755C19.3215 38.2961 18.4086 38.3785 18.4086 38.3785H17.6149L17.1421 38.954L17.5121 40.4879L17.4051 41.6969L17.0391 43.0701L17.9313 43.543L24.6831 45.3358L26.2128 44.8629L27.0022 42.9097L26.8418 42.1737L26.1059 40.6974C26.1059 40.6973 22.8986 36.0384 22.4217 35.3476Z" fill="#FFC200"/><path fill-rule="evenodd" clip-rule="evenodd" d="M25.8583 18.7968C25.7474 15.1168 27.1825 13.4924 30.1635 13.439C33.1406 13.3814 35.0073 14.9521 35.3898 17.0123C35.768 19.0683 35.5502 21.778 36.3108 23.1844C37.0675 24.5947 37.5528 25.6761 38.8562 27.3003C40.1554 28.9245 40.9655 30.5776 41.344 32.584C41.7261 34.5866 41.9402 35.5324 40.9655 36.5643C39.9911 37.5922 38.26 39.2699 36.9605 37.3744C36.3069 36.4246 36.237 35.2444 37.339 34.9938C38.0421 34.8292 38.5478 34.8827 39.0701 35.154C39.5965 35.4255 39.7198 35.2978 39.0906 34.8292C38.4572 34.3603 38.33 34.7921 38.5478 34.0355C38.766 33.2788 39.0496 31.9177 38.4574 30.421C38.182 29.7304 37.2486 27.8389 36.3726 27.3741C36.2944 27.3289 36.0644 27.2344 36.2205 27.4277C36.4549 27.7197 37.7172 29.5781 38.0749 30.6842C38.4574 31.8727 38.5107 33.0076 38.3136 33.7271C38.1164 34.4508 37.7707 34.7385 37.3555 34.7385C36.9402 34.7385 36.562 34.9358 36.562 33.982C36.562 33.0239 36.6607 31.5805 36.1467 30.3592C35.6327 29.1422 35.0075 28.3033 34.8721 27.7893C34.7405 27.2752 34.4402 25.8937 33.8194 25.1084C33.1943 24.323 32.923 23.809 33.2476 22.9127C33.5725 22.0205 33.3298 21.7778 32.6803 21.5886C32.0306 21.3996 31.1629 21.1281 30.9492 20.6923C30.7312 20.2606 30.8671 19.3929 31.3523 19.1792C31.8414 18.9612 32.6515 19.2573 32.6803 19.8824C32.7091 20.5033 32.4088 20.8282 32.4915 20.9638C32.5736 21.0995 33.0051 21.3174 33.2233 21.0749C33.437 20.8282 33.4948 20.0714 33.2766 19.3684C33.0585 18.6652 32.9518 18.1759 32.1662 18.0155C31.3811 17.8508 31.0274 17.9044 30.6491 18.3937C30.2707 18.8789 30.1064 19.6642 30.2174 20.2359C30.3242 20.8032 30.1062 20.4784 29.7281 20.4496C29.3497 20.4249 29.4567 20.3961 29.0784 20.4249C28.7 20.4496 28.8358 20.2069 28.8069 19.7999C28.7821 19.3927 28.7288 18.5541 28.1572 18.2292C27.5896 17.9044 26.6153 18.2827 26.6398 19.6397C26.6686 20.9926 27.1291 21.6421 27.4006 21.1528C27.6719 20.6676 27.5363 20.9103 27.265 20.6923C26.9936 20.4786 26.8045 19.5821 27.1005 19.3149C27.4006 19.0435 27.7502 19.0435 27.9434 19.2039C28.1326 19.3684 28.4287 19.9112 28.3752 20.2606C28.3216 20.6142 28.2928 20.639 27.9434 20.8856C27.5898 21.1281 27.4541 21.3461 27.0472 21.6133C26.64 21.8846 26.4798 22.5098 26.8046 22.6702C27.1295 22.8346 27.1583 22.8058 27.4255 23.213C27.6969 23.6202 28.1574 23.8092 29.2964 23.6202C30.4313 23.431 30.8999 23.1597 31.7595 22.8594C32.3846 22.6454 32.1664 22.6702 32.3846 22.4276C32.5983 22.1851 32.952 22.5345 32.6271 22.7525C32.3023 22.9705 31.5701 23.1842 31.0276 23.3734C30.4889 23.5666 29.8639 24.1054 28.729 24.0519C27.59 23.9983 28.3753 24.0231 28.0217 23.9983C27.6721 23.9696 27.5077 24.0231 27.886 24.2944C28.2685 24.5659 28.2397 24.648 28.5645 24.7549C28.8894 24.866 29.3211 24.866 29.8392 24.6768C30.3532 24.4836 31.6528 23.916 32.0597 23.6447C32.4629 23.3734 32.7875 23.727 32.3846 23.9983C31.9776 24.2697 31.8665 24.1875 31.4881 24.4301C31.1099 24.6768 30.4067 25.0797 29.9462 25.5155C29.4857 25.9472 29.3789 25.976 28.8072 26.0008C28.2399 26.0295 27.8862 25.4334 27.6435 25.1621C27.401 24.8906 27.4255 24.7304 27.1295 24.4053C26.8334 24.0805 26.8046 24.1586 26.7511 24.5122C26.6976 24.8658 26.2906 25.758 25.937 26.3544C25.5874 26.9506 25.5586 27.6826 25.6121 28.1966C25.6657 28.7106 25.53 28.764 25.1271 29.3601C24.7199 29.9563 24.0414 31.7162 23.9346 32.2837C23.8275 32.8511 23.692 34.0189 23.7454 34.6933C23.7989 35.3718 23.6097 35.5075 23.1204 35.047C22.6352 34.5864 22.4705 34.0724 22.4995 33.3939C22.5243 32.8142 22.6023 32.407 22.6763 32.1933C22.7504 31.9796 22.6804 31.8315 22.5243 32.0947C22.1911 32.6702 22.1747 33.6654 22.257 34.0191C22.3351 34.3687 22.3639 34.9936 23.2563 35.8323C24.1525 36.6712 25.4519 37.8349 26.5335 38.6202C27.619 39.4056 27.9973 40.3801 26.3978 41.0833C27.4012 42.4403 27.9438 43.1433 27.508 44.0356C28.4043 43.5215 28.059 42.3087 27.6273 41.9837C27.1913 41.6588 27.4545 41.4082 27.8329 41.655C28.2113 41.8975 28.3469 42.3827 29.8395 42.358C31.3279 42.3294 32.9317 42.1814 33.8283 40.8777C34.7205 39.5784 34.8933 40.6721 34.6751 41.4329C34.4614 42.1895 33.9267 43.9001 34.7656 43.7397C34.8726 42.7362 35.1192 41.8687 35.1192 40.7873C35.1192 39.7016 35.2262 39.1795 35.1441 37.6088C35.0616 36.0955 35.7155 35.9927 36.39 35.9927C37.0685 35.9927 36.8503 36.4285 36.4188 36.3997C35.983 36.3711 35.5262 36.5355 35.4978 37.6457C35.469 38.7559 35.4978 38.649 35.6866 39.6483C35.8758 40.6516 35.9047 40.9477 35.7403 42.0579C35.5799 43.1683 35.444 43.7642 36.1761 44.4429C36.9038 45.1214 38.0138 44.9281 38.5856 44.4963C39.153 44.0645 40.2346 43.0614 41.2089 42.7364C42.1877 42.4115 43.2158 42.169 43.7582 41.6262C44.2972 41.0835 44.1613 40.7052 43.5938 40.4089C43.0264 40.1088 42.4834 40.2445 42.0519 39.7592C41.6157 39.2699 41.402 38.1884 41.5624 37.6169C41.7268 37.0495 41.916 37.2921 41.916 37.6992C41.916 38.1062 41.9409 38.4846 42.3479 38.9984C42.7549 39.5125 43.1331 39.7592 43.783 40.1622C44.4327 40.5693 44.8396 41.219 44.0255 41.7904C43.2154 42.3578 42.7547 42.6828 42.0762 42.9542C41.4018 43.2257 40.2918 43.8752 39.613 44.5498C38.9345 45.2283 38.5563 45.8244 37.2283 45.8244C35.9042 45.8244 35.2956 45.5036 34.901 44.714C34.6295 44.1714 34.4937 44.2537 33.873 44.2249C33.2478 44.2002 31.1631 44.1714 29.5391 44.2002C27.9148 44.2249 27.3722 44.4963 26.6402 45.0924C25.9124 45.6886 25.6409 46.1493 24.2594 45.6886C22.8779 45.2279 22.1459 44.714 20.0899 44.3071C18.0298 43.9001 19.1401 44.0891 17.8941 43.8178C16.6482 43.5505 16.7304 42.9542 16.895 42.465C17.0554 41.9798 17.4624 41.219 17.1088 40.2199C16.7592 39.2164 16.895 38.1885 17.8406 38.1885C18.7904 38.1885 19.6828 38.3777 20.061 37.1317C20.4393 35.8858 20.5503 36.8604 20.4393 37.1852C20.3325 37.5101 20.2789 38.4023 19.4401 38.5381C18.6012 38.6736 18.4122 38.4846 17.8939 38.4846C17.3801 38.4846 17.1662 38.8382 17.4334 39.4344C17.7047 40.0304 18.0048 40.6515 17.9515 41.1655C17.8939 41.6793 17.8404 41.8687 17.4622 42.3578C17.0838 42.843 17.1374 43.0898 17.8158 43.2502C18.4901 43.4149 19.7114 43.7395 20.8463 44.011C21.9853 44.2781 22.0676 44.2781 24.0412 44.7964C26.0191 45.3102 26.5619 44.3892 26.7223 43.279C26.8868 42.1686 26.1262 41.112 25.4229 40.0551C24.7197 38.9982 23.9628 37.7817 23.0416 36.6714C22.1206 35.5612 21.5778 35.4788 21.1173 35.7216C20.6566 35.9683 20.5744 35.9148 20.5497 35.2898C20.5209 34.669 20.4674 34.262 20.9814 33.3408C21.4955 32.4198 21.956 31.4163 22.4988 29.8743C23.0414 28.3324 23.5267 28.0323 24.4479 26.7042C25.369 25.3802 24.9619 25.8941 25.6116 25.0019C26.2613 24.1056 26.0721 24.2698 26.0187 22.8595C25.9652 21.4531 25.9119 20.639 25.8583 18.7968ZM23.272 29.8085C23.4119 29.9772 23.6092 29.5783 23.8148 29.4262C23.9034 29.3462 23.9703 29.245 24.0092 29.1321C24.048 29.0191 24.0575 28.8982 24.0368 28.7806C24.0163 28.6532 23.8105 28.6942 23.7696 28.7394C23.6422 28.8668 23.6708 29.0726 23.5804 29.2494C23.4776 29.4631 23.1322 29.6359 23.272 29.8085ZM34.9128 24.1504C35.2048 24.3972 35.3857 24.6111 35.5459 24.2451C35.7107 23.8791 35.7107 23.7311 35.316 23.5831C34.9252 23.4308 34.7486 23.2706 34.5716 23.069C34.3949 22.8634 34.3333 23.213 34.4771 23.5543C34.6537 23.9738 34.7565 24.0231 34.9128 24.1504ZM28.8107 20.7911C28.6092 20.7499 28.3667 20.7663 28.2308 20.9267C28.1773 20.9802 28.202 21.1323 28.2965 21.1735C28.4198 21.227 28.5021 21.1037 28.5269 21.009C28.5392 20.9679 28.5557 20.9145 28.5968 20.9022C28.6504 20.8734 28.7284 20.8981 28.786 20.8734C28.8519 20.8486 28.8272 20.7911 28.8107 20.7911ZM29.7689 20.8282C29.8512 20.9514 29.9992 20.9514 30.1225 21.005C30.1882 21.0338 30.324 21.0749 30.365 20.9802C30.4597 20.6801 30.0525 20.7746 29.8634 20.7746C29.8224 20.7746 29.7277 20.7624 29.7689 20.8282ZM31.7428 19.5164C31.9278 19.5245 32.1786 19.8536 32.2032 20.236C32.207 20.2936 32.3636 20.2894 32.3964 20.232C32.483 20.0799 32.4213 19.9112 32.3802 19.7303C32.3469 19.5823 32.1703 19.4302 32.0223 19.3643C31.9235 19.3149 31.8207 19.2986 31.6891 19.3149C31.6563 19.3315 31.5413 19.504 31.7428 19.5164ZM27.7089 19.4219C27.5402 19.4341 27.602 19.5657 27.6101 19.6726C27.8445 19.8042 27.865 20.1002 27.9143 20.3346C27.9183 20.425 28.054 20.3841 28.0664 20.3553C28.1692 20.1661 28.0416 19.9524 27.9966 19.7303C27.9554 19.6152 27.8774 19.4836 27.7703 19.4055C27.7541 19.3891 27.7251 19.4219 27.7089 19.4219ZM32.8815 15.2729C32.7128 15.1373 32.4496 15.0837 32.3717 15.3058C32.2895 15.495 32.3222 15.6882 32.2768 15.8938C32.2768 15.9595 32.1947 15.976 32.1496 16.0376C32.0837 16.1157 32.1002 16.2144 32.133 16.2432C32.2895 16.4036 32.5771 16.0869 32.787 15.976C32.9431 15.8772 33.169 16.0048 33.3421 15.8938C33.3912 15.861 33.4077 15.7827 33.3584 15.7211C33.2475 15.5278 33.0542 15.4169 32.8815 15.2729Z" fill="#000"/><path fill-rule="evenodd" clip-rule="evenodd" d="M37.7588 36.8021C37.7837 36.691 37.8409 36.4732 37.9479 36.4403C37.985 36.428 38.0179 36.4444 38.0301 36.4815C38.0546 36.5512 37.9806 36.9503 38.0096 37.0407C38.0424 37.1352 38.1534 37.1228 38.2316 37.0983C38.4165 37.0365 38.5236 36.8187 38.5153 36.7982C38.5153 36.7899 38.511 36.7899 38.5031 36.7899C38.4743 36.7982 38.4494 36.901 38.3673 36.9254C38.3139 36.942 38.2728 36.9337 38.2562 36.8803C38.2399 36.8227 38.3099 36.4115 38.2766 36.3168C38.2482 36.2223 38.1534 36.1976 38.0629 36.2264C37.8614 36.2923 37.7752 36.6005 37.7219 36.7816H37.7176L37.7464 36.358L37.4956 36.4403L37.4834 37.3161L37.7178 37.2378C37.722 37.0857 37.73 36.913 37.7588 36.8021ZM38.8445 36.8966C39.0457 36.8309 39.1361 36.5924 39.1278 36.5634C39.124 36.5553 39.1199 36.5511 39.1116 36.5511C39.095 36.5594 39.0583 36.695 38.9429 36.7319C38.8934 36.7485 38.8484 36.736 38.8362 36.7033C38.8196 36.6539 38.832 36.5677 38.832 36.4935L38.8403 36.0987L39.1157 36.0082L39.1118 35.9136L38.8364 36.004L38.8486 35.6299L38.602 35.7698L38.5895 36.6044C38.5895 36.6948 38.5815 36.7729 38.5978 36.8142C38.6304 36.9213 38.7416 36.9337 38.8445 36.8966Z" fill="#000"/></symbol><symbol id="icon-lock" viewBox="0 0 32 32"><path fill-rule="evenodd" clip-rule="evenodd" d="M16 2c-.8837 0-1.6.7163-1.6 1.6s.7163 1.6 1.6 1.6 1.6-.7163 1.6-1.6S16.8837 2 16 2zm-3.6 1.6C12.4 1.6118 14.0118 0 16 0c1.9882 0 3.6 1.6118 3.6 3.6 0 1.9882-1.6118 3.6-3.6 3.6-1.9882 0-3.6-1.6118-3.6-3.6zM16 26.8c-.8837 0-1.6.7163-1.6 1.6 0 .8836.7163 1.6 1.6 1.6.8836 0 1.6-.7164 1.6-1.6 0-.8837-.7164-1.6-1.6-1.6zm-3.6 1.6c0-1.9882 1.6118-3.6 3.6-3.6 1.9882 0 3.6 1.6118 3.6 3.6 0 1.9882-1.6118 3.6-3.6 3.6-1.9882 0-3.6-1.6118-3.6-3.6zM28.4 14.4c-.8837 0-1.6.7163-1.6 1.6 0 .8836.7163 1.6 1.6 1.6.8836 0 1.6-.7164 1.6-1.6 0-.8837-.7164-1.6-1.6-1.6zM24.8 16c0-1.9882 1.6118-3.6 3.6-3.6 1.9882 0 3.6 1.6118 3.6 3.6 0 1.9882-1.6118 3.6-3.6 3.6-1.9882 0-3.6-1.6118-3.6-3.6zM3.6 14.4c-.8837 0-1.6.7163-1.6 1.6s.7163 1.6 1.6 1.6 1.6-.7163 1.6-1.6-.7163-1.6-1.6-1.6zM0 16c0-1.9882 1.6118-3.6 3.6-3.6 1.9882 0 3.6 1.6118 3.6 3.6 0 1.9882-1.6118 3.6-3.6 3.6C1.6118 19.6 0 17.9882 0 16z"/><path fill-rule="evenodd" clip-rule="evenodd" d="M28.304 17.621c.5406.1127.8876.6423.775 1.1829-1.0828 5.1972-5.1924 9.1937-10.2709 10.2742-.5402.1149-1.0713-.2298-1.1862-.77s.2298-1.0713.77-1.1862c4.3215-.9195 7.8119-4.323 8.7291-8.7259.1127-.5406.6423-.8876 1.183-.775zM17.621 3.696c.1127-.5406.6423-.8876 1.1829-.775 5.1972 1.0828 9.1937 5.1925 10.2742 10.2709.1149.5402-.2298 1.0713-.77 1.1862-.5402.115-1.0713-.2298-1.1862-.77-.9195-4.3215-4.323-7.8119-8.7259-8.7291-.5406-.1126-.8876-.6423-.775-1.183zM14.3781 3.6919c.115.5402-.2298 1.0713-.77 1.1862-4.3215.9195-7.8119 4.323-8.7291 8.7258-.1126.5407-.6423.8877-1.183.7751-.5406-.1127-.8876-.6423-.775-1.183C4.0038 7.9989 8.1135 4.0024 13.192 2.9219c.5402-.115 1.0713.2298 1.1862.77zM3.6919 17.6219c.5402-.1149 1.0713.2298 1.1862.77.9195 4.3215 4.323 7.8119 8.7258 8.7291.5407.1127.8877.6423.7751 1.183-.1127.5406-.6423.8876-1.183.775-5.1971-1.0828-9.1936-5.1924-10.2741-10.2709-.115-.5402.2298-1.0713.77-1.1862zM12.5 16v3.8h7V16h-7zm7.1359 3.7965l-.0021.0006zM10.5 15.8c0-1.0261.9246-1.8 1.9-1.8h7.2c.9754 0 1.9.7739 1.9 1.8V20c0 .5399-.2263 1.0207-.6166 1.3509-.3736.3161-.8403.4491-1.2834.4491h-7.2c-.9754 0-1.9-.7739-1.9-1.8v-4.2z"/><path fill-rule="evenodd" clip-rule="evenodd" d="M12.2 13.1c0-2.0523 1.7477-3.8 3.8-3.8s3.8 1.7477 3.8 3.8V15c0 .5523-.4477 1-1 1s-1-.4477-1-1v-1.9c0-.9477-.8523-1.8-1.8-1.8-.9477 0-1.8.8523-1.8 1.8V15c0 .5523-.4477 1-1 1s-1-.4477-1-1v-1.9z"/></symbol><symbol id="icon-logout" viewBox="0 0 24 28"><path fill-rule="evenodd" clip-rule="evenodd" d="M6.6146 2.3999C6.8627 2.1555 7.2152 2 7.5002 2h12.8c.7477 0 1.3.5523 1.3 1.3v7c0 .5523.4477 1 1 1s1-.4477 1-1v-7c0-1.8523-1.4477-3.3-3.3-3.3h-12.8C6.588 0 5.7446.4414 5.1931.9929l-.0084.0084-4.101 4.301C.4745 5.9175.2002 6.7813.2002 7.5v17.2c0 1.8523 1.4477 3.3 3.3 3.3h19.1c.5523 0 1-.4477 1-1s-.4477-1-1-1h-19.1c-.7477 0-1.3-.5523-1.3-1.3V7.5c0-.2777.123-.6087.3071-.7929l.0084-.0084 4.0989-4.2988z"/><path fill-rule="evenodd" clip-rule="evenodd" d="M10.9002 18.3c0-.5523.4477-1 1-1h9.9c.5523 0 1 .4477 1 1s-.4477 1-1 1h-9.9c-.5523 0-1-.4477-1-1z"/><path fill-rule="evenodd" clip-rule="evenodd" d="M18.0931 13.5929c.3905-.3905 1.0237-.3905 1.4142 0l4 4a1.0001 1.0001 0 010 1.4142l-4 4c-.3905.3905-1.0237.3905-1.4142 0-.3906-.3905-.3906-1.0237 0-1.4142L21.386 18.3l-3.2929-3.2929c-.3906-.3905-.3906-1.0237 0-1.4142z"/></symbol><symbol id="icon-macos" viewBox="0 0 61 61"><rect x="1.023" y="1.259" width="59" height="59" rx="29.5" fill="#fff" stroke="#EAE7FB"/><path d="M46.4547 20.6195V41.6817C46.4547 42.2178 46.0335 42.639 45.4973 42.639H33.1855C32.8217 39.2308 33.1472 33.927 34.0089 32.1079H28.2646C28.2646 28.1061 30.1219 23.0129 31.9984 19.6621H45.4973C46.0335 19.6621 46.4547 20.0834 46.4547 20.6195Z" fill="#CFD8DC"/><path d="M33.1851 42.639H16.7757C16.2396 42.639 15.8184 42.2178 15.8184 41.6817V20.6195C15.8184 20.0834 16.2396 19.6621 16.7757 19.6621H31.9979C30.1215 23.0129 28.2642 28.1061 28.2642 32.1079H34.0084C33.1468 33.927 32.8213 39.2308 33.1851 42.639Z" fill="#2196F3"/><path d="M33.9834 46.4583C33.8619 46.4586 33.7417 46.4347 33.6296 46.388C33.5175 46.3413 33.4158 46.2728 33.3304 46.1864C31.7297 44.5857 31.7986 36.8367 32.6986 33.0647H28.264C28.0101 33.0647 27.7666 32.9638 27.587 32.7843C27.4075 32.6047 27.3066 32.3612 27.3066 32.1073C27.3066 26.3229 30.9044 18.5394 33.3304 16.1115C33.511 15.9371 33.7528 15.8406 34.0038 15.8428C34.2549 15.845 34.495 15.9457 34.6725 16.1232C34.85 16.3007 34.9507 16.5408 34.9529 16.7918C34.955 17.0428 34.8585 17.2847 34.6841 17.4652C32.8766 19.2747 29.6273 25.8825 29.2559 31.1499H34.0082C34.1691 31.15 34.3274 31.1906 34.4684 31.2681C34.6094 31.3455 34.7287 31.4572 34.8151 31.5929C34.9015 31.7285 34.9524 31.8838 34.963 32.0443C34.9736 32.2049 34.9435 32.3655 34.8756 32.5113C33.7019 35.0215 33.7478 43.793 34.6861 44.8346C34.8463 44.8342 35.0041 44.8736 35.1452 44.9494C35.2863 45.0252 35.4064 45.135 35.4945 45.2687C35.5827 45.4025 35.6361 45.5561 35.65 45.7157C35.6639 45.8753 35.6379 46.0359 35.5743 46.1829C35.5107 46.3299 35.4114 46.4588 35.2855 46.5579C35.1597 46.657 35.0111 46.7232 34.8532 46.7505C34.6954 46.7778 34.5332 46.7654 34.3813 46.7144C34.2295 46.6634 34.0927 46.5754 33.9834 46.4583Z" fill="#374B54"/><path d="M31.136 38.8079C29.3132 38.8079 26.0026 38.289 22.1789 36.83 22.0598 36.7863 21.9505 36.7195 21.8575 36.6333 21.7644 36.547 21.6894 36.4432 21.6369 36.3277 21.5843 36.2123 21.5552 36.0876 21.5512 35.9608 21.5473 35.834 21.5686 35.7077 21.6139 35.5892 21.6592 35.4707 21.7276 35.3624 21.8151 35.2706 21.9026 35.1787 22.0075 35.1052 22.1236 35.0543 22.2398 35.0033 22.3649 34.9759 22.4918 34.9738 22.6186 34.9716 22.7446 34.9947 22.8624 35.0416 26.4468 36.4087 29.5602 36.8932 31.136 36.8932 32.7119 36.8932 35.8252 36.4087 39.4116 35.0416 39.9017 34.8501 40.4589 35.0971 40.6466 35.595 40.6918 35.7123 40.7133 35.8375 40.71 35.9633 40.7066 36.089 40.6784 36.2128 40.627 36.3276 40.5755 36.4424 40.5019 36.5459 40.4103 36.6321 40.3187 36.7183 40.2109 36.7856 40.0932 36.83 36.2695 38.289 32.9589 38.8079 31.136 38.8079zM24.4349 27.3207C24.181 27.3207 23.9375 27.2198 23.7579 27.0403 23.5784 26.8607 23.4775 26.6172 23.4775 26.3633V24.4486C23.4775 24.1947 23.5784 23.9512 23.7579 23.7716 23.9375 23.5921 24.181 23.4912 24.4349 23.4912 24.6888 23.4912 24.9323 23.5921 25.1119 23.7716 25.2914 23.9512 25.3923 24.1947 25.3923 24.4486V26.3633C25.3923 26.6172 25.2914 26.8607 25.1119 27.0403 24.9323 27.2198 24.6888 27.3207 24.4349 27.3207zM35.9232 27.3207C35.6693 27.3207 35.4258 27.2198 35.2462 27.0403 35.0667 26.8607 34.9658 26.6172 34.9658 26.3633V24.4486C34.9658 24.1947 35.0667 23.9512 35.2462 23.7716 35.4258 23.5921 35.6693 23.4912 35.9232 23.4912 36.1771 23.4912 36.4206 23.5921 36.6002 23.7716 36.7797 23.9512 36.8806 24.1947 36.8806 24.4486V26.3633C36.8806 26.6172 36.7797 26.8607 36.6002 27.0403 36.4206 27.2198 36.1771 27.3207 35.9232 27.3207z" fill="#374B54"/></symbol><symbol id="icon-pdf" viewBox="0 0 21 25"><g clip-path="url(#clip0)" fill="#887CBD"><path d="M19.3 25H1.5C.7 25 0 24.3 0 23.5v-22C0 .7.7 0 1.5 0h12c.4 0 .8.2 1.1.4l5.8 5.8c.3.3.4.7.4 1.1v16.2c0 .8-.7 1.5-1.5 1.5zM2 23h16.8V7.5L13.3 2H2v21z"/><path d="M15.8 14.3c-.8-.5-2.2-.6-3.9-.4-.5-.6-1.1-1.3-1.5-2 .5-1.7.7-3.2.5-4.3-.3-1.3-1.1-1.5-1.6-1.6-.9-.1-1.5.4-1.7 1.2-.3 1.1.4 3 1.5 4.8-.1.5-.3 1-.5 1.4-.2.4-.3.8-.5 1.2-1.5.5-2.8 1.1-3.4 1.8-.6.7-.5 1.5.2 2.2.3.3.6.4.9.4.2 0 .5-.1.7-.2.8-.4 1.7-1.7 2.5-3.2.8-.2 1.7-.4 2.5-.5.7.8 1.5 1.4 2.2 1.7 1.1.5 2 .3 2.6-.6v-.1c.3-.7.1-1.4-.5-1.8zM6 17.8c-.2.1-.2.1-.2 0-.3-.3-.2-.4-.1-.6.3-.4.9-.8 1.7-1.1-.5.8-1 1.5-1.4 1.7zM8.7 7.4c0-.1.1-.3.4-.3h.1c.1 0 .4 0 .5.6.1.6.1 1.5-.2 2.6-.6-1.1-.9-2.3-.8-2.9zm.9 6.8c.1-.3.3-.6.4-1 .2.3.4.5.6.8-.4.1-.7.2-1 .2zm5.7 1.4c-.1.2-.4.5-1.1.1-.4-.2-.7-.4-1.1-.7 1 0 1.7.1 2.2.3v.3z"/></g></symbol><symbol id="icon-phone" viewBox="0 0 28 28"><path d="M20.2996 27.5c-3.8 0-8.7-2.6-12.9-6.8-4.2-4.2-6.8-9.1-6.8-12.9 0-1.5.4-2.6 1.1-3.5l2.2-2.5c.7-.8 1.7-1.3 2.7-1.3 1 0 1.8.4 2.7 1.2l3.3 3.5c.8.8 1.2 1.7 1.2 2.6 0 .9-.4 1.8-1.2 2.6l-.8.8 5 5 .8-.8c1-1 2-1.2 2.6-1.2.9 0 1.8.4 2.6 1.2l3.4 3.4c.8.8 1.2 1.7 1.2 2.7 0 1-.5 2-1.3 2.7l-2.5 2.2c-1 1-2.4 1.1-3.3 1.1zm-13.7-24.9c-.5 0-1 .3-1.2.6l-2.2 2.5c-.4.5-.6 1.2-.6 2.1 0 3.2 2.4 7.6 6.2 11.5 3.8 3.8 8.3 6.2 11.5 6.2 1 0 1.7-.2 2.1-.6l2.5-2.2c.3-.2.6-.7.6-1.2 0-.4-.2-.8-.6-1.2l-3.4-3.4c-.3-.3-.7-.6-1.2-.6-.4 0-.8.2-1.2.6l-1.2 1.2c-.8.7-1.3.5-1.7.3l-.1-.1-6.4-6.4c-.1-.2-.5-.8.2-1.5 0-.1.1-.1 1.4-1.4.4-.4.6-.8.6-1.2 0-.5-.3-.9-.6-1.2l-3.5-3.4c-.4-.5-.8-.7-1.2-.6z"/></symbol><symbol id="icon-play" viewBox="0 0 20 22"><path d="M18.5435 10.134C19.2102 10.5189 19.2102 11.4811 18.5435 11.866L1.97827 21.43C1.3116 21.8149 0.47827 21.3338 0.47827 20.564L0.478271 1.43609C0.478271 0.666286 1.31161 0.185162 1.97827 0.570062L18.5435 10.134Z"/></symbol><symbol id="icon-purse" viewBox="0 0 30 28"><path fill-rule="evenodd" clip-rule="evenodd" d="M1 2.6637c.5523 0 1 .4477 1 1v20.2c0 1.0477.8523 1.9 1.9 1.9H26c1.0477 0 1.9-.8523 1.9-1.9v-14.9c0-1.0477-.8523-1.9-1.9-1.9H3.2c-.5523 0-1-.4478-1-1 0-.5523.4477-1 1-1H26c2.1523 0 3.9 1.7477 3.9 3.9v14.9c0 2.1523-1.7477 3.9-3.9 3.9H3.9c-2.1523 0-3.9-1.7477-3.9-3.9v-20.2c0-.5523.4477-1 1-1z"/><path fill-rule="evenodd" clip-rule="evenodd" d="M3.4 2.2637c-.7477 0-1.4.6523-1.4 1.4 0 .7477.6523 1.4 1.4 1.4.5523 0 1 .4477 1 1s-.4477 1-1 1c-1.8523 0-3.4-1.5477-3.4-3.4 0-1.8523 1.5477-3.4 3.4-3.4h17c1.8523 0 3.4 1.5477 3.4 3.4 0 .5523-.4477 1-1 1s-1-.4477-1-1c0-.7477-.6523-1.4-1.4-1.4h-17zM21.7 14.8637c-.718 0-1.3.582-1.3 1.3 0 .7179.582 1.3 1.3 1.3.718 0 1.3-.5821 1.3-1.3 0-.718-.582-1.3-1.3-1.3zm-3.3 1.3c0-1.8226 1.4775-3.3 3.3-3.3 1.8225 0 3.3 1.4774 3.3 3.3 0 1.8225-1.4775 3.3-3.3 3.3-1.8225 0-3.3-1.4775-3.3-3.3z"/></symbol><symbol id="icon-sailfish" viewBox="0 0 61 61"><rect x=".785" y="1.259" width="59" height="59" rx="29.5" fill="#fff" stroke="#EAE7FB"/><path d="M46.9578 20.7587c-.1003-.2444-.3814-.3813-.6323-.2835l-2.9106 1.0169c-1.5256.4889-2.8204.8312-3.8642 1.0267-2.5795.4792-4.4564-1.6232-4.4764-1.6427a.5268.5268 0 00-.5621-.1467c-.0201.0098-.1606.0587-.4015.1662.3714-2.9432 2.0576-5.7496 2.0777-5.779.1104-.1858.0903-.4204-.0603-.5769-.1505-.1564-.3814-.2053-.5821-.1173-.1204.0586-2.6598 1.232-5.2994 3.2366-3.6032 2.7477-5.5705 5.603-5.8214 8.4876-.2108 2.3566 1.3249 3.8625 2.8103 5.3292l.2409.2347c.4818 1.2516.3613 2.7477-.3412 4.3123-1.2747 2.8455-4.1653 5.3292-7.7083 6.659a77.9975 77.9975 0 01-2.0776.7432h-.0101c-.2509.088-.3914.3422-.3211.5867.0602.2151.2609.3618.4817.3618.0301 0 .0703 0 .1004-.0098.6022-.1173 4.4463-1.105 8.19-2.9433.2008-.0978.4115-.2053.6424-.3227l.0803-.0391c.01 0 .02-.0098.02-.0098h.0101c4.647-2.4348 7.1462-5.2607 7.4272-8.3996.1807-2.0143-.9836-3.3442-2.2181-4.5176 1.636-2.1903 6.7246-3.8918 6.7748-3.9113l5.1389-1.7895c1.646-.528 2.9608-1.0267 3.021-1.0462.2309-.0978.3614-.3716.271-.6259zm-16.37 14.9218c.1907-2.0926-1.2546-3.5104-2.6497-4.8794-1.3851-1.3592-2.6899-2.6499-2.5192-4.5567.1606-1.809 1.104-3.6473 2.8203-5.4759-.3714.753-.5821 1.457-.6424 2.0926-.2308 2.5717 1.4353 4.1265 2.9107 5.4856 1.3349 1.2419 2.5996 2.4055 2.439 4.2145-.1606 1.7601-1.1442 3.442-2.9408 5.0163.3312-.6258.5319-1.2614.5821-1.897zm2.459-14.2959c-1.3148.6649-3.0913 1.7601-4.2355 3.2561-.1907-.5378-.261-1.0951-.2108-1.6916.0803-.8801.532-1.9166 1.3349-3.09.6223-.9094 1.2647-1.6036 1.4554-1.809 1.2044-.8702 2.3486-1.5547 3.1816-2.0143-.6524 1.3787-1.3951 3.3442-1.5256 5.3488zm-3.7236 4.2438c1.3248-2.073 4.2556-3.4518 5.2191-3.8625.4717.4596 1.6059 1.3885 3.1716 1.7014-1.375.4987-5.1187 1.9851-6.7146 3.9896-.6524-.616-1.2345-1.1832-1.6761-1.8285zm-.5721 7.5c.6524.8605.9133 1.633.8431 2.4739-.2409 2.6695-3.543 4.5958-3.5731 4.6154l-.0402.0195c-.5319.2738-1.084.5378-1.6661.8019 1.6762-1.3397 2.9609-2.9238 3.7237-4.6154.5118-1.1441.7527-2.2491.7126-3.2953z" fill="#000"/></symbol><symbol id="icon-search" viewBox="0 0 24 24"><path fill-rule="evenodd" clip-rule="evenodd" d="M10.2 2C5.6713 2 2 5.6713 2 10.2c0 4.5287 3.6713 8.2 8.2 8.2 4.5287 0 8.2-3.6713 8.2-8.2 0-4.5287-3.6713-8.2-8.2-8.2zM0 10.2C0 4.5667 4.5667 0 10.2 0c5.6333 0 10.2 4.5667 10.2 10.2 0 5.6333-4.5667 10.2-10.2 10.2C4.5667 20.4 0 15.8333 0 10.2zM17.7929 18.4929c.3905-.3905 1.0237-.3905 1.4142 0l3.8 3.8c.3905.3905.3905 1.0237 0 1.4142-.3905.3905-1.0237.3905-1.4142 0l-3.8-3.8c-.3905-.3905-.3905-1.0237 0-1.4142z"/></symbol><symbol id="icon-watch" viewBox="0 0 17 17"><path fill-rule="evenodd" clip-rule="evenodd" d="M8.5 2C4.91015 2 2 4.91015 2 8.5C2 12.0899 4.91015 15 8.5 15C12.0899 15 15 12.0899 15 8.5C15 4.91015 12.0899 2 8.5 2ZM0 8.5C0 3.80558 3.80558 0 8.5 0C13.1944 0 17 3.80558 17 8.5C17 13.1944 13.1944 17 8.5 17C3.80558 17 0 13.1944 0 8.5Z"/><path fill-rule="evenodd" clip-rule="evenodd" d="M8.49976 3.17383C9.05204 3.17383 9.49976 3.62154 9.49976 4.17383V7.50075H11.5767C12.129 7.50075 12.5767 7.94847 12.5767 8.50075C12.5767 9.05304 12.129 9.50075 11.5767 9.50075H8.49976C7.94747 9.50075 7.49976 9.05304 7.49976 8.50075V4.17383C7.49976 3.62154 7.94747 3.17383 8.49976 3.17383Z"/></symbol><symbol id="icon-windows" viewBox="0 0 61 61"><rect x="1.145" y="1.259" width="59" height="59" rx="29.5" fill="#fff" stroke="#EAE7FB"/><path d="M40.6978 24.0514C40.6978 25.8788 40.6929 27.7062 40.7028 29.5285 40.7028 29.7756 40.6436 29.8785 40.4071 29.8476 40.3677 29.8425 40.3234 29.8476 40.2839 29.8476 37.2487 29.8631 34.2135 29.8785 31.1734 29.8991 30.183 29.9043 29.1877 29.9146 28.1973 29.9351 27.9558 29.9403 27.8721 29.8682 27.8721 29.6005 27.8819 26.548 27.8819 23.4954 27.8721 20.4429 27.8721 20.1804 27.9263 20.0723 28.2022 20.0414 29.3108 19.9024 30.4096 19.7377 31.5133 19.5781 33.0408 19.3516 34.5633 19.1148 36.0859 18.8883 37.5394 18.6721 38.993 18.4713 40.4465 18.2551 40.6781 18.2191 40.7028 18.3221 40.7028 18.5228 40.6978 20.3605 40.6978 22.2085 40.6978 24.0514zM26.8043 25.1172C26.8043 26.6254 26.8043 28.1388 26.8043 29.6471 26.8043 29.9766 26.8043 29.9766 26.4791 29.9766 25.8779 29.9817 25.2817 29.9817 24.6806 29.9869 22.2761 30.0023 19.8715 30.0177 17.467 30.0383 17.1172 30.0383 17.1172 30.0435 17.1172 29.6831 17.1172 27.1196 17.1172 24.5561 17.1172 21.9874 17.1172 21.6322 17.1221 21.6477 17.4572 21.5962 18.3244 21.4727 19.1916 21.3337 20.0588 21.205 20.724 21.1072 21.3941 21.0248 22.0593 20.9322 23.3995 20.7417 24.7397 20.5409 26.075 20.3453 26.2672 20.3144 26.4593 20.2578 26.6564 20.2578 26.7599 20.2578 26.8092 20.2938 26.8043 20.4071 26.7993 20.4946 26.8043 20.577 26.8043 20.6645 26.8043 22.147 26.8043 23.6295 26.8043 25.1172zM26.6515 25.0863C26.6515 23.6141 26.6466 22.1367 26.6564 20.6645 26.6564 20.4483 26.5825 20.4019 26.4002 20.4122 26.2475 20.4225 26.1292 20.5152 25.9765 20.5255 25.6513 20.5461 25.331 20.6079 25.0058 20.6542 24.3702 20.7468 23.7296 20.8292 23.0989 20.9322 22.7146 20.9939 22.3155 20.9888 21.9459 21.1484 21.8819 21.1741 21.8178 21.1947 21.7538 21.1689 21.5468 21.0814 21.335 21.1586 21.1526 21.205 20.6895 21.3285 20.2115 21.3594 19.7385 21.4263 19.3443 21.483 18.9501 21.5653 18.551 21.5808 18.216 21.5911 17.9154 21.7712 17.5705 21.7558 17.2749 21.7403 17.2354 21.797 17.2354 22.1161 17.2354 24.587 17.2354 27.0527 17.2354 29.5236 17.2354 29.8582 17.2699 29.8839 17.5902 29.889 19.162 29.9148 20.7388 29.8118 22.3106 29.8324 23.6212 29.8479 24.9368 29.8376 26.2475 29.8324 26.6269 29.8324 26.6466 29.817 26.6466 29.4052 26.6515 27.9638 26.6515 26.5276 26.6515 25.0863zM26.8004 35.9741C26.8004 37.4926 26.7955 39.0112 26.8053 40.5297 26.8053 40.7614 26.761 40.8437 26.5245 40.8026 25.8149 40.6842 25.1005 40.5812 24.386 40.4783 23.6469 40.3702 22.9078 40.2827 22.1687 40.1694 21.1241 40.015 20.0796 39.8451 19.03 39.6907 18.4782 39.6083 17.9263 39.5259 17.3745 39.4642 17.1774 39.4436 17.1084 39.3767 17.1084 39.1656 17.1133 36.5506 17.1133 33.9356 17.1084 31.3155 17.1084 31.0941 17.1626 30.9912 17.3893 31.0323 17.4927 31.0478 17.6011 31.0375 17.7095 31.0375 20.6561 31.0529 23.6026 31.0735 26.5491 31.0838 26.761 31.0838 26.8103 31.1559 26.8053 31.3618 26.7955 32.9009 26.8004 34.4349 26.8004 35.9741zM26.6477 35.9792C26.6477 34.5379 26.6378 33.0965 26.6526 31.6604 26.6575 31.2846 26.4949 31.2279 26.2288 31.2279 25.8248 31.2279 25.4257 31.2485 25.0167 31.2382 23.2133 31.1868 21.4099 31.2743 19.6065 31.1816 18.9266 31.1456 18.2466 31.1765 17.5617 31.1765 17.2611 31.1765 17.2267 31.2177 17.2267 31.5368 17.2267 34.0128 17.2267 36.494 17.2267 38.97 17.2267 39.3046 17.2759 39.3355 17.5913 39.3664 18.0791 39.4127 18.5669 39.4539 19.0448 39.5517 19.646 39.6701 20.252 39.737 20.8581 39.8245 21.1734 39.8708 21.4986 39.8811 21.7992 39.9584 22.2279 40.0613 22.6615 40.0922 23.0901 40.1643 23.5582 40.2466 24.0411 40.3084 24.5191 40.3599 25.13 40.4319 25.746 40.504 26.352 40.643 26.5491 40.6893 26.6427 40.6275 26.6427 40.3805 26.6427 38.9082 26.6477 37.4412 26.6477 35.9792zM40.7225 37.0225C40.7225 38.8396 40.7225 40.6567 40.7225 42.479 40.7225 42.8754 40.7225 42.8805 40.3332 42.8239 39.4069 42.6849 38.4855 42.5408 37.5591 42.4069 36.283 42.2216 35.0068 42.0466 33.7356 41.8561 32.5284 41.6811 31.3163 41.5009 30.1091 41.3105 29.439 41.2024 28.759 41.1458 28.0889 41.0171 27.877 40.9759 27.8721 40.8781 27.8721 40.7134 27.8721 39.0404 27.8721 37.3674 27.8721 35.6944 27.8721 34.2685 27.8721 32.8478 27.8721 31.4219 27.8721 31.1079 27.8819 31.0873 28.1973 31.0924 32.2919 31.1645 36.3864 31.1645 40.481 31.1851 40.688 31.1851 40.7225 31.2726 40.7225 31.4579 40.7225 33.3162 40.7225 35.1693 40.7225 37.0225zM40.6387 36.971C40.6387 35.5657 40.6387 34.1553 40.6387 32.7499 40.6387 32.3484 40.6387 31.9418 40.6387 31.5403 40.6387 31.4373 40.6584 31.3292 40.5057 31.3189 40.3332 31.3086 40.1657 31.2777 39.9932 31.2726 38.2785 31.2417 36.5638 31.2726 34.8491 31.2314 32.6762 31.1799 30.4983 31.216 28.3205 31.216 27.9755 31.216 27.9755 31.216 27.9755 31.566 27.9755 34.4126 27.9755 37.2593 27.9755 40.1111 27.9755 40.317 27.9805 40.5229 27.9755 40.7288 27.9706 40.8832 28.0347 40.9347 28.1825 40.945 28.419 40.9604 28.6506 41.0171 28.8871 41.0222 29.2961 41.0325 29.6853 41.1818 30.0992 41.2024 30.4983 41.223 30.8925 41.2796 31.2867 41.3311 31.7548 41.398 32.218 41.537 32.686 41.5421 33.2133 41.5473 33.7159 41.7171 34.2381 41.748 34.7259 41.7789 35.2039 41.8973 35.6868 41.9694 36.2583 42.0517 36.8348 42.1135 37.4064 42.2113 37.8499 42.2885 38.2933 42.3246 38.7368 42.3863 39.1999 42.4533 39.6532 42.5665 40.1213 42.5408 40.1558 42.5408 40.1953 42.5768 40.2297 42.5922 40.5155 42.7209 40.6387 42.6386 40.6387 42.3091 40.6387 40.5383 40.6387 38.7572 40.6387 36.971z" fill="#00ADEF"/><path d="M26.6543 25.0854C26.6543 26.5268 26.6543 27.9681 26.6543 29.4043 26.6543 29.8161 26.6395 29.8316 26.2552 29.8316 24.9445 29.8316 23.6289 29.847 22.3183 29.8316 20.7415 29.811 19.1697 29.9088 17.5979 29.8882 17.2777 29.8831 17.2432 29.8522 17.2432 29.5227 17.2432 27.0518 17.2432 24.5861 17.2432 22.1153 17.2432 21.7961 17.2826 21.7395 17.5782 21.7549 17.9182 21.7755 18.2237 21.5902 18.5588 21.5799 18.9579 21.5696 19.352 21.4821 19.7462 21.4255 20.2143 21.3586 20.6923 21.3328 21.1604 21.2041 21.3427 21.1527 21.5546 21.0806 21.7615 21.1681 21.8256 21.1938 21.8896 21.1732 21.9537 21.1475 22.3232 20.9879 22.7223 20.9931 23.1067 20.9313 23.7423 20.8284 24.3779 20.7408 25.0135 20.6533 25.3338 20.607 25.659 20.5452 25.9842 20.5246 26.1369 20.5143 26.2601 20.4217 26.4079 20.4114 26.5952 20.4011 26.6642 20.4526 26.6642 20.6636 26.6543 22.1359 26.6543 23.6081 26.6543 25.0854zM26.6543 35.9784C26.6543 37.4455 26.6494 38.9126 26.6592 40.3745 26.6592 40.6216 26.5656 40.6834 26.3685 40.637 25.7625 40.4981 25.1466 40.4208 24.5356 40.3539 24.0576 40.2973 23.5747 40.2355 23.1067 40.1583 22.678 40.0862 22.2444 40.0554 21.8157 39.9524 21.5151 39.8803 21.1899 39.8649 20.8746 39.8186 20.2685 39.7311 19.6625 39.6641 19.0613 39.5457 18.5834 39.4479 18.0956 39.4068 17.6078 39.3604 17.2875 39.3295 17.2432 39.3038 17.2432 38.9641 17.2432 36.488 17.2432 34.0069 17.2432 31.5309 17.2432 31.2066 17.2777 31.1705 17.5782 31.1705 18.2582 31.1705 18.9431 31.1396 19.6231 31.1757 21.4264 31.2683 23.2298 31.1757 25.0332 31.2323 25.4373 31.2426 25.8413 31.2271 26.2453 31.222 26.5114 31.222 26.674 31.2786 26.6691 31.6544 26.6445 33.0957 26.6543 34.5371 26.6543 35.9784zM40.6407 36.9726C40.6407 38.7588 40.6407 40.5399 40.6407 42.3261 40.6407 42.6556 40.5175 42.7379 40.2317 42.6093 40.1923 42.5938 40.1578 42.5578 40.1233 42.5578 39.6552 42.5835 39.197 42.4703 38.7388 42.4034 38.2953 42.3416 37.8519 42.3055 37.4084 42.2283 36.8368 42.1254 36.2603 42.0688 35.6888 41.9864 35.2059 41.9143 34.723 41.7959 34.2401 41.765 33.7178 41.729 33.2202 41.5643 32.688 41.5591 32.2199 41.554 31.7568 41.415 31.2887 41.3481 30.8945 41.2915 30.4954 41.24 30.1012 41.2194 29.6922 41.1988 29.303 41.0495 28.8891 41.0392 28.6526 41.0341 28.421 40.9775 28.1845 40.962 28.0416 40.9517 27.9775 40.8951 27.9775 40.7458 27.9825 40.5399 27.9775 40.334 27.9775 40.1281 27.9775 37.2814 27.9775 34.4348 27.9775 31.583 27.9775 31.233 27.9775 31.233 28.3225 31.233 30.5003 31.233 32.6733 31.1969 34.8511 31.2484 36.5658 31.2896 38.2805 31.2587 39.9952 31.2896 40.1677 31.2947 40.3352 31.3256 40.5077 31.3359 40.6604 31.3411 40.6407 31.4543 40.6407 31.5573 40.6407 31.9588 40.6407 32.3654 40.6407 32.767 40.6407 34.162 40.6407 35.5673 40.6407 36.9726z" fill="#00ADEF"/></symbol><symbol id="social-fb" viewBox="0 0 11 23"><path fill-rule="evenodd" clip-rule="evenodd" d="M7.13176 22.9787V11.488H10.3046L10.7251 7.52827H7.13176L7.13717 5.54637C7.13717 4.51362 7.23524 3.96026 8.71903 3.96026H10.7026V0H7.52934C3.71755 0 2.37594 1.92089 2.37594 5.15127V7.52876H0V11.4884H2.37594V22.9787H7.13176Z"/></symbol><symbol id="social-gh" viewBox="0 0 19 22"><path fill-rule="evenodd" clip-rule="evenodd" d="M13.4598 21.275C13.1264 21.186 12.9984 20.8813 12.9984 20.6107C12.9984 20.4594 12.9994 20.1941 13.0022 19.8396C13.006 19.1253 13.0137 18.0486 13.0137 16.8106C13.0137 15.5186 12.5915 14.6758 12.1167 14.2462C15.0589 13.9033 18.1502 12.7322 18.1502 7.41364C18.1502 5.9017 17.6372 4.66647 16.7908 3.69668C16.9274 3.34765 17.3802 1.93948 16.6609 0.0320598C16.6609 0.0320598 15.5528 -0.340093 13.0309 1.45149C11.9753 1.14466 10.8443 0.990791 9.72087 0.985516C8.59814 0.990791 7.46786 1.14466 6.41391 1.45149C3.88903 -0.340093 2.77948 0.0320598 2.77948 0.0320598C2.06207 1.93948 2.5143 3.34765 2.65147 3.69668C1.80625 4.66647 1.29012 5.9017 1.29012 7.41364C1.29012 12.7196 4.37517 13.907 7.30986 14.2571C6.93205 14.6027 6.58958 15.214 6.47103 16.1089C5.71704 16.4627 3.80458 17.0747 2.62616 14.9577C2.62616 14.9577 1.92747 13.6281 0.600695 13.5307C0.600695 13.5307 -0.688444 13.513 0.510327 14.3726C1.7091 15.232 1.37638 14.7981 1.97743 16.3987C1.97743 16.3987 2.75302 18.8702 6.42881 18.0325C6.43187 18.6615 6.43693 19.2708 6.44085 19.749C6.44419 20.1507 6.44677 20.46 6.44677 20.6107C6.44677 20.8832 6.31208 21.1907 5.97018 21.2766C7.39459 21.276 10.294 21.2751 13.4598 21.275ZM1.28646 14.2129C1.38056 14.2602 1.48382 14.2398 1.51296 14.1707C1.5462 14.1017 1.49156 14.007 1.39546 13.9615C1.29983 13.9146 1.19638 13.9341 1.16791 14.005C1.13687 14.0739 1.19065 14.1678 1.28646 14.2129ZM1.77745 14.7333C1.86104 14.8301 1.98427 14.8585 2.04722 14.7973C2.11313 14.7353 2.09623 14.6071 2.00987 14.5094C1.92323 14.413 1.80372 14.3843 1.73876 14.4455C1.67485 14.5076 1.691 14.6367 1.77745 14.7333ZM2.2744 15.475C2.35627 15.5981 2.48857 15.6534 2.56958 15.5945C2.65221 15.5341 2.65221 15.3862 2.57149 15.2613C2.48857 15.139 2.35818 15.0859 2.27612 15.145C2.19339 15.2041 2.19339 15.3518 2.2744 15.475ZM2.94469 16.3118C3.0576 16.426 3.21178 16.4485 3.28419 16.3647C3.36147 16.282 3.32651 16.1224 3.21178 16.0109C3.09801 15.8976 2.94287 15.874 2.8696 15.958C2.797 16.0417 2.8291 16.2001 2.94469 16.3118ZM3.93656 16.9243C4.08625 16.9705 4.23479 16.9212 4.2667 16.8127C4.29784 16.7024 4.19983 16.5763 4.05062 16.529C3.89978 16.4797 3.75056 16.5311 3.71952 16.6402C3.68933 16.7498 3.78715 16.8768 3.93656 16.9243ZM5.06785 17.1061C5.22499 17.1043 5.35185 17.0096 5.34812 16.8954C5.34812 16.7819 5.21955 16.6901 5.0624 16.6934C4.9044 16.6961 4.78041 16.7899 4.78041 16.9052C4.78213 17.0176 4.90994 17.11 5.06785 17.1061ZM6.10954 16.9727C6.26554 16.9424 6.37473 16.828 6.35591 16.7165C6.33604 16.6033 6.19619 16.5362 6.04 16.5647C5.88687 16.5943 5.77568 16.7087 5.79469 16.8229C5.81417 16.9335 5.95622 17.0022 6.10954 16.9727Z"/></symbol><symbol id="social-tw" viewBox="0 0 21 18"><path fill-rule="evenodd" clip-rule="evenodd" d="M10.2724 4.52793L10.3153 5.2641L9.59996 5.17395C6.9961 4.82838 4.7213 3.65648 2.78992 1.68824L1.84564 0.711596L1.60248 1.43282C1.08744 3.04045 1.4165 4.73822 2.4895 5.88014C3.06172 6.51121 2.933 6.60136 1.94582 6.22571C1.60248 6.10557 1.30196 6.01542 1.27342 6.06044C1.17325 6.16564 1.51658 7.53288 1.78847 8.07381C2.16043 8.82502 2.91864 9.56129 3.74848 9.99701L4.4495 10.3426L3.61967 10.3575C2.81856 10.3575 2.78992 10.3726 2.87573 10.6882C3.16189 11.6647 4.29216 12.7014 5.55113 13.1522L6.43815 13.4677L5.66558 13.9485C4.52104 14.6397 3.17616 15.0303 1.83137 15.0604C1.18752 15.0754 0.658203 15.1355 0.658203 15.1806C0.658203 15.3308 2.40359 16.1722 3.41941 16.5027C6.46678 17.4794 10.0864 17.0587 12.8046 15.3909C14.736 14.2039 16.6674 11.845 17.5688 9.56129C18.0552 8.34427 18.5416 6.12051 18.5416 5.05381C18.5416 4.36267 18.5845 4.27251 19.3857 3.44609C19.8579 2.96534 20.3014 2.43946 20.3872 2.28923C20.5303 2.00373 20.516 2.00373 19.7863 2.25915C18.5703 2.70992 18.3985 2.64985 18.9994 1.97365C19.443 1.49289 19.9723 0.621443 19.9723 0.366024C19.9723 0.320898 19.7577 0.396108 19.5144 0.531289C19.2569 0.681512 18.6847 0.906945 18.2555 1.04213L17.4829 1.29754L16.7819 0.80175C16.3956 0.531289 15.8519 0.230843 15.5658 0.14069C14.8362 -0.0697014 13.7202 -0.0396172 13.0621 0.200759C11.2738 0.876861 10.1435 2.61976 10.2724 4.52793Z"/></symbol><symbol id="social-vk" viewBox="0 0 23 13"><path fill-rule="evenodd" clip-rule="evenodd" d="M12.23 12.7126C12.23 12.7126 12.632 12.6677 12.8379 12.4455C13.0265 12.242 13.0199 11.8579 13.0199 11.8579C13.0199 11.8579 12.9948 10.064 13.8239 9.79924C14.6411 9.5387 15.6902 11.5339 16.8037 12.3011C17.6447 12.8811 18.2832 12.7542 18.2832 12.7542L21.2586 12.7126C21.2586 12.7126 22.8143 12.6163 22.0768 11.3872C22.0158 11.2865 21.6464 10.4778 19.8651 8.81634C17.9989 7.07728 18.2494 7.35859 20.4959 4.34986C21.8643 2.51776 22.4112 1.39928 22.2402 0.920952C22.0779 0.463499 21.0712 0.584969 21.0712 0.584969L17.722 0.605745C17.722 0.605745 17.4737 0.571848 17.2895 0.682384C17.1098 0.790734 16.9933 1.04352 16.9933 1.04352C16.9933 1.04352 16.4637 2.4609 15.7567 3.66696C14.2652 6.21049 13.6692 6.34508 13.4252 6.18753C12.8576 5.81864 12.9992 4.70781 12.9992 3.91865C12.9992 1.45286 13.3718 0.425229 12.2747 0.159226C11.9108 0.0705584 11.6428 0.0126064 10.7113 0.00276553C9.51609 -0.00936165 8.50506 0.00713927 7.93199 0.288351C7.55065 0.475527 7.25654 0.893616 7.43633 0.917671C7.6575 0.947194 8.15859 1.05336 8.42444 1.41677C8.7676 1.88626 8.75565 2.93913 8.75565 2.93913C8.75565 2.93913 8.95283 5.8416 8.29477 6.20174C7.84379 6.44906 7.22497 5.94448 5.89468 3.63635C5.21379 2.45434 4.69949 1.14749 4.69949 1.14749C4.69949 1.14749 4.60041 0.903457 4.42276 0.772145C4.2082 0.613399 3.90855 0.564194 3.90855 0.564194L0.726174 0.584969C0.726174 0.584969 0.247904 0.598091 0.0724866 0.807135C-0.0833202 0.992124 0.0605396 1.37622 0.0605396 1.37622C0.0605396 1.37622 2.55213 7.23265 5.37386 10.1844C7.96142 12.89 10.8986 12.7126 10.8986 12.7126H12.23Z"/></symbol><symbol id="social-yt" viewBox="0 0 24 18"><path fill-rule="evenodd" clip-rule="evenodd" d="M22.18 1.306c.7.756.928 2.473.928 2.473s.234 2.014.234 4.03v1.888c0 2.015-.234 4.03-.234 4.03s-.228 1.716-.927 2.47c-.8.894-1.688.987-2.189 1.039-.055.006-.105.01-.15.017-3.266.25-8.171.259-8.171.259s-6.07-.06-7.937-.25a4.326 4.326 0 00-.316-.047c-.592-.076-1.52-.196-2.257-1.018-.7-.755-.928-2.47-.928-2.47S0 11.711 0 9.696V7.807c0-2.015.233-4.03.233-4.03s.229-1.716.928-2.472C1.965.41 2.855.32 3.355.27c.053-.006.101-.01.144-.016C6.765 0 11.665 0 11.665 0h.01s4.9 0 8.167.253c.044.006.092.01.145.016.5.05 1.39.14 2.194 1.037zm-6.128 7.45l-7.296 4.378V4.378l7.296 4.378z"/></symbol><symbol id="tick-right" viewBox="0 0 7 11"><path fill-rule="evenodd" clip-rule="evenodd" d="M4.2 5.612L.88 2.294 2.296.88l4.031 4.03a1 1 0 01-.006 1.42L2.29 10.3.885 8.873 4.2 5.612z" fill="#887CBD"/></symbol><symbol id="tick" viewBox="0 0 8 5"><path fill-rule="evenodd" clip-rule="evenodd" d="M3.96 2.58L6.247.293 7.66 1.707l-3 3a1 1 0 01-1.42-.005l-2.953-3L1.713.298 3.96 2.58z"/></symbol></svg>