<svg width="143" height="75" viewBox="0 0 143 75" fill="none" xmlns="http://www.w3.org/2000/svg">
<mask id="mask0" mask-type="alpha" maskUnits="userSpaceOnUse" x="0" y="0" width="143" height="146">
<path d="M1.92931 78.0189C0.868189 78.0189 0 77.152 0 76.0925C0 75.0329 0.868189 74.166 1.92931 74.166C2.99043 74.166 3.85862 75.0329 3.85862 76.0925C3.85862 77.152 2.99043 78.0189 1.92931 78.0189Z" fill="#C1E1ED"/>
<path d="M134.519 78.0189H134.471C133.41 78.0189 132.542 77.152 132.542 76.0925C132.542 75.0329 133.41 74.166 134.471 74.166H134.519C135.58 74.166 136.449 75.0329 136.449 76.0925C136.449 77.152 135.58 78.0189 134.519 78.0189ZM128.201 78.0189H128.153C127.091 78.0189 126.223 77.152 126.223 76.0925C126.223 75.0329 127.091 74.166 128.153 74.166H128.201C129.262 74.166 130.13 75.0329 130.13 76.0925C130.13 77.152 129.31 78.0189 128.201 78.0189ZM121.931 78.0189H121.882C120.821 78.0189 119.953 77.152 119.953 76.0925C119.953 75.0329 120.821 74.166 121.882 74.166H121.931C122.992 74.166 123.86 75.0329 123.86 76.0925C123.86 77.152 122.992 78.0189 121.931 78.0189ZM115.612 78.0189H115.564C114.503 78.0189 113.635 77.152 113.635 76.0925C113.635 75.0329 114.503 74.166 115.564 74.166H115.612C116.673 74.166 117.541 75.0329 117.541 76.0925C117.541 77.152 116.673 78.0189 115.612 78.0189ZM109.294 78.0189C108.232 78.0189 107.364 77.152 107.364 76.0925C107.364 75.0329 108.184 74.166 109.294 74.166H109.342C110.403 74.166 111.271 75.0329 111.271 76.0925C111.271 77.152 110.355 78.0189 109.294 78.0189ZM102.975 78.0189C101.914 78.0189 101.046 77.152 101.046 76.0925C101.046 75.0329 101.866 74.166 102.975 74.166H103.023C104.084 74.166 104.953 75.0329 104.953 76.0925C104.953 77.152 104.036 78.0189 102.975 78.0189ZM96.6566 78.0189H96.6084C95.5473 78.0189 94.6791 77.152 94.6791 76.0925C94.6791 75.0329 95.5473 74.166 96.6084 74.166H96.6566C97.7178 74.166 98.5859 75.0329 98.5859 76.0925C98.5859 77.152 97.7178 78.0189 96.6566 78.0189ZM90.3382 78.0189H90.2899C89.2288 78.0189 88.3606 77.152 88.3606 76.0925C88.3606 75.0329 89.2288 74.166 90.2899 74.166H90.3382C91.3993 74.166 92.2675 75.0329 92.2675 76.0925C92.2675 77.152 91.3993 78.0189 90.3382 78.0189ZM84.0197 78.0189H83.9714C82.9103 78.0189 82.0421 77.152 82.0421 76.0925C82.0421 75.0329 82.9103 74.166 83.9714 74.166H84.0197C85.0808 74.166 85.949 75.0329 85.949 76.0925C85.949 77.152 85.0808 78.0189 84.0197 78.0189ZM77.7012 78.0189H77.653C76.5918 78.0189 75.7236 77.152 75.7236 76.0925C75.7236 75.0329 76.5918 74.166 77.653 74.166H77.7012C78.7623 74.166 79.6305 75.0329 79.6305 76.0925C79.6305 77.152 78.7623 78.0189 77.7012 78.0189ZM71.3827 78.0189C70.3216 78.0189 69.4534 77.152 69.4534 76.0925C69.4534 75.0329 70.2734 74.166 71.3827 74.166H71.4309C72.4921 74.166 73.3603 75.0329 73.3603 76.0925C73.3603 77.152 72.4438 78.0189 71.3827 78.0189ZM65.0642 78.0189C64.0031 78.0189 63.1349 77.152 63.1349 76.0925C63.1349 75.0329 63.9549 74.166 65.0642 74.166H65.1125C66.1736 74.166 67.0418 75.0329 67.0418 76.0925C67.0418 77.152 66.1253 78.0189 65.0642 78.0189ZM58.7457 78.0189H58.6975C57.6364 78.0189 56.7682 77.152 56.7682 76.0925C56.7682 75.0329 57.6364 74.166 58.6975 74.166H58.7457C59.8069 74.166 60.675 75.0329 60.675 76.0925C60.675 77.152 59.8551 78.0189 58.7457 78.0189ZM52.4755 78.0189H52.4272C51.3661 78.0189 50.4979 77.152 50.4979 76.0925C50.4979 75.0329 51.3661 74.166 52.4272 74.166H52.4755C53.5366 74.166 54.4048 75.0329 54.4048 76.0925C54.4048 77.152 53.5366 78.0189 52.4755 78.0189ZM46.157 78.0189H46.1088C45.0476 78.0189 44.1795 77.152 44.1795 76.0925C44.1795 75.0329 45.0476 74.166 46.1088 74.166H46.157C47.2181 74.166 48.0863 75.0329 48.0863 76.0925C48.0863 77.152 47.2181 78.0189 46.157 78.0189ZM39.8385 78.0189H39.7903C38.7292 78.0189 37.861 77.152 37.861 76.0925C37.861 75.0329 38.7292 74.166 39.7903 74.166H39.8385C40.8996 74.166 41.7678 75.0329 41.7678 76.0925C41.7678 77.152 40.8996 78.0189 39.8385 78.0189ZM33.52 78.0189C32.4589 78.0189 31.5907 77.152 31.5907 76.0925C31.5907 75.0329 32.4107 74.166 33.52 74.166H33.5683C34.6294 74.166 35.4976 75.0329 35.4976 76.0925C35.4976 77.152 34.5812 78.0189 33.52 78.0189ZM27.2015 78.0189C26.1404 78.0189 25.2722 77.152 25.2722 76.0925C25.2722 75.0329 26.0922 74.166 27.2015 74.166H27.2498C28.3109 74.166 29.1791 75.0329 29.1791 76.0925C29.1791 77.152 28.2627 78.0189 27.2015 78.0189ZM20.8831 78.0189H20.8348C19.7737 78.0189 18.9055 77.152 18.9055 76.0925C18.9055 75.0329 19.7737 74.166 20.8348 74.166H20.8831C21.9442 74.166 22.8124 75.0329 22.8124 76.0925C22.8124 77.152 21.9442 78.0189 20.8831 78.0189ZM14.5646 78.0189H14.5163C13.4552 78.0189 12.587 77.152 12.587 76.0925C12.587 75.0329 13.4552 74.166 14.5163 74.166H14.5646C15.6257 74.166 16.4939 75.0329 16.4939 76.0925C16.4939 77.152 15.6257 78.0189 14.5646 78.0189ZM8.2461 78.0189H8.19786C7.13674 78.0189 6.26855 77.152 6.26855 76.0925C6.26855 75.0329 7.13674 74.166 8.19786 74.166H8.2461C9.30722 74.166 10.1754 75.0329 10.1754 76.0925C10.1754 77.152 9.30722 78.0189 8.2461 78.0189Z" fill="#C1E1ED"/>
<path d="M140.829 78.0189C139.768 78.0189 138.899 77.152 138.899 76.0925C138.899 75.0329 139.768 74.166 140.829 74.166C141.89 74.166 142.758 75.0329 142.758 76.0925C142.758 77.152 141.89 78.0189 140.829 78.0189Z" fill="#C1E1ED"/>
<path d="M1.92931 71.2806C0.868189 71.2806 0 70.4137 0 69.3542C0 68.2946 0.868189 67.4277 1.92931 67.4277C2.99043 67.4277 3.85862 68.2946 3.85862 69.3542C3.85862 70.4137 2.99043 71.2806 1.92931 71.2806Z" fill="#C1E1ED"/>
<path d="M134.519 71.2786H134.471C133.41 71.2786 132.542 70.4118 132.542 69.3522C132.542 68.2927 133.41 67.4258 134.471 67.4258H134.519C135.58 67.4258 136.449 68.2927 136.449 69.3522C136.449 70.4118 135.58 71.2786 134.519 71.2786ZM128.201 71.2786H128.153C127.091 71.2786 126.223 70.4118 126.223 69.3522C126.223 68.2927 127.091 67.4258 128.153 67.4258H128.201C129.262 67.4258 130.13 68.2927 130.13 69.3522C130.13 70.4118 129.31 71.2786 128.201 71.2786ZM121.931 71.2786H121.882C120.821 71.2786 119.953 70.4118 119.953 69.3522C119.953 68.2927 120.821 67.4258 121.882 67.4258H121.931C122.992 67.4258 123.86 68.2927 123.86 69.3522C123.86 70.4118 122.992 71.2786 121.931 71.2786ZM115.612 71.2786H115.564C114.503 71.2786 113.635 70.4118 113.635 69.3522C113.635 68.2927 114.503 67.4258 115.564 67.4258H115.612C116.673 67.4258 117.541 68.2927 117.541 69.3522C117.541 70.4118 116.673 71.2786 115.612 71.2786ZM109.294 71.2786C108.232 71.2786 107.364 70.4118 107.364 69.3522C107.364 68.2927 108.184 67.4258 109.294 67.4258H109.342C110.403 67.4258 111.271 68.2927 111.271 69.3522C111.271 70.4118 110.355 71.2786 109.294 71.2786ZM102.975 71.2786C101.914 71.2786 101.046 70.4118 101.046 69.3522C101.046 68.2927 101.866 67.4258 102.975 67.4258H103.023C104.084 67.4258 104.953 68.2927 104.953 69.3522C104.953 70.4118 104.036 71.2786 102.975 71.2786ZM96.6566 71.2786H96.6084C95.5473 71.2786 94.6791 70.4118 94.6791 69.3522C94.6791 68.2927 95.5473 67.4258 96.6084 67.4258H96.6566C97.7178 67.4258 98.5859 68.2927 98.5859 69.3522C98.5859 70.4118 97.7178 71.2786 96.6566 71.2786ZM90.3382 71.2786H90.2899C89.2288 71.2786 88.3606 70.4118 88.3606 69.3522C88.3606 68.2927 89.2288 67.4258 90.2899 67.4258H90.3382C91.3993 67.4258 92.2675 68.2927 92.2675 69.3522C92.2675 70.4118 91.3993 71.2786 90.3382 71.2786ZM84.0197 71.2786H83.9714C82.9103 71.2786 82.0421 70.4118 82.0421 69.3522C82.0421 68.2927 82.9103 67.4258 83.9714 67.4258H84.0197C85.0808 67.4258 85.949 68.2927 85.949 69.3522C85.949 70.4118 85.0808 71.2786 84.0197 71.2786ZM77.7012 71.2786H77.653C76.5918 71.2786 75.7236 70.4118 75.7236 69.3522C75.7236 68.2927 76.5918 67.4258 77.653 67.4258H77.7012C78.7623 67.4258 79.6305 68.2927 79.6305 69.3522C79.6305 70.4118 78.7623 71.2786 77.7012 71.2786ZM71.3827 71.2786C70.3216 71.2786 69.4534 70.4118 69.4534 69.3522C69.4534 68.2927 70.2734 67.4258 71.3827 67.4258H71.4309C72.4921 67.4258 73.3603 68.2927 73.3603 69.3522C73.3603 70.4118 72.4438 71.2786 71.3827 71.2786ZM65.0642 71.2786C64.0031 71.2786 63.1349 70.4118 63.1349 69.3522C63.1349 68.2927 63.9549 67.4258 65.0642 67.4258H65.1125C66.1736 67.4258 67.0418 68.2927 67.0418 69.3522C67.0418 70.4118 66.1253 71.2786 65.0642 71.2786ZM58.7457 71.2786H58.6975C57.6364 71.2786 56.7682 70.4118 56.7682 69.3522C56.7682 68.2927 57.6364 67.4258 58.6975 67.4258H58.7457C59.8069 67.4258 60.675 68.2927 60.675 69.3522C60.675 70.4118 59.8551 71.2786 58.7457 71.2786ZM52.4755 71.2786H52.4272C51.3661 71.2786 50.4979 70.4118 50.4979 69.3522C50.4979 68.2927 51.3661 67.4258 52.4272 67.4258H52.4755C53.5366 67.4258 54.4048 68.2927 54.4048 69.3522C54.4048 70.4118 53.5366 71.2786 52.4755 71.2786ZM46.157 71.2786H46.1088C45.0476 71.2786 44.1795 70.4118 44.1795 69.3522C44.1795 68.2927 45.0476 67.4258 46.1088 67.4258H46.157C47.2181 67.4258 48.0863 68.2927 48.0863 69.3522C48.0863 70.4118 47.2181 71.2786 46.157 71.2786ZM39.8385 71.2786H39.7903C38.7292 71.2786 37.861 70.4118 37.861 69.3522C37.861 68.2927 38.7292 67.4258 39.7903 67.4258H39.8385C40.8996 67.4258 41.7678 68.2927 41.7678 69.3522C41.7678 70.4118 40.8996 71.2786 39.8385 71.2786ZM33.52 71.2786C32.4589 71.2786 31.5907 70.4118 31.5907 69.3522C31.5907 68.2927 32.4107 67.4258 33.52 67.4258H33.5683C34.6294 67.4258 35.4976 68.2927 35.4976 69.3522C35.4976 70.4118 34.5812 71.2786 33.52 71.2786ZM27.2015 71.2786C26.1404 71.2786 25.2722 70.4118 25.2722 69.3522C25.2722 68.2927 26.0922 67.4258 27.2015 67.4258H27.2498C28.3109 67.4258 29.1791 68.2927 29.1791 69.3522C29.1791 70.4118 28.2627 71.2786 27.2015 71.2786ZM20.8831 71.2786H20.8348C19.7737 71.2786 18.9055 70.4118 18.9055 69.3522C18.9055 68.2927 19.7737 67.4258 20.8348 67.4258H20.8831C21.9442 67.4258 22.8124 68.2927 22.8124 69.3522C22.8124 70.4118 21.9442 71.2786 20.8831 71.2786ZM14.5646 71.2786H14.5163C13.4552 71.2786 12.587 70.4118 12.587 69.3522C12.587 68.2927 13.4552 67.4258 14.5163 67.4258H14.5646C15.6257 67.4258 16.4939 68.2927 16.4939 69.3522C16.4939 70.4118 15.6257 71.2786 14.5646 71.2786ZM8.2461 71.2786H8.19786C7.13674 71.2786 6.26855 70.4118 6.26855 69.3522C6.26855 68.2927 7.13674 67.4258 8.19786 67.4258H8.2461C9.30722 67.4258 10.1754 68.2927 10.1754 69.3522C10.1754 70.4118 9.30722 71.2786 8.2461 71.2786Z" fill="#C1E1ED"/>
<path d="M140.829 71.2786C139.768 71.2786 138.899 70.4118 138.899 69.3522C138.899 68.2927 139.768 67.4258 140.829 67.4258C141.89 67.4258 142.758 68.2927 142.758 69.3522C142.758 70.4118 141.89 71.2786 140.829 71.2786Z" fill="#C1E1ED"/>
<path d="M1.92931 64.5335C0.868189 64.5335 0 63.6666 0 62.6071C0 61.5476 0.868189 60.6807 1.92931 60.6807C2.99043 60.6807 3.85862 61.5476 3.85862 62.6071C3.85862 63.6666 2.99043 64.5335 1.92931 64.5335Z" fill="#C1E1ED"/>
<path d="M134.518 64.5335H134.47C133.409 64.5335 132.541 63.6666 132.541 62.6071C132.541 61.5476 133.409 60.6807 134.47 60.6807H134.518C135.579 60.6807 136.448 61.5476 136.448 62.6071C136.448 63.6666 135.579 64.5335 134.518 64.5335ZM128.2 64.5335H128.152C127.091 64.5335 126.222 63.6666 126.222 62.6071C126.222 61.5476 127.091 60.6807 128.152 60.6807H128.2C129.261 60.6807 130.129 61.5476 130.129 62.6071C130.129 63.6666 129.309 64.5335 128.2 64.5335ZM121.93 64.5335H121.881C120.82 64.5335 119.952 63.6666 119.952 62.6071C119.952 61.5476 120.82 60.6807 121.881 60.6807H121.93C122.991 60.6807 123.859 61.5476 123.859 62.6071C123.859 63.6666 122.991 64.5335 121.93 64.5335ZM115.611 64.5335H115.563C114.502 64.5335 113.634 63.6666 113.634 62.6071C113.634 61.5476 114.502 60.6807 115.563 60.6807H115.611C116.672 60.6807 117.54 61.5476 117.54 62.6071C117.54 63.6666 116.672 64.5335 115.611 64.5335ZM109.293 64.5335C108.232 64.5335 107.363 63.6666 107.363 62.6071C107.363 61.5476 108.183 60.6807 109.293 60.6807H109.341C110.402 60.6807 111.27 61.5476 111.27 62.6071C111.27 63.6666 110.354 64.5335 109.293 64.5335ZM102.974 64.5335C101.913 64.5335 101.045 63.6666 101.045 62.6071C101.045 61.5476 101.865 60.6807 102.974 60.6807H103.022C104.084 60.6807 104.952 61.5476 104.952 62.6071C104.952 63.6666 104.035 64.5335 102.974 64.5335ZM96.6557 64.5335H96.6074C95.5463 64.5335 94.6781 63.6666 94.6781 62.6071C94.6781 61.5476 95.5463 60.6807 96.6074 60.6807H96.6557C97.7168 60.6807 98.585 61.5476 98.585 62.6071C98.585 63.6666 97.7168 64.5335 96.6557 64.5335ZM90.3372 64.5335H90.2889C89.2278 64.5335 88.3596 63.6666 88.3596 62.6071C88.3596 61.5476 89.2278 60.6807 90.2889 60.6807H90.3372C91.3983 60.6807 92.2665 61.5476 92.2665 62.6071C92.2665 63.6666 91.3983 64.5335 90.3372 64.5335ZM84.0187 64.5335H83.9705C82.9093 64.5335 82.0412 63.6666 82.0412 62.6071C82.0412 61.5476 82.9093 60.6807 83.9705 60.6807H84.0187C85.0798 60.6807 85.948 61.5476 85.948 62.6071C85.948 63.6666 85.0798 64.5335 84.0187 64.5335ZM77.7002 64.5335H77.652C76.5909 64.5335 75.7227 63.6666 75.7227 62.6071C75.7227 61.5476 76.5909 60.6807 77.652 60.6807H77.7002C78.7613 60.6807 79.6295 61.5476 79.6295 62.6071C79.6295 63.6666 78.7613 64.5335 77.7002 64.5335ZM71.3817 64.5335C70.3206 64.5335 69.4524 63.6666 69.4524 62.6071C69.4524 61.5476 70.2724 60.6807 71.3817 60.6807H71.43C72.4911 60.6807 73.3593 61.5476 73.3593 62.6071C73.3593 63.6666 72.4428 64.5335 71.3817 64.5335ZM65.0632 64.5335C64.0021 64.5335 63.1339 63.6666 63.1339 62.6071C63.1339 61.5476 63.9539 60.6807 65.0632 60.6807H65.1115C66.1726 60.6807 67.0408 61.5476 67.0408 62.6071C67.0408 63.6666 66.1244 64.5335 65.0632 64.5335ZM58.7448 64.5335H58.6965C57.6354 64.5335 56.7672 63.6666 56.7672 62.6071C56.7672 61.5476 57.6354 60.6807 58.6965 60.6807H58.7448C59.8059 60.6807 60.6741 61.5476 60.6741 62.6071C60.6741 63.6666 59.8541 64.5335 58.7448 64.5335ZM52.4745 64.5335H52.4263C51.3652 64.5335 50.497 63.6666 50.497 62.6071C50.497 61.5476 51.3652 60.6807 52.4263 60.6807H52.4745C53.5356 60.6807 54.4038 61.5476 54.4038 62.6071C54.4038 63.6666 53.5356 64.5335 52.4745 64.5335ZM46.156 64.5335H46.1078C45.0467 64.5335 44.1785 63.6666 44.1785 62.6071C44.1785 61.5476 45.0467 60.6807 46.1078 60.6807H46.156C47.2171 60.6807 48.0853 61.5476 48.0853 62.6071C48.0853 63.6666 47.2171 64.5335 46.156 64.5335ZM39.8375 64.5335H39.7893C38.7282 64.5335 37.86 63.6666 37.86 62.6071C37.86 61.5476 38.7282 60.6807 39.7893 60.6807H39.8375C40.8987 60.6807 41.7668 61.5476 41.7668 62.6071C41.7668 63.6666 40.8987 64.5335 39.8375 64.5335ZM33.5191 64.5335C32.4579 64.5335 31.5897 63.6666 31.5897 62.6071C31.5897 61.5476 32.4097 60.6807 33.5191 60.6807H33.5673C34.6284 60.6807 35.4966 61.5476 35.4966 62.6071C35.4966 63.6666 34.5802 64.5335 33.5191 64.5335ZM27.2006 64.5335C26.1395 64.5335 25.2713 63.6666 25.2713 62.6071C25.2713 61.5476 26.0912 60.6807 27.2006 60.6807H27.2488C28.3099 60.6807 29.1781 61.5476 29.1781 62.6071C29.1781 63.6666 28.2617 64.5335 27.2006 64.5335ZM20.8821 64.5335H20.8339C19.7727 64.5335 18.9045 63.6666 18.9045 62.6071C18.9045 61.5476 19.7727 60.6807 20.8339 60.6807H20.8821C21.9432 60.6807 22.8114 61.5476 22.8114 62.6071C22.8114 63.6666 21.9432 64.5335 20.8821 64.5335ZM14.5636 64.5335H14.5154C13.4543 64.5335 12.5861 63.6666 12.5861 62.6071C12.5861 61.5476 13.4543 60.6807 14.5154 60.6807H14.5636C15.6247 60.6807 16.4929 61.5476 16.4929 62.6071C16.4929 63.6666 15.6247 64.5335 14.5636 64.5335ZM8.24512 64.5335H8.19689C7.13577 64.5335 6.26758 63.6666 6.26758 62.6071C6.26758 61.5476 7.13577 60.6807 8.19689 60.6807H8.24512C9.30624 60.6807 10.1744 61.5476 10.1744 62.6071C10.1744 63.6666 9.30624 64.5335 8.24512 64.5335Z" fill="#C1E1ED"/>
<path d="M140.828 64.5335C139.767 64.5335 138.898 63.6666 138.898 62.6071C138.898 61.5476 139.767 60.6807 140.828 60.6807C141.889 60.6807 142.757 61.5476 142.757 62.6071C142.757 63.6666 141.889 64.5335 140.828 64.5335Z" fill="#C1E1ED"/>
<path d="M1.92931 57.7933C0.868189 57.7933 0 56.9264 0 55.8669C0 54.8073 0.868189 53.9404 1.92931 53.9404C2.99043 53.9404 3.85862 54.8073 3.85862 55.8669C3.85862 56.9264 2.99043 57.7933 1.92931 57.7933Z" fill="#C1E1ED"/>
<path d="M134.518 57.7943H134.47C133.409 57.7943 132.541 56.9274 132.541 55.8678C132.541 54.8083 133.409 53.9414 134.47 53.9414H134.518C135.579 53.9414 136.448 54.8083 136.448 55.8678C136.448 56.9274 135.579 57.7943 134.518 57.7943ZM128.2 57.7943H128.152C127.091 57.7943 126.222 56.9274 126.222 55.8678C126.222 54.8083 127.091 53.9414 128.152 53.9414H128.2C129.261 53.9414 130.129 54.8083 130.129 55.8678C130.129 56.9274 129.309 57.7943 128.2 57.7943ZM121.93 57.7943H121.881C120.82 57.7943 119.952 56.9274 119.952 55.8678C119.952 54.8083 120.82 53.9414 121.881 53.9414H121.93C122.991 53.9414 123.859 54.8083 123.859 55.8678C123.859 56.9274 122.991 57.7943 121.93 57.7943ZM115.611 57.7943H115.563C114.502 57.7943 113.634 56.9274 113.634 55.8678C113.634 54.8083 114.502 53.9414 115.563 53.9414H115.611C116.672 53.9414 117.54 54.8083 117.54 55.8678C117.54 56.9274 116.672 57.7943 115.611 57.7943ZM109.293 57.7943C108.232 57.7943 107.363 56.9274 107.363 55.8678C107.363 54.8083 108.183 53.9414 109.293 53.9414H109.341C110.402 53.9414 111.27 54.8083 111.27 55.8678C111.27 56.9274 110.354 57.7943 109.293 57.7943ZM102.974 57.7943C101.913 57.7943 101.045 56.9274 101.045 55.8678C101.045 54.8083 101.865 53.9414 102.974 53.9414H103.022C104.084 53.9414 104.952 54.8083 104.952 55.8678C104.952 56.9274 104.035 57.7943 102.974 57.7943ZM96.6557 57.7943H96.6074C95.5463 57.7943 94.6781 56.9274 94.6781 55.8678C94.6781 54.8083 95.5463 53.9414 96.6074 53.9414H96.6557C97.7168 53.9414 98.585 54.8083 98.585 55.8678C98.585 56.9274 97.7168 57.7943 96.6557 57.7943ZM90.3372 57.7943H90.2889C89.2278 57.7943 88.3596 56.9274 88.3596 55.8678C88.3596 54.8083 89.2278 53.9414 90.2889 53.9414H90.3372C91.3983 53.9414 92.2665 54.8083 92.2665 55.8678C92.2665 56.9274 91.3983 57.7943 90.3372 57.7943ZM84.0187 57.7943H83.9705C82.9093 57.7943 82.0412 56.9274 82.0412 55.8678C82.0412 54.8083 82.9093 53.9414 83.9705 53.9414H84.0187C85.0798 53.9414 85.948 54.8083 85.948 55.8678C85.948 56.9274 85.0798 57.7943 84.0187 57.7943ZM77.7002 57.7943H77.652C76.5909 57.7943 75.7227 56.9274 75.7227 55.8678C75.7227 54.8083 76.5909 53.9414 77.652 53.9414H77.7002C78.7613 53.9414 79.6295 54.8083 79.6295 55.8678C79.6295 56.9274 78.7613 57.7943 77.7002 57.7943ZM71.3817 57.7943C70.3206 57.7943 69.4524 56.9274 69.4524 55.8678C69.4524 54.8083 70.2724 53.9414 71.3817 53.9414H71.43C72.4911 53.9414 73.3593 54.8083 73.3593 55.8678C73.3593 56.9274 72.4428 57.7943 71.3817 57.7943ZM65.0632 57.7943C64.0021 57.7943 63.1339 56.9274 63.1339 55.8678C63.1339 54.8083 63.9539 53.9414 65.0632 53.9414H65.1115C66.1726 53.9414 67.0408 54.8083 67.0408 55.8678C67.0408 56.9274 66.1244 57.7943 65.0632 57.7943ZM58.7448 57.7943H58.6965C57.6354 57.7943 56.7672 56.9274 56.7672 55.8678C56.7672 54.8083 57.6354 53.9414 58.6965 53.9414H58.7448C59.8059 53.9414 60.6741 54.8083 60.6741 55.8678C60.6741 56.9274 59.8541 57.7943 58.7448 57.7943ZM52.4745 57.7943H52.4263C51.3652 57.7943 50.497 56.9274 50.497 55.8678C50.497 54.8083 51.3652 53.9414 52.4263 53.9414H52.4745C53.5356 53.9414 54.4038 54.8083 54.4038 55.8678C54.4038 56.9274 53.5356 57.7943 52.4745 57.7943ZM46.156 57.7943H46.1078C45.0467 57.7943 44.1785 56.9274 44.1785 55.8678C44.1785 54.8083 45.0467 53.9414 46.1078 53.9414H46.156C47.2171 53.9414 48.0853 54.8083 48.0853 55.8678C48.0853 56.9274 47.2171 57.7943 46.156 57.7943ZM39.8375 57.7943H39.7893C38.7282 57.7943 37.86 56.9274 37.86 55.8678C37.86 54.8083 38.7282 53.9414 39.7893 53.9414H39.8375C40.8987 53.9414 41.7668 54.8083 41.7668 55.8678C41.7668 56.9274 40.8987 57.7943 39.8375 57.7943ZM33.5191 57.7943C32.4579 57.7943 31.5897 56.9274 31.5897 55.8678C31.5897 54.8083 32.4097 53.9414 33.5191 53.9414H33.5673C34.6284 53.9414 35.4966 54.8083 35.4966 55.8678C35.4966 56.9274 34.5802 57.7943 33.5191 57.7943ZM27.2006 57.7943C26.1395 57.7943 25.2713 56.9274 25.2713 55.8678C25.2713 54.8083 26.0912 53.9414 27.2006 53.9414H27.2488C28.3099 53.9414 29.1781 54.8083 29.1781 55.8678C29.1781 56.9274 28.2617 57.7943 27.2006 57.7943ZM20.8821 57.7943H20.8339C19.7727 57.7943 18.9045 56.9274 18.9045 55.8678C18.9045 54.8083 19.7727 53.9414 20.8339 53.9414H20.8821C21.9432 53.9414 22.8114 54.8083 22.8114 55.8678C22.8114 56.9274 21.9432 57.7943 20.8821 57.7943ZM14.5636 57.7943H14.5154C13.4543 57.7943 12.5861 56.9274 12.5861 55.8678C12.5861 54.8083 13.4543 53.9414 14.5154 53.9414H14.5636C15.6247 53.9414 16.4929 54.8083 16.4929 55.8678C16.4929 56.9274 15.6247 57.7943 14.5636 57.7943ZM8.24512 57.7943H8.19689C7.13577 57.7943 6.26758 56.9274 6.26758 55.8678C6.26758 54.8083 7.13577 53.9414 8.19689 53.9414H8.24512C9.30624 53.9414 10.1744 54.8083 10.1744 55.8678C10.1744 56.9274 9.30624 57.7943 8.24512 57.7943Z" fill="#C1E1ED"/>
<path d="M140.828 57.7943C139.767 57.7943 138.898 56.9274 138.898 55.8678C138.898 54.8083 139.767 53.9414 140.828 53.9414C141.889 53.9414 142.757 54.8083 142.757 55.8678C142.757 56.9274 141.889 57.7943 140.828 57.7943Z" fill="#C1E1ED"/>
<path d="M1.92931 51.0511C0.868189 51.0511 0 50.1842 0 49.1247C0 48.0651 0.868189 47.1982 1.92931 47.1982C2.99043 47.1982 3.85862 48.0651 3.85862 49.1247C3.85862 50.1842 2.99043 51.0511 1.92931 51.0511Z" fill="#C1E1ED"/>
<path d="M134.518 51.0521H134.47C133.409 51.0521 132.541 50.1852 132.541 49.1256C132.541 48.0661 133.409 47.1992 134.47 47.1992H134.518C135.579 47.1992 136.448 48.0661 136.448 49.1256C136.448 50.1852 135.579 51.0521 134.518 51.0521ZM128.2 51.0521H128.152C127.091 51.0521 126.222 50.1852 126.222 49.1256C126.222 48.0661 127.091 47.1992 128.152 47.1992H128.2C129.261 47.1992 130.129 48.0661 130.129 49.1256C130.129 50.1852 129.309 51.0521 128.2 51.0521ZM121.93 51.0521H121.881C120.82 51.0521 119.952 50.1852 119.952 49.1256C119.952 48.0661 120.82 47.1992 121.881 47.1992H121.93C122.991 47.1992 123.859 48.0661 123.859 49.1256C123.859 50.1852 122.991 51.0521 121.93 51.0521ZM115.611 51.0521H115.563C114.502 51.0521 113.634 50.1852 113.634 49.1256C113.634 48.0661 114.502 47.1992 115.563 47.1992H115.611C116.672 47.1992 117.54 48.0661 117.54 49.1256C117.54 50.1852 116.672 51.0521 115.611 51.0521ZM109.293 51.0521C108.232 51.0521 107.363 50.1852 107.363 49.1256C107.363 48.0661 108.183 47.1992 109.293 47.1992H109.341C110.402 47.1992 111.27 48.0661 111.27 49.1256C111.27 50.1852 110.354 51.0521 109.293 51.0521ZM102.974 51.0521C101.913 51.0521 101.045 50.1852 101.045 49.1256C101.045 48.0661 101.865 47.1992 102.974 47.1992H103.022C104.084 47.1992 104.952 48.0661 104.952 49.1256C104.952 50.1852 104.035 51.0521 102.974 51.0521ZM96.6557 51.0521H96.6074C95.5463 51.0521 94.6781 50.1852 94.6781 49.1256C94.6781 48.0661 95.5463 47.1992 96.6074 47.1992H96.6557C97.7168 47.1992 98.585 48.0661 98.585 49.1256C98.585 50.1852 97.7168 51.0521 96.6557 51.0521ZM90.3372 51.0521H90.2889C89.2278 51.0521 88.3596 50.1852 88.3596 49.1256C88.3596 48.0661 89.2278 47.1992 90.2889 47.1992H90.3372C91.3983 47.1992 92.2665 48.0661 92.2665 49.1256C92.2665 50.1852 91.3983 51.0521 90.3372 51.0521ZM84.0187 51.0521H83.9705C82.9093 51.0521 82.0412 50.1852 82.0412 49.1256C82.0412 48.0661 82.9093 47.1992 83.9705 47.1992H84.0187C85.0798 47.1992 85.948 48.0661 85.948 49.1256C85.948 50.1852 85.0798 51.0521 84.0187 51.0521ZM77.7002 51.0521H77.652C76.5909 51.0521 75.7227 50.1852 75.7227 49.1256C75.7227 48.0661 76.5909 47.1992 77.652 47.1992H77.7002C78.7613 47.1992 79.6295 48.0661 79.6295 49.1256C79.6295 50.1852 78.7613 51.0521 77.7002 51.0521ZM71.3817 51.0521C70.3206 51.0521 69.4524 50.1852 69.4524 49.1256C69.4524 48.0661 70.2724 47.1992 71.3817 47.1992H71.43C72.4911 47.1992 73.3593 48.0661 73.3593 49.1256C73.3593 50.1852 72.4428 51.0521 71.3817 51.0521ZM65.0632 51.0521C64.0021 51.0521 63.1339 50.1852 63.1339 49.1256C63.1339 48.0661 63.9539 47.1992 65.0632 47.1992H65.1115C66.1726 47.1992 67.0408 48.0661 67.0408 49.1256C67.0408 50.1852 66.1244 51.0521 65.0632 51.0521ZM58.7448 51.0521H58.6965C57.6354 51.0521 56.7672 50.1852 56.7672 49.1256C56.7672 48.0661 57.6354 47.1992 58.6965 47.1992H58.7448C59.8059 47.1992 60.6741 48.0661 60.6741 49.1256C60.6741 50.1852 59.8541 51.0521 58.7448 51.0521ZM52.4745 51.0521H52.4263C51.3652 51.0521 50.497 50.1852 50.497 49.1256C50.497 48.0661 51.3652 47.1992 52.4263 47.1992H52.4745C53.5356 47.1992 54.4038 48.0661 54.4038 49.1256C54.4038 50.1852 53.5356 51.0521 52.4745 51.0521ZM46.156 51.0521H46.1078C45.0467 51.0521 44.1785 50.1852 44.1785 49.1256C44.1785 48.0661 45.0467 47.1992 46.1078 47.1992H46.156C47.2171 47.1992 48.0853 48.0661 48.0853 49.1256C48.0853 50.1852 47.2171 51.0521 46.156 51.0521ZM39.8375 51.0521H39.7893C38.7282 51.0521 37.86 50.1852 37.86 49.1256C37.86 48.0661 38.7282 47.1992 39.7893 47.1992H39.8375C40.8987 47.1992 41.7668 48.0661 41.7668 49.1256C41.7668 50.1852 40.8987 51.0521 39.8375 51.0521ZM33.5191 51.0521C32.4579 51.0521 31.5897 50.1852 31.5897 49.1256C31.5897 48.0661 32.4097 47.1992 33.5191 47.1992H33.5673C34.6284 47.1992 35.4966 48.0661 35.4966 49.1256C35.4966 50.1852 34.5802 51.0521 33.5191 51.0521ZM27.2006 51.0521C26.1395 51.0521 25.2713 50.1852 25.2713 49.1256C25.2713 48.0661 26.0912 47.1992 27.2006 47.1992H27.2488C28.3099 47.1992 29.1781 48.0661 29.1781 49.1256C29.1781 50.1852 28.2617 51.0521 27.2006 51.0521ZM20.8821 51.0521H20.8339C19.7727 51.0521 18.9045 50.1852 18.9045 49.1256C18.9045 48.0661 19.7727 47.1992 20.8339 47.1992H20.8821C21.9432 47.1992 22.8114 48.0661 22.8114 49.1256C22.8114 50.1852 21.9432 51.0521 20.8821 51.0521ZM14.5636 51.0521H14.5154C13.4543 51.0521 12.5861 50.1852 12.5861 49.1256C12.5861 48.0661 13.4543 47.1992 14.5154 47.1992H14.5636C15.6247 47.1992 16.4929 48.0661 16.4929 49.1256C16.4929 50.1852 15.6247 51.0521 14.5636 51.0521ZM8.24512 51.0521H8.19689C7.13577 51.0521 6.26758 50.1852 6.26758 49.1256C6.26758 48.0661 7.13577 47.1992 8.19689 47.1992H8.24512C9.30624 47.1992 10.1744 48.0661 10.1744 49.1256C10.1744 50.1852 9.30624 51.0521 8.24512 51.0521Z" fill="#C1E1ED"/>
<path d="M140.828 51.0521C139.767 51.0521 138.898 50.1852 138.898 49.1256C138.898 48.0661 139.767 47.1992 140.828 47.1992C141.889 47.1992 142.757 48.0661 142.757 49.1256C142.757 50.1852 141.889 51.0521 140.828 51.0521Z" fill="#C1E1ED"/>
<path d="M1.92931 44.306C0.868189 44.306 0 43.4391 0 42.3796C0 41.32 0.868189 40.4531 1.92931 40.4531C2.99043 40.4531 3.85862 41.32 3.85862 42.3796C3.85862 43.4391 2.99043 44.306 1.92931 44.306Z" fill="#C1E1ED"/>
<path d="M134.518 44.306H134.47C133.409 44.306 132.541 43.4391 132.541 42.3796C132.541 41.32 133.409 40.4531 134.47 40.4531H134.518C135.579 40.4531 136.448 41.32 136.448 42.3796C136.448 43.4391 135.579 44.306 134.518 44.306ZM128.2 44.306H128.152C127.091 44.306 126.222 43.4391 126.222 42.3796C126.222 41.32 127.091 40.4531 128.152 40.4531H128.2C129.261 40.4531 130.129 41.32 130.129 42.3796C130.129 43.4391 129.309 44.306 128.2 44.306ZM121.93 44.306H121.881C120.82 44.306 119.952 43.4391 119.952 42.3796C119.952 41.32 120.82 40.4531 121.881 40.4531H121.93C122.991 40.4531 123.859 41.32 123.859 42.3796C123.859 43.4391 122.991 44.306 121.93 44.306ZM115.611 44.306H115.563C114.502 44.306 113.634 43.4391 113.634 42.3796C113.634 41.32 114.502 40.4531 115.563 40.4531H115.611C116.672 40.4531 117.54 41.32 117.54 42.3796C117.54 43.4391 116.672 44.306 115.611 44.306ZM109.293 44.306C108.232 44.306 107.363 43.4391 107.363 42.3796C107.363 41.32 108.183 40.4531 109.293 40.4531H109.341C110.402 40.4531 111.27 41.32 111.27 42.3796C111.27 43.4391 110.354 44.306 109.293 44.306ZM102.974 44.306C101.913 44.306 101.045 43.4391 101.045 42.3796C101.045 41.32 101.865 40.4531 102.974 40.4531H103.022C104.084 40.4531 104.952 41.32 104.952 42.3796C104.952 43.4391 104.035 44.306 102.974 44.306ZM96.6557 44.306H96.6074C95.5463 44.306 94.6781 43.4391 94.6781 42.3796C94.6781 41.32 95.5463 40.4531 96.6074 40.4531H96.6557C97.7168 40.4531 98.585 41.32 98.585 42.3796C98.585 43.4391 97.7168 44.306 96.6557 44.306ZM90.3372 44.306H90.2889C89.2278 44.306 88.3596 43.4391 88.3596 42.3796C88.3596 41.32 89.2278 40.4531 90.2889 40.4531H90.3372C91.3983 40.4531 92.2665 41.32 92.2665 42.3796C92.2665 43.4391 91.3983 44.306 90.3372 44.306ZM84.0187 44.306H83.9705C82.9093 44.306 82.0412 43.4391 82.0412 42.3796C82.0412 41.32 82.9093 40.4531 83.9705 40.4531H84.0187C85.0798 40.4531 85.948 41.32 85.948 42.3796C85.948 43.4391 85.0798 44.306 84.0187 44.306ZM77.7002 44.306H77.652C76.5909 44.306 75.7227 43.4391 75.7227 42.3796C75.7227 41.32 76.5909 40.4531 77.652 40.4531H77.7002C78.7613 40.4531 79.6295 41.32 79.6295 42.3796C79.6295 43.4391 78.7613 44.306 77.7002 44.306ZM71.3817 44.306C70.3206 44.306 69.4524 43.4391 69.4524 42.3796C69.4524 41.32 70.2724 40.4531 71.3817 40.4531H71.43C72.4911 40.4531 73.3593 41.32 73.3593 42.3796C73.3593 43.4391 72.4428 44.306 71.3817 44.306ZM65.0632 44.306C64.0021 44.306 63.1339 43.4391 63.1339 42.3796C63.1339 41.32 63.9539 40.4531 65.0632 40.4531H65.1115C66.1726 40.4531 67.0408 41.32 67.0408 42.3796C67.0408 43.4391 66.1244 44.306 65.0632 44.306ZM58.7448 44.306H58.6965C57.6354 44.306 56.7672 43.4391 56.7672 42.3796C56.7672 41.32 57.6354 40.4531 58.6965 40.4531H58.7448C59.8059 40.4531 60.6741 41.32 60.6741 42.3796C60.6741 43.4391 59.8541 44.306 58.7448 44.306ZM52.4745 44.306H52.4263C51.3652 44.306 50.497 43.4391 50.497 42.3796C50.497 41.32 51.3652 40.4531 52.4263 40.4531H52.4745C53.5356 40.4531 54.4038 41.32 54.4038 42.3796C54.4038 43.4391 53.5356 44.306 52.4745 44.306ZM46.156 44.306H46.1078C45.0467 44.306 44.1785 43.4391 44.1785 42.3796C44.1785 41.32 45.0467 40.4531 46.1078 40.4531H46.156C47.2171 40.4531 48.0853 41.32 48.0853 42.3796C48.0853 43.4391 47.2171 44.306 46.156 44.306ZM39.8375 44.306H39.7893C38.7282 44.306 37.86 43.4391 37.86 42.3796C37.86 41.32 38.7282 40.4531 39.7893 40.4531H39.8375C40.8987 40.4531 41.7668 41.32 41.7668 42.3796C41.7668 43.4391 40.8987 44.306 39.8375 44.306ZM33.5191 44.306C32.4579 44.306 31.5897 43.4391 31.5897 42.3796C31.5897 41.32 32.4097 40.4531 33.5191 40.4531H33.5673C34.6284 40.4531 35.4966 41.32 35.4966 42.3796C35.4966 43.4391 34.5802 44.306 33.5191 44.306ZM27.2006 44.306C26.1395 44.306 25.2713 43.4391 25.2713 42.3796C25.2713 41.32 26.0912 40.4531 27.2006 40.4531H27.2488C28.3099 40.4531 29.1781 41.32 29.1781 42.3796C29.1781 43.4391 28.2617 44.306 27.2006 44.306ZM20.8821 44.306H20.8339C19.7727 44.306 18.9045 43.4391 18.9045 42.3796C18.9045 41.32 19.7727 40.4531 20.8339 40.4531H20.8821C21.9432 40.4531 22.8114 41.32 22.8114 42.3796C22.8114 43.4391 21.9432 44.306 20.8821 44.306ZM14.5636 44.306H14.5154C13.4543 44.306 12.5861 43.4391 12.5861 42.3796C12.5861 41.32 13.4543 40.4531 14.5154 40.4531H14.5636C15.6247 40.4531 16.4929 41.32 16.4929 42.3796C16.4929 43.4391 15.6247 44.306 14.5636 44.306ZM8.24512 44.306H8.19689C7.13577 44.306 6.26758 43.4391 6.26758 42.3796C6.26758 41.32 7.13577 40.4531 8.19689 40.4531H8.24512C9.30624 40.4531 10.1744 41.32 10.1744 42.3796C10.1744 43.4391 9.30624 44.306 8.24512 44.306Z" fill="#C1E1ED"/>
<path d="M140.828 44.306C139.767 44.306 138.898 43.4391 138.898 42.3796C138.898 41.32 139.767 40.4531 140.828 40.4531C141.889 40.4531 142.757 41.32 142.757 42.3796C142.757 43.4391 141.889 44.306 140.828 44.306Z" fill="#C1E1ED"/>
<path d="M1.92931 37.5658C0.868189 37.5658 0 36.6989 0 35.6393C0 34.5798 0.868189 33.7129 1.92931 33.7129C2.99043 33.7129 3.85862 34.5798 3.85862 35.6393C3.85862 36.6989 2.99043 37.5658 1.92931 37.5658Z" fill="#C1E1ED"/>
<path d="M134.518 37.5658H134.47C133.409 37.5658 132.541 36.6989 132.541 35.6393C132.541 34.5798 133.409 33.7129 134.47 33.7129H134.518C135.579 33.7129 136.448 34.5798 136.448 35.6393C136.448 36.6989 135.579 37.5658 134.518 37.5658ZM128.2 37.5658H128.152C127.091 37.5658 126.222 36.6989 126.222 35.6393C126.222 34.5798 127.091 33.7129 128.152 33.7129H128.2C129.261 33.7129 130.129 34.5798 130.129 35.6393C130.129 36.6989 129.309 37.5658 128.2 37.5658ZM121.93 37.5658H121.881C120.82 37.5658 119.952 36.6989 119.952 35.6393C119.952 34.5798 120.82 33.7129 121.881 33.7129H121.93C122.991 33.7129 123.859 34.5798 123.859 35.6393C123.859 36.6989 122.991 37.5658 121.93 37.5658ZM115.611 37.5658H115.563C114.502 37.5658 113.634 36.6989 113.634 35.6393C113.634 34.5798 114.502 33.7129 115.563 33.7129H115.611C116.672 33.7129 117.54 34.5798 117.54 35.6393C117.54 36.6989 116.672 37.5658 115.611 37.5658ZM109.293 37.5658C108.232 37.5658 107.363 36.6989 107.363 35.6393C107.363 34.5798 108.183 33.7129 109.293 33.7129H109.341C110.402 33.7129 111.27 34.5798 111.27 35.6393C111.27 36.6989 110.354 37.5658 109.293 37.5658ZM102.974 37.5658C101.913 37.5658 101.045 36.6989 101.045 35.6393C101.045 34.5798 101.865 33.7129 102.974 33.7129H103.022C104.084 33.7129 104.952 34.5798 104.952 35.6393C104.952 36.6989 104.035 37.5658 102.974 37.5658ZM96.6557 37.5658H96.6074C95.5463 37.5658 94.6781 36.6989 94.6781 35.6393C94.6781 34.5798 95.5463 33.7129 96.6074 33.7129H96.6557C97.7168 33.7129 98.585 34.5798 98.585 35.6393C98.585 36.6989 97.7168 37.5658 96.6557 37.5658ZM90.3372 37.5658H90.2889C89.2278 37.5658 88.3596 36.6989 88.3596 35.6393C88.3596 34.5798 89.2278 33.7129 90.2889 33.7129H90.3372C91.3983 33.7129 92.2665 34.5798 92.2665 35.6393C92.2665 36.6989 91.3983 37.5658 90.3372 37.5658ZM84.0187 37.5658H83.9705C82.9093 37.5658 82.0412 36.6989 82.0412 35.6393C82.0412 34.5798 82.9093 33.7129 83.9705 33.7129H84.0187C85.0798 33.7129 85.948 34.5798 85.948 35.6393C85.948 36.6989 85.0798 37.5658 84.0187 37.5658ZM77.7002 37.5658H77.652C76.5909 37.5658 75.7227 36.6989 75.7227 35.6393C75.7227 34.5798 76.5909 33.7129 77.652 33.7129H77.7002C78.7613 33.7129 79.6295 34.5798 79.6295 35.6393C79.6295 36.6989 78.7613 37.5658 77.7002 37.5658ZM71.3817 37.5658C70.3206 37.5658 69.4524 36.6989 69.4524 35.6393C69.4524 34.5798 70.2724 33.7129 71.3817 33.7129H71.43C72.4911 33.7129 73.3593 34.5798 73.3593 35.6393C73.3593 36.6989 72.4428 37.5658 71.3817 37.5658ZM65.0632 37.5658C64.0021 37.5658 63.1339 36.6989 63.1339 35.6393C63.1339 34.5798 63.9539 33.7129 65.0632 33.7129H65.1115C66.1726 33.7129 67.0408 34.5798 67.0408 35.6393C67.0408 36.6989 66.1244 37.5658 65.0632 37.5658ZM58.7448 37.5658H58.6965C57.6354 37.5658 56.7672 36.6989 56.7672 35.6393C56.7672 34.5798 57.6354 33.7129 58.6965 33.7129H58.7448C59.8059 33.7129 60.6741 34.5798 60.6741 35.6393C60.6741 36.6989 59.8541 37.5658 58.7448 37.5658ZM52.4745 37.5658H52.4263C51.3652 37.5658 50.497 36.6989 50.497 35.6393C50.497 34.5798 51.3652 33.7129 52.4263 33.7129H52.4745C53.5356 33.7129 54.4038 34.5798 54.4038 35.6393C54.4038 36.6989 53.5356 37.5658 52.4745 37.5658ZM46.156 37.5658H46.1078C45.0467 37.5658 44.1785 36.6989 44.1785 35.6393C44.1785 34.5798 45.0467 33.7129 46.1078 33.7129H46.156C47.2171 33.7129 48.0853 34.5798 48.0853 35.6393C48.0853 36.6989 47.2171 37.5658 46.156 37.5658ZM39.8375 37.5658H39.7893C38.7282 37.5658 37.86 36.6989 37.86 35.6393C37.86 34.5798 38.7282 33.7129 39.7893 33.7129H39.8375C40.8987 33.7129 41.7668 34.5798 41.7668 35.6393C41.7668 36.6989 40.8987 37.5658 39.8375 37.5658ZM33.5191 37.5658C32.4579 37.5658 31.5897 36.6989 31.5897 35.6393C31.5897 34.5798 32.4097 33.7129 33.5191 33.7129H33.5673C34.6284 33.7129 35.4966 34.5798 35.4966 35.6393C35.4966 36.6989 34.5802 37.5658 33.5191 37.5658ZM27.2006 37.5658C26.1395 37.5658 25.2713 36.6989 25.2713 35.6393C25.2713 34.5798 26.0912 33.7129 27.2006 33.7129H27.2488C28.3099 33.7129 29.1781 34.5798 29.1781 35.6393C29.1781 36.6989 28.2617 37.5658 27.2006 37.5658ZM20.8821 37.5658H20.8339C19.7727 37.5658 18.9045 36.6989 18.9045 35.6393C18.9045 34.5798 19.7727 33.7129 20.8339 33.7129H20.8821C21.9432 33.7129 22.8114 34.5798 22.8114 35.6393C22.8114 36.6989 21.9432 37.5658 20.8821 37.5658ZM14.5636 37.5658H14.5154C13.4543 37.5658 12.5861 36.6989 12.5861 35.6393C12.5861 34.5798 13.4543 33.7129 14.5154 33.7129H14.5636C15.6247 33.7129 16.4929 34.5798 16.4929 35.6393C16.4929 36.6989 15.6247 37.5658 14.5636 37.5658ZM8.24512 37.5658H8.19689C7.13577 37.5658 6.26758 36.6989 6.26758 35.6393C6.26758 34.5798 7.13577 33.7129 8.19689 33.7129H8.24512C9.30624 33.7129 10.1744 34.5798 10.1744 35.6393C10.1744 36.6989 9.30624 37.5658 8.24512 37.5658Z" fill="#C1E1ED"/>
<path d="M140.828 37.5658C139.767 37.5658 138.898 36.6989 138.898 35.6393C138.898 34.5798 139.767 33.7129 140.828 33.7129C141.889 33.7129 142.757 34.5798 142.757 35.6393C142.757 36.6989 141.889 37.5658 140.828 37.5658Z" fill="#C1E1ED"/>
<path d="M1.93028 30.8236C0.869165 30.8236 0.000976562 29.9567 0.000976562 28.8971C0.000976562 27.8376 0.869165 26.9707 1.93028 26.9707C2.9914 26.9707 3.85959 27.8376 3.85959 28.8971C3.85959 29.9567 2.9914 30.8236 1.93028 30.8236Z" fill="#C1E1ED"/>
<path d="M134.52 30.8226H134.472C133.411 30.8226 132.543 29.9557 132.543 28.8962C132.543 27.8366 133.411 26.9697 134.472 26.9697H134.52C135.581 26.9697 136.45 27.8366 136.45 28.8962C136.45 29.9557 135.581 30.8226 134.52 30.8226ZM128.202 30.8226H128.154C127.092 30.8226 126.224 29.9557 126.224 28.8962C126.224 27.8366 127.092 26.9697 128.154 26.9697H128.202C129.263 26.9697 130.131 27.8366 130.131 28.8962C130.131 29.9557 129.311 30.8226 128.202 30.8226ZM121.932 30.8226H121.883C120.822 30.8226 119.954 29.9557 119.954 28.8962C119.954 27.8366 120.822 26.9697 121.883 26.9697H121.932C122.993 26.9697 123.861 27.8366 123.861 28.8962C123.861 29.9557 122.993 30.8226 121.932 30.8226ZM115.613 30.8226H115.565C114.504 30.8226 113.636 29.9557 113.636 28.8962C113.636 27.8366 114.504 26.9697 115.565 26.9697H115.613C116.674 26.9697 117.542 27.8366 117.542 28.8962C117.542 29.9557 116.674 30.8226 115.613 30.8226ZM109.295 30.8226C108.233 30.8226 107.365 29.9557 107.365 28.8962C107.365 27.8366 108.185 26.9697 109.295 26.9697H109.343C110.404 26.9697 111.272 27.8366 111.272 28.8962C111.272 29.9557 110.356 30.8226 109.295 30.8226ZM102.976 30.8226C101.915 30.8226 101.047 29.9557 101.047 28.8962C101.047 27.8366 101.867 26.9697 102.976 26.9697H103.024C104.085 26.9697 104.954 27.8366 104.954 28.8962C104.954 29.9557 104.037 30.8226 102.976 30.8226ZM96.6576 30.8226H96.6094C95.5483 30.8226 94.6801 29.9557 94.6801 28.8962C94.6801 27.8366 95.5483 26.9697 96.6094 26.9697H96.6576C97.7187 26.9697 98.5869 27.8366 98.5869 28.8962C98.5869 29.9557 97.7187 30.8226 96.6576 30.8226ZM90.3391 30.8226H90.2909C89.2298 30.8226 88.3616 29.9557 88.3616 28.8962C88.3616 27.8366 89.2298 26.9697 90.2909 26.9697H90.3391C91.4003 26.9697 92.2684 27.8366 92.2684 28.8962C92.2684 29.9557 91.4003 30.8226 90.3391 30.8226ZM84.0207 30.8226H83.9724C82.9113 30.8226 82.0431 29.9557 82.0431 28.8962C82.0431 27.8366 82.9113 26.9697 83.9724 26.9697H84.0207C85.0818 26.9697 85.95 27.8366 85.95 28.8962C85.95 29.9557 85.0818 30.8226 84.0207 30.8226ZM77.7022 30.8226H77.6539C76.5928 30.8226 75.7246 29.9557 75.7246 28.8962C75.7246 27.8366 76.5928 26.9697 77.6539 26.9697H77.7022C78.7633 26.9697 79.6315 27.8366 79.6315 28.8962C79.6315 29.9557 78.7633 30.8226 77.7022 30.8226ZM71.3837 30.8226C70.3226 30.8226 69.4544 29.9557 69.4544 28.8962C69.4544 27.8366 70.2743 26.9697 71.3837 26.9697H71.4319C72.493 26.9697 73.3612 27.8366 73.3612 28.8962C73.3612 29.9557 72.4448 30.8226 71.3837 30.8226ZM65.0652 30.8226C64.0041 30.8226 63.1359 29.9557 63.1359 28.8962C63.1359 27.8366 63.9558 26.9697 65.0652 26.9697H65.1134C66.1745 26.9697 67.0427 27.8366 67.0427 28.8962C67.0427 29.9557 66.1263 30.8226 65.0652 30.8226ZM58.7467 30.8226H58.6985C57.6374 30.8226 56.7692 29.9557 56.7692 28.8962C56.7692 27.8366 57.6374 26.9697 58.6985 26.9697H58.7467C59.8078 26.9697 60.676 27.8366 60.676 28.8962C60.676 29.9557 59.8561 30.8226 58.7467 30.8226ZM52.4765 30.8226H52.4282C51.3671 30.8226 50.4989 29.9557 50.4989 28.8962C50.4989 27.8366 51.3671 26.9697 52.4282 26.9697H52.4765C53.5376 26.9697 54.4058 27.8366 54.4058 28.8962C54.4058 29.9557 53.5376 30.8226 52.4765 30.8226ZM46.158 30.8226H46.1097C45.0486 30.8226 44.1804 29.9557 44.1804 28.8962C44.1804 27.8366 45.0486 26.9697 46.1097 26.9697H46.158C47.2191 26.9697 48.0873 27.8366 48.0873 28.8962C48.0873 29.9557 47.2191 30.8226 46.158 30.8226ZM39.8395 30.8226H39.7913C38.7301 30.8226 37.862 29.9557 37.862 28.8962C37.862 27.8366 38.7301 26.9697 39.7913 26.9697H39.8395C40.9006 26.9697 41.7688 27.8366 41.7688 28.8962C41.7688 29.9557 40.9006 30.8226 39.8395 30.8226ZM33.521 30.8226C32.4599 30.8226 31.5917 29.9557 31.5917 28.8962C31.5917 27.8366 32.4117 26.9697 33.521 26.9697H33.5692C34.6304 26.9697 35.4985 27.8366 35.4985 28.8962C35.4985 29.9557 34.5821 30.8226 33.521 30.8226ZM27.2025 30.8226C26.1414 30.8226 25.2732 29.9557 25.2732 28.8962C25.2732 27.8366 26.0932 26.9697 27.2025 26.9697H27.2508C28.3119 26.9697 29.1801 27.8366 29.1801 28.8962C29.1801 29.9557 28.2636 30.8226 27.2025 30.8226ZM20.884 30.8226H20.8358C19.7747 30.8226 18.9065 29.9557 18.9065 28.8962C18.9065 27.8366 19.7747 26.9697 20.8358 26.9697H20.884C21.9452 26.9697 22.8133 27.8366 22.8133 28.8962C22.8133 29.9557 21.9452 30.8226 20.884 30.8226ZM14.5656 30.8226H14.5173C13.4562 30.8226 12.588 29.9557 12.588 28.8962C12.588 27.8366 13.4562 26.9697 14.5173 26.9697H14.5656C15.6267 26.9697 16.4949 27.8366 16.4949 28.8962C16.4949 29.9557 15.6267 30.8226 14.5656 30.8226ZM8.24707 30.8226H8.19884C7.13772 30.8226 6.26953 29.9557 6.26953 28.8962C6.26953 27.8366 7.13772 26.9697 8.19884 26.9697H8.24707C9.30819 26.9697 10.1764 27.8366 10.1764 28.8962C10.1764 29.9557 9.30819 30.8226 8.24707 30.8226Z" fill="#C1E1ED"/>
<path d="M140.829 30.8226C139.768 30.8226 138.899 29.9557 138.899 28.8962C138.899 27.8366 139.768 26.9697 140.829 26.9697C141.89 26.9697 142.758 27.8366 142.758 28.8962C142.758 29.9557 141.89 30.8226 140.829 30.8226Z" fill="#C1E1ED"/>
<path d="M1.92931 24.0804C0.868189 24.0804 0 23.2135 0 22.154C0 21.0944 0.868189 20.2275 1.92931 20.2275C2.99043 20.2275 3.85862 21.0944 3.85862 22.154C3.85862 23.2135 2.99043 24.0804 1.92931 24.0804Z" fill="#C1E1ED"/>
<path d="M134.519 24.0794H134.471C133.41 24.0794 132.542 23.2125 132.542 22.153C132.542 21.0935 133.41 20.2266 134.471 20.2266H134.519C135.58 20.2266 136.449 21.0935 136.449 22.153C136.449 23.2125 135.58 24.0794 134.519 24.0794ZM128.201 24.0794H128.153C127.091 24.0794 126.223 23.2125 126.223 22.153C126.223 21.0935 127.091 20.2266 128.153 20.2266H128.201C129.262 20.2266 130.13 21.0935 130.13 22.153C130.13 23.2125 129.31 24.0794 128.201 24.0794ZM121.931 24.0794H121.882C120.821 24.0794 119.953 23.2125 119.953 22.153C119.953 21.0935 120.821 20.2266 121.882 20.2266H121.931C122.992 20.2266 123.86 21.0935 123.86 22.153C123.86 23.2125 122.992 24.0794 121.931 24.0794ZM115.612 24.0794H115.564C114.503 24.0794 113.635 23.2125 113.635 22.153C113.635 21.0935 114.503 20.2266 115.564 20.2266H115.612C116.673 20.2266 117.541 21.0935 117.541 22.153C117.541 23.2125 116.673 24.0794 115.612 24.0794ZM109.294 24.0794C108.232 24.0794 107.364 23.2125 107.364 22.153C107.364 21.0935 108.184 20.2266 109.294 20.2266H109.342C110.403 20.2266 111.271 21.0935 111.271 22.153C111.271 23.2125 110.355 24.0794 109.294 24.0794ZM102.975 24.0794C101.914 24.0794 101.046 23.2125 101.046 22.153C101.046 21.0935 101.866 20.2266 102.975 20.2266H103.023C104.084 20.2266 104.953 21.0935 104.953 22.153C104.953 23.2125 104.036 24.0794 102.975 24.0794ZM96.6566 24.0794H96.6084C95.5473 24.0794 94.6791 23.2125 94.6791 22.153C94.6791 21.0935 95.5473 20.2266 96.6084 20.2266H96.6566C97.7178 20.2266 98.5859 21.0935 98.5859 22.153C98.5859 23.2125 97.7178 24.0794 96.6566 24.0794ZM90.3382 24.0794H90.2899C89.2288 24.0794 88.3606 23.2125 88.3606 22.153C88.3606 21.0935 89.2288 20.2266 90.2899 20.2266H90.3382C91.3993 20.2266 92.2675 21.0935 92.2675 22.153C92.2675 23.2125 91.3993 24.0794 90.3382 24.0794ZM84.0197 24.0794H83.9714C82.9103 24.0794 82.0421 23.2125 82.0421 22.153C82.0421 21.0935 82.9103 20.2266 83.9714 20.2266H84.0197C85.0808 20.2266 85.949 21.0935 85.949 22.153C85.949 23.2125 85.0808 24.0794 84.0197 24.0794ZM77.7012 24.0794H77.653C76.5918 24.0794 75.7236 23.2125 75.7236 22.153C75.7236 21.0935 76.5918 20.2266 77.653 20.2266H77.7012C78.7623 20.2266 79.6305 21.0935 79.6305 22.153C79.6305 23.2125 78.7623 24.0794 77.7012 24.0794ZM71.3827 24.0794C70.3216 24.0794 69.4534 23.2125 69.4534 22.153C69.4534 21.0935 70.2734 20.2266 71.3827 20.2266H71.4309C72.4921 20.2266 73.3603 21.0935 73.3603 22.153C73.3603 23.2125 72.4438 24.0794 71.3827 24.0794ZM65.0642 24.0794C64.0031 24.0794 63.1349 23.2125 63.1349 22.153C63.1349 21.0935 63.9549 20.2266 65.0642 20.2266H65.1125C66.1736 20.2266 67.0418 21.0935 67.0418 22.153C67.0418 23.2125 66.1253 24.0794 65.0642 24.0794ZM58.7457 24.0794H58.6975C57.6364 24.0794 56.7682 23.2125 56.7682 22.153C56.7682 21.0935 57.6364 20.2266 58.6975 20.2266H58.7457C59.8069 20.2266 60.675 21.0935 60.675 22.153C60.675 23.2125 59.8551 24.0794 58.7457 24.0794ZM52.4755 24.0794H52.4272C51.3661 24.0794 50.4979 23.2125 50.4979 22.153C50.4979 21.0935 51.3661 20.2266 52.4272 20.2266H52.4755C53.5366 20.2266 54.4048 21.0935 54.4048 22.153C54.4048 23.2125 53.5366 24.0794 52.4755 24.0794ZM46.157 24.0794H46.1088C45.0476 24.0794 44.1795 23.2125 44.1795 22.153C44.1795 21.0935 45.0476 20.2266 46.1088 20.2266H46.157C47.2181 20.2266 48.0863 21.0935 48.0863 22.153C48.0863 23.2125 47.2181 24.0794 46.157 24.0794ZM39.8385 24.0794H39.7903C38.7292 24.0794 37.861 23.2125 37.861 22.153C37.861 21.0935 38.7292 20.2266 39.7903 20.2266H39.8385C40.8996 20.2266 41.7678 21.0935 41.7678 22.153C41.7678 23.2125 40.8996 24.0794 39.8385 24.0794ZM33.52 24.0794C32.4589 24.0794 31.5907 23.2125 31.5907 22.153C31.5907 21.0935 32.4107 20.2266 33.52 20.2266H33.5683C34.6294 20.2266 35.4976 21.0935 35.4976 22.153C35.4976 23.2125 34.5812 24.0794 33.52 24.0794ZM27.2015 24.0794C26.1404 24.0794 25.2722 23.2125 25.2722 22.153C25.2722 21.0935 26.0922 20.2266 27.2015 20.2266H27.2498C28.3109 20.2266 29.1791 21.0935 29.1791 22.153C29.1791 23.2125 28.2627 24.0794 27.2015 24.0794ZM20.8831 24.0794H20.8348C19.7737 24.0794 18.9055 23.2125 18.9055 22.153C18.9055 21.0935 19.7737 20.2266 20.8348 20.2266H20.8831C21.9442 20.2266 22.8124 21.0935 22.8124 22.153C22.8124 23.2125 21.9442 24.0794 20.8831 24.0794ZM14.5646 24.0794H14.5163C13.4552 24.0794 12.587 23.2125 12.587 22.153C12.587 21.0935 13.4552 20.2266 14.5163 20.2266H14.5646C15.6257 20.2266 16.4939 21.0935 16.4939 22.153C16.4939 23.2125 15.6257 24.0794 14.5646 24.0794ZM8.2461 24.0794H8.19786C7.13674 24.0794 6.26855 23.2125 6.26855 22.153C6.26855 21.0935 7.13674 20.2266 8.19786 20.2266H8.2461C9.30722 20.2266 10.1754 21.0935 10.1754 22.153C10.1754 23.2125 9.30722 24.0794 8.2461 24.0794Z" fill="#C1E1ED"/>
<path d="M140.829 24.0794C139.768 24.0794 138.899 23.2125 138.899 22.153C138.899 21.0935 139.768 20.2266 140.829 20.2266C141.89 20.2266 142.758 21.0935 142.758 22.153C142.758 23.2125 141.89 24.0794 140.829 24.0794Z" fill="#C1E1ED"/>
<path d="M1.93028 17.3431C0.869165 17.3431 0.000976562 16.4762 0.000976562 15.4167C0.000976562 14.3571 0.869165 13.4902 1.93028 13.4902C2.9914 13.4902 3.85959 14.3571 3.85959 15.4167C3.85959 16.4762 2.9914 17.3431 1.93028 17.3431Z" fill="#C1E1ED"/>
<path d="M134.52 17.3402H134.472C133.411 17.3402 132.543 16.4733 132.543 15.4137C132.543 14.3542 133.411 13.4873 134.472 13.4873H134.52C135.581 13.4873 136.45 14.3542 136.45 15.4137C136.45 16.4733 135.581 17.3402 134.52 17.3402ZM128.202 17.3402H128.154C127.092 17.3402 126.224 16.4733 126.224 15.4137C126.224 14.3542 127.092 13.4873 128.154 13.4873H128.202C129.263 13.4873 130.131 14.3542 130.131 15.4137C130.131 16.4733 129.311 17.3402 128.202 17.3402ZM121.932 17.3402H121.883C120.822 17.3402 119.954 16.4733 119.954 15.4137C119.954 14.3542 120.822 13.4873 121.883 13.4873H121.932C122.993 13.4873 123.861 14.3542 123.861 15.4137C123.861 16.4733 122.993 17.3402 121.932 17.3402ZM115.613 17.3402H115.565C114.504 17.3402 113.636 16.4733 113.636 15.4137C113.636 14.3542 114.504 13.4873 115.565 13.4873H115.613C116.674 13.4873 117.542 14.3542 117.542 15.4137C117.542 16.4733 116.674 17.3402 115.613 17.3402ZM109.295 17.3402C108.233 17.3402 107.365 16.4733 107.365 15.4137C107.365 14.3542 108.185 13.4873 109.295 13.4873H109.343C110.404 13.4873 111.272 14.3542 111.272 15.4137C111.272 16.4733 110.356 17.3402 109.295 17.3402ZM102.976 17.3402C101.915 17.3402 101.047 16.4733 101.047 15.4137C101.047 14.3542 101.867 13.4873 102.976 13.4873H103.024C104.085 13.4873 104.954 14.3542 104.954 15.4137C104.954 16.4733 104.037 17.3402 102.976 17.3402ZM96.6576 17.3402H96.6094C95.5483 17.3402 94.6801 16.4733 94.6801 15.4137C94.6801 14.3542 95.5483 13.4873 96.6094 13.4873H96.6576C97.7187 13.4873 98.5869 14.3542 98.5869 15.4137C98.5869 16.4733 97.7187 17.3402 96.6576 17.3402ZM90.3391 17.3402H90.2909C89.2298 17.3402 88.3616 16.4733 88.3616 15.4137C88.3616 14.3542 89.2298 13.4873 90.2909 13.4873H90.3391C91.4003 13.4873 92.2684 14.3542 92.2684 15.4137C92.2684 16.4733 91.4003 17.3402 90.3391 17.3402ZM84.0207 17.3402H83.9724C82.9113 17.3402 82.0431 16.4733 82.0431 15.4137C82.0431 14.3542 82.9113 13.4873 83.9724 13.4873H84.0207C85.0818 13.4873 85.95 14.3542 85.95 15.4137C85.95 16.4733 85.0818 17.3402 84.0207 17.3402ZM77.7022 17.3402H77.6539C76.5928 17.3402 75.7246 16.4733 75.7246 15.4137C75.7246 14.3542 76.5928 13.4873 77.6539 13.4873H77.7022C78.7633 13.4873 79.6315 14.3542 79.6315 15.4137C79.6315 16.4733 78.7633 17.3402 77.7022 17.3402ZM71.3837 17.3402C70.3226 17.3402 69.4544 16.4733 69.4544 15.4137C69.4544 14.3542 70.2743 13.4873 71.3837 13.4873H71.4319C72.493 13.4873 73.3612 14.3542 73.3612 15.4137C73.3612 16.4733 72.4448 17.3402 71.3837 17.3402ZM65.0652 17.3402C64.0041 17.3402 63.1359 16.4733 63.1359 15.4137C63.1359 14.3542 63.9558 13.4873 65.0652 13.4873H65.1134C66.1745 13.4873 67.0427 14.3542 67.0427 15.4137C67.0427 16.4733 66.1263 17.3402 65.0652 17.3402ZM58.7467 17.3402H58.6985C57.6374 17.3402 56.7692 16.4733 56.7692 15.4137C56.7692 14.3542 57.6374 13.4873 58.6985 13.4873H58.7467C59.8078 13.4873 60.676 14.3542 60.676 15.4137C60.676 16.4733 59.8561 17.3402 58.7467 17.3402ZM52.4765 17.3402H52.4282C51.3671 17.3402 50.4989 16.4733 50.4989 15.4137C50.4989 14.3542 51.3671 13.4873 52.4282 13.4873H52.4765C53.5376 13.4873 54.4058 14.3542 54.4058 15.4137C54.4058 16.4733 53.5376 17.3402 52.4765 17.3402ZM46.158 17.3402H46.1097C45.0486 17.3402 44.1804 16.4733 44.1804 15.4137C44.1804 14.3542 45.0486 13.4873 46.1097 13.4873H46.158C47.2191 13.4873 48.0873 14.3542 48.0873 15.4137C48.0873 16.4733 47.2191 17.3402 46.158 17.3402ZM39.8395 17.3402H39.7913C38.7301 17.3402 37.862 16.4733 37.862 15.4137C37.862 14.3542 38.7301 13.4873 39.7913 13.4873H39.8395C40.9006 13.4873 41.7688 14.3542 41.7688 15.4137C41.7688 16.4733 40.9006 17.3402 39.8395 17.3402ZM33.521 17.3402C32.4599 17.3402 31.5917 16.4733 31.5917 15.4137C31.5917 14.3542 32.4117 13.4873 33.521 13.4873H33.5692C34.6304 13.4873 35.4985 14.3542 35.4985 15.4137C35.4985 16.4733 34.5821 17.3402 33.521 17.3402ZM27.2025 17.3402C26.1414 17.3402 25.2732 16.4733 25.2732 15.4137C25.2732 14.3542 26.0932 13.4873 27.2025 13.4873H27.2508C28.3119 13.4873 29.1801 14.3542 29.1801 15.4137C29.1801 16.4733 28.2636 17.3402 27.2025 17.3402ZM20.884 17.3402H20.8358C19.7747 17.3402 18.9065 16.4733 18.9065 15.4137C18.9065 14.3542 19.7747 13.4873 20.8358 13.4873H20.884C21.9452 13.4873 22.8133 14.3542 22.8133 15.4137C22.8133 16.4733 21.9452 17.3402 20.884 17.3402ZM14.5656 17.3402H14.5173C13.4562 17.3402 12.588 16.4733 12.588 15.4137C12.588 14.3542 13.4562 13.4873 14.5173 13.4873H14.5656C15.6267 13.4873 16.4949 14.3542 16.4949 15.4137C16.4949 16.4733 15.6267 17.3402 14.5656 17.3402ZM8.24707 17.3402H8.19884C7.13772 17.3402 6.26953 16.4733 6.26953 15.4137C6.26953 14.3542 7.13772 13.4873 8.19884 13.4873H8.24707C9.30819 13.4873 10.1764 14.3542 10.1764 15.4137C10.1764 16.4733 9.30819 17.3402 8.24707 17.3402Z" fill="#C1E1ED"/>
<path d="M140.829 17.3402C139.768 17.3402 138.899 16.4733 138.899 15.4137C138.899 14.3542 139.768 13.4873 140.829 13.4873C141.89 13.4873 142.758 14.3542 142.758 15.4137C142.758 16.4733 141.89 17.3402 140.829 17.3402Z" fill="#C1E1ED"/>
<path d="M1.92931 10.5951C0.868189 10.5951 0 9.72816 0 8.66862C0 7.60908 0.868189 6.74219 1.92931 6.74219C2.99043 6.74219 3.85862 7.60908 3.85862 8.66862C3.85862 9.72816 2.99043 10.5951 1.92931 10.5951Z" fill="#C1E1ED"/>
<path d="M134.518 10.597H134.47C133.409 10.597 132.541 9.73011 132.541 8.67057C132.541 7.61104 133.409 6.74414 134.47 6.74414H134.518C135.579 6.74414 136.448 7.61104 136.448 8.67057C136.448 9.73011 135.579 10.597 134.518 10.597ZM128.2 10.597H128.152C127.091 10.597 126.222 9.73011 126.222 8.67057C126.222 7.61104 127.091 6.74414 128.152 6.74414H128.2C129.261 6.74414 130.129 7.61104 130.129 8.67057C130.129 9.73011 129.309 10.597 128.2 10.597ZM121.93 10.597H121.881C120.82 10.597 119.952 9.73011 119.952 8.67057C119.952 7.61104 120.82 6.74414 121.881 6.74414H121.93C122.991 6.74414 123.859 7.61104 123.859 8.67057C123.859 9.73011 122.991 10.597 121.93 10.597ZM115.611 10.597H115.563C114.502 10.597 113.634 9.73011 113.634 8.67057C113.634 7.61104 114.502 6.74414 115.563 6.74414H115.611C116.672 6.74414 117.54 7.61104 117.54 8.67057C117.54 9.73011 116.672 10.597 115.611 10.597ZM109.293 10.597C108.232 10.597 107.363 9.73011 107.363 8.67057C107.363 7.61104 108.183 6.74414 109.293 6.74414H109.341C110.402 6.74414 111.27 7.61104 111.27 8.67057C111.27 9.73011 110.354 10.597 109.293 10.597ZM102.974 10.597C101.913 10.597 101.045 9.73011 101.045 8.67057C101.045 7.61104 101.865 6.74414 102.974 6.74414H103.022C104.084 6.74414 104.952 7.61104 104.952 8.67057C104.952 9.73011 104.035 10.597 102.974 10.597ZM96.6557 10.597H96.6074C95.5463 10.597 94.6781 9.73011 94.6781 8.67057C94.6781 7.61104 95.5463 6.74414 96.6074 6.74414H96.6557C97.7168 6.74414 98.585 7.61104 98.585 8.67057C98.585 9.73011 97.7168 10.597 96.6557 10.597ZM90.3372 10.597H90.2889C89.2278 10.597 88.3596 9.73011 88.3596 8.67057C88.3596 7.61104 89.2278 6.74414 90.2889 6.74414H90.3372C91.3983 6.74414 92.2665 7.61104 92.2665 8.67057C92.2665 9.73011 91.3983 10.597 90.3372 10.597ZM84.0187 10.597H83.9705C82.9093 10.597 82.0412 9.73011 82.0412 8.67057C82.0412 7.61104 82.9093 6.74414 83.9705 6.74414H84.0187C85.0798 6.74414 85.948 7.61104 85.948 8.67057C85.948 9.73011 85.0798 10.597 84.0187 10.597ZM77.7002 10.597H77.652C76.5909 10.597 75.7227 9.73011 75.7227 8.67057C75.7227 7.61104 76.5909 6.74414 77.652 6.74414H77.7002C78.7613 6.74414 79.6295 7.61104 79.6295 8.67057C79.6295 9.73011 78.7613 10.597 77.7002 10.597ZM71.3817 10.597C70.3206 10.597 69.4524 9.73011 69.4524 8.67057C69.4524 7.61104 70.2724 6.74414 71.3817 6.74414H71.43C72.4911 6.74414 73.3593 7.61104 73.3593 8.67057C73.3593 9.73011 72.4428 10.597 71.3817 10.597ZM65.0632 10.597C64.0021 10.597 63.1339 9.73011 63.1339 8.67057C63.1339 7.61104 63.9539 6.74414 65.0632 6.74414H65.1115C66.1726 6.74414 67.0408 7.61104 67.0408 8.67057C67.0408 9.73011 66.1244 10.597 65.0632 10.597ZM58.7448 10.597H58.6965C57.6354 10.597 56.7672 9.73011 56.7672 8.67057C56.7672 7.61104 57.6354 6.74414 58.6965 6.74414H58.7448C59.8059 6.74414 60.6741 7.61104 60.6741 8.67057C60.6741 9.73011 59.8541 10.597 58.7448 10.597ZM52.4745 10.597H52.4263C51.3652 10.597 50.497 9.73011 50.497 8.67057C50.497 7.61104 51.3652 6.74414 52.4263 6.74414H52.4745C53.5356 6.74414 54.4038 7.61104 54.4038 8.67057C54.4038 9.73011 53.5356 10.597 52.4745 10.597ZM46.156 10.597H46.1078C45.0467 10.597 44.1785 9.73011 44.1785 8.67057C44.1785 7.61104 45.0467 6.74414 46.1078 6.74414H46.156C47.2171 6.74414 48.0853 7.61104 48.0853 8.67057C48.0853 9.73011 47.2171 10.597 46.156 10.597ZM39.8375 10.597H39.7893C38.7282 10.597 37.86 9.73011 37.86 8.67057C37.86 7.61104 38.7282 6.74414 39.7893 6.74414H39.8375C40.8987 6.74414 41.7668 7.61104 41.7668 8.67057C41.7668 9.73011 40.8987 10.597 39.8375 10.597ZM33.5191 10.597C32.4579 10.597 31.5897 9.73011 31.5897 8.67057C31.5897 7.61104 32.4097 6.74414 33.5191 6.74414H33.5673C34.6284 6.74414 35.4966 7.61104 35.4966 8.67057C35.4966 9.73011 34.5802 10.597 33.5191 10.597ZM27.2006 10.597C26.1395 10.597 25.2713 9.73011 25.2713 8.67057C25.2713 7.61104 26.0912 6.74414 27.2006 6.74414H27.2488C28.3099 6.74414 29.1781 7.61104 29.1781 8.67057C29.1781 9.73011 28.2617 10.597 27.2006 10.597ZM20.8821 10.597H20.8339C19.7727 10.597 18.9045 9.73011 18.9045 8.67057C18.9045 7.61104 19.7727 6.74414 20.8339 6.74414H20.8821C21.9432 6.74414 22.8114 7.61104 22.8114 8.67057C22.8114 9.73011 21.9432 10.597 20.8821 10.597ZM14.5636 10.597H14.5154C13.4543 10.597 12.5861 9.73011 12.5861 8.67057C12.5861 7.61104 13.4543 6.74414 14.5154 6.74414H14.5636C15.6247 6.74414 16.4929 7.61104 16.4929 8.67057C16.4929 9.73011 15.6247 10.597 14.5636 10.597ZM8.24512 10.597H8.19689C7.13577 10.597 6.26758 9.73011 6.26758 8.67057C6.26758 7.61104 7.13577 6.74414 8.19689 6.74414H8.24512C9.30624 6.74414 10.1744 7.61104 10.1744 8.67057C10.1744 9.73011 9.30624 10.597 8.24512 10.597Z" fill="#C1E1ED"/>
<path d="M140.828 10.5951C139.767 10.5951 138.898 9.72816 138.898 8.66862C138.898 7.60908 139.767 6.74219 140.828 6.74219C141.889 6.74219 142.757 7.60908 142.757 8.66862C142.757 9.72816 141.889 10.5951 140.828 10.5951Z" fill="#C1E1ED"/>
<path d="M1.93028 3.85287C0.869165 3.85287 0.000976562 2.98597 0.000976562 1.92643C0.000976562 0.866895 0.869165 0 1.93028 0C2.9914 0 3.85959 0.866895 3.85959 1.92643C3.85959 2.98597 2.9914 3.85287 1.93028 3.85287Z" fill="#C1E1ED"/>
<path d="M134.519 3.85287H134.471C133.41 3.85287 132.542 2.98597 132.542 1.92643C132.542 0.866895 133.41 0 134.471 0H134.519C135.58 0 136.449 0.866895 136.449 1.92643C136.449 2.98597 135.58 3.85287 134.519 3.85287ZM128.201 3.85287H128.153C127.091 3.85287 126.223 2.98597 126.223 1.92643C126.223 0.866895 127.091 0 128.153 0H128.201C129.262 0 130.13 0.866895 130.13 1.92643C130.13 2.98597 129.31 3.85287 128.201 3.85287ZM121.931 3.85287H121.882C120.821 3.85287 119.953 2.98597 119.953 1.92643C119.953 0.866895 120.821 0 121.882 0H121.931C122.992 0 123.86 0.866895 123.86 1.92643C123.86 2.98597 122.992 3.85287 121.931 3.85287ZM115.612 3.85287H115.564C114.503 3.85287 113.635 2.98597 113.635 1.92643C113.635 0.866895 114.503 0 115.564 0H115.612C116.673 0 117.541 0.866895 117.541 1.92643C117.541 2.98597 116.673 3.85287 115.612 3.85287ZM109.294 3.85287C108.232 3.85287 107.364 2.98597 107.364 1.92643C107.364 0.866895 108.184 0 109.294 0H109.342C110.403 0 111.271 0.866895 111.271 1.92643C111.271 2.98597 110.355 3.85287 109.294 3.85287ZM102.975 3.85287C101.914 3.85287 101.046 2.98597 101.046 1.92643C101.046 0.866895 101.866 0 102.975 0H103.023C104.084 0 104.953 0.866895 104.953 1.92643C104.953 2.98597 104.036 3.85287 102.975 3.85287ZM96.6566 3.85287H96.6084C95.5473 3.85287 94.6791 2.98597 94.6791 1.92643C94.6791 0.866895 95.5473 0 96.6084 0H96.6566C97.7178 0 98.5859 0.866895 98.5859 1.92643C98.5859 2.98597 97.7178 3.85287 96.6566 3.85287ZM90.3382 3.85287H90.2899C89.2288 3.85287 88.3606 2.98597 88.3606 1.92643C88.3606 0.866895 89.2288 0 90.2899 0H90.3382C91.3993 0 92.2675 0.866895 92.2675 1.92643C92.2675 2.98597 91.3993 3.85287 90.3382 3.85287ZM84.0197 3.85287H83.9714C82.9103 3.85287 82.0421 2.98597 82.0421 1.92643C82.0421 0.866895 82.9103 0 83.9714 0H84.0197C85.0808 0 85.949 0.866895 85.949 1.92643C85.949 2.98597 85.0808 3.85287 84.0197 3.85287ZM77.7012 3.85287H77.653C76.5918 3.85287 75.7236 2.98597 75.7236 1.92643C75.7236 0.866895 76.5918 0 77.653 0H77.7012C78.7623 0 79.6305 0.866895 79.6305 1.92643C79.6305 2.98597 78.7623 3.85287 77.7012 3.85287ZM71.3827 3.85287C70.3216 3.85287 69.4534 2.98597 69.4534 1.92643C69.4534 0.866895 70.2734 0 71.3827 0H71.4309C72.4921 0 73.3603 0.866895 73.3603 1.92643C73.3603 2.98597 72.4438 3.85287 71.3827 3.85287ZM65.0642 3.85287C64.0031 3.85287 63.1349 2.98597 63.1349 1.92643C63.1349 0.866895 63.9549 0 65.0642 0H65.1125C66.1736 0 67.0418 0.866895 67.0418 1.92643C67.0418 2.98597 66.1253 3.85287 65.0642 3.85287ZM58.7457 3.85287H58.6975C57.6364 3.85287 56.7682 2.98597 56.7682 1.92643C56.7682 0.866895 57.6364 0 58.6975 0H58.7457C59.8069 0 60.675 0.866895 60.675 1.92643C60.675 2.98597 59.8551 3.85287 58.7457 3.85287ZM52.4755 3.85287H52.4272C51.3661 3.85287 50.4979 2.98597 50.4979 1.92643C50.4979 0.866895 51.3661 0 52.4272 0H52.4755C53.5366 0 54.4048 0.866895 54.4048 1.92643C54.4048 2.98597 53.5366 3.85287 52.4755 3.85287ZM46.157 3.85287H46.1088C45.0476 3.85287 44.1795 2.98597 44.1795 1.92643C44.1795 0.866895 45.0476 0 46.1088 0H46.157C47.2181 0 48.0863 0.866895 48.0863 1.92643C48.0863 2.98597 47.2181 3.85287 46.157 3.85287ZM39.8385 3.85287H39.7903C38.7292 3.85287 37.861 2.98597 37.861 1.92643C37.861 0.866895 38.7292 0 39.7903 0H39.8385C40.8996 0 41.7678 0.866895 41.7678 1.92643C41.7678 2.98597 40.8996 3.85287 39.8385 3.85287ZM33.52 3.85287C32.4589 3.85287 31.5907 2.98597 31.5907 1.92643C31.5907 0.866895 32.4107 0 33.52 0H33.5683C34.6294 0 35.4976 0.866895 35.4976 1.92643C35.4976 2.98597 34.5812 3.85287 33.52 3.85287ZM27.2015 3.85287C26.1404 3.85287 25.2722 2.98597 25.2722 1.92643C25.2722 0.866895 26.0922 0 27.2015 0H27.2498C28.3109 0 29.1791 0.866895 29.1791 1.92643C29.1791 2.98597 28.2627 3.85287 27.2015 3.85287ZM20.8831 3.85287H20.8348C19.7737 3.85287 18.9055 2.98597 18.9055 1.92643C18.9055 0.866895 19.7737 0 20.8348 0H20.8831C21.9442 0 22.8124 0.866895 22.8124 1.92643C22.8124 2.98597 21.9442 3.85287 20.8831 3.85287ZM14.5646 3.85287H14.5163C13.4552 3.85287 12.587 2.98597 12.587 1.92643C12.587 0.866895 13.4552 0 14.5163 0H14.5646C15.6257 0 16.4939 0.866895 16.4939 1.92643C16.4939 2.98597 15.6257 3.85287 14.5646 3.85287ZM8.2461 3.85287H8.19786C7.13674 3.85287 6.26855 2.98597 6.26855 1.92643C6.26855 0.866895 7.13674 0 8.19786 0H8.2461C9.30722 0 10.1754 0.866895 10.1754 1.92643C10.1754 2.98597 9.30722 3.85287 8.2461 3.85287Z" fill="#C1E1ED"/>
<path d="M140.829 3.85287C139.768 3.85287 138.899 2.98597 138.899 1.92643C138.899 0.866895 139.768 0 140.829 0C141.89 0 142.758 0.866895 142.758 1.92643C142.758 2.98597 141.89 3.85287 140.829 3.85287Z" fill="#C1E1ED"/>
</mask>
<g mask="url(#mask0)">
<path d="M56.5 5.20299C62.0692 1.9876 68.9308 1.9876 74.5 5.20299L116.689 29.5607C122.258 32.7761 125.689 38.7184 125.689 45.1491L125.689 93.8645C125.689 100.295 122.258 106.238 116.689 109.453L74.5 133.811C68.9308 137.026 62.0692 137.026 56.5 133.811L14.3112 109.453C8.74201 106.238 5.31123 100.295 5.31123 93.8645L5.31123 45.1491C5.31123 38.7184 8.74201 32.7761 14.3112 29.5607L56.5 5.20299Z" fill="#DDD0F2"/>
</g>
</svg>
