<svg width="153" height="120" viewBox="0 0 153 120" fill="none" xmlns="http://www.w3.org/2000/svg">
<path d="M6.57692 62.7907C2.07692 70.1163 0 77.7907 0 85.1163C0 104.651 15.2308 120 34.6154 120C54 120 69.2308 104.651 69.2308 85.1163C69.2308 69.7674 59.1923 57.5581 48.4615 53.0233L73.3846 0H46.0385L6.57692 62.7907ZM86.1923 62.7907C81.6923 70.1163 79.6154 77.7907 79.6154 85.1163C79.6154 104.651 94.8462 120 114.231 120C133.615 120 148.846 104.651 148.846 85.1163C148.846 69.7674 138.808 57.5581 128.077 53.0233L153 0H125.654L86.1923 62.7907Z" fill="#F6F6F9"/>
</svg>
