<svg width="61" height="61" viewBox="0 0 61 61" fill="none" xmlns="http://www.w3.org/2000/svg">
<rect x="1.38281" y="1.25879" width="59" height="59" rx="29.5" fill="white" stroke="#EAE7FB"/>
<path d="M40.7998 23.8502C36.8135 26.4815 37.2903 32.1716 41.4981 34.1205C41.3131 34.5958 41.1412 35.0817 40.9353 35.5517C40.2736 37.0705 39.3903 38.4512 38.2986 39.6779C37.0637 41.0666 35.7714 41.3188 34.07 40.6205C33.4578 40.3683 32.8246 40.1505 32.1785 40.0204C31.2979 39.8425 30.4355 40.0257 29.6069 40.3709C29.2604 40.5169 28.9139 40.6656 28.5622 40.7957C27.3689 41.2445 26.2928 41.0427 25.3445 40.1691C24.3023 39.2106 23.4998 38.0556 22.812 36.8262C21.3608 34.2347 20.5557 31.4547 20.699 28.4464C20.8084 26.1788 21.5484 24.1768 23.3435 22.7137C24.6045 21.6862 26.0531 21.1684 27.6763 21.4021C28.3068 21.4924 28.9113 21.7579 29.5262 21.9544C29.7659 22.0314 29.9978 22.1243 30.227 22.2278C30.8992 22.5305 31.5558 22.504 32.2436 22.2332C33.0774 21.9066 33.9189 21.5747 34.7865 21.3729C36.9803 20.8684 39.6118 21.9756 40.7998 23.8502Z" fill="black"/>
<path d="M36.1528 15.0082C36.515 17.8865 33.9304 21.1843 31.0879 20.9665C30.3975 18.5848 33.464 14.9631 36.1528 15.0082Z" fill="black"/>
</svg>
