<svg width="60" height="60" viewBox="0 0 60 60" fill="none" xmlns="http://www.w3.org/2000/svg">
<rect x="0.5" y="0.5" width="59" height="59" rx="29.5" fill="white" stroke="#EAE7FB"/>
<path d="M44.801 29.8116C44.801 38.0882 38.0892 44.8 29.8126 44.8C21.536 44.8 14.8242 38.0882 14.8242 29.8116C14.8242 21.535 21.536 14.8232 29.8126 14.8232C38.0892 14.8232 44.801 21.535 44.801 29.8116Z" fill="#4CAF50"/>
<path d="M29.8124 14.8232V29.8116L35.8078 32.8093L29.1807 44.8H29.8124C38.0957 44.8 44.8008 38.0949 44.8008 29.8116C44.8008 21.5283 38.0957 14.8232 29.8124 14.8232Z" fill="#FFC107"/>
<path d="M44.801 29.8116C44.801 38.0882 38.0892 44.8 29.8126 44.8C21.536 44.8 14.8242 38.0882 14.8242 29.8116C14.8242 21.535 21.536 14.8232 29.8126 14.8232C38.0892 14.8232 44.801 21.535 44.801 29.8116Z" fill="#4CAF50"/>
<path d="M29.8124 14.8232V29.8116L35.8078 32.8093L29.1807 44.8H29.8124C38.0957 44.8 44.8008 38.0949 44.8008 29.8116C44.8008 21.5283 38.0957 14.8232 29.8124 14.8232Z" fill="#FFC107"/>
<path d="M43.1816 23.0668H29.812V32.8093L27.5637 32.0599L17.1917 21.7629H17.1768C19.8297 17.5886 24.4986 14.8232 29.812 14.8232C35.6574 14.8232 40.716 18.1806 43.1816 23.0668Z" fill="#F44336"/>
<path d="M17.1904 21.7666L23.8175 32.9045L27.5639 32.0606L17.1904 21.7666Z" fill="#DD2C00"/>
<path d="M29.1807 44.7995L35.876 32.7646L32.8101 30.5605L29.1807 44.7995Z" fill="#558B2F"/>
<path d="M43.2006 23.0664H29.8122L28.6289 26.4987L43.2006 23.0664Z" fill="#F9A825"/>
<path d="M36.5559 29.8112C36.5559 33.535 33.535 36.5559 29.8112 36.5559C26.0873 36.5559 23.0664 33.535 23.0664 29.8112C23.0664 26.0873 26.0873 23.0664 29.8112 23.0664C33.535 23.0664 36.5559 26.0873 36.5559 29.8112Z" fill="white"/>
<path d="M35.0573 29.8104C35.0573 32.7084 32.7094 35.0563 29.8114 35.0563C26.9134 35.0563 24.5654 32.7084 24.5654 29.8104C24.5654 26.9124 26.9134 24.5645 29.8114 24.5645C32.7094 24.5645 35.0573 26.9124 35.0573 29.8104Z" fill="#2196F3"/>
</svg>
