<svg width="71"
     height="72"
     viewBox="0 0 71 72"
     fill="none"
     xmlns="http://www.w3.org/2000/svg">
  <path d="M49.1415 19.838C40.1964 10.8929 25.7362 10.8929 16.8584 19.838C7.91322 28.7831 7.91322 43.2433 16.8584 52.1212C25.8035 61.0663 40.2637 61.0663 49.1415 52.1212C58.0194 43.2433 58.0194 28.7831 49.1415 19.838ZM25.8707 43.0415C21.9699 39.1407 21.9699 32.8185 25.8707 28.9177C29.7716 25.0168 36.0938 25.0168 39.9946 28.9177C43.8955 32.8185 43.8955 39.1407 39.9946 43.0415C36.161 46.9424 29.7716 46.9424 25.8707 43.0415Z"
        fill="url(#paint0_radial)"/>
  <path d="M26.6107 40.2841L29.4355 43.1088C30.6461 44.3195 30.9152 46.0009 30.1081 47.077L22.8444 56.2911C21.9028 57.5017 19.9523 57.3 18.5399 55.9548L13.7647 51.1796C12.4196 49.8345 12.2178 47.8168 13.4284 46.8752L22.6426 39.6115C23.6514 38.8044 25.4001 39.0734 26.6107 40.2841Z"
        fill="#9888C4"/>
  <path opacity="0.1"
        d="M30.1079 47.0769L22.8441 56.2911L22.7769 56.3584C22.9787 56.4929 23.2477 56.5601 23.5167 56.6946C23.5167 56.6946 23.584 56.6946 23.584 56.6274L30.8477 47.4132C31.184 46.9424 31.3185 46.4044 31.3185 45.7318C31.1167 45.6645 30.8477 45.6645 30.6459 45.5973C30.5787 46.2026 30.3769 46.7407 30.1079 47.0769Z"
        fill="black"/>
  <path d="M39.7928 40.2841L36.968 43.1088C35.7574 44.3195 35.4884 46.0009 36.2954 47.077L43.5592 56.2911C44.5008 57.5017 46.4512 57.3 47.8636 55.9548L52.6388 51.1796C53.9839 49.8345 54.1857 47.8168 52.9751 46.8752L43.7609 39.6115C42.7521 38.8044 41.0034 39.0734 39.7928 40.2841Z"
        fill="#9888C4"/>
  <path opacity="0.1"
        d="M42.6177 38.6026C42.5504 38.8043 42.4832 38.9389 42.4159 39.1406C42.8867 39.1406 43.3575 39.2751 43.7611 39.6114L53.0425 46.8751C53.177 46.6734 53.3115 46.4044 53.3788 46.2026L44.2991 39.0734C43.8283 38.6698 43.223 38.5353 42.6177 38.6026Z"
        fill="black"/>
  <path d="M39.7928 32.0115L36.968 29.1868C35.7574 27.9761 35.4884 26.2947 36.2954 25.2186L43.5592 15.9372C44.5008 14.7266 46.4512 14.9283 47.8636 16.2735L52.6388 21.0487C53.984 22.3938 54.1857 24.4115 52.9751 25.3531L43.7609 32.6168C42.7521 33.4912 41.0034 33.1549 39.7928 32.0115Z"
        fill="#9888C4"/>
  <path opacity="0.1"
        d="M36.2957 25.1513L43.5594 15.9371C43.6266 15.8699 43.6266 15.8699 43.6939 15.8026C43.5594 15.7353 43.3576 15.6008 43.2231 15.5336L35.8921 24.815C35.5558 25.2185 35.4213 25.7566 35.4213 26.3619C35.5558 26.3619 35.6904 26.4291 35.8249 26.4291C35.8921 25.9583 36.0266 25.4876 36.2957 25.1513Z"
        fill="black"/>
  <path d="M26.6107 32.0114L29.4355 29.1866C30.6461 27.976 30.9152 26.2946 30.1081 25.2185L22.8444 15.9371C21.9028 14.7937 19.8851 14.9282 18.5399 16.2734L13.7647 21.0486C12.4196 22.3937 12.2178 24.4114 13.4284 25.353L22.6426 32.6167C23.6514 33.4911 25.4001 33.1548 26.6107 32.0114Z"
        fill="#9888C4"/>
  <path d="M15.5804 70.5495C15.4459 70.5495 15.3114 70.4822 15.3114 70.3477C15.0424 69.1371 14.1008 68.1955 12.8902 67.9264C12.7556 67.9264 12.6884 67.7919 12.6884 67.6574C12.6884 67.5229 12.7556 67.3884 12.8902 67.3884C14.1008 67.1194 15.0424 66.1778 15.3114 64.9672C15.3787 64.6981 15.8494 64.6981 15.9167 64.9672C16.1857 66.1778 17.1273 67.1194 18.3379 67.3884C18.4725 67.3884 18.5397 67.5229 18.5397 67.6574C18.5397 67.7919 18.4725 67.9264 18.3379 67.9264C17.1273 68.1955 16.1857 69.1371 15.9167 70.3477C15.8494 70.4149 15.7149 70.5495 15.5804 70.5495Z"
        fill="#DBD9E7"/>
  <path d="M7.03889 16.4752C6.90437 16.4752 6.76986 16.3407 6.7026 16.2062C6.36632 14.861 5.29022 13.7849 3.94508 13.4486C3.81057 13.3814 3.67606 13.2469 3.67606 13.1123C3.67606 12.9778 3.81057 12.8433 3.94508 12.7761C5.29022 12.4398 6.36632 11.3637 6.7026 10.0185C6.76986 9.74952 7.30791 9.74952 7.37517 10.0185C7.71145 11.3637 8.78756 12.4398 10.1327 12.7761C10.2672 12.8433 10.4017 12.9778 10.4017 13.1123C10.4017 13.2469 10.2672 13.3814 10.1327 13.4486C8.78756 13.7849 7.71145 14.861 7.37517 16.2062C7.30791 16.4079 7.1734 16.4752 7.03889 16.4752Z"
        fill="#DBD9E7"/>
  <path d="M66.4939 31.4734C66.2921 31.4734 66.1576 31.3389 66.0903 31.1371C65.6868 29.4557 64.3417 28.1106 62.6603 27.7071C62.4585 27.6398 62.324 27.5053 62.324 27.3035C62.324 27.1018 62.4585 26.9672 62.6603 26.9C64.3417 26.4964 65.6868 25.1513 66.0903 23.4699C66.1576 23.0664 66.8302 23.0664 66.8974 23.4699C67.301 25.1513 68.6461 26.4964 70.3275 26.9C70.5293 26.9672 70.6638 27.1018 70.6638 27.3035C70.6638 27.5053 70.5293 27.6398 70.3275 27.7071C68.6461 28.1106 67.301 29.4557 66.8974 31.1371C66.8974 31.3389 66.6957 31.4734 66.4939 31.4734Z"
        fill="#DBD9E7"/>
  <path opacity="0.1"
        d="M12.9577 26.0929L22.1718 33.3567C22.5081 33.6257 22.8444 33.7602 23.2479 33.7602C23.3152 33.4912 23.3824 33.2221 23.4497 33.0204C23.1807 32.9531 22.9116 32.8186 22.6426 32.6168L13.4284 25.3531C13.2939 25.2186 13.1594 25.0841 13.0249 24.8823C12.8904 25.1514 12.7559 25.4204 12.6214 25.6894C12.6886 25.8239 12.8231 25.9584 12.9577 26.0929Z"
        fill="black"/>
  <path d="M1.72568 50.238C2.73453 52.323 3.94515 54.3407 5.29028 56.2239"
        stroke="#DBD9E7"
        stroke-width="2"
        stroke-miterlimit="10"
        stroke-linecap="round"/>
  <path d="M32.9328 1.14062C26.0726 1.14062 19.6832 3.15832 14.3027 6.58841"
        stroke="#DBD9E7"
        stroke-width="2"
        stroke-miterlimit="10"
        stroke-linecap="round"/>
  <path d="M27.0142 69.5407C28.9646 69.8769 30.915 70.0787 32.9327 70.0787C51.9664 70.0787 67.3681 54.6769 67.3681 35.6433"
        stroke="#DBD9E7"
        stroke-width="2"
        stroke-miterlimit="10"
        stroke-linecap="round"/>
  <path d="M28.0231 41.6964L26.6107 40.284C25.4001 39.0734 23.7187 38.8044 22.6426 39.6115L13.4284 46.8752C12.2178 47.8168 12.4196 49.7672 13.7647 51.1796L16.186 53.6009L28.0231 41.6964Z"
        fill="url(#paint1_linear)"/>
  <path d="M28.0903 30.5319L29.5027 29.1195C30.7133 27.9089 30.9823 26.2275 30.1752 25.1514L22.9115 15.9372C21.9699 14.7266 20.0195 14.9283 18.6071 16.2735L16.1859 18.6947L28.0903 30.5319Z"
        fill="url(#paint2_linear)"/>
  <path d="M38.3806 30.6664L39.7929 32.0788C41.0036 33.2894 42.685 33.5584 43.7611 32.7513L52.9752 25.4876C54.1859 24.546 53.9841 22.5956 52.639 21.1832L50.2177 18.762L38.3806 30.6664Z"
        fill="url(#paint3_linear)"/>
  <path d="M38.3134 41.6964L36.9011 43.1088C35.6904 44.3194 35.4214 46.0008 36.2285 47.0769L43.4922 56.2911C44.4338 57.5017 46.3842 57.2999 47.7966 55.9548L50.1506 53.6008L38.3134 41.6964Z"
        fill="url(#paint4_linear)"/>
  <defs>
    <radialGradient id="paint0_radial"
                    cx="0"
                    cy="0"
                    r="1"
                    gradientUnits="userSpaceOnUse"
                    gradientTransform="translate(32.9688 35.9834) scale(22.8415)">
      <stop offset="0.1839"
            stop-color="#A8A8A8"/>
      <stop offset="0.833"
            stop-color="white"/>
      <stop offset="1"
            stop-color="#D1D1D1"/>
    </radialGradient>
    <linearGradient id="paint1_linear"
                    x1="6.36972"
                    y1="56.571"
                    x2="52.2038"
                    y2="21.4898"
                    gradientUnits="userSpaceOnUse">
      <stop offset="0.00115741"
            stop-color="white"
            stop-opacity="0.6"/>
      <stop offset="0.6215"
            stop-color="white"
            stop-opacity="0"/>
      <stop offset="1"
            stop-color="white"
            stop-opacity="0.4"/>
    </linearGradient>
    <linearGradient id="paint2_linear"
                    x1="16.1747"
                    y1="13.8211"
                    x2="34.3201"
                    y2="32.3698"
                    gradientUnits="userSpaceOnUse">
      <stop offset="0.00115741"
            stop-color="white"
            stop-opacity="0.6"/>
      <stop offset="1"
            stop-color="white"
            stop-opacity="0"/>
    </linearGradient>
    <linearGradient id="paint3_linear"
                    x1="54.5193"
                    y1="18.9121"
                    x2="40.4062"
                    y2="33.5629"
                    gradientUnits="userSpaceOnUse">
      <stop offset="0.00115741"
            stop-color="white"
            stop-opacity="0.6"/>
      <stop offset="1"
            stop-color="white"
            stop-opacity="0"/>
    </linearGradient>
    <linearGradient id="paint4_linear"
                    x1="48.0086"
                    y1="55.8181"
                    x2="33.3578"
                    y2="41.8394"
                    gradientUnits="userSpaceOnUse">
      <stop offset="0.00115741"
            stop-color="white"
            stop-opacity="0.6"/>
      <stop offset="1"
            stop-color="white"
            stop-opacity="0"/>
    </linearGradient>
  </defs>
</svg>
