<svg viewBox="0 0 16 20" fill="none" xmlns="http://www.w3.org/2000/svg">
  <path fill-rule="evenodd" clip-rule="evenodd" d="M.25 1.4118C.25.7896.7288.25 1.3963.25h9.0575c.3349 0 .6383.1552.8234.3476l4.359 4.5294c.185.1922.3228.494.3228.8142v12.647c0 .6222-.4788 1.1618-1.1463 1.1618H1.3963C.7288 19.75.25 19.2104.25 18.5882V1.4118zm1.5.3382v16.5h12.709V6.067L10.3045 1.75H1.75z" fill="#000"/>
  <path fill-rule="evenodd" clip-rule="evenodd" d="M8.1366 11.3355l3.1391-3.2117 1.0727 1.0485-3.6796 3.7647a.7499.7499 0 01-1.0767-.0042L3.969 9.1681l1.0808-1.0402 3.0867 3.2076z" fill="#000"/>
  <path fill-rule="evenodd" clip-rule="evenodd" d="M7.3822 12.4118V5h1.5v7.4118h-1.5zM11.359 15.5144H4.9055v-1.5h6.4535v1.5z" fill="#000"/>
</svg>
