<svg width="61" height="61" viewBox="0 0 61 61" fill="none" xmlns="http://www.w3.org/2000/svg">
<rect x="0.785156" y="1.25879" width="59" height="59" rx="29.5" fill="white" stroke="#EAE7FB"/>
<path d="M33.6066 22.4615C33.7857 22.379 33.9006 22.3315 33.9258 22.3211L33.9262 22.321C34.1054 22.2481 34.3064 22.3052 34.4265 22.4564C34.4569 22.4931 34.8553 22.9706 35.5132 23.393C36.1924 23.829 37.1392 24.2008 38.2394 23.9779L33.6066 22.4615ZM33.6066 22.4615C33.762 21.135 34.1857 19.8313 34.5814 18.84C34.7877 18.3231 34.986 17.8922 35.1337 17.589C35.2075 17.4375 35.2686 17.3178 35.3118 17.2354C35.3333 17.1941 35.3504 17.1622 35.3622 17.1402C35.3735 17.1195 35.3794 17.1088 35.3803 17.1071L35.3805 17.1069L35.3805 17.1069L35.3817 17.1047C35.4782 16.9312 35.4571 16.7119 35.3291 16.5623L35.3288 16.562C35.1989 16.4114 34.9883 16.3645 34.8099 16.4541C34.8098 16.4541 34.8097 16.4542 34.8096 16.4542L34.8546 16.5435M33.6066 22.4615L27.7747 32.2729C26.5184 30.9268 25.2194 29.5349 25.3955 27.3851C25.6136 24.7205 27.279 22.0822 30.3471 19.5432C32.6043 17.6751 34.7635 16.5891 34.8546 16.5435M34.8546 16.5435C34.9903 16.4753 35.1518 16.5099 35.2531 16.6273M34.8546 16.5435L35.2531 16.6273M21.0159 42.7615C24.0537 41.5228 26.5164 39.2043 27.6075 36.5662L27.6075 36.5662C28.214 35.1016 28.3098 33.7193 27.9029 32.5571L27.7024 32.342L27.7023 32.342L21.0159 42.7615ZM21.0159 42.7615C20.5323 42.9583 20.0876 43.1321 19.7628 43.2571C19.6004 43.3196 19.4681 43.3699 19.3758 43.4047L19.2689 43.4449C19.2479 43.4528 19.2359 43.4572 19.2324 43.4586L19.2313 43.459L19.2299 43.4594C19.0078 43.5415 18.8915 43.7876 18.9504 44.0169L18.9504 44.017C19.0024 44.219 19.1779 44.3588 19.3771 44.3588C19.4073 44.3588 19.4373 44.3551 19.4649 44.3495L19.4659 44.3493C19.9874 44.2375 23.2774 43.3187 26.4775 41.6104L26.4776 41.6104C26.6967 41.4934 26.9088 41.3755 27.1172 41.2568L27.1173 41.2569L27.1214 41.2543L27.1236 41.2529C31.0835 38.9968 33.2385 36.3682 33.4795 33.4236L33.3798 33.4154L33.4795 33.4235C33.6319 31.5611 32.6469 30.3268 31.5813 29.2199C31.9155 28.7336 32.4209 28.27 33.0017 27.8454C33.6078 27.4022 34.2906 27.0052 34.9343 26.6721C36.2217 26.0058 37.3453 25.5986 37.3684 25.5904L37.3684 25.5904L37.3705 25.5896L41.7728 23.9251C43.1471 23.4499 44.2362 22.9977 44.3516 22.9498L44.3572 22.9475L44.3584 22.947C44.583 22.8503 44.6901 22.5862 44.6071 22.3544C44.5236 22.1201 44.2745 21.9929 44.0422 22.0806L44.0422 22.0806L41.5466 23.0242C40.4996 23.3877 39.2863 23.7654 38.2394 23.9779L21.0159 42.7615ZM35.2531 16.6273C35.3536 16.7447 35.3708 16.9186 35.2943 17.0561L35.2531 16.6273ZM32.5982 33.3426L32.5982 33.3426C32.4536 35.1171 31.4906 36.6536 30.1329 37.9582C30.3787 37.4363 30.5537 36.8622 30.6048 36.2439L30.6048 36.2439C30.7638 34.2957 29.5173 32.9601 28.3475 31.7067L28.3347 31.693L28.3347 31.693C27.129 30.4013 26.0327 29.2187 26.1771 27.4534L26.1771 27.4533C26.3285 25.6 27.2875 23.8974 28.5351 22.4342C28.2708 23.0391 28.0735 23.6795 28.022 24.3081C27.826 26.7037 29.2659 28.1594 30.5065 29.4137L30.5173 29.4246C31.6804 30.6006 32.7348 31.6729 32.5982 33.3426ZM26.6691 40.4572L26.6162 40.4906C26.1738 40.7393 25.7279 40.9718 25.2862 41.1883C26.6753 39.9703 27.7682 38.5076 28.4193 36.9321C28.8504 35.8894 29.0563 34.8682 29.0325 33.9072C29.502 34.5913 29.7929 35.3131 29.7235 36.1648C29.6227 37.3979 28.8765 38.4629 28.1383 39.2288C27.4019 39.9929 26.686 40.4465 26.6691 40.4572ZM33.9748 23.3037C34.3863 23.7333 35.3382 24.5853 36.6579 24.8734C36.1466 25.076 35.2345 25.4612 34.2593 25.9876C33.0395 26.6459 31.7065 27.5327 30.943 28.5686C30.4048 28.0218 29.8988 27.4879 29.5231 26.8874C30.0961 25.9129 31.021 25.1018 31.9066 24.4875C32.7585 23.8966 33.5673 23.4925 33.9748 23.3037ZM31.2881 19.8317C32.2909 19.043 33.2522 18.4136 33.9702 17.9787C33.4506 19.1791 32.7891 21.0409 32.6776 22.9307C31.6052 23.5221 30.0704 24.5369 29.0724 25.9353C28.9234 25.4752 28.8559 24.9674 28.9033 24.3882C28.982 23.4285 29.4982 22.3781 30.0414 21.5162C30.5758 20.6682 31.128 20.0156 31.2881 19.8317Z" fill="#231F20" stroke="black" stroke-width="0.2"/>
</svg>
