<svg viewBox="0 0 58 58" fill="none" xmlns="http://www.w3.org/2000/svg">
  <path d="M57.6247 28.8124c0 15.9126-12.8997 28.8123-28.8123 28.8123C12.8997 57.6247 0 44.725 0 28.8124 0 12.8997 12.8997 0 28.8124 0 44.725 0 57.6247 12.8997 57.6247 28.8124z" fill="#F5F7F8"/>
  <path d="M42.5255 18.6662l-1.0863-1.5217-20.0596 11.5216-9.7039-5.5796c-.2172.6521-.3621 1.2318-.4345 1.884L21.4521 30.84l21.0734-12.1738z" fill="#1A9F29"/>
  <path d="M21.3863 33.0169l-10.4281-6.0144c-.0725.3623-.0725.7971-.0725 1.1594 0 9.4926 7.6763 17.2461 17.2354 17.2461 9.4866 0 17.2353-7.681 17.2353-17.2461 0-2.826-.6518-5.5072-1.8829-7.826l-22.0872 12.681z" fill="#1A9F29"/>
  <path d="M40.0768 15.6969c-.5069-.5072-1.0138-.8695-1.5208-1.3043L21.3931 24.32l-8.2555-4.7101c-.2897.5072-.5794 1.0869-.869 1.6666l9.0521 5.2173 18.7561-10.7969z" fill="#1A9F29"/>
  <path d="M36.8121 13.2313c-.6517-.3623-1.3035-.7247-2.0277-1.0145l-13.3972 7.7535-6.0106-3.4057c-.4345.4347-.7966.942-1.2311 1.4492l7.1693 4.1304 15.4973-8.9129z" fill="#1A9F29"/>
</svg>
