<svg width="263" height="202" viewBox="0 0 263 202" fill="none" xmlns="http://www.w3.org/2000/svg">
<line x1="0.75" y1="1.25" x2="262.25" y2="1.25" stroke="#9888C4" stroke-width="1.5" stroke-linecap="round" stroke-dasharray="0.01 10"/>
<line x1="0.75" y1="11.25" x2="262.25" y2="11.25" stroke="#9888C4" stroke-width="1.5" stroke-linecap="round" stroke-dasharray="0.01 10"/>
<line x1="0.75" y1="21.25" x2="262.25" y2="21.25" stroke="#9888C4" stroke-width="1.5" stroke-linecap="round" stroke-dasharray="0.01 10"/>
<line x1="0.75" y1="31.25" x2="262.25" y2="31.25" stroke="#9888C4" stroke-width="1.5" stroke-linecap="round" stroke-dasharray="0.01 10"/>
<line x1="0.75" y1="41.25" x2="262.25" y2="41.25" stroke="#9888C4" stroke-width="1.5" stroke-linecap="round" stroke-dasharray="0.01 10"/>
<line x1="0.75" y1="51.25" x2="262.25" y2="51.25" stroke="#9888C4" stroke-width="1.5" stroke-linecap="round" stroke-dasharray="0.01 10"/>
<line x1="0.75" y1="61.25" x2="262.25" y2="61.25" stroke="#9888C4" stroke-width="1.5" stroke-linecap="round" stroke-dasharray="0.01 10"/>
<line x1="0.75" y1="71.25" x2="262.25" y2="71.25" stroke="#9888C4" stroke-width="1.5" stroke-linecap="round" stroke-dasharray="0.01 10"/>
<line x1="0.75" y1="81.25" x2="262.25" y2="81.25" stroke="#9888C4" stroke-width="1.5" stroke-linecap="round" stroke-dasharray="0.01 10"/>
<line x1="0.75" y1="91.25" x2="262.25" y2="91.25" stroke="#9888C4" stroke-width="1.5" stroke-linecap="round" stroke-dasharray="0.01 10"/>
<line x1="0.75" y1="101.25" x2="262.25" y2="101.25" stroke="#9888C4" stroke-width="1.5" stroke-linecap="round" stroke-dasharray="0.01 10"/>
<line x1="0.75" y1="111.25" x2="262.25" y2="111.25" stroke="#9888C4" stroke-width="1.5" stroke-linecap="round" stroke-dasharray="0.01 10"/>
<line x1="0.75" y1="131.25" x2="262.25" y2="131.25" stroke="#9888C4" stroke-width="1.5" stroke-linecap="round" stroke-dasharray="0.01 10"/>
<line x1="0.75" y1="121.25" x2="262.25" y2="121.25" stroke="#9888C4" stroke-width="1.5" stroke-linecap="round" stroke-dasharray="0.01 10"/>
<line x1="0.75" y1="141.25" x2="262.25" y2="141.25" stroke="#9888C4" stroke-width="1.5" stroke-linecap="round" stroke-dasharray="0.01 10"/>
<line x1="0.75" y1="151.25" x2="262.25" y2="151.25" stroke="#9888C4" stroke-width="1.5" stroke-linecap="round" stroke-dasharray="0.01 10"/>
<line x1="0.75" y1="161.25" x2="262.25" y2="161.25" stroke="#9888C4" stroke-width="1.5" stroke-linecap="round" stroke-dasharray="0.01 10"/>
<line x1="0.75" y1="171.25" x2="262.25" y2="171.25" stroke="#9888C4" stroke-width="1.5" stroke-linecap="round" stroke-dasharray="0.01 10"/>
<line x1="0.75" y1="191.25" x2="262.25" y2="191.25" stroke="#9888C4" stroke-width="1.5" stroke-linecap="round" stroke-dasharray="0.01 10"/>
<line x1="0.75" y1="181.25" x2="262.25" y2="181.25" stroke="#9888C4" stroke-width="1.5" stroke-linecap="round" stroke-dasharray="0.01 10"/>
<line x1="0.75" y1="201.25" x2="262.25" y2="201.25" stroke="#9888C4" stroke-width="1.5" stroke-linecap="round" stroke-dasharray="0.01 10"/>
</svg>
