<svg viewBox="0 0 108 23" fill="none" xmlns="http://www.w3.org/2000/svg">
  <path fill-rule="evenodd" clip-rule="evenodd" d="M25.6228 8.766c0-2.3316 2.3737-3.475 4.6364-3.475 2.4181 0 4.3037 1.0986 4.7917 3.6768h-2.0853c-.3549-1.4797-1.6416-1.9056-2.8395-1.9056-.9539 0-2.3515.426-2.3515 1.6366 0 .964.7765 1.4348 1.8191 1.6366l1.5085.2915c2.1518.4259 4.1928 1.2106 4.1928 3.6992s-2.4403 3.7665-4.8583 3.7665c-2.9061 0-4.9026-1.6142-5.1467-4.327h2.1075c.3771 1.6815 1.442 2.5334 3.1501 2.5334 1.442 0 2.6177-.6726 2.6177-1.8608 0-1.2555-1.3532-1.6815-2.5068-1.9057l-1.4863-.2914c-1.9522-.3587-3.5494-1.3676-3.5494-3.475zM43.4805 13.2942c0-1.928-.9539-3.1387-2.3071-3.1387-1.3089 0-2.3515 1.0313-2.3515 3.1387 0 2.1075 1.0204 3.1612 2.3515 3.1612 1.3532 0 2.3071-1.2107 2.3071-3.1612zm-4.5477-3.3629c.5324-.8968 1.4863-1.4349 2.7064-1.4349 2.1519 0 3.9487 1.8609 3.9487 4.7978 0 2.9594-1.7968 4.8202-3.9487 4.8202-1.2201 0-2.1518-.538-2.7064-1.4348v1.2107h-2.0187V5.5146h2.0187v4.4167zM53.4848 12.3756c-.0444-1.4348-1.1314-2.3092-2.3071-2.3092-.9539 0-2.2406.5605-2.418 2.3092h4.7251zm-2.2627 4.0355c1.0426 0 1.8856-.4259 2.2405-1.2779h1.9744c-.4215 1.4573-1.7747 2.9594-4.1262 2.9594-2.9283 0-4.592-2.2644-4.592-4.8875 0-2.7576 1.8856-4.7305 4.4589-4.7305 2.7952 0 4.5255 2.2868 4.348 5.3807h-6.766c.1331 1.7263 1.3088 2.5558 2.4624 2.5558zM61.1832 10.716c-1.2644 0-1.9965.5156-1.9965 2.354v4.8202H57.168v-9.192h1.9743v1.6366c.4881-1.0313 1.3754-1.6366 2.4624-1.659.1553 0 .3772.0224.5324.0448v2.0402c-.3327-.0224-.6433-.0448-.9539-.0448zM68.6813 18.0926c-3.5716 0-5.6569-2.5783-5.6569-6.4569 0-3.901 2.2184-6.3671 5.7678-6.3671 2.7286 0 4.6586 1.5693 5.1467 4.327h-2.0631c-.3772-1.6815-1.5751-2.5559-3.1501-2.5559-1.9522 0-3.4829 1.6142-3.4829 4.596 0 3.0042 1.5085 4.6857 3.4607 4.6857 1.6638 0 2.8395-.8744 3.2166-2.5558h2.0631c-.5102 2.7576-2.4846 4.327-5.3019 4.327z" fill="#000"/>
  <mask id="a" maskUnits="userSpaceOnUse" x="0" y="0" width="108" height="23">
    <path fill-rule="evenodd" clip-rule="evenodd" d="M0 22.4194h107.88V.9864H0v21.433z" fill="#fff"/>
  </mask>
  <g mask="url(#a)" fill-rule="evenodd" clip-rule="evenodd">
    <path d="M75.6914 17.8903h2.0187V5.5146h-2.0187v12.3757zM86.2285 13.2948c0-2.1074-1.1313-3.1611-2.3958-3.1611s-2.418 1.0537-2.418 3.1611c0 2.1075 1.1313 3.1388 2.3958 3.1388s2.418-1.0089 2.418-3.1388zm-2.3958 4.7978c-2.2184 0-4.4811-1.4797-4.4811-4.7978 0-3.318 2.2627-4.8202 4.4811-4.8202 2.2184 0 4.4811 1.5021 4.4811 4.8202s-2.2849 4.7978-4.4811 4.7978zM92.8839 18.092c-2.1518 0-3.0392-1.4348-3.0392-3.6095V8.6982h2.0188v5.2911c0 1.2555.1774 2.4661 1.6637 2.4661 1.4864 0 2.0409-1.1882 2.0409-2.8473V8.6982h2.0188v9.1921h-2.0188v-1.2555c-.5324.9416-1.4641 1.4572-2.6842 1.4572zM101.314 13.2942c0 1.9505.953 3.1612 2.307 3.1612 1.308 0 2.351-1.0313 2.351-3.1612 0-2.1074-1.02-3.1387-2.351-3.1387-1.354 0-2.307 1.2107-2.307 3.1387zm6.566-7.7796v12.3757h-2.019v-1.2107c-.532.8968-1.486 1.4348-2.706 1.4348-2.152 0-3.9489-1.8608-3.9489-4.8202 0-2.9369 1.7969-4.7978 3.9489-4.7978 1.22 0 2.152.5381 2.706 1.4349V5.5146h2.019z" fill="#000"/>
    <path d="M8.0967 6.7702h1.7081V5.044H8.0967v1.7264zM8.0967 10.8513h1.7081V9.125H8.0967v1.7263z" fill="#03CE7E"/>
    <path d="M8.0967 12.5769h1.7081v-1.7263H8.0967v1.7263zM8.0967 8.4968h1.7081V6.7705H8.0967v1.7263zM8.0967 2.7126h1.7081V.9863H8.0967v1.7263zM4.0371 5.6052h1.7304V3.879H4.0593v1.7263H4.037zM4.0371 9.6404h1.7304V7.914H4.0593v1.7263H4.037zM4.0371 11.3894h1.7304V9.6631H4.0593v1.7263H4.037zM0 8.4968h1.7082V6.7705H0v1.7263zM0 12.5769h1.7082v-1.7263H0v1.7263zM12.1348 5.6052h1.7081V3.879h-1.7081v1.7263zM12.1348 9.6404h1.7081V7.914h-1.7081v1.7263zM12.1348 11.3894h1.7081V9.6631h-1.7081v1.7263zM16.1943 8.4968h1.7082V6.7705h-1.7082v1.7263zM8.0967 18.3611h1.7081v-1.7263H8.0967v1.7263z" fill="#03CE7E"/>
    <path d="M8.0967 14.281h1.7081v-1.7263H8.0967v1.7263zM8.0967 16.6355h1.7081v-1.7263H8.0967v1.7263zM8.0967 22.4197h1.7081v-1.7263H8.0967v1.7263zM12.1348 19.5271h1.7081v-1.7263h-1.7081v1.7263zM12.1348 15.4919h1.7081v-1.7263h-1.7081v1.7263zM12.1348 13.7654h1.7081v-1.7263h-1.7081v1.7263zM16.1943 16.6355h1.7082v-1.7263h-1.7082v1.7263zM4.0371 19.5271h1.7304v-1.7263H4.0593v1.7263H4.037zM4.0371 15.4919h1.7304v-1.7263H4.0593v1.7263H4.037zM4.0371 13.7654h1.7304v-1.7263H4.0593v1.7263H4.037zM0 16.6355h1.7082v-1.7263H0v1.7263zM16.1943 12.5769h1.7082v-1.7263h-1.7082v1.7263z" fill="#03CE7E"/>
  </g>
</svg>
