<svg viewBox="0 0 30 29" fill="none" xmlns="http://www.w3.org/2000/svg">
  <path fill-rule="evenodd" clip-rule="evenodd" d="M8.5 2c-.7477 0-1.4.6523-1.4 1.4v7.1c0 .7477.6523 1.4 1.4 1.4h13.3c.7477 0 1.4-.6523 1.4-1.4V3.4c0-.7477-.6523-1.4-1.4-1.4H8.5zM5.1 3.4C5.1 1.5477 6.6477 0 8.5 0h13.3c1.8523 0 3.4 1.5477 3.4 3.4v7.1c0 1.8523-1.5477 3.4-3.4 3.4H8.5c-1.8523 0-3.4-1.5477-3.4-3.4V3.4z" fill=""/>
  <path fill-rule="evenodd" clip-rule="evenodd" d="M10.9 7.7c.6628 0 1.2-.5373 1.2-1.2s-.5372-1.2-1.2-1.2c-.6627 0-1.2.5373-1.2 1.2s.5373 1.2 1.2 1.2zM19.3 7.8c.6627 0 1.2-.5373 1.2-1.2s-.5373-1.2-1.2-1.2-1.2.5372-1.2 1.2c0 .6627.5373 1.2 1.2 1.2z" fill=""/>
  <path fill-rule="evenodd" clip-rule="evenodd" d="M2 19.7928a1.039 1.039 0 00.0015.0293c.002.033.0067.0901.017.168.0209.1559.0644.3931.1551.6847.1807.5808.5493 1.3806 1.3075 2.1929C4.9807 24.4745 8.1725 26.3 15 26.3c6.8275 0 10.0193-1.8255 11.5189-3.4323.7582-.8123 1.1268-1.6121 1.3075-2.1929.0907-.2916.1342-.5288.155-.6847a2.3936 2.3936 0 00.0171-.168c.0009-.0147.0013-.0246.0015-.0293-.0042-.7447-.6547-1.3928-1.4-1.3928H3.4c-.7453 0-1.3958.6481-1.4 1.3928zM29 19.8h1c0-1.8523-1.5477-3.4-3.4-3.4H3.4c-1.8523 0-3.4 1.5477-3.4 3.4h1c-1 0-1 .0009-1 .0019V19.8087l.0002.0115.0007.0314c.0007.0245.002.0563.0044.0947.0048.0769.0139.1809.0308.3081.034.2543.0998.603.2278 1.0145.2568.8254.7632 1.9007 1.755 2.9634C4.0193 26.3755 7.8275 28.3 15 28.3c7.1725 0 10.9807-1.9245 12.9811-4.0677.9918-1.0627 1.4982-2.138 1.755-2.9634.128-.4115.1939-.7602.2278-1.0145a4.473 4.473 0 00.0308-.3081 3.105 3.105 0 00.0044-.0947l.0007-.0314.0002-.0115V19.8019c0-.001 0-.0019-1-.0019zM3 6.6c0-.5523.4477-1 1-1h1.3c.5523 0 1 .4477 1 1s-.4477 1-1 1H4c-.5523 0-1-.4477-1-1zM23.7 6.6c0-.5523.4477-1 1-1H26c.5523 0 1 .4477 1 1s-.4477 1-1 1h-1.3c-.5523 0-1-.4477-1-1z" fill=""/>
</svg>
