<svg viewBox="0 0 57 54" fill="none" xmlns="http://www.w3.org/2000/svg">
  <path fill-rule="evenodd" clip-rule="evenodd" d="M1.5 45.4h53.3v7.9H1.5v-7.9zm2 2v3.9h49.3v-3.9H3.5zM27.6376.1731a1 1 0 011.1248 0l27.2 18.5A.9999.9999 0 0155.4 20.5H1a1 1 0 01-.5624-1.8269l27.2-18.5zM4.2484 18.5h47.9032L28.2 2.2094 4.2484 18.5zM7.8 22H17v21.4H7.8V22zm2 2v17.4H15V24H9.8z" fill="#fff"/>
  <path fill-rule="evenodd" clip-rule="evenodd" d="M5.3 20.2c0-.9523.7477-1.7 1.7-1.7h11c.5468 0 .9741.2724 1.2399.5648.2537.279.4601.6843.4601 1.1352v2c0 .9523-.7477 1.7-1.7 1.7H7c-.9523 0-1.7-.7477-1.7-1.7v-2zm2 .3v1.4h10.4v-1.4H7.3zM5.9 43.9c0-1.3079 1.0044-2.5 2.5-2.5h8.1c1.3523 0 2.5 1.1477 2.5 2.5v.9c0 1.3079-1.0044 2.5-2.5 2.5H8.4c-1.308 0-2.5-1.0044-2.5-2.5v-.9zm2.1359-.3595c-.08.0837-.1359.2093-.1359.3595v.9c0 .1774.0636.2908.1405.3641.0837.0799.2093.1359.3595.1359h8.1c.1774 0 .2908-.0637.3642-.1405.0798-.0837.1358-.2093.1358-.3595v-.9c0-.2477-.2523-.5-.5-.5H8.4c-.1774 0-.2908.0636-.3641.1405zM39.8 22H49v21.4h-9.2V22zm2 2v17.4H47V24h-5.2z" fill="#fff"/>
  <path fill-rule="evenodd" clip-rule="evenodd" d="M37.3 20.2c0-.9523.7477-1.7 1.7-1.7h11c.5468 0 .9741.2724 1.2399.5648.2537.279.4601.6843.4601 1.1352v2c0 .9523-.7477 1.7-1.7 1.7H39c-.9523 0-1.7-.7477-1.7-1.7v-2zm2 .3v1.4h10.4v-1.4H39.3zM37.9 43.9c0-1.3079 1.0044-2.5 2.5-2.5h8.1c1.3523 0 2.5 1.1477 2.5 2.5v.9c0 1.3079-1.0044 2.5-2.5 2.5h-8.1c-1.3079 0-2.5-1.0044-2.5-2.5v-.9zm2.1358-.3595c-.0798.0837-.1358.2093-.1358.3595v.9c0 .1774.0636.2908.1405.3641.0837.0799.2093.1359.3595.1359h8.1c.1774 0 .2908-.0637.3641-.1405.0799-.0837.1359-.2093.1359-.3595v-.9c0-.2477-.2523-.5-.5-.5h-8.1c-.1774 0-.2908.0636-.3642.1405z" fill="#fff"/>
</svg>
