<svg width="24" height="23" viewBox="0 0 24 23" fill="none" xmlns="http://www.w3.org/2000/svg">
<path d="M13.6487 1L2.75772 11.7205C0.414094 14.0274 0.414094 17.8271 2.75772 20.2698C5.10134 22.5767 8.96143 22.5767 11.4429 20.2698L21.3688 10.4992C23.0232 8.87075 23.0232 6.1567 21.3688 4.39257C19.7145 2.76413 16.9573 2.76413 15.1651 4.39257L5.10134 14.2989C4.13632 15.2488 4.13632 16.8772 5.10134 17.9628C6.06636 18.9127 7.72069 18.9127 8.82357 17.9628L16.6816 10.2278" fill="#F6F6F9"/>
<path d="M13.6487 1L2.75772 11.7205C0.414094 14.0274 0.414094 17.8271 2.75772 20.2698C5.10134 22.5767 8.96143 22.5767 11.4429 20.2698L21.3688 10.4992C23.0232 8.87075 23.0232 6.1567 21.3688 4.39257C19.7145 2.76413 16.9573 2.76413 15.1651 4.39257L5.10134 14.2989C4.13632 15.2488 4.13632 16.8772 5.10134 17.9628C6.06636 18.9127 7.72069 18.9127 8.82357 17.9628L16.6816 10.2278" stroke="#887CBD" stroke-width="2" stroke-miterlimit="10"/>
</svg>
