<svg viewBox="0 0 50 49" fill="none" xmlns="http://www.w3.org/2000/svg">
  <path fill-rule="evenodd" clip-rule="evenodd" d="M0 1c0-.5523.4477-1 1-1h36.2c.5523 0 1 .4477 1 1v13.2c0 .5523-.4477 1-1 1s-1-.4477-1-1V2H2v44.2h35.1c.5523 0 1 .4477 1 1s-.4477 1-1 1H1c-.5523 0-1-.4477-1-1V1z" fill="#fff"/>
  <path fill-rule="evenodd" clip-rule="evenodd" d="M5.8 15.1c0-.5523.4477-1 1-1h23c.5523 0 1 .4477 1 1s-.4477 1-1 1h-23c-.5523 0-1-.4477-1-1zM5.8 9.1c0-.5523.4477-1 1-1h19c.5523 0 1 .4477 1 1s-.4477 1-1 1h-19c-.5523 0-1-.4477-1-1zM5.8 21.1c0-.5523.4477-1 1-1h11.5c.5523 0 1 .4477 1 1s-.4477 1-1 1H6.8c-.5523 0-1-.4477-1-1zM5.8 27.1c0-.5523.4477-1 1-1h5.3c.5523 0 1 .4477 1 1s-.4477 1-1 1H6.8c-.5523 0-1-.4477-1-1zM24.8 30.9c0-6.7523 5.5477-12.3 12.3-12.3 6.7465 0 12.3 5.4419 12.3 12.3 0 6.7523-5.5477 12.3-12.3 12.3-6.7523 0-12.3-5.5477-12.3-12.3zm12.3-10.3c-5.6477 0-10.3 4.6523-10.3 10.3s4.6523 10.3 10.3 10.3 10.3-4.6523 10.3-10.3c0-5.742-4.6465-10.3-10.3-10.3zm.6263 3.1436l5.508 2.6556c.1012.0488.1934.1143.2728.1937.2334.2334.5861.794.371 1.4514l-.3845 3.2683c-.5664 5.1904-4.6519 7.0154-6.2841 7.3652A1.0033 1.0033 0 0137 38.7h-.2a.993.993 0 01-.1521-.0117c-.8534-.1312-2.2789-.697-3.5633-1.8418-1.3122-1.1696-2.4976-2.9625-2.7783-5.5339l-.3995-3.3958A1.0139 1.0139 0 0129.9 27.8c0-.5233.2671-1.1016.8528-1.3945l.0129-.0063 5.5079-2.6556c.2413-.1632.5092-.2186.7264-.2186.2172 0 .485.0554.7263.2186zM37 25.6137l-5.0631 2.4412.3573 3.037c.2202 2.0261 1.1341 3.3818 2.1212 4.2616.9684.8632 1.9904 1.2526 2.4705 1.3465h.001c1.2334-.3024 4.195-1.7078 4.6189-5.6081l.001-.0088.367-3.1195L37 25.6137zm2.7071 3.5792c.3905.3905.3905 1.0237 0 1.4142l-2.8 2.8a1.0001 1.0001 0 01-1.4142 0l-1.3-1.3c-.3905-.3905-.3905-1.0237 0-1.4142.3905-.3906 1.0237-.3906 1.4142 0l.5929.5929 2.0929-2.0929c.3905-.3906 1.0237-.3906 1.4142 0z" fill="#fff"/>
</svg>
