<svg viewBox="0 0 49 52" fill="none" xmlns="http://www.w3.org/2000/svg">
  <path fill-rule="evenodd" clip-rule="evenodd" d="M19.4814 6.047C20.885 2.4887 24.3866 0 28.3996 0c4.3219 0 8.0107 2.7701 9.1588 6.748.2465-.0295.5001-.048.7412-.048 3.6523 0 6.6 2.9477 6.6 6.6 0 .9754-.2234 1.9552-.6405 2.8258 2.0827 1.1071 3.4417 3.2861 3.5398 5.8358a.9836.9836 0 01.0007.0384c0 3.6523-2.9477 6.6-6.6 6.6h-30.6c-4.761 0-8.5-3.8564-8.5-8.5 0-4.2644 3.158-7.8774 7.3-8.4275V11.6c0-3.6523 2.9477-6.6 6.6-6.6 1.3004 0 2.4868.3898 3.4818 1.047zM28.3996 2c-3.6257 0-6.7159 2.5667-7.4204 6.001a1 1 0 01-1.7195.4717C18.4321 7.5624 17.2934 7 15.9996 7c-2.5477 0-4.6 2.0523-4.6 4.6 0 .291.0021.4853.0702.7575a1.0002 1.0002 0 01-.9702 1.2425c-3.5303 0-6.4 2.9347-6.4 6.5 0 3.5564 2.861 6.5 6.5 6.5h30.6c2.5414 0 4.5898-2.0421 4.6-4.5809-.0917-2.1907-1.4282-3.8954-3.2912-4.4624a1.0001 1.0001 0 01-.4981-1.5706c.5559-.7149.8893-1.696.8893-2.6861 0-2.5477-2.0523-4.6-4.6-4.6-.3942 0-.9095.0831-1.2575.1701a.9999.9999 0 01-1.2275-.7977C35.2013 4.5677 32.1311 2 28.3996 2zM3.5 39.0996c-.8477 0-1.5.6523-1.5 1.5v5c0 .8994.7025 1.6 1.5 1.6h10.7c.8091 0 1.462-.697 1.4025-1.5287a.999.999 0 01-.0025-.0713v-5c0-.8477-.6523-1.5-1.5-1.5H3.5zm-3.5 1.5c0-1.9523 1.5477-3.5 3.5-3.5h10.6c1.9523 0 3.5 1.5477 3.5 3.5v4.9673c.1178 1.9519-1.4221 3.6327-3.4 3.6327H3.5c-2.0025 0-3.5-1.6993-3.5-3.6v-5zM38.3319 38.1317c-.0251.0251-.0321.0505-.0321.0679v11.4c0 .0175.007.0428.0321.0679.0251.0251.0505.0321.0679.0321h8.2c.0174 0 .0428-.007.0679-.0321.0251-.0251.0321-.0504.0321-.0679v-11.4c0-.0174-.007-.0428-.0321-.0679-.0251-.0251-.0505-.0321-.0679-.0321h-8.2c-.0174 0-.0428.007-.0679.0321zm-2.0321.0679c0-1.1523.9477-2.1 2.1-2.1h8.2c1.1523 0 2.1.9477 2.1 2.1v11.4c0 1.1523-.9477 2.1-2.1 2.1h-8.2c-1.1523 0-2.1-.9477-2.1-2.1v-11.4z" fill="#fff"/>
  <path fill-rule="evenodd" clip-rule="evenodd" d="M7.9004 50.7002v-2.5h2v2.5h-2z" fill="#fff"/>
  <path fill-rule="evenodd" clip-rule="evenodd" d="M4.4004 51c0-.5523.4477-1 1-1h7c.5523 0 1 .4477 1 1s-.4477 1-1 1h-7c-.5523 0-1-.4477-1-1zM26.7 41.7002c-.9389 0-1.7.7611-1.7 1.7s.7611 1.7 1.7 1.7 1.7-.7611 1.7-1.7-.7611-1.7-1.7-1.7zm-3.7 1.7c0-2.0435 1.6565-3.7 3.7-3.7s3.7 1.6565 3.7 3.7-1.6565 3.7-3.7 3.7-3.7-1.6565-3.7-3.7z" fill="#fff"/>
  <path fill-rule="evenodd" clip-rule="evenodd" d="M16.7002 42.4004h7.4v2h-7.4v-2zM37.3004 44.4004h-7.9v-2h7.9v2zM27.7002 27.4004v12.6h-2v-12.6h2z" fill="#fff"/>
  <path fill-rule="evenodd" clip-rule="evenodd" d="M47.0998 42.7998h-9.8v-2h9.8v2zM47.0998 47h-9.8v-2h9.8v2zM18.7002 23.9996c0-1.5177 1.2137-2.9 2.9-2.9h10.7c1.4825 0 2.9297 1.1948 2.8 2.9408v1.4592c0 1.5177-1.2138 2.9-2.9 2.9h-10.6c-1.5177 0-2.9-1.2137-2.9-2.9v-1.5zm2.9-.9c-.5138 0-.9.4177-.9.9v1.5c0 .5138.4177.9.9.9h10.6c.5137 0 .9-.4177.9-.9v-1.5c0-.0302.0014-.0604.0041-.0905.0388-.427-.3007-.8095-.8041-.8095h-10.7z" fill="#fff"/>
  <path fill-rule="evenodd" clip-rule="evenodd" d="M18.7002 18.6002c0-1.5177 1.2137-2.9 2.9-2.9h10.7c1.5106 0 2.9279 1.319 2.8 2.9439v1.4561c0 1.5177-1.2138 2.9-2.9 2.9h-10.6c-1.5177 0-2.9-1.2138-2.9-2.9v-1.5zm2.9-.9c-.5138 0-.9.4177-.9.9v1.5c0 .5137.4177.9.9.9h10.6c.5137 0 .9-.4177.9-.9v-1.5a.9735.9735 0 01.005-.0995c.0349-.3496-.3328-.8005-.805-.8005h-10.7z" fill="#fff"/>
  <path fill-rule="evenodd" clip-rule="evenodd" d="M18.7002 13.3004c0-1.5177 1.2137-2.9 2.9-2.9h10.7c1.4825 0 2.9297 1.1948 2.8 2.9408v1.4592c0 1.5177-1.2138 2.9-2.9 2.9h-10.6c-1.5177 0-2.9-1.2138-2.9-2.9v-1.5zm2.9-.9c-.5138 0-.9.4177-.9.9v1.5c0 .5137.4177.9.9.9h10.6c.5137 0 .9-.4177.9-.9v-1.5c0-.0302.0014-.0604.0041-.0905.0388-.427-.3007-.8095-.8041-.8095h-10.7z" fill="#fff"/>
  <path fill-rule="evenodd" clip-rule="evenodd" d="M22.2998 14c0-.5523.4477-1 1-1h.7c.5523 0 1 .4477 1 1s-.4477 1-1 1h-.7c-.5523 0-1-.4477-1-1zM21.9004 19.4004c0-.5523.4477-1 1-1h.7c.5523 0 1 .4477 1 1s-.4477 1-1 1h-.7c-.5523 0-1-.4477-1-1zM21.5996 24.7002c0-.5523.4477-1 1-1h.7c.5523 0 1 .4477 1 1s-.4477 1-1 1h-.7c-.5523 0-1-.4477-1-1z" fill="#fff"/>
</svg>
