<svg width="118" height="28" viewBox="0 0 118 28" fill="none" xmlns="http://www.w3.org/2000/svg">
<path d="M53.6855 3.70169H50.0012V0H53.6855V3.70169ZM53.6855 21.5458H50.0012V5.74237H53.6855V21.5458Z" fill="black"/>
<path d="M75.4088 21.5458V0.0474854H79.0931V21.5458H75.4088Z" fill="black"/>
<path d="M42.4891 0.0474854H45.8384V21.5458H42.4891V19.3153C41.1972 21.0712 39.4268 21.9255 37.0822 21.9255C34.929 21.9255 33.1587 21.1661 31.6275 19.6C30.0964 18.0339 29.3787 16.0882 29.3787 13.8577C29.3787 11.5797 30.1442 9.68138 31.6275 8.11528C33.1587 6.54918 34.929 5.78986 37.0822 5.78986C39.4268 5.78986 41.245 6.6441 42.4891 8.35257V0.0474854ZM37.6085 18.7458C38.9961 18.7458 40.1923 18.2712 41.1015 17.3695C42.0106 16.4204 42.4891 15.2339 42.4891 13.8577C42.4891 12.4339 42.0106 11.2949 41.1015 10.3458C40.1923 9.39664 38.9961 8.92206 37.6085 8.92206C36.2209 8.92206 35.0247 9.39664 34.1156 10.3458C33.2065 11.2475 32.728 12.4339 32.728 13.8577C32.728 15.2814 33.2065 16.4204 34.1156 17.3695C35.0247 18.3187 36.2209 18.7458 37.6085 18.7458Z" fill="black"/>
<path d="M84.5472 19.6C82.9682 18.0339 82.1548 16.1356 82.1548 13.8577C82.1548 11.5797 82.9682 9.68138 84.5472 8.11528C86.1262 6.54918 88.088 5.78986 90.3368 5.78986C92.6335 5.78986 94.5475 6.54918 96.1264 8.11528C97.7054 9.68138 98.5188 11.5797 98.5188 13.8577C98.5188 16.1356 97.7054 18.0339 96.1264 19.6C94.5475 21.1661 92.6335 21.9254 90.3368 21.9254C88.088 21.9254 86.1262 21.1661 84.5472 19.6ZM90.3368 18.6983C91.6766 18.6983 92.8249 18.2238 93.7819 17.3221C94.691 16.4204 95.1695 15.2339 95.1695 13.8577C95.1695 12.4814 94.691 11.2949 93.7819 10.3932C92.8728 9.49155 91.7244 9.01697 90.3368 9.01697C88.9971 9.01697 87.8487 9.49155 86.8918 10.3932C85.9826 11.2949 85.5042 12.4814 85.5042 13.8577C85.5042 15.2339 85.9826 16.4204 86.8918 17.3221C87.8487 18.2712 88.9971 18.6983 90.3368 18.6983Z" fill="black"/>
<path d="M113.735 5.74237V8.4C112.443 6.64407 110.673 5.74237 108.328 5.74237C106.127 5.74237 104.309 6.50169 102.778 8.06779C101.247 9.58644 100.529 11.4847 100.529 13.6678C100.529 15.8508 101.295 17.7017 102.778 19.2678C104.309 20.7864 106.127 21.5932 108.328 21.5932C110.625 21.5932 112.443 20.6915 113.735 18.9356V20.7864C113.735 23.4441 112.013 25.0102 109.142 25.0102C106.941 25.0102 105.41 24.2034 104.644 22.6373C104.644 22.5898 104.596 22.5424 104.596 22.4949H101.055C101.199 23.2542 101.39 23.9186 101.725 24.5356C101.725 24.583 101.773 24.583 101.773 24.6305C101.821 24.7254 101.869 24.7729 101.917 24.8203C103.304 27.0508 105.649 28 109.046 28C111.247 28 113.209 27.6203 114.74 26.3864C116.271 25.1525 117.372 23.1119 117.372 20.7864V20.0271V6.12203V5.74237H113.735ZM112.3 17.0847C111.391 17.9864 110.194 18.461 108.807 18.461C107.419 18.461 106.223 17.9864 105.266 17.0847C104.357 16.183 103.878 15.0441 103.878 13.6678C103.878 12.2915 104.357 11.1525 105.266 10.2508C106.223 9.34915 107.419 8.87457 108.807 8.87457C110.194 8.87457 111.391 9.34915 112.3 10.2508C113.257 11.1525 113.687 12.2915 113.735 13.6203V13.7627C113.687 15.0915 113.257 16.183 112.3 17.0847Z" fill="black"/>
<path d="M71.2456 12.861C71.3413 7.59325 68.2312 5.78986 64.212 5.78986C60.1927 5.78986 57.4175 7.87799 57.1783 11.2475H60.8147C60.9104 9.25426 62.2502 8.49494 64.0684 8.49494C65.8866 8.49494 67.5135 9.34918 67.5135 12.1966V11.8644C61.4368 12.4814 56.317 12.9085 56.317 16.9899C56.317 19.9797 58.853 21.9254 62.4894 21.9254C64.6904 21.9254 67.1307 21.0712 67.9441 20.0271V21.5458H71.1978L71.2456 12.861ZM67.657 15.0441C67.657 17.8441 66.0302 19.2204 63.3028 19.2204C61.4368 19.2204 60.2406 18.3661 60.2406 16.8949C60.2406 14.9966 62.3937 14.9017 67.657 14.3797V15.0441Z" fill="black"/>
<path d="M12.2013 0.332214C5.45469 0.332214 0 5.74238 0 12.4339C0 19.1254 5.45469 24.5356 12.2013 24.5356C18.9479 24.5356 24.4026 19.1254 24.4026 12.4339C24.4026 5.74238 18.9479 0.332214 12.2013 0.332214ZM17.2253 17.417L12.2013 22.4V19.4576C10.383 19.4576 8.56482 18.7458 7.17722 17.3695C4.40203 14.617 4.40203 10.1559 7.17722 7.4034C9.95241 4.65086 14.4501 4.65086 17.2253 7.4034C20.0005 10.2034 20.0005 14.6644 17.2253 17.417Z" fill="#887CBD"/>
</svg>
